<svg width="30" height="28" viewBox="0 0 30 28" fill="none" xmlns="http://www.w3.org/2000/svg">
<g clip-path="url(#clip0_46_1715)">
<g clip-path="url(#clip1_46_1715)">
<g clip-path="url(#clip2_46_1715)">
<path d="M6.29223 3.25885C5.26633 3.26007 4.28281 3.66815 3.55739 4.39357C2.83197 5.11899 2.42389 6.10252 2.42267 7.12841V21.641C2.42369 22.6672 2.83178 23.651 3.55739 24.3766C4.283 25.1022 5.26684 25.5103 6.293 25.5113H23.7072C24.7333 25.5103 25.7172 25.1022 26.4428 24.3766C27.1684 23.651 27.5765 22.6672 27.5775 21.641V7.12841C27.5765 6.10225 27.1684 5.11841 26.4428 4.3928C25.7172 3.66719 24.7333 3.2591 23.7072 3.25808L6.29223 3.25885ZM6.29223 0.840088H23.7072C24.533 0.840088 25.3507 1.00274 26.1136 1.31876C26.8765 1.63478 27.5698 2.09797 28.1537 2.6819C28.7376 3.26582 29.2008 3.95904 29.5168 4.72197C29.8328 5.48491 29.9955 6.30262 29.9955 7.12841V21.641C29.9955 23.3088 29.333 24.9082 28.1537 26.0875C26.9744 27.2668 25.3749 27.9293 23.7072 27.9293H6.29223C4.62446 27.9293 3.025 27.2668 1.84571 26.0875C0.666424 24.9082 0.00390625 23.3088 0.00390625 21.641L0.00390625 7.12841C0.00390625 5.46064 0.666424 3.86118 1.84571 2.6819C3.025 1.50261 4.62446 0.840088 6.29223 0.840088Z" fill="#02A4AC"/>
<mask id="mask0_46_1715" style="mask-type:luminance" maskUnits="userSpaceOnUse" x="6" y="8" width="18" height="13">
<path d="M23.3162 8.72559H6.68359V20.0447H23.3162V8.72559Z" fill="white"/>
</mask>
<g mask="url(#mask0_46_1715)">
<path d="M10.3516 8.72476H12.3052H12.9698C13.2207 8.71894 13.4646 8.80758 13.6533 8.97311C13.8419 9.13865 13.9615 9.369 13.9883 9.61854C14.0152 9.86808 13.9473 10.1186 13.7981 10.3205C13.649 10.5223 13.4295 10.6608 13.1831 10.7084C13.0747 10.721 12.9656 10.7261 12.8566 10.7238H8.91693C8.70131 10.7238 8.70054 10.7238 8.70054 10.941C8.70054 11.6941 8.70054 12.4472 8.70054 13.2004C8.70054 13.3436 8.74289 13.3875 8.88689 13.3867C10.1382 13.3821 11.3896 13.3867 12.6417 13.3867C12.8354 13.3767 13.0277 13.4245 13.1942 13.524C13.3606 13.6236 13.4937 13.7704 13.5766 13.9458C13.6492 14.0931 13.6842 14.2561 13.6785 14.4202C13.6728 14.5843 13.6265 14.7445 13.5439 14.8864C13.4612 15.0283 13.3447 15.1475 13.2048 15.2335C13.0648 15.3194 12.9058 15.3693 12.7418 15.3789C12.6648 15.3835 12.5878 15.3789 12.5108 15.3789H8.90923C8.69977 15.3789 8.699 15.3789 8.699 15.5822C8.699 16.3301 8.699 17.0779 8.699 17.8254C8.699 18.0379 8.699 18.0387 8.91924 18.0387C10.1552 18.0387 11.3911 18.0387 12.6271 18.0387C12.8018 18.0284 12.9761 18.0652 13.1318 18.1451C13.2875 18.225 13.419 18.3451 13.5127 18.493C13.6091 18.6403 13.6647 18.8105 13.6739 18.9863C13.6831 19.1621 13.6455 19.3372 13.5649 19.4938C13.4844 19.6503 13.3638 19.7827 13.2154 19.8775C13.067 19.9722 12.8962 20.0259 12.7203 20.0331C12.6479 20.0377 12.5747 20.0331 12.5023 20.0331C11.0377 20.0331 9.57328 20.0331 8.10913 20.0331C7.88246 20.045 7.65517 20.0316 7.43148 19.9931C7.21072 19.9378 7.01583 19.8079 6.87973 19.6255C6.74364 19.4431 6.67468 19.2194 6.68452 18.992C6.69145 18.3952 6.70069 17.7976 6.69992 17.2008C6.69761 16.2714 6.68375 15.335 6.68375 14.4009C6.68375 12.8608 6.70069 11.3168 6.69684 9.77436C6.69356 9.63399 6.71911 9.49443 6.77191 9.36433C6.82472 9.23423 6.90365 9.11634 7.00384 9.01796C7.10402 8.91959 7.22332 8.84281 7.35436 8.79237C7.4854 8.74194 7.6254 8.71893 7.76568 8.72476H10.3516Z" fill="#DBDBDB"/>
<path d="M17.3474 11.2328C17.4244 11.1997 17.4722 11.1828 17.5168 11.1604C18.127 10.8498 18.8069 10.7014 19.4911 10.7297C20.1752 10.7579 20.8406 10.9618 21.4231 11.3216C22.0056 11.6815 22.4857 12.1853 22.8171 12.7845C23.1486 13.3836 23.3201 14.058 23.3154 14.7427C23.3154 16.1558 23.3154 17.5681 23.3154 18.9781C23.3306 19.2137 23.2607 19.4469 23.1186 19.6354C22.9764 19.8239 22.7714 19.9552 22.5407 20.0053C22.3905 20.0392 22.2344 20.0378 22.0848 20.0015C21.9351 19.9652 21.7958 19.8948 21.6778 19.7958C21.5598 19.6969 21.4662 19.572 21.4043 19.431C21.3424 19.29 21.3139 19.1366 21.321 18.9827C21.3148 18.141 21.321 17.3001 21.321 16.4584C21.321 15.877 21.3163 15.2949 21.321 14.7135C21.3226 14.238 21.1534 13.7777 20.8442 13.4164C20.535 13.0551 20.1064 12.8169 19.6363 12.745C19.1662 12.6732 18.686 12.7725 18.283 13.025C17.88 13.2775 17.5811 13.6662 17.4406 14.1205C17.3817 14.3567 17.3542 14.5995 17.359 14.8429C17.3513 16.2089 17.359 17.575 17.3551 18.9411C17.3697 19.1472 17.3219 19.353 17.2179 19.5315C17.114 19.7101 16.9586 19.8532 16.7722 19.9422C16.6412 20.0044 16.4983 20.0374 16.3534 20.039C16.2084 20.0405 16.0648 20.0106 15.9326 19.9512C15.8003 19.8918 15.6825 19.8044 15.5874 19.695C15.4922 19.5856 15.422 19.4569 15.3815 19.3177C15.3502 19.2139 15.3326 19.1065 15.3291 18.9981C15.3291 16.3748 15.3324 13.7517 15.3391 11.1288C15.3296 10.983 15.3521 10.8368 15.4051 10.7006C15.4581 10.5643 15.5403 10.4414 15.646 10.3403C15.7516 10.2392 15.878 10.1625 16.0165 10.1156C16.1549 10.0686 16.3019 10.0525 16.4472 10.0685C16.6737 10.0916 16.8851 10.1925 17.0456 10.354C17.206 10.5154 17.3056 10.7275 17.3274 10.954C17.3343 11.0357 17.3413 11.1165 17.3513 11.2305" fill="#DBDBDB"/>
</g>
</g>
</g>
</g>
<defs>
<clipPath id="clip0_46_1715">
<rect width="30" height="27.09" fill="white" transform="translate(0 0.840088)"/>
</clipPath>
<clipPath id="clip1_46_1715">
<rect width="30" height="27.09" fill="white" transform="translate(0 0.840088)"/>
</clipPath>
<clipPath id="clip2_46_1715">
<rect width="29.9924" height="27.09" fill="white" transform="translate(0.00390625 0.840088)"/>
</clipPath>
</defs>
</svg>
