<svg width="150" height="59" viewBox="0 0 150 59" fill="none" xmlns="http://www.w3.org/2000/svg">
<g clip-path="url(#clip0_46_1493)">
<g clip-path="url(#clip1_46_1493)">
<g clip-path="url(#clip2_46_1493)">
<path d="M140.017 14.2871V22.0945H129.255L131.993 17.2381V14.2871H118.774V17.2381L121.512 22.0945H112.197L103.682 13.3645L100.977 15.8235L107.126 22.0927H102.346C102.394 22.1333 102.445 22.181 102.501 22.2305L102.81 22.5368C102.992 22.7213 103.638 23.3987 103.915 23.7369C103.959 23.7822 103.984 23.8428 103.984 23.9059C103.984 23.969 103.959 24.0296 103.915 24.0749L102.361 25.599H149.487V14.2863L140.017 14.2871ZM125.383 22.0945L123.292 17.7908H127.475L125.383 22.0945ZM146.133 22.0945H143.245V17.7908H146.133V22.0945ZM101.393 22.2613L101.589 22.0945H93.5662V14.2871H84.0974V22.0945H76.9043V25.5998H101.372C100.948 25.1996 100.525 24.7734 100.101 24.3213C100.047 24.2751 100.001 24.2184 99.9686 24.1547C99.9359 24.0909 99.9165 24.0213 99.9108 23.9499C99.9052 23.8784 99.9136 23.8067 99.9358 23.7386C99.9581 23.6705 99.9934 23.6075 100.04 23.5532C100.747 22.8769 101.147 22.4759 101.393 22.2613ZM90.2153 22.0945H87.3276V17.7908H90.2153V22.0945Z" fill="#005859"/>
<path d="M97.1729 11.6126V9.72217L76.9041 9.72217V11.6126L97.1729 11.6126Z" fill="#D2D2D2"/>
<path d="M137.101 11.6126V9.72217L111.736 9.72217V11.6126L137.101 11.6126Z" fill="#D2D2D2"/>
<path d="M144.201 7.58083L143.914 9.82643L139.839 9.85812L139.613 11.6178L149.174 11.6118L149.767 7.00073L144.201 7.58083ZM147.677 9.81565L145.647 9.80078L145.725 9.19416L147.789 8.96544L147.677 9.81565Z" fill="#005859"/>
<path d="M114.737 50.7276V48.8372H89.6422V50.7276H114.737Z" fill="#D2D2D2"/>
<path d="M149.999 50.7276V48.8372H133.732V50.7276H149.999Z" fill="#D2D2D2"/>
<path d="M92.3859 35.4655C92.4807 35.5657 92.6102 35.625 92.7481 35.6308C92.8859 35.6366 93.0212 35.5883 93.124 35.4963L94.8141 33.8054C94.855 33.7662 94.8798 33.7138 94.8857 33.6575C94.8915 33.6012 94.8772 33.5448 94.8451 33.4982C94.5688 33.16 93.8914 32.4527 93.7078 32.2681L93.4 31.9607C93.0309 31.6225 92.8158 31.5 92.7239 31.6227L92.2928 31.9918C92.0473 32.2072 91.6471 32.6372 90.9407 33.3162C90.8942 33.3706 90.8594 33.4335 90.8373 33.5016C90.8151 33.5697 90.8066 33.6415 90.8122 33.7129C90.8179 33.7842 90.8374 33.8539 90.87 33.9177C90.9026 33.9814 90.9474 34.0379 91.0019 34.0843C91.464 34.5752 91.9256 35.0357 92.3859 35.4655Z" fill="#005859"/>
<path d="M111.574 46.7632H102.472V28.5022H106.192L106.13 43.2567H111.689L111.545 43.3804C111.299 43.595 110.902 43.9985 110.193 44.6695C110.147 44.7241 110.111 44.7873 110.089 44.8556C110.067 44.9239 110.058 44.9957 110.064 45.0673C110.07 45.1388 110.089 45.2086 110.122 45.2725C110.155 45.3364 110.2 45.3932 110.255 45.4396C110.695 45.9081 111.135 46.3493 111.574 46.7632Z" fill="#005859"/>
<path d="M115.079 46.7631H112.465L113.758 45.4695C114.198 45.9101 114.639 46.3508 115.079 46.7631Z" fill="#005859"/>
<path d="M115.194 43.2568L115.049 43.3806C114.806 43.5951 114.466 43.9633 113.819 44.5779C113.513 44.2397 113.083 43.8097 112.959 43.6569L112.651 43.3487C112.615 43.3151 112.581 43.2852 112.549 43.2605L115.194 43.2568Z" fill="#005859"/>
<path d="M123.744 35.4495V46.7622H115.974L117.571 45.1924C117.615 45.1475 117.641 45.0866 117.641 45.0232C117.641 44.9597 117.615 44.899 117.571 44.8542C117.295 44.516 116.65 43.8397 116.464 43.656L116.158 43.3477C116.122 43.3142 116.087 43.2843 116.054 43.2596H119.994V35.4523L123.744 35.4495Z" fill="#005859"/>
<path d="M140.007 43.2577H132.353V35.6994H128.571V48.3145H124.852V52.0036H132.357V46.7659H143.762V28.6287H140.011L140.007 43.2577Z" fill="#005859"/>
<path d="M148.139 28.625H148.138C147.111 28.625 146.278 29.4575 146.278 30.4845V44.9027C146.278 45.9297 147.111 46.7622 148.138 46.7622H148.139C149.166 46.7622 149.998 45.9297 149.998 44.9027V30.4845C149.998 29.4575 149.166 28.625 148.139 28.625Z" fill="#005859"/>
<path d="M109.153 29.1574L108.857 31.409L121.448 31.3101L121.28 32.586L123.42 32.5612L123.875 29.1089L109.153 29.1574Z" fill="#D2D2D2"/>
<path d="M87.7528 35.3877H84.189V47.2867H80.5648V41.0891H76.876V50.7876H87.7528V46.7948H99.9006V37.0027H87.7528V35.3877ZM96.3368 40.7172V43.2577H87.7528V40.7172H96.3368Z" fill="#005859"/>
<path d="M25.1363 12.1538C25.2361 12.1568 25.335 12.1395 25.4278 12.1028C25.5206 12.066 25.6055 12.0107 25.6761 11.9402C25.7439 11.8727 25.7972 11.7925 25.8339 11.7042C25.8706 11.6158 25.89 11.5211 25.89 11.4254C25.89 11.3298 25.8706 11.235 25.8339 11.1467C25.7972 11.0584 25.7439 10.9782 25.6761 10.9107C25.5298 10.7735 25.3369 10.697 25.1363 10.697C24.9358 10.697 24.742 10.7735 24.5957 10.9107C24.5279 10.9782 24.4746 11.0584 24.4379 11.1467C24.4012 11.235 24.3818 11.3298 24.3818 11.4254C24.3818 11.5211 24.4012 11.6158 24.4379 11.7042C24.4746 11.7925 24.5279 11.8727 24.5957 11.9402C24.6664 12.0109 24.7511 12.0662 24.844 12.103C24.937 12.1397 25.0364 12.1571 25.1363 12.1538Z" fill="black"/>
<path d="M23.1765 12.1538C23.2762 12.1568 23.376 12.1395 23.4688 12.1028C23.5616 12.066 23.6456 12.0107 23.7163 11.9402C23.784 11.8727 23.8374 11.7925 23.8741 11.7042C23.9108 11.6158 23.9301 11.5211 23.9301 11.4254C23.9301 11.3298 23.9108 11.235 23.8741 11.1467C23.8374 11.0584 23.784 10.9782 23.7163 10.9107C23.57 10.7735 23.3771 10.697 23.1765 10.697C22.9759 10.697 22.7821 10.7735 22.6358 10.9107C22.5681 10.9782 22.5147 11.0584 22.478 11.1467C22.4414 11.235 22.4229 11.3298 22.4229 11.4254C22.4229 11.5211 22.4414 11.6158 22.478 11.7042C22.5147 11.7925 22.5681 11.8727 22.6358 11.9402C22.7065 12.0109 22.7912 12.0662 22.8842 12.103C22.9771 12.1397 23.0766 12.1571 23.1765 12.1538Z" fill="black"/>
<path d="M47.105 12.1539C47.2051 12.1566 47.305 12.1393 47.3982 12.1026C47.4914 12.0658 47.5761 12.0106 47.6474 11.9402C47.7163 11.8734 47.7712 11.7935 47.8086 11.7051C47.8461 11.6166 47.8647 11.5215 47.8647 11.4255C47.8647 11.3294 47.8461 11.2343 47.8086 11.1459C47.7712 11.0574 47.7163 10.9775 47.6474 10.9107C47.576 10.8404 47.4914 10.7853 47.3982 10.7486C47.305 10.7119 47.2051 10.6944 47.105 10.697C47.0069 10.6951 46.9089 10.7129 46.8179 10.7496C46.7268 10.7864 46.6449 10.8412 46.5756 10.9107C46.5066 10.9775 46.4518 11.0574 46.4143 11.1459C46.3769 11.2343 46.3574 11.3294 46.3574 11.4255C46.3574 11.5215 46.3769 11.6166 46.4143 11.7051C46.4518 11.7935 46.5066 11.8734 46.5756 11.9402C46.6448 12.0098 46.7268 12.0648 46.8179 12.1015C46.9089 12.1382 47.0069 12.1559 47.105 12.1539Z" fill="black"/>
<path d="M66.0248 9.39185H64.6063V16.9262H62.7731C62.612 16.9461 62.4483 16.9269 62.2963 16.87C62.1442 16.8131 62.0081 16.7204 61.8996 16.5997C61.7371 16.3549 61.6561 16.0651 61.6677 15.7714V9.39185H60.2234V16.2737C60.2312 16.4383 60.1992 16.6022 60.1294 16.7514C60.091 16.8131 60.0354 16.8626 59.9698 16.8939C59.9043 16.9252 59.8315 16.9371 59.7594 16.9282H49.4112C49.1164 16.9338 48.8215 16.921 48.5282 16.89C48.98 16.4994 49.3471 16.021 49.6078 15.4836C49.7773 15.1123 49.8708 14.7109 49.8837 14.303C49.8785 14.1271 49.8265 13.9557 49.7328 13.8067C49.6171 13.6193 49.463 13.4589 49.2801 13.3361C49.0462 13.1788 48.7872 13.0619 48.5144 12.9908C48.1537 12.8966 47.7818 12.8524 47.409 12.8593C47.1306 12.8597 46.8534 12.8894 46.5812 12.9477C46.3056 13.0062 46.0349 13.0859 45.7715 13.1861C45.5135 13.2844 45.2629 13.4024 45.0231 13.5392C44.8024 13.6642 44.5925 13.8072 44.3953 13.9667L44.4471 14.9715C44.496 15.1055 44.559 15.2338 44.635 15.3545C44.7233 15.5099 44.8365 15.6734 44.961 15.8447C45.0855 16.016 45.2256 16.1907 45.3757 16.3655C45.5181 16.5327 45.6691 16.6922 45.8284 16.8433C45.7083 16.8718 45.5864 16.8928 45.4637 16.906C45.301 16.9241 45.1376 16.9327 44.9739 16.9316H26.6013V15.4377C26.6056 15.0934 26.5481 14.751 26.4323 14.4267C26.3264 14.1304 26.1597 13.8596 25.9425 13.6319C25.7262 13.4086 25.4652 13.2332 25.1768 13.1171C24.863 12.9929 24.5278 12.9311 24.1903 12.9352C23.8175 12.9308 23.4488 13.0103 23.1108 13.1676C22.7895 13.3186 22.5029 13.5344 22.2692 13.8016C22.0298 14.0774 21.8428 14.3944 21.7173 14.7373C21.582 15.0966 21.513 15.4777 21.5147 15.8615C21.5153 16.1732 21.5662 16.4826 21.6656 16.7779C21.7673 17.0806 21.9352 17.3571 22.1562 17.5876C22.4027 17.8399 22.6995 18.0368 23.028 18.1651C23.4428 18.3221 23.8849 18.3968 24.3283 18.385H44.9739C45.3436 18.3839 45.7121 18.3418 46.0725 18.2595C46.4363 18.1794 46.7856 18.0437 47.1081 17.8571C47.3836 18.0056 47.6746 18.1239 47.9755 18.2102C48.433 18.3383 48.9069 18.3978 49.3819 18.3867H59.8164C60.1346 18.3944 60.4498 18.3232 60.7338 18.1794C60.994 18.0407 61.2052 17.8246 61.3374 17.5611C61.4662 17.7837 61.6391 17.9778 61.8453 18.1315C62.099 18.3134 62.4061 18.4042 62.7179 18.3893H66.0205L66.0248 9.39185ZM25.1733 16.9262H24.2904C24.1185 16.9269 23.9472 16.9038 23.7816 16.8575C23.6226 16.8139 23.4746 16.7367 23.3479 16.6313C23.2186 16.5217 23.1159 16.3846 23.047 16.2297C22.9667 16.0412 22.9282 15.8376 22.934 15.6328C22.931 15.4479 22.9652 15.2641 23.034 15.0924C23.0964 14.9412 23.186 14.803 23.2987 14.6845C23.4042 14.5732 23.53 14.4832 23.6695 14.4196C23.8052 14.3573 23.953 14.3251 24.1024 14.3252C24.2564 14.3167 24.4101 14.3474 24.549 14.4144C24.688 14.4814 24.8073 14.5824 24.8965 14.7082C25.0965 15.0383 25.1913 15.4217 25.1673 15.8068L25.1733 16.9262ZM48.4179 14.9926C48.3433 15.157 48.2505 15.3129 48.1419 15.4571C48.0167 15.6251 47.8761 15.7805 47.7211 15.9215C47.6941 16.0335 47.6293 16.133 47.5383 16.2037C47.4474 16.2744 47.3353 16.312 47.2201 16.3106C47.1049 16.3091 46.9937 16.2686 46.9046 16.1957C46.8154 16.1227 46.7538 16.0218 46.7295 15.9092C46.5741 15.7502 46.4294 15.5867 46.2958 15.419C46.1622 15.2512 46.0493 15.0965 45.9569 14.9546C45.8861 14.8506 45.8234 14.7413 45.7689 14.6278C46.0038 14.4945 46.2579 14.3993 46.5226 14.3454C46.8119 14.2765 47.1081 14.2406 47.4055 14.2385C47.5392 14.2385 47.6712 14.2447 47.8013 14.2571C47.9202 14.2681 48.0376 14.287 48.154 14.3135C48.2482 14.3323 48.3387 14.3686 48.4196 14.4205C48.4495 14.4377 48.4744 14.4623 48.492 14.492C48.5096 14.5217 48.5188 14.5554 48.5196 14.5899C48.5138 14.7295 48.4796 14.8672 48.4179 14.9926Z" fill="black"/>
<path d="M25.6761 26.9004C25.7439 26.8329 25.7972 26.7527 25.8339 26.6644C25.8706 26.576 25.89 26.4813 25.89 26.3856C25.89 26.29 25.8706 26.1952 25.8339 26.1069C25.7972 26.0186 25.7439 25.9384 25.6761 25.8709C25.5298 25.7337 25.3369 25.6572 25.1363 25.6572C24.9358 25.6572 24.742 25.7337 24.5957 25.8709C24.5279 25.9384 24.4746 26.0186 24.4379 26.1069C24.4012 26.1952 24.3818 26.29 24.3818 26.3856C24.3818 26.4813 24.4012 26.576 24.4379 26.6644C24.4746 26.7527 24.5279 26.8329 24.5957 26.9004C24.7419 27.0378 24.9357 27.1143 25.1363 27.1143C25.337 27.1143 25.5299 27.0378 25.6761 26.9004Z" fill="black"/>
<path d="M23.1765 27.1141C23.2762 27.1171 23.376 27.0997 23.4688 27.063C23.5616 27.0262 23.6457 26.9709 23.7163 26.9004C23.784 26.8329 23.8374 26.7527 23.8741 26.6644C23.9108 26.576 23.9301 26.4813 23.9301 26.3856C23.9301 26.29 23.9108 26.1952 23.8741 26.1069C23.8374 26.0186 23.784 25.9384 23.7163 25.8709C23.57 25.7337 23.3771 25.6572 23.1765 25.6572C22.9759 25.6572 22.7821 25.7337 22.6358 25.8709C22.5681 25.9384 22.5147 26.0186 22.478 26.1069C22.4414 26.1952 22.4229 26.29 22.4229 26.3856C22.4229 26.4813 22.4414 26.576 22.478 26.6644C22.5147 26.7527 22.5681 26.8329 22.6358 26.9004C22.7065 26.9711 22.7912 27.0264 22.8842 27.0632C22.9771 27.0999 23.0766 27.1173 23.1765 27.1141Z" fill="black"/>
<path d="M21.7212 29.6949C21.5859 30.0542 21.5169 30.4351 21.5186 30.8189C21.5192 31.1306 21.571 31.4402 21.6703 31.7355C21.772 32.0383 21.939 32.3148 22.1601 32.5452C22.4065 32.7978 22.7042 32.995 23.0327 33.1236C23.4476 33.2806 23.8888 33.3553 24.3322 33.3435H34.7934C35.1133 33.352 35.4293 33.2693 35.704 33.1051C35.9494 32.9561 36.1542 32.7489 36.3007 32.5019C36.4302 32.726 36.6029 32.9223 36.8086 33.0794C37.0641 33.2658 37.3756 33.3593 37.6915 33.3443H43.267V28.3466H41.8357V31.8873H37.7286C37.5688 31.9061 37.4067 31.8862 37.2561 31.8293C37.1055 31.7725 36.9713 31.6804 36.8637 31.5607C36.6968 31.3177 36.6127 31.0271 36.6249 30.7325V28.3485H35.1926V31.2367C35.2001 31.4008 35.1685 31.5642 35.0995 31.7133C35.061 31.7751 35.0048 31.8245 34.9391 31.8558C34.8734 31.8871 34.8001 31.8991 34.7279 31.8901H26.6052V30.3951C26.6095 30.0508 26.5521 29.7084 26.4362 29.3841C26.3303 29.0878 26.1636 28.8172 25.9464 28.5895C25.7301 28.3662 25.4691 28.1908 25.1807 28.0747C24.8669 27.9504 24.5317 27.8886 24.1942 27.8928C23.8214 27.8884 23.4527 27.9677 23.1147 28.1249C22.7934 28.276 22.5068 28.4918 22.2731 28.7589C22.0337 29.0348 21.8467 29.352 21.7212 29.6949ZM23.0388 30.0526C23.1012 29.9015 23.1909 29.763 23.3035 29.6445C23.4091 29.5334 23.5349 29.4436 23.6743 29.3798C23.81 29.3175 23.9578 29.2851 24.1072 29.2851C24.2612 29.2767 24.4148 29.3074 24.5538 29.3744C24.6928 29.4414 24.812 29.5426 24.9013 29.6684C25.1013 29.9984 25.1962 30.3816 25.1721 30.7668V31.8847H24.2891C24.1172 31.8854 23.9459 31.8623 23.7803 31.8159C23.6214 31.7723 23.4734 31.6951 23.3466 31.5898C23.2174 31.4801 23.1147 31.3428 23.0457 31.188C22.9654 30.9995 22.9269 30.7959 22.9327 30.5911C22.9319 30.4063 22.9681 30.2233 23.0388 30.0526Z" fill="black"/>
<path d="M36.3383 34.4047C36.2691 34.4708 36.2146 34.5505 36.1779 34.6388C36.1411 34.7271 36.1226 34.8221 36.1244 34.9178C36.1212 35.0161 36.1385 35.1139 36.1753 35.2051C36.2121 35.2964 36.2677 35.3789 36.3383 35.4474C36.4859 35.5819 36.6783 35.6565 36.878 35.6565C37.0778 35.6565 37.2702 35.5819 37.4178 35.4474C37.4884 35.3789 37.544 35.2964 37.5808 35.2051C37.6176 35.1139 37.6349 35.0161 37.6317 34.9178C37.6335 34.8221 37.6159 34.7271 37.5791 34.6388C37.5423 34.5505 37.487 34.4708 37.4178 34.4047C37.2701 34.2704 37.0777 34.196 36.878 34.196C36.6784 34.196 36.486 34.2704 36.3383 34.4047Z" fill="black"/>
<path d="M34.3882 34.4049C34.3191 34.4711 34.2644 34.5507 34.2278 34.639C34.1912 34.7273 34.1732 34.8224 34.1752 34.918C34.1719 35.0162 34.1894 35.1141 34.2261 35.2053C34.2627 35.2966 34.3178 35.379 34.3882 35.4476C34.536 35.5822 34.7281 35.657 34.928 35.657C35.1279 35.657 35.3208 35.5822 35.4686 35.4476C35.5392 35.3791 35.5948 35.2966 35.6316 35.2053C35.6684 35.1141 35.6857 35.0163 35.6825 34.918C35.6843 34.8223 35.6658 34.7273 35.629 34.639C35.5922 34.5507 35.5378 34.471 35.4686 34.4049C35.3207 34.2705 35.1278 34.196 34.928 34.196C34.7281 34.196 34.5361 34.2705 34.3882 34.4049Z" fill="black"/>
<path d="M42.8881 34.4048C42.8181 34.3366 42.735 34.283 42.6441 34.2472C42.5531 34.2115 42.4564 34.1942 42.3586 34.1964C42.2591 34.1934 42.1601 34.2104 42.0672 34.2462C41.9743 34.2819 41.889 34.3359 41.8171 34.4048C41.7469 34.4703 41.6917 34.5499 41.6542 34.6383C41.6166 34.7267 41.5974 34.8219 41.599 34.9179C41.5959 35.0166 41.614 35.1148 41.6516 35.2061C41.6892 35.2974 41.7454 35.3796 41.8171 35.4475C41.8889 35.5166 41.9743 35.5707 42.0672 35.6066C42.1601 35.6426 42.2591 35.6597 42.3586 35.6569C42.4564 35.6589 42.5531 35.6415 42.6441 35.6056C42.735 35.5696 42.8181 35.5159 42.8881 35.4475C42.9598 35.3796 43.0169 35.2974 43.0545 35.2061C43.0921 35.1148 43.1094 35.0166 43.1062 34.9179C43.1078 34.8219 43.0895 34.7267 43.0519 34.6383C43.0144 34.5499 42.9583 34.4703 42.8881 34.4048Z" fill="black"/>
<path d="M61.2769 31.8856H58.8047C58.5099 31.8913 58.215 31.8787 57.9217 31.8476C58.3734 31.4567 58.7408 30.9782 59.0022 30.441C59.1717 30.0697 59.266 29.6685 59.279 29.2606C59.2742 29.0846 59.2221 28.9131 59.1281 28.7643C59.0128 28.5769 58.858 28.4165 58.6754 28.2937C58.4412 28.1362 58.1828 28.0194 57.9097 27.9484C57.5489 27.8542 57.177 27.81 56.8042 27.8169C56.5261 27.8175 56.2484 27.8469 55.9764 27.9051C55.7005 27.9636 55.4296 28.0433 55.1659 28.1435C54.9082 28.2418 54.6587 28.3601 54.4191 28.4968C54.1984 28.6213 53.9885 28.7638 53.7914 28.9232L53.8414 29.928C53.8908 30.0618 53.9537 30.1903 54.0294 30.3112C54.1218 30.4667 54.2308 30.6299 54.3562 30.8012C54.4816 30.9725 54.6194 31.1463 54.7701 31.3223C54.9126 31.4891 55.0644 31.6483 55.2237 31.7991C55.1038 31.8277 54.9822 31.8487 54.8598 31.8618C54.6971 31.8798 54.5328 31.8882 54.3691 31.8873H48.6548C48.4922 31.9076 48.3273 31.8885 48.1736 31.8317C48.02 31.7748 47.8821 31.6819 47.7718 31.5607C47.6093 31.3159 47.5283 31.0261 47.5399 30.7325V28.3485H46.1076V33.0281C46.1274 33.3813 46.0631 33.7342 45.9196 34.0576C45.8428 34.1811 45.7319 34.28 45.6006 34.3426C45.4693 34.4052 45.3233 34.429 45.1789 34.411C45.076 34.4103 44.9726 34.4041 44.8702 34.3924C44.7572 34.3795 44.651 34.3647 44.5503 34.3482L44.1968 34.2732L44.0459 35.7044C44.0971 35.7214 44.1495 35.7341 44.2028 35.7423L44.3848 35.7671C44.4854 35.7839 44.6049 35.7989 44.7435 35.8113C44.8821 35.8237 45.0254 35.8298 45.1763 35.8298C45.5262 35.8371 45.8728 35.7666 46.1921 35.6233C46.4785 35.4905 46.7315 35.2951 46.9328 35.0519C47.139 34.8002 47.2936 34.5101 47.3864 34.1982C47.4894 33.8561 47.5402 33.5003 47.5373 33.143V32.8039C47.6773 32.9572 47.8429 33.0849 48.0271 33.1809C48.2316 33.2907 48.4606 33.3469 48.6927 33.3443H54.3691C54.7388 33.3434 55.1073 33.3013 55.4677 33.2189C55.8316 33.1383 56.181 33.0027 56.5041 32.817C56.779 32.9657 57.0695 33.0842 57.3699 33.1704C57.8274 33.2985 58.3012 33.358 58.7763 33.3469H62.6953V24.3555H61.2751L61.2769 31.8856ZM57.8114 29.9519C57.7361 30.116 57.6433 30.2715 57.5354 30.4162C57.4099 30.5839 57.2692 30.7395 57.1146 30.8808C56.955 31.0288 56.7802 31.1592 56.593 31.2701C56.4231 31.1521 56.2653 31.0177 56.1222 30.8685C55.9698 30.7128 55.8252 30.5494 55.6893 30.3792C55.5682 30.2301 55.4552 30.0749 55.3504 29.914C55.2997 29.8802 55.2573 29.8358 55.2254 29.784C55.1935 29.7321 55.1731 29.6739 55.1659 29.6134C55.1587 29.553 55.1651 29.4918 55.184 29.4339C55.2028 29.376 55.234 29.3229 55.2754 29.2782C55.3168 29.2336 55.3674 29.1983 55.4237 29.1752C55.48 29.152 55.5405 29.1413 55.6013 29.1439C55.6622 29.1465 55.7214 29.1624 55.7755 29.1903C55.8296 29.2182 55.8769 29.2576 55.9143 29.3056C56.2037 29.2368 56.4999 29.2009 56.7973 29.1987C56.9309 29.1987 57.063 29.2049 57.1931 29.2172C57.3134 29.2283 57.4331 29.2472 57.551 29.2737C57.6451 29.2925 57.7348 29.3288 57.8157 29.3806C57.8455 29.3979 57.8706 29.4225 57.8881 29.4522C57.9056 29.4819 57.9151 29.5156 57.9157 29.5501C57.9094 29.6898 57.8737 29.8267 57.8114 29.9519Z" fill="black"/>
<path d="M66.1748 24.3513H64.7559V33.3427H66.1748V24.3513Z" fill="black"/>
<path d="M24.5332 40.8313C24.4654 40.8988 24.4112 40.979 24.3745 41.0674C24.3378 41.1557 24.3193 41.2504 24.3193 41.3461C24.3193 41.4417 24.3378 41.5365 24.3745 41.6248C24.4112 41.7132 24.4654 41.7934 24.5332 41.8609C24.6795 41.9981 24.8724 42.0743 25.073 42.0743C25.2735 42.0743 25.4664 41.9981 25.6128 41.8609C25.7492 41.7243 25.8257 41.5391 25.8257 41.3461C25.8257 41.153 25.7492 40.9679 25.6128 40.8313C25.4664 40.6941 25.2735 40.6177 25.073 40.6177C24.8724 40.6177 24.6795 40.6941 24.5332 40.8313Z" fill="black"/>
<path d="M25.9064 43.549C25.6903 43.3254 25.4292 43.15 25.1407 43.0342C24.8269 42.9099 24.4917 42.848 24.1542 42.8523C23.7814 42.8478 23.4127 42.9271 23.0746 43.0844C22.7522 43.2364 22.4639 43.452 22.227 43.7184C21.9849 43.9924 21.7973 44.3101 21.6743 44.6544C21.5434 45.0143 21.4768 45.3946 21.4786 45.7775C21.4788 46.0892 21.5297 46.3987 21.6294 46.6939C21.7312 46.9966 21.8991 47.2733 22.1201 47.5038C22.3668 47.7562 22.6639 47.9529 22.9927 48.0811C23.4072 48.2383 23.849 48.313 24.2922 48.301H26.566V45.3501C26.57 45.0057 26.5123 44.6633 26.3961 44.339C26.2897 44.0443 26.123 43.7753 25.9064 43.549ZM25.1338 46.845H24.2508C24.0789 46.8458 23.9076 46.8225 23.742 46.7761C23.5831 46.7323 23.4352 46.6554 23.3083 46.5501C23.1793 46.4403 23.0766 46.303 23.0074 46.1483C22.9271 45.9598 22.8886 45.7562 22.8944 45.5514C22.8914 45.3664 22.9248 45.1829 22.9936 45.0112C23.0559 44.86 23.1464 44.7216 23.2592 44.6031C23.3649 44.4921 23.4906 44.4022 23.6299 44.3382C23.7619 44.2767 23.9052 44.2445 24.0507 44.2438C24.206 44.2353 24.3613 44.2658 24.5017 44.3328C24.6421 44.3997 24.7632 44.501 24.8544 44.627C25.0588 44.9554 25.1559 45.3394 25.1312 45.7254L25.1338 46.845Z" fill="black"/>
<path d="M22.5742 40.8313C22.5064 40.8988 22.4522 40.979 22.4155 41.0674C22.3789 41.1557 22.3604 41.2504 22.3604 41.3461C22.3604 41.4417 22.3789 41.5365 22.4155 41.6248C22.4522 41.7132 22.5064 41.7934 22.5742 41.8609C22.7205 41.9981 22.9134 42.0743 23.114 42.0743C23.3146 42.0743 23.5075 41.9981 23.6538 41.8609C23.7215 41.7934 23.7757 41.7132 23.8124 41.6248C23.8491 41.5365 23.8676 41.4417 23.8676 41.3461C23.8676 41.2504 23.8491 41.1557 23.8124 41.0674C23.7757 40.979 23.7215 40.8988 23.6538 40.8313C23.5075 40.6941 23.3146 40.6177 23.114 40.6177C22.9134 40.6177 22.7205 40.6941 22.5742 40.8313Z" fill="black"/>
<path d="M40.3438 43.7758C40.0966 43.4928 39.7903 43.2678 39.4461 43.1171C39.0556 42.951 38.634 42.8695 38.2096 42.8778C37.6832 42.882 37.1658 43.0159 36.7032 43.2673C36.2061 43.5297 35.7733 43.8983 35.4348 44.3471V43.2919H33.9905V46.846H31.8805C31.7179 46.8662 31.553 46.847 31.3993 46.7902C31.2457 46.7333 31.1078 46.6403 30.9975 46.5192C30.8345 46.2743 30.7534 45.9841 30.7656 45.6901V43.3061H29.3342V47.9859C29.3539 48.3395 29.2892 48.6927 29.1453 49.0164C29.0684 49.1398 28.9576 49.2385 28.8263 49.3011C28.695 49.3637 28.5489 49.3874 28.4046 49.3695C28.3017 49.3689 28.1991 49.3627 28.0968 49.3509C27.9838 49.3386 27.8767 49.3235 27.7769 49.3067L27.4234 49.2317L27.2725 50.664C27.3238 50.6804 27.3761 50.6928 27.4294 50.701L27.6113 50.7258C27.712 50.7426 27.8314 50.7574 27.9692 50.7698C28.1069 50.7822 28.2519 50.7883 28.4029 50.7883C28.7532 50.7954 29.1 50.7247 29.4195 50.581C29.7058 50.4478 29.9596 50.2527 30.1611 50.0097C30.3669 49.7579 30.5203 49.4676 30.6129 49.1558C30.716 48.8137 30.7668 48.4579 30.7638 48.1006V47.7615C30.9038 47.9149 31.0694 48.0426 31.2536 48.1385C31.4582 48.2484 31.6871 48.3046 31.9193 48.302H41.0741V46.0292C41.0778 45.6038 41.0164 45.1803 40.8922 44.7735C40.7793 44.407 40.5926 44.0676 40.3438 43.7758ZM39.6281 46.8469H35.459C35.5444 46.1279 35.8824 45.4627 36.4126 44.9697C36.6465 44.7543 36.9147 44.5802 37.2068 44.4549C37.472 44.3377 37.7585 44.2757 38.0484 44.2729C38.2671 44.2704 38.4853 44.302 38.6942 44.3665C38.8847 44.4256 39.0568 44.5313 39.1961 44.6739C39.3457 44.8368 39.4554 45.0324 39.516 45.2452C39.5983 45.532 39.6367 45.8298 39.6298 46.1281L39.6281 46.8469Z" fill="black"/>
<path d="M61.1379 46.8459H59.8436C59.8068 46.8373 59.7693 46.8329 59.7315 46.8328H59.2788C59.0741 46.8424 58.8702 46.8038 58.683 46.7205C58.5527 46.6596 58.4387 46.569 58.3501 46.4557C58.2772 46.358 58.2279 46.2446 58.2061 46.1246C58.1871 46.0301 58.1763 45.9339 58.1742 45.8375C58.2224 45.0601 57.9931 44.2907 57.5275 43.6663C57.2963 43.4039 57.0081 43.1978 56.6851 43.0637C56.362 42.9297 56.0132 42.8712 55.6641 42.8928C55.317 42.8904 54.9726 42.9598 54.6535 43.0965C54.3345 43.2333 54.0471 43.4346 53.8094 43.6876C53.5747 43.941 53.392 44.2376 53.2704 44.5609C53.1375 44.9138 53.0707 45.2883 53.0747 45.6655C53.0796 45.8648 53.0591 46.0639 53.0126 46.2578C52.9821 46.3889 52.9243 46.5121 52.8436 46.6198C52.7812 46.7014 52.6958 46.763 52.5987 46.7966C52.5093 46.825 52.4166 46.8394 52.3228 46.8397H51.833C51.8008 46.8398 51.7692 46.8444 51.7382 46.853H50.8284C50.5336 46.8587 50.2387 46.846 49.9455 46.8151C50.3975 46.4247 50.7655 45.946 51.0259 45.4085C51.1958 45.0373 51.2893 44.6358 51.3018 44.2278C51.297 44.0518 51.245 43.8804 51.1509 43.7316C51.0356 43.5442 50.8817 43.3838 50.6991 43.261C50.4649 43.1035 50.2056 42.9869 49.9325 42.9159C49.5721 42.8217 49.2004 42.7773 48.828 42.7841C48.5493 42.7845 48.271 42.8142 47.9984 42.8725C47.7228 42.931 47.4521 43.0107 47.1888 43.111C46.9309 43.209 46.6814 43.327 46.442 43.4641C46.221 43.5889 46.0108 43.7319 45.8134 43.8915L45.8634 44.8963C45.9135 45.03 45.9767 45.1585 46.0523 45.2796C46.1406 45.435 46.2546 45.5983 46.3791 45.7696C46.5036 45.9409 46.6446 46.1149 46.7947 46.2906C46.9368 46.4575 47.0872 46.6169 47.2457 46.7683C47.1259 46.797 47.0043 46.8177 46.8818 46.8308C46.7194 46.849 46.5563 46.8576 46.3929 46.8565H44.3191V39.3221H42.8877V48.3135H46.3929C46.7625 48.3125 47.1302 48.2703 47.4906 48.1881C47.8543 48.1079 48.2044 47.9724 48.527 47.7862C48.8022 47.9348 49.0921 48.0534 49.3927 48.1396C49.8503 48.2678 50.3241 48.3272 50.7991 48.3161H52.3943C52.6612 48.3194 52.9216 48.235 53.1359 48.076C53.3512 47.9179 53.5241 47.7089 53.6386 47.4676C53.8439 47.7417 54.1075 47.9665 54.4104 48.1262C54.7789 48.3073 55.1864 48.3945 55.5969 48.3797C55.7991 48.3797 55.9942 48.3708 56.1875 48.3541C56.3762 48.3381 56.562 48.2978 56.7402 48.234C56.9273 48.1644 57.1014 48.0639 57.255 47.9365C57.4431 47.7779 57.6042 47.5896 57.7319 47.3792C57.8606 47.6529 58.0627 47.8854 58.3156 48.0512C58.5896 48.231 58.9116 48.3234 59.2391 48.3161H62.5546V39.3115H61.1379V46.8459ZM49.836 44.9123C49.7608 45.0765 49.6686 45.2321 49.56 45.3766C49.4349 45.5443 49.2937 45.7 49.1392 45.8411C49.1122 45.9534 49.0484 46.0529 48.9573 46.1238C48.8662 46.1946 48.7537 46.2326 48.6383 46.2311C48.5228 46.2297 48.4111 46.1891 48.3218 46.116C48.2325 46.0429 48.1702 45.9415 48.1459 45.8286C47.9917 45.6697 47.8484 45.5064 47.7147 45.3387C47.5937 45.1896 47.4796 45.0347 47.3741 44.8743C47.304 44.7699 47.2413 44.6606 47.1862 44.5475C47.4211 44.4143 47.676 44.3189 47.9407 44.2649C48.23 44.1961 48.5262 44.1604 48.8236 44.1582C48.9579 44.1582 49.0879 44.1644 49.2186 44.1767C49.3389 44.1877 49.4586 44.2066 49.5764 44.2332C49.6706 44.2521 49.7602 44.2884 49.8411 44.3401C49.8708 44.3576 49.8961 44.3823 49.9136 44.4119C49.931 44.4416 49.9403 44.4752 49.9412 44.5096C49.9343 44.6496 49.8984 44.7867 49.836 44.9123ZM56.5359 46.5527C56.2977 46.7812 55.9804 46.9089 55.6503 46.9089C55.3202 46.9089 55.003 46.7812 54.7648 46.5527C54.5714 46.2999 54.4724 45.9878 54.4837 45.6698C54.4807 45.4701 54.5119 45.2714 54.5768 45.0826C54.6325 44.9187 54.7173 44.7662 54.8268 44.6322C54.9278 44.5102 55.0544 44.412 55.1976 44.3444C55.3393 44.2778 55.4938 44.2434 55.6503 44.2438C55.8032 44.2439 55.954 44.2783 56.0918 44.3444C56.2351 44.412 56.3616 44.5102 56.4626 44.6322C56.5728 44.7669 56.6597 44.9191 56.7196 45.0826C56.7893 45.2704 56.8239 45.4695 56.8213 45.6698C56.8318 45.9882 56.7302 46.3003 56.5359 46.5527Z" fill="black"/>
<path d="M66.0371 39.3115H64.6182V48.3029H66.0371V39.3115Z" fill="black"/>
</g>
</g>
</g>
<defs>
<clipPath id="clip0_46_1493">
<rect width="128.52" height="45" fill="white" transform="translate(21.4805 7)"/>
</clipPath>
<clipPath id="clip1_46_1493">
<rect width="128.52" height="45" fill="white" transform="translate(21.4805 7)"/>
</clipPath>
<clipPath id="clip2_46_1493">
<rect width="128.517" height="45" fill="white" transform="translate(21.4814 7)"/>
</clipPath>
</defs>
</svg>
