<svg width="575" height="70" viewBox="0 0 575 70" fill="none" xmlns="http://www.w3.org/2000/svg">
<g opacity="0.85" clip-path="url(#clip0_60_3396)">
<g clip-path="url(#clip1_60_3396)">
<g clip-path="url(#clip2_60_3396)">
<path d="M542.576 59.9982H357.013C355.036 59.9819 353.145 59.1841 351.755 57.7791C350.364 56.374 349.585 54.4758 349.589 52.4987V7.50128C349.585 5.52403 350.363 3.62542 351.754 2.22022C353.145 0.815015 355.035 0.0174522 357.013 0.00177002L542.576 0.00177002C544.553 0.0181283 546.444 0.815907 547.834 2.22096C549.225 3.62601 550.004 5.52424 550 7.50128V52.4987C550.004 54.4758 549.225 56.374 547.834 57.7791C546.444 59.1841 544.553 59.9819 542.576 59.9982Z" fill="#100F0D"/>
<path d="M542.576 0.00177002H357.013C355.035 0.0174522 353.145 0.815015 351.754 2.22022C350.363 3.62542 349.585 5.52403 349.589 7.50128V52.4987C349.585 54.4756 350.364 56.3736 351.754 57.7786C353.145 59.1836 355.035 59.9815 357.011 59.9982H542.576C544.553 59.9819 546.444 59.1841 547.834 57.7791C549.225 56.374 550.004 54.4758 550 52.4987V7.50128C550.004 5.52424 549.225 3.62601 547.834 2.22096C546.444 0.815907 544.553 0.0181283 542.576 0.00177002ZM542.576 1.20121C544.239 1.21111 545.829 1.88002 546.998 3.06114C548.168 4.24227 548.821 5.83912 548.814 7.50128V52.4987C548.821 54.161 548.168 55.7579 546.999 56.9392C545.829 58.1204 544.239 58.7893 542.576 58.7992H357.013C355.351 58.7887 353.761 58.1194 352.593 56.9382C351.424 55.757 350.771 54.1604 350.778 52.4987V7.50128C350.771 5.83964 351.424 4.24318 352.593 3.0621C353.761 1.88103 355.351 1.21179 357.013 1.20121H542.576Z" fill="#A2A2A1"/>
<path d="M389.958 28.559C389.915 24.0357 393.662 21.8343 393.833 21.7315C393.09 20.6706 392.11 19.7975 390.971 19.1816C389.832 18.5657 388.564 18.224 387.27 18.1835C384.508 17.8935 381.832 19.836 380.424 19.836C378.99 19.836 376.824 18.2123 374.49 18.2605C372.981 18.309 371.51 18.7477 370.221 19.5339C368.932 20.32 367.868 21.4268 367.134 22.7464C363.955 28.2523 366.326 36.3442 369.374 40.7952C370.898 42.9746 372.679 45.4088 375.01 45.3227C377.29 45.2281 378.143 43.8682 380.896 43.8682C383.623 43.8682 384.423 45.3227 386.801 45.2677C389.248 45.2281 390.79 43.0783 392.261 40.8795C393.355 39.3265 394.198 37.6103 394.756 35.7943C393.334 35.1925 392.121 34.1855 391.268 32.8989C390.415 31.6122 389.959 30.1029 389.958 28.559Z" fill="white"/>
<path d="M385.466 15.2546C386.8 13.6523 387.457 11.5933 387.297 9.51468C385.523 9.59255 383.303 10.7421 382.024 12.2435C380.893 13.5656 379.883 15.7334 380.143 17.7709C382.138 17.9189 384.186 16.7651 385.466 15.2546Z" fill="white"/>
<mask id="mask0_60_3396" style="mask-type:luminance" maskUnits="userSpaceOnUse" x="413" y="16" width="116" height="32">
<path d="M528.204 16.4489H413.227V47.3641H528.204V16.4489Z" fill="white"/>
</mask>
<g mask="url(#mask0_60_3396)">
<path d="M416.711 30.5014C416.058 30.5193 415.413 30.3537 414.849 30.0235C414.328 29.7042 413.911 29.241 413.648 28.6898C413.354 28.061 413.21 27.373 413.226 26.6794C413.227 26.1169 413.286 25.5559 413.402 25.0054C413.505 24.4847 413.672 23.9788 413.901 23.4997H415.517C415.359 24.0001 415.242 24.5123 415.165 25.0312C415.081 25.5799 415.039 26.1342 415.039 26.6893C415.003 27.2992 415.182 27.9024 415.545 28.3938C415.706 28.5948 415.912 28.7553 416.147 28.8627C416.381 28.97 416.637 29.0211 416.894 29.012H417.414C417.715 29.0374 418.019 28.9993 418.304 28.9001C418.59 28.8008 418.851 28.6427 419.072 28.436C419.456 27.9719 419.647 27.3785 419.606 26.7779V20.215H421.391V22.8707C421.643 22.3005 421.985 21.774 422.402 21.3107C422.762 20.9159 423.2 20.6001 423.688 20.3832C424.174 20.1744 424.698 20.0691 425.227 20.0739C426.351 20.0739 427.199 20.3736 427.771 20.973C428.342 21.5725 428.628 22.5007 428.628 23.7578V27.1303H421.391C421.398 27.6011 421.307 28.0682 421.125 28.5022C420.942 28.9362 420.672 29.3276 420.33 29.6517C419.679 30.2185 418.726 30.5019 417.47 30.5019L416.711 30.5014ZM426.829 25.64V23.7427C426.878 23.1534 426.699 22.5676 426.33 22.1058C426.124 21.9165 425.88 21.7719 425.616 21.6812C425.351 21.5905 425.07 21.5556 424.791 21.5788C424.349 21.5791 423.914 21.6902 423.526 21.9019C423.087 22.1481 422.703 22.4802 422.395 22.8784C422 23.3848 421.663 23.9339 421.391 24.5154V25.6396L426.829 25.64ZM424.735 18.9644C424.614 18.9711 424.492 18.9521 424.378 18.9085C424.264 18.8649 424.161 18.7977 424.075 18.7114C423.907 18.5174 423.821 18.2652 423.836 18.0088C423.82 17.7519 423.906 17.4991 424.075 17.3046C424.161 17.2185 424.264 17.1516 424.378 17.1083C424.492 17.065 424.614 17.0463 424.735 17.0533C424.854 17.0469 424.973 17.0666 425.084 17.1112C425.194 17.1559 425.294 17.2242 425.375 17.3115C425.537 17.506 425.619 17.7544 425.607 18.0071C425.62 18.2599 425.537 18.5083 425.375 18.7028C425.294 18.79 425.194 18.8584 425.084 18.903C424.973 18.9476 424.854 18.9674 424.735 18.9609" fill="#F9F9F9"/>
<path d="M434.699 25.6391C434.706 25.638 434.714 25.6386 434.721 25.641C434.729 25.6435 434.736 25.6476 434.741 25.6531C434.746 25.6585 434.751 25.6652 434.753 25.6726C434.755 25.68 434.756 25.6878 434.755 25.6955V27.0584C434.756 27.0679 434.755 27.0777 434.752 27.0868C434.749 27.0959 434.744 27.1042 434.737 27.111C434.731 27.1178 434.722 27.123 434.713 27.126C434.704 27.129 434.694 27.1299 434.685 27.1285H431.087V16.4489H432.9V25.6391H434.699Z" fill="#F9F9F9"/>
<path d="M434.544 27.129C434.534 27.1303 434.525 27.1295 434.516 27.1264C434.506 27.1234 434.498 27.1183 434.491 27.1114C434.484 27.1046 434.479 27.0963 434.476 27.0872C434.473 27.0781 434.472 27.0684 434.474 27.0588V25.6955C434.474 25.6579 434.497 25.6391 434.544 25.6391H437.087V20.215H438.9V27.129H434.544ZM435.612 30.4042C435.492 30.4097 435.372 30.3908 435.26 30.3485C435.148 30.3062 435.045 30.2414 434.959 30.1581C434.872 30.0624 434.806 29.9502 434.763 29.8282C434.721 29.7063 434.704 29.577 434.713 29.4483C434.705 29.3207 434.723 29.1929 434.765 29.0723C434.807 28.9517 434.873 28.8407 434.959 28.7457C435.044 28.6605 435.146 28.5941 435.259 28.5505C435.371 28.507 435.492 28.4873 435.612 28.4927C435.731 28.4864 435.849 28.5057 435.959 28.5494C436.07 28.593 436.169 28.66 436.251 28.7457C436.416 28.9417 436.499 29.1931 436.483 29.4483C436.492 29.5765 436.476 29.7051 436.435 29.8269C436.394 29.9487 436.329 30.0613 436.245 30.1581C436.162 30.2408 436.063 30.3054 435.954 30.3477C435.845 30.3901 435.729 30.4093 435.612 30.4042ZM438.015 30.4042C437.893 30.4109 437.771 30.3919 437.658 30.3483C437.544 30.3047 437.441 30.2375 437.354 30.1512C437.186 29.9572 437.1 29.7051 437.116 29.4487C437.103 29.1947 437.188 28.9456 437.354 28.753C437.44 28.6651 437.543 28.5966 437.657 28.552C437.771 28.5075 437.893 28.488 438.015 28.4949C438.134 28.4884 438.253 28.5082 438.363 28.5528C438.474 28.5974 438.573 28.6658 438.654 28.753C438.805 28.9537 438.886 29.1978 438.886 29.4487C438.886 29.6995 438.805 29.9436 438.654 30.1443C438.573 30.2316 438.474 30.3 438.363 30.3446C438.253 30.3892 438.134 30.4089 438.015 30.4025" fill="#F9F9F9"/>
<path d="M444.578 27.129V27.3961C444.592 27.965 444.477 28.5296 444.24 29.0473C444.032 29.4926 443.697 29.8668 443.278 30.1228C442.828 30.3844 442.315 30.5158 441.795 30.5023C441.417 30.5045 441.041 30.4549 440.677 30.3547C440.29 30.2398 439.923 30.0669 439.588 29.8419L440.276 28.6192C440.468 28.7409 440.676 28.8355 440.894 28.9002C441.097 28.9498 441.304 28.9734 441.513 28.9703C441.693 28.9748 441.872 28.9354 442.034 28.8554C442.196 28.7754 442.335 28.6573 442.442 28.5112C442.686 28.1753 442.81 27.7668 442.793 27.3518V20.215H444.578V25.6391H446.376C446.423 25.6391 446.446 25.6579 446.446 25.6955V27.0584C446.448 27.0679 446.447 27.0777 446.444 27.0868C446.441 27.0959 446.436 27.1042 446.429 27.111C446.422 27.1178 446.414 27.1229 446.405 27.126C446.395 27.129 446.386 27.1299 446.376 27.1285L444.578 27.129Z" fill="#F9F9F9"/>
<path d="M446.235 27.1285C446.226 27.1299 446.216 27.129 446.207 27.126C446.198 27.123 446.19 27.1178 446.183 27.111C446.176 27.1042 446.171 27.0959 446.168 27.0868C446.165 27.0777 446.164 27.0679 446.165 27.0584V25.6955C446.165 25.6579 446.189 25.6391 446.235 25.6391H448.02V16.4489H449.833V27.1285H446.235Z" fill="#F9F9F9"/>
<path d="M454.457 16.4489H452.645V27.1285H454.457V16.4489Z" fill="#F9F9F9"/>
<path d="M464.434 27.1272C464.13 27.0977 463.828 27.1885 463.591 27.3802C463.402 27.6077 463.311 27.9007 463.338 28.195V31.6238H461.553V27.6629C461.544 27.3048 461.616 26.9492 461.764 26.623C461.898 26.34 462.11 26.1012 462.375 25.9347C462.666 25.7589 462.998 25.6621 463.338 25.6538H463.381C463.242 25.3133 463.136 24.9603 463.064 24.5997C462.995 24.2527 462.96 23.8996 462.959 23.5457C462.962 23.1108 463.024 22.6783 463.142 22.2598C463.245 21.8593 463.401 21.4743 463.606 21.1146C464.016 20.8445 464.463 20.6362 464.934 20.4963C465.381 20.3534 465.848 20.2776 466.318 20.2713C466.616 20.2701 466.913 20.3032 467.203 20.3699C467.477 20.4329 467.742 20.5321 467.99 20.665C468.479 20.9294 468.882 21.3295 469.149 21.8171C469.432 22.3385 469.575 22.9243 469.564 23.5173C469.565 23.7742 469.541 24.0306 469.494 24.2831C469.446 24.5349 469.376 24.7818 469.283 25.0209C469.443 25.2321 469.657 25.3971 469.901 25.4989C470.185 25.6009 470.485 25.6486 470.787 25.6396H470.857C470.904 25.6396 470.927 25.6583 470.927 25.6959V27.0588C470.928 27.0684 470.927 27.0781 470.924 27.0872C470.921 27.0963 470.916 27.1046 470.909 27.1114C470.903 27.1182 470.894 27.1234 470.885 27.1264C470.876 27.1295 470.866 27.1303 470.857 27.129H470.787C470.349 27.1389 469.913 27.0674 469.501 26.9182C469.109 26.7562 468.757 26.5118 468.468 26.2014C468.131 26.5105 467.734 26.7473 467.302 26.8971C466.864 27.0512 466.403 27.1296 465.939 27.129L464.434 27.1272ZM464.673 23.6563C464.674 23.9722 464.705 24.2873 464.764 24.5976C464.832 24.9526 464.933 25.3007 465.065 25.6374H465.753C466.115 25.6455 466.473 25.553 466.786 25.3702C467.083 25.1895 467.324 24.929 467.481 24.6182C467.656 24.2716 467.742 23.8876 467.734 23.4997C467.758 23.0389 467.614 22.5852 467.329 22.2228C467.203 22.0694 467.044 21.9467 466.864 21.8639C466.684 21.781 466.487 21.7403 466.289 21.7448C466.047 21.7461 465.808 21.7864 465.579 21.8644C465.329 21.9493 465.091 22.0649 464.869 22.2086C464.794 22.4346 464.742 22.6677 464.715 22.9042C464.686 23.1539 464.671 23.405 464.672 23.6563" fill="#F9F9F9"/>
<path d="M470.717 27.129C470.707 27.1303 470.698 27.1295 470.688 27.1264C470.679 27.1234 470.671 27.1183 470.664 27.1114C470.657 27.1046 470.652 27.0963 470.649 27.0872C470.646 27.0781 470.645 27.0684 470.647 27.0588V25.6955C470.647 25.6579 470.67 25.6391 470.717 25.6391H476.504C476.365 25.5023 476.248 25.3433 476.16 25.1685C476.039 24.9331 475.942 24.6858 475.872 24.4307C475.78 24.107 475.705 23.7787 475.647 23.4472C475.595 23.147 475.512 22.8528 475.401 22.5691C475.32 22.3601 475.205 22.1655 475.062 21.9931C474.935 21.847 474.774 21.7353 474.593 21.6682C474.381 21.5939 474.157 21.5582 473.933 21.5628C473.609 21.5622 473.288 21.607 472.977 21.6962C472.639 21.7974 472.314 21.9365 472.007 22.1109L471.417 20.7648C471.823 20.5236 472.264 20.3459 472.724 20.2378C473.199 20.1284 473.685 20.0742 474.172 20.0764C474.437 20.0747 474.703 20.0936 474.966 20.1328C475.19 20.1663 475.41 20.2277 475.619 20.3156C475.917 20.4301 476.189 20.602 476.42 20.8216C476.66 21.0586 476.851 21.3402 476.982 21.6506C477.147 22.0417 477.26 22.4525 477.319 22.8728C477.404 23.3507 477.495 23.7698 477.593 24.1304C477.676 24.4464 477.786 24.7544 477.924 25.0506C478.021 25.2678 478.154 25.4672 478.317 25.6408H479.245C479.292 25.6408 479.315 25.6596 479.315 25.6972V27.0588C479.316 27.0684 479.316 27.0781 479.312 27.0872C479.309 27.0963 479.304 27.1046 479.298 27.1114C479.291 27.1183 479.282 27.1234 479.273 27.1264C479.264 27.1295 479.254 27.1303 479.245 27.129H470.717ZM474.101 30.4016C473.982 30.4074 473.863 30.3878 473.752 30.3442C473.64 30.3006 473.54 30.2339 473.456 30.1486C473.288 29.9547 473.202 29.7025 473.217 29.4461C473.204 29.1933 473.287 28.9449 473.449 28.7504C473.626 28.5835 473.859 28.4904 474.103 28.4904C474.346 28.4904 474.579 28.5835 474.756 28.7504C474.918 28.9449 475.001 29.1933 474.988 29.4461C475.001 29.7008 474.915 29.9506 474.748 30.1435C474.665 30.2303 474.565 30.2984 474.453 30.3429C474.342 30.3875 474.222 30.4075 474.103 30.4016" fill="#F9F9F9"/>
<path d="M485.948 27.129C485.493 27.1238 485.041 27.0528 484.606 26.9182C484.165 26.7915 483.742 26.6072 483.348 26.3701C482.946 26.6145 482.514 26.8058 482.063 26.9392C481.631 27.0651 481.184 27.129 480.734 27.129H479.104C479.094 27.1303 479.085 27.1295 479.076 27.1264C479.066 27.1234 479.058 27.1183 479.051 27.1115C479.045 27.1046 479.039 27.0963 479.036 27.0872C479.033 27.0781 479.032 27.0684 479.034 27.0588V25.6955C479.034 25.6579 479.057 25.6391 479.104 25.6391H480.58C480.84 25.6385 481.099 25.6126 481.354 25.5617C481.58 25.5208 481.801 25.4572 482.014 25.372C481.846 25.2422 481.691 25.0962 481.551 24.9362C481.374 24.7357 481.21 24.5245 481.059 24.3037C480.722 23.8209 480.435 23.3056 480.2 22.7657C479.971 22.2564 479.806 21.7207 479.708 21.1709C480.076 20.8605 480.476 20.5918 480.903 20.3699C481.324 20.1487 481.77 19.9766 482.231 19.857C482.669 19.7421 483.12 19.6831 483.573 19.6815C484.198 19.6789 484.822 19.7568 485.428 19.9134C485.995 20.0584 486.539 20.2829 487.044 20.5802C487.046 21.2283 486.949 21.8728 486.755 22.4913C486.574 23.0795 486.299 23.6347 485.941 24.1355C485.597 24.6147 485.172 25.0288 484.683 25.3582C484.89 25.4521 485.106 25.5228 485.328 25.569C485.564 25.6169 485.804 25.6404 486.045 25.6391H487.689C487.736 25.6391 487.759 25.6579 487.759 25.6955V27.0584C487.761 27.0679 487.76 27.0777 487.757 27.0868C487.754 27.0959 487.749 27.1042 487.742 27.111C487.735 27.1178 487.727 27.123 487.718 27.126C487.709 27.129 487.699 27.1299 487.689 27.1285L485.948 27.129ZM483.376 24.5713C483.935 24.2454 484.409 23.793 484.76 23.2506C485.081 22.7238 485.262 22.1242 485.287 21.5082C485.032 21.3919 484.763 21.307 484.486 21.2552C484.181 21.197 483.87 21.1682 483.559 21.1692C483.325 21.1705 483.093 21.1966 482.864 21.2471C482.626 21.2983 482.394 21.3711 482.169 21.4648C481.958 21.5516 481.756 21.6599 481.567 21.7879C481.661 22.1641 481.795 22.5291 481.967 22.8767C482.135 23.2203 482.343 23.5432 482.585 23.8391C482.813 24.1198 483.081 24.3662 483.379 24.5705" fill="#F9F9F9"/>
<path d="M487.549 27.1272C487.54 27.1286 487.53 27.1277 487.521 27.1247C487.512 27.1217 487.503 27.1165 487.497 27.1097C487.49 27.1029 487.485 27.0946 487.482 27.0855C487.479 27.0764 487.478 27.0666 487.479 27.0571V25.6955C487.479 25.6579 487.503 25.6391 487.549 25.6391H489.194C489.056 25.3024 488.948 24.9545 488.87 24.5993C488.796 24.253 488.758 23.8996 488.758 23.5453C488.762 23.1173 488.823 22.6919 488.941 22.2804C489.049 21.8747 489.205 21.4832 489.405 21.1141C489.827 20.8422 490.286 20.6317 490.767 20.489C491.204 20.3518 491.659 20.2785 492.116 20.2713C492.702 20.2637 493.281 20.3988 493.803 20.665C494.29 20.9271 494.69 21.325 494.955 21.8102C495.235 22.3351 495.375 22.9231 495.362 23.5177C495.364 23.8587 495.324 24.1985 495.243 24.5296C495.167 24.8384 495.051 25.136 494.899 25.415C494.596 25.9525 494.144 26.3915 493.599 26.6798C493.026 26.9827 492.385 27.1365 491.737 27.1272H487.549ZM490.472 23.6563C490.474 23.9725 490.507 24.2878 490.571 24.5976C490.643 24.9509 490.742 25.2985 490.866 25.6374H491.554C491.916 25.6455 492.274 25.553 492.587 25.3702C492.884 25.1903 493.126 24.9305 493.284 24.6204C493.458 24.2737 493.545 23.8897 493.537 23.5018C493.558 23.0427 493.414 22.5912 493.129 22.2301C493.005 22.075 492.846 21.9507 492.666 21.8666C492.485 21.7825 492.288 21.741 492.089 21.7453C491.846 21.7469 491.604 21.7872 491.373 21.8649C491.124 21.947 490.887 22.0628 490.67 22.209C490.604 22.437 490.554 22.6695 490.522 22.9047C490.489 23.1539 490.473 23.4052 490.473 23.6567" fill="#F9F9F9"/>
<path d="M510.034 27.1285C510.038 27.6005 509.945 28.0683 509.761 28.5031C509.577 28.9379 509.307 29.3304 508.965 29.6565C508.319 30.2186 507.368 30.4997 506.113 30.4997H505.355C505.009 30.5021 504.665 30.4596 504.33 30.3732C504.021 30.2932 503.727 30.1652 503.459 29.9938C502.943 29.6747 502.532 29.2109 502.278 28.6601C501.996 28.0384 501.856 27.3612 501.871 26.6785C501.871 26.3072 501.897 25.9364 501.948 25.5686C501.999 25.198 502.076 24.8317 502.18 24.4724C502.274 24.1395 502.396 23.8151 502.545 23.5027H504.159C504.002 24.0031 503.884 24.5153 503.808 25.0343C503.724 25.5829 503.682 26.1372 503.681 26.6923C503.646 27.3007 503.825 27.9022 504.187 28.3925C504.348 28.5936 504.554 28.7542 504.789 28.8616C505.023 28.969 505.279 29.0202 505.536 29.0112H506.057C506.481 29.0267 506.903 28.9399 507.286 28.7582C507.604 28.5949 507.859 28.3303 508.01 28.0062C508.18 27.6193 508.262 27.1991 508.249 26.7766V16.4489H510.033V25.6391H511.775C511.822 25.6391 511.846 25.6579 511.846 25.6955V27.0584C511.847 27.0679 511.846 27.0777 511.843 27.0868C511.84 27.0959 511.835 27.1042 511.828 27.111C511.821 27.1178 511.813 27.123 511.804 27.126C511.795 27.129 511.785 27.1299 511.775 27.1285H510.034Z" fill="#F9F9F9"/>
<path d="M513.279 25.6396C513.142 25.3029 513.034 24.955 512.956 24.5997C512.882 24.2534 512.844 23.9 512.844 23.5457C512.848 23.1178 512.909 22.6923 513.027 22.2809C513.135 21.8751 513.291 21.4836 513.491 21.1146C513.913 20.8425 514.372 20.6319 514.853 20.489C515.29 20.3518 515.745 20.2785 516.202 20.2713C516.5 20.2701 516.797 20.3032 517.088 20.3699C517.366 20.4344 517.635 20.5336 517.889 20.665C518.376 20.9271 518.776 21.325 519.041 21.8102C519.321 22.3351 519.461 22.9231 519.448 23.5177C519.449 23.7813 519.428 24.0445 519.385 24.3046C519.343 24.5565 519.27 24.8022 519.167 25.036C519.325 25.2452 519.536 25.4078 519.779 25.5066C520.061 25.604 520.358 25.6492 520.657 25.64H520.727C520.774 25.64 520.797 25.6588 520.797 25.6963V27.0593C520.798 27.0688 520.798 27.0785 520.795 27.0876C520.791 27.0968 520.786 27.1051 520.78 27.1119C520.773 27.1187 520.764 27.1238 520.755 27.1268C520.746 27.1299 520.736 27.1308 520.727 27.1294H520.657C520.219 27.1393 519.783 27.0679 519.371 26.9186C518.982 26.7585 518.634 26.5137 518.352 26.2018C518.015 26.511 517.618 26.7477 517.186 26.8975C516.748 27.0516 516.287 27.1301 515.823 27.1294H511.635C511.626 27.1308 511.616 27.1299 511.607 27.1268C511.598 27.1238 511.589 27.1187 511.583 27.1119C511.576 27.1051 511.571 27.0968 511.568 27.0876C511.565 27.0785 511.564 27.0688 511.565 27.0593V25.6955C511.565 25.6579 511.588 25.6391 511.635 25.6391L513.279 25.6396ZM514.558 23.658C514.56 23.9742 514.593 24.2895 514.657 24.5993C514.729 24.9527 514.828 25.3002 514.952 25.6391H515.64C516.002 25.6472 516.36 25.5547 516.673 25.372C516.97 25.1913 517.211 24.9307 517.368 24.6199C517.542 24.2733 517.629 23.8893 517.621 23.5014C517.643 23.0423 517.498 22.5908 517.214 22.2297C517.089 22.0751 516.93 21.9511 516.75 21.8674C516.57 21.7838 516.373 21.7425 516.174 21.747C515.931 21.7486 515.689 21.7889 515.458 21.8666C515.209 21.9487 514.973 22.0645 514.755 22.2107C514.689 22.4387 514.64 22.6712 514.608 22.9064C514.574 23.1557 514.558 23.4069 514.559 23.6584" fill="#F9F9F9"/>
<path d="M520.587 27.129C520.577 27.1303 520.568 27.1295 520.558 27.1264C520.549 27.1234 520.541 27.1182 520.534 27.1114C520.527 27.1046 520.522 27.0963 520.519 27.0872C520.516 27.0781 520.515 27.0684 520.517 27.0588V25.6955C520.517 25.6579 520.54 25.6391 520.587 25.6391L526.377 25.6262C526.157 25.4014 525.992 25.1299 525.892 24.832C525.725 24.3832 525.6 23.9199 525.519 23.448C525.453 23.0648 525.337 22.6918 525.175 22.3381C525.061 22.0896 524.872 21.8832 524.634 21.7478C524.377 21.6186 524.092 21.5557 523.805 21.565C523.482 21.5643 523.16 21.6092 522.849 21.6984C522.512 21.7996 522.186 21.9387 521.88 22.1131L521.29 20.7648C521.698 20.5228 522.141 20.345 522.604 20.2378C523.095 20.1272 523.597 20.073 524.1 20.0764C524.345 20.0751 524.59 20.0939 524.831 20.1328C525.043 20.1666 525.25 20.2232 525.45 20.3014C525.912 20.4674 526.31 20.7746 526.588 21.1795C526.908 21.6942 527.113 22.2717 527.19 22.8728C527.284 23.3693 527.38 23.8002 527.478 24.1656C527.558 24.4802 527.669 24.7861 527.809 25.079C527.909 25.2907 528.042 25.4851 528.203 25.655V27.1307L520.587 27.129Z" fill="#F9F9F9"/>
<path d="M469.745 43.9917C469.749 44.4636 469.657 44.9314 469.473 45.3662C469.289 45.801 469.018 46.1935 468.677 46.5196C468.031 47.0818 467.08 47.3628 465.824 47.3628H465.066C464.72 47.3652 464.375 47.3227 464.04 47.2363C463.732 47.1564 463.438 47.0283 463.169 46.8569C462.653 46.5379 462.243 46.074 461.988 45.5232C461.706 44.9015 461.567 44.2243 461.581 43.5417C461.582 43.1703 461.607 42.7995 461.658 42.4317C461.709 42.0612 461.787 41.6948 461.89 41.3355C461.985 41.0032 462.107 40.6794 462.255 40.3675H463.871C463.714 40.868 463.596 41.3801 463.52 41.8991C463.436 42.4478 463.393 43.0021 463.393 43.5571C463.358 44.1656 463.537 44.7671 463.899 45.2574C464.06 45.4581 464.266 45.6184 464.501 45.7255C464.735 45.8326 464.991 45.8835 465.248 45.8743H465.768C466.193 45.8898 466.614 45.8031 466.998 45.6213C467.316 45.458 467.571 45.1934 467.722 44.8693C467.892 44.4824 467.973 44.0623 467.96 43.6397V33.312H469.745V42.5023H471.488C471.534 42.5023 471.558 42.521 471.558 42.5586V43.9215C471.559 43.9311 471.558 43.9408 471.555 43.9499C471.552 43.959 471.547 43.9673 471.54 43.9741C471.533 43.981 471.525 43.9861 471.516 43.9891C471.507 43.9922 471.497 43.993 471.488 43.9917H469.745Z" fill="#F9F9F9"/>
<path d="M471.347 43.9921C471.338 43.9935 471.328 43.9926 471.319 43.9895C471.31 43.9865 471.301 43.9814 471.295 43.9746C471.288 43.9678 471.283 43.9595 471.28 43.9503C471.276 43.9412 471.276 43.9315 471.277 43.922V42.5586C471.277 42.521 471.3 42.5023 471.347 42.5023H473.132V37.0781H474.946V43.9921H471.347ZM473.948 47.2673C473.826 47.2742 473.704 47.2552 473.59 47.2116C473.476 47.168 473.373 47.1008 473.287 47.0144C473.132 46.8142 473.048 46.5683 473.048 46.3153C473.048 46.0622 473.132 45.8163 473.287 45.6162C473.372 45.5281 473.475 45.4595 473.589 45.415C473.703 45.3704 473.826 45.351 473.948 45.358C474.067 45.3517 474.186 45.3715 474.296 45.4161C474.406 45.4607 474.505 45.529 474.586 45.6162C474.737 45.8165 474.819 46.0608 474.819 46.3118C474.819 46.5629 474.737 46.8071 474.586 47.0075C474.505 47.0946 474.406 47.1629 474.296 47.2075C474.186 47.2521 474.067 47.2719 473.948 47.2656" fill="#F9F9F9"/>
<path d="M476.912 32.6374L477.671 32.5109C477.498 32.4224 477.35 32.292 477.241 32.1315C477.132 31.9696 477.075 31.7783 477.079 31.5834C477.07 31.405 477.103 31.227 477.175 31.0636C477.247 30.9002 477.356 30.7558 477.493 30.6421C477.806 30.4056 478.191 30.2862 478.582 30.3048C478.957 30.292 479.33 30.3741 479.664 30.5436L479.411 31.2319C479.298 31.1752 479.177 31.1327 479.053 31.1054C478.926 31.0769 478.796 31.0625 478.666 31.0624C478.483 31.0539 478.304 31.1169 478.167 31.2379C478.101 31.3051 478.049 31.3855 478.017 31.4739C477.984 31.5624 477.97 31.6567 477.977 31.7508C477.973 31.8895 478.015 32.0255 478.097 32.138C478.174 32.2443 478.278 32.329 478.398 32.384L478.637 32.341C478.777 32.3224 478.92 32.3013 479.067 32.2778C479.213 32.2543 479.349 32.2379 479.474 32.2287C479.601 32.2193 479.706 32.2099 479.79 32.2008V32.9751C479.622 32.9846 479.402 33.0057 479.13 33.0384C478.858 33.0711 478.573 33.1039 478.273 33.1369C477.973 33.1696 477.702 33.2024 477.458 33.2354C477.214 33.2684 477.031 33.2988 476.91 33.3266L476.912 32.6374ZM477.544 34.1552H479.357V43.9917H477.544V34.1552Z" fill="#F9F9F9"/>
</g>
</g>
</g>
</g>
<g opacity="0.85" clip-path="url(#clip3_60_3396)">
<g clip-path="url(#clip4_60_3396)">
<g clip-path="url(#clip5_60_3396)">
<path d="M322.176 59.9982H136.613C134.636 59.9819 132.746 59.1841 131.355 57.7791C129.964 56.374 129.185 54.4758 129.189 52.4987V7.50128C129.185 5.52403 129.963 3.62542 131.354 2.22022C132.745 0.815015 134.636 0.0174522 136.613 0.00177002L322.176 0.00177002C324.153 0.0181283 326.044 0.815907 327.435 2.22096C328.825 3.62601 329.604 5.52424 329.6 7.50128V52.4987C329.604 54.4758 328.825 56.374 327.435 57.7791C326.044 59.1841 324.153 59.9819 322.176 59.9982Z" fill="#100F0D"/>
<path d="M322.176 0.00177002H136.613C134.636 0.0174522 132.745 0.815015 131.354 2.22022C129.963 3.62542 129.185 5.52403 129.189 7.50128V52.4987C129.185 54.4756 129.964 56.3736 131.354 57.7786C132.745 59.1836 134.635 59.9815 136.611 59.9982H322.176C324.153 59.9819 326.044 59.1841 327.435 57.7791C328.825 56.374 329.604 54.4758 329.6 52.4987V7.50128C329.604 5.52424 328.825 3.62601 327.435 2.22096C326.044 0.815907 324.153 0.0181283 322.176 0.00177002ZM322.176 1.20121C323.839 1.21111 325.429 1.88002 326.598 3.06114C327.768 4.24227 328.421 5.83912 328.415 7.50128V52.4987C328.421 54.161 327.768 55.7579 326.599 56.9392C325.429 58.1204 323.839 58.7893 322.176 58.7992H136.613C134.951 58.7887 133.361 58.1194 132.193 56.9382C131.024 55.757 130.371 54.1604 130.378 52.4987V7.50128C130.371 5.83964 131.024 4.24318 132.193 3.0621C133.362 1.88103 134.951 1.21179 136.613 1.20121H322.176Z" fill="#A2A2A1"/>
<path d="M159.941 29.1381L144.137 46.0873C144.137 46.0907 144.137 46.0937 144.139 46.0971C144.377 47.0102 144.911 47.8187 145.657 48.3967C146.402 48.9748 147.318 49.2898 148.262 49.2928C149.024 49.294 149.773 49.0887 150.428 48.6987L150.479 48.669L168.269 38.2965L159.941 29.1381Z" fill="#EB3131"/>
<path d="M175.931 26.2505L175.916 26.2401L168.235 21.7401L159.583 29.5201L168.266 38.2922L175.906 33.8382C176.584 33.4651 177.151 32.9172 177.546 32.2513C177.941 31.5855 178.151 30.826 178.153 30.0517C178.156 29.2774 177.951 28.5165 177.56 27.8481C177.169 27.1796 176.607 26.628 175.931 26.2505Z" fill="#F6B60B"/>
<path d="M144.135 13.9175C144.038 14.2795 143.989 14.6527 143.99 15.0275V44.9773C143.989 45.3518 144.037 45.7248 144.135 46.0864L160.483 29.5709L144.135 13.9175Z" fill="#5778C5"/>
<path d="M160.058 30.0032L168.239 21.7405L150.469 11.3306C149.9 10.9863 149.259 10.7798 148.597 10.7276C147.934 10.6754 147.268 10.779 146.653 11.0302C146.038 11.2813 145.49 11.6729 145.053 12.1738C144.616 12.6746 144.302 13.2707 144.137 13.9145C144.137 13.9161 144.137 13.9177 144.137 13.9192L160.058 30.0032Z" fill="#3BAD49"/>
<mask id="mask1_60_3396" style="mask-type:luminance" maskUnits="userSpaceOnUse" x="195" y="16" width="113" height="31">
<path d="M307.694 16.4489H195.408V46.6405H307.694V16.4489Z" fill="white"/>
</mask>
<g mask="url(#mask1_60_3396)">
<path d="M198.812 30.1727C198.174 30.1902 197.544 30.0285 196.993 29.706C196.485 29.3938 196.077 28.9411 195.82 28.4024C195.534 27.7886 195.393 27.1169 195.408 26.4398C195.409 25.8904 195.467 25.3425 195.58 24.8049C195.681 24.2971 195.845 23.8039 196.068 23.3366H197.646C197.492 23.8254 197.376 24.3256 197.301 24.8325C197.22 25.3691 197.179 25.9111 197.179 26.454C197.144 27.0482 197.319 27.6357 197.673 28.1146C197.83 28.3106 198.031 28.467 198.26 28.5716C198.489 28.6762 198.739 28.7259 198.99 28.7169H199.498C199.792 28.7418 200.088 28.7045 200.367 28.6076C200.646 28.5106 200.901 28.3562 201.117 28.1542C201.492 27.701 201.678 27.1214 201.638 26.5348V20.1268H203.381V22.7206C203.628 22.1637 203.962 21.6495 204.371 21.1972C204.722 20.8117 205.15 20.5033 205.626 20.2916C206.101 20.088 206.613 19.9854 207.129 19.9904C207.581 19.9569 208.036 20.0176 208.463 20.1688C208.891 20.3201 209.283 20.5585 209.613 20.8689C210.171 21.4546 210.45 22.3603 210.45 23.5861V26.8799H203.382C203.389 27.3398 203.3 27.7962 203.122 28.2202C202.944 28.6442 202.679 29.0266 202.346 29.3433C201.71 29.8968 200.779 30.1736 199.553 30.1736L198.812 30.1727ZM208.693 25.424V23.5715C208.741 22.996 208.567 22.4239 208.206 21.9728C208.005 21.7876 207.767 21.6461 207.509 21.5573C207.25 21.4684 206.976 21.4341 206.703 21.4566C206.272 21.457 205.847 21.5656 205.468 21.7724C205.04 22.0128 204.664 22.3372 204.363 22.7261C203.977 23.2206 203.648 23.7569 203.382 24.3248V25.4227L208.693 25.424ZM206.648 18.9054C206.529 18.9121 206.41 18.8935 206.299 18.851C206.188 18.8084 206.087 18.7428 206.003 18.6585C205.838 18.469 205.755 18.2227 205.77 17.9723C205.755 17.7219 205.838 17.4755 206.003 17.2861C206.087 17.2017 206.188 17.1361 206.299 17.0936C206.41 17.051 206.529 17.0325 206.648 17.0391C206.765 17.0331 206.881 17.0526 206.989 17.0965C207.096 17.1404 207.193 17.2074 207.272 17.293C207.43 17.4832 207.51 17.7256 207.497 17.9723C207.51 18.2191 207.429 18.4616 207.271 18.6516C207.192 18.7371 207.095 18.8042 206.987 18.848C206.879 18.8919 206.763 18.9115 206.647 18.9054" fill="#F9F9F9"/>
<path d="M216.378 25.424C216.385 25.4229 216.393 25.4236 216.4 25.426C216.407 25.4284 216.414 25.4324 216.419 25.4378C216.425 25.4431 216.429 25.4496 216.431 25.4568C216.433 25.464 216.434 25.4716 216.433 25.4791V26.8102C216.434 26.8195 216.433 26.8289 216.43 26.8378C216.427 26.8467 216.422 26.8548 216.416 26.8614C216.409 26.868 216.401 26.873 216.392 26.876C216.383 26.879 216.374 26.8799 216.365 26.8786H212.851V16.4489H214.621V25.424H216.378Z" fill="#F9F9F9"/>
<path d="M216.226 26.8786C216.216 26.8799 216.207 26.8791 216.198 26.8762C216.189 26.8732 216.181 26.8682 216.174 26.8616C216.167 26.8549 216.162 26.8468 216.159 26.8379C216.156 26.829 216.156 26.8195 216.157 26.8102V25.4791C216.157 25.4424 216.18 25.424 216.226 25.424H218.71V20.1268H220.48V26.8786H216.226ZM217.269 30.0764C217.151 30.0819 217.034 30.0635 216.925 30.0222C216.815 29.9809 216.715 29.9177 216.63 29.8363C216.546 29.7428 216.481 29.6333 216.44 29.5142C216.399 29.3951 216.382 29.269 216.39 29.1432C216.383 29.0187 216.4 28.8939 216.442 28.7761C216.483 28.6583 216.547 28.5498 216.63 28.457C216.714 28.3733 216.814 28.3079 216.924 28.265C217.034 28.2221 217.152 28.2027 217.27 28.2079C217.386 28.2018 217.502 28.2206 217.609 28.2632C217.717 28.3059 217.814 28.3712 217.894 28.4549C218.055 28.6463 218.136 28.8918 218.121 29.1411C218.129 29.2663 218.113 29.3919 218.073 29.5108C218.033 29.6297 217.97 29.7396 217.888 29.8342C217.807 29.9148 217.71 29.9778 217.604 30.0191C217.498 30.0605 217.384 30.0792 217.27 30.0742M219.617 30.0742C219.498 30.0809 219.379 30.0623 219.268 30.0198C219.157 29.9772 219.056 29.9116 218.972 29.8273C218.807 29.6378 218.724 29.3915 218.739 29.1411C218.726 28.8931 218.809 28.6498 218.972 28.4618C219.055 28.3756 219.155 28.3083 219.267 28.2645C219.378 28.2207 219.498 28.2014 219.617 28.2079C219.733 28.2019 219.85 28.2215 219.957 28.2653C220.065 28.3092 220.162 28.3763 220.241 28.4618C220.388 28.6578 220.468 28.8961 220.468 29.1411C220.468 29.386 220.388 29.6244 220.241 29.8204C220.162 29.9059 220.065 29.973 219.957 30.0168C219.85 30.0607 219.733 30.0803 219.617 30.0742Z" fill="#F9F9F9"/>
<path d="M226.026 26.8786V27.1393C226.039 27.6948 225.927 28.2462 225.696 28.7517C225.493 29.1865 225.166 29.5516 224.756 29.8015C224.317 30.0568 223.816 30.185 223.308 30.1719C222.94 30.174 222.573 30.1255 222.217 30.0277C221.84 29.9155 221.481 29.7467 221.154 29.527L221.826 28.3331C222.013 28.4519 222.216 28.5443 222.429 28.6076C222.626 28.6559 222.828 28.6789 223.031 28.676C223.207 28.6804 223.381 28.6421 223.539 28.5644C223.696 28.4867 223.833 28.3719 223.936 28.2299C224.175 27.9019 224.297 27.503 224.281 27.0976V20.1268H226.023V25.424H227.78C227.826 25.424 227.849 25.4424 227.849 25.4791V26.8102C227.85 26.8195 227.849 26.829 227.846 26.8379C227.843 26.8468 227.838 26.8549 227.831 26.8616C227.825 26.8682 227.817 26.8732 227.808 26.8762C227.799 26.8791 227.789 26.8799 227.78 26.8786H226.026Z" fill="#F9F9F9"/>
<path d="M227.645 26.8786C227.635 26.8799 227.626 26.879 227.617 26.876C227.608 26.873 227.6 26.868 227.593 26.8614C227.587 26.8548 227.582 26.8467 227.579 26.8378C227.576 26.8289 227.575 26.8195 227.576 26.8102V25.4791C227.576 25.4424 227.599 25.424 227.645 25.424H229.387V16.4489H231.158V26.8786H227.645Z" fill="#F9F9F9"/>
<path d="M235.674 16.4489H233.904V26.8786H235.674V16.4489Z" fill="#F9F9F9"/>
<path d="M245.417 26.879C245.121 26.8503 244.825 26.939 244.594 27.126C244.409 27.3482 244.32 27.6343 244.347 27.9219V31.2702H242.604V27.3983C242.595 27.0485 242.665 26.7012 242.809 26.3826C242.94 26.1061 243.148 25.8728 243.407 25.7101C243.691 25.5384 244.015 25.4438 244.347 25.4356H244.39C244.254 25.1032 244.151 24.7586 244.081 24.4066C244.013 24.0677 243.979 23.7231 243.978 23.3775C243.981 22.9528 244.041 22.5304 244.156 22.1217C244.258 21.7306 244.41 21.3545 244.609 21.0031C245.01 20.74 245.447 20.5371 245.906 20.4008C246.343 20.2613 246.799 20.1874 247.258 20.1814C247.549 20.1801 247.839 20.2123 248.123 20.2774C248.39 20.3389 248.649 20.4359 248.891 20.5656C249.368 20.8243 249.761 21.2152 250.022 21.6915C250.298 22.2008 250.437 22.7729 250.426 23.3521C250.427 23.6031 250.404 23.8536 250.358 24.1003C250.311 24.3462 250.242 24.5874 250.152 24.8209C250.308 25.0269 250.516 25.188 250.754 25.2877C251.031 25.3873 251.325 25.4338 251.619 25.4249H251.688C251.733 25.4249 251.756 25.4432 251.756 25.48V26.811C251.758 26.8203 251.757 26.8298 251.754 26.8387C251.751 26.8476 251.746 26.8556 251.739 26.8623C251.732 26.8689 251.724 26.8739 251.715 26.8769C251.707 26.8798 251.697 26.8807 251.688 26.8794H251.619C251.191 26.8892 250.765 26.8195 250.363 26.6738C249.98 26.5157 249.636 26.277 249.354 25.9738C249.025 26.2746 248.638 26.5049 248.217 26.6506C247.789 26.8011 247.339 26.8776 246.886 26.8769L245.417 26.879ZM245.65 23.4894C245.652 23.7979 245.681 24.1056 245.739 24.4087C245.806 24.7556 245.905 25.0956 246.034 25.4245H246.707C247.061 25.4325 247.41 25.3422 247.716 25.1638C248.006 24.9873 248.242 24.7329 248.395 24.4294C248.565 24.091 248.649 23.7163 248.641 23.3379C248.664 22.8876 248.522 22.4442 248.243 22.0903C248.12 21.9405 247.965 21.8206 247.789 21.7397C247.613 21.6588 247.421 21.6191 247.227 21.6235C246.991 21.6247 246.757 21.664 246.534 21.7401C246.29 21.8231 246.057 21.9361 245.841 22.0765C245.767 22.2972 245.717 22.5248 245.69 22.7558C245.661 22.9996 245.647 23.2448 245.647 23.4902" fill="#F9F9F9"/>
<path d="M251.551 26.8786C251.542 26.8799 251.533 26.879 251.524 26.876C251.515 26.873 251.507 26.868 251.5 26.8614C251.494 26.8548 251.489 26.8467 251.486 26.8378C251.483 26.8289 251.482 26.8195 251.483 26.8102V25.4791C251.483 25.4424 251.506 25.424 251.551 25.424H257.206C257.069 25.2903 256.955 25.1349 256.869 24.9641C256.751 24.7342 256.657 24.4928 256.588 24.2435C256.498 23.9273 256.425 23.6067 256.369 23.2828C256.317 22.9896 256.237 22.7022 256.128 22.425C256.05 22.2209 255.938 22.0309 255.799 21.8623C255.675 21.7205 255.518 21.6122 255.341 21.5474C255.134 21.4747 254.915 21.4399 254.696 21.4445C254.38 21.4435 254.066 21.4869 253.763 21.5736C253.433 21.6724 253.115 21.8082 252.816 21.9784L252.24 20.6611C252.636 20.425 253.067 20.2509 253.516 20.1449C253.979 20.0395 254.453 19.988 254.928 19.9913C255.187 19.9896 255.446 20.008 255.702 20.0463C255.921 20.0791 256.136 20.139 256.34 20.2249C256.631 20.3366 256.896 20.5044 257.122 20.7188C257.356 20.9503 257.543 21.2253 257.671 21.5284C257.832 21.9104 257.943 22.3117 258.001 22.7223C258.083 23.1889 258.172 23.5983 258.268 23.9505C258.349 24.2592 258.457 24.56 258.591 24.8493C258.686 25.0614 258.816 25.2562 258.975 25.4257H259.881C259.926 25.4257 259.949 25.4441 259.95 25.4808V26.8102C259.951 26.8195 259.95 26.829 259.947 26.8379C259.944 26.8468 259.939 26.8549 259.932 26.8616C259.926 26.8682 259.917 26.8732 259.909 26.8762C259.9 26.8791 259.89 26.8799 259.881 26.8786H251.551ZM254.859 30.0764C254.742 30.0821 254.626 30.0631 254.517 30.0205C254.408 29.978 254.31 29.9128 254.228 29.8294C254.063 29.64 253.98 29.3936 253.995 29.1432C253.982 28.8964 254.063 28.6539 254.221 28.4639C254.393 28.3008 254.622 28.2099 254.859 28.2099C255.096 28.2099 255.325 28.3008 255.497 28.4639C255.655 28.6539 255.736 28.8964 255.724 29.1432C255.736 29.3912 255.653 29.6346 255.49 29.8225C255.41 29.9077 255.311 29.9744 255.203 30.0182C255.094 30.062 254.976 30.0819 254.859 30.0764Z" fill="#F9F9F9"/>
<path d="M266.427 26.879C265.983 26.874 265.541 26.8048 265.117 26.6734C264.686 26.5497 264.273 26.3697 263.888 26.1382C263.496 26.3769 263.074 26.5637 262.633 26.694C262.211 26.817 261.775 26.8794 261.336 26.8794H259.744C259.735 26.8808 259.725 26.88 259.716 26.877C259.708 26.8741 259.699 26.8691 259.693 26.8624C259.686 26.8558 259.681 26.8477 259.678 26.8388C259.675 26.8299 259.674 26.8204 259.675 26.811V25.4791C259.675 25.4424 259.698 25.424 259.744 25.424H261.183C261.436 25.4234 261.689 25.3982 261.937 25.3487C262.158 25.3087 262.374 25.2466 262.583 25.1633C262.418 25.0366 262.267 24.8941 262.13 24.7378C261.957 24.5421 261.797 24.3359 261.65 24.1205C261.321 23.6486 261.041 23.1452 260.812 22.6177C260.589 22.1202 260.428 21.597 260.332 21.0599C260.691 20.7568 261.082 20.4945 261.499 20.2778C261.91 20.0618 262.345 19.8938 262.795 19.777C263.223 19.6646 263.663 19.6067 264.106 19.6049C264.717 19.6023 265.326 19.6784 265.917 19.8312C266.472 19.9727 267.005 20.1922 267.498 20.483C267.5 21.1158 267.406 21.7453 267.217 22.3493C267.039 22.9237 266.77 23.4658 266.421 23.9548C266.086 24.4228 265.67 24.827 265.192 25.1487C265.395 25.2404 265.606 25.3093 265.824 25.3543C266.054 25.4011 266.288 25.424 266.524 25.4227H268.129C268.175 25.4227 268.198 25.4411 268.198 25.4778V26.8089C268.199 26.8182 268.198 26.8276 268.195 26.8365C268.192 26.8454 268.187 26.8535 268.18 26.8601C268.174 26.8667 268.166 26.8717 268.157 26.8747C268.148 26.8777 268.138 26.8786 268.129 26.8773L266.427 26.879ZM263.916 24.3812C264.461 24.0626 264.924 23.6206 265.267 23.0905C265.581 22.5761 265.758 21.9905 265.784 21.3886C265.534 21.2751 265.271 21.1921 265.001 21.1417C264.703 21.0855 264.4 21.0579 264.096 21.0595C263.867 21.0604 263.64 21.0856 263.417 21.1348C263.184 21.1848 262.957 21.2559 262.737 21.3473C262.53 21.4321 262.332 21.5379 262.147 21.6631C262.239 22.0305 262.37 22.3871 262.538 22.7266C262.702 23.062 262.904 23.3775 263.14 23.6666C263.363 23.9405 263.624 24.1809 263.915 24.3803" fill="#F9F9F9"/>
<path d="M267.992 26.879C267.983 26.8803 267.974 26.8794 267.965 26.8764C267.956 26.8734 267.948 26.8684 267.941 26.8618C267.934 26.8552 267.929 26.8471 267.926 26.8382C267.924 26.8293 267.923 26.8199 267.924 26.8106V25.4791C267.924 25.4424 267.947 25.424 267.992 25.424H269.598C269.464 25.0952 269.358 24.7553 269.283 24.4083C269.209 24.0702 269.173 23.7252 269.173 23.3792C269.176 22.9613 269.236 22.5458 269.351 22.1441C269.457 21.7478 269.609 21.3654 269.804 21.0049C270.217 20.7391 270.665 20.5334 271.135 20.394C271.562 20.26 272.006 20.1884 272.453 20.1814C273.025 20.1739 273.59 20.3058 274.1 20.5656C274.575 20.8216 274.966 21.2102 275.225 21.6842C275.498 22.1968 275.635 22.7709 275.623 23.3517C275.625 23.685 275.586 24.0174 275.506 24.3412C275.432 24.6428 275.319 24.9335 275.17 25.2059C274.874 25.7303 274.433 26.1586 273.9 26.4398C273.341 26.7364 272.715 26.8874 272.082 26.879H267.992ZM270.846 23.4893C270.848 23.7982 270.88 24.1062 270.942 24.4087C271.013 24.7539 271.109 25.0934 271.23 25.4245H271.903C272.256 25.4323 272.605 25.3419 272.911 25.1633C273.202 24.9868 273.437 24.7324 273.59 24.4289C273.76 24.0908 273.845 23.7163 273.837 23.3379C273.858 22.8895 273.717 22.4485 273.439 22.0959C273.318 21.9445 273.163 21.8231 272.986 21.741C272.81 21.6589 272.618 21.6185 272.424 21.6226C272.186 21.6241 271.949 21.6635 271.724 21.7392C271.481 21.8196 271.25 21.9327 271.037 22.0757C270.973 22.2982 270.925 22.5253 270.893 22.755C270.861 22.9984 270.844 23.2437 270.845 23.4893" fill="#F9F9F9"/>
<path d="M289.95 26.8786C289.954 27.3397 289.863 27.7969 289.684 28.2217C289.505 28.6466 289.24 29.0302 288.907 29.3489C288.274 29.8981 287.346 30.1727 286.121 30.1727H285.38C285.042 30.1751 284.705 30.1336 284.378 30.0493C284.077 29.9712 283.789 29.8462 283.527 29.6789C283.023 29.367 282.622 28.9136 282.374 28.3753C282.098 27.7679 281.962 27.1063 281.976 26.4393C281.976 26.0767 282.002 25.7144 282.051 25.3552C282.101 24.9934 282.176 24.6357 282.278 24.2848C282.37 23.9599 282.489 23.6433 282.634 23.3383H284.215C284.061 23.8271 283.946 24.3273 283.871 24.8342C283.789 25.3701 283.748 25.9114 283.748 26.4535C283.713 27.0478 283.888 27.6353 284.242 28.1142C284.399 28.3101 284.6 28.4666 284.829 28.5712C285.058 28.6757 285.308 28.7255 285.559 28.7165H286.065C286.48 28.7317 286.891 28.647 287.266 28.4695C287.577 28.3101 287.825 28.0517 287.973 27.7351C288.139 27.3573 288.219 26.947 288.206 26.5344V16.4489H289.949V25.424H291.651C291.696 25.424 291.719 25.4424 291.72 25.4791V26.8102C291.721 26.8195 291.72 26.829 291.717 26.8379C291.714 26.8468 291.709 26.8549 291.702 26.8616C291.696 26.8682 291.687 26.8732 291.678 26.8762C291.67 26.8791 291.66 26.8799 291.651 26.8786H289.95Z" fill="#F9F9F9"/>
<path d="M293.12 25.4245C292.986 25.0956 292.88 24.7558 292.805 24.4087C292.731 24.0706 292.695 23.7256 292.695 23.3796C292.698 22.9618 292.758 22.5463 292.873 22.1445C292.979 21.7482 293.131 21.3658 293.326 21.0053C293.739 20.7395 294.187 20.5338 294.657 20.3944C295.084 20.2605 295.527 20.1889 295.973 20.1819C296.264 20.1806 296.555 20.2128 296.838 20.2778C297.11 20.3409 297.373 20.4377 297.62 20.566C298.096 20.822 298.487 21.2106 298.746 21.6846C299.019 22.1972 299.156 22.7714 299.144 23.3521C299.144 23.6095 299.124 23.8665 299.082 24.1205C299.041 24.3663 298.97 24.6061 298.869 24.8342C299.023 25.0386 299.229 25.1975 299.466 25.2941C299.742 25.3889 300.033 25.4326 300.324 25.4232H300.393C300.439 25.4232 300.462 25.4415 300.462 25.4782V26.8093C300.463 26.8186 300.462 26.8281 300.459 26.8371C300.456 26.846 300.451 26.8541 300.445 26.8607C300.438 26.8674 300.43 26.8724 300.421 26.8753C300.412 26.8783 300.402 26.8791 300.393 26.8777H300.324C299.897 26.8875 299.471 26.8178 299.068 26.6721C298.689 26.5158 298.349 26.2767 298.073 25.9721C297.744 26.2736 297.357 26.5044 296.935 26.6506C296.508 26.8011 296.058 26.8776 295.604 26.8769H291.515C291.505 26.8782 291.496 26.8774 291.487 26.8744C291.478 26.8715 291.47 26.8665 291.463 26.8599C291.457 26.8532 291.451 26.8451 291.448 26.8362C291.445 26.8273 291.445 26.8178 291.446 26.8085V25.4791C291.446 25.4424 291.469 25.424 291.515 25.424L293.12 25.4245ZM294.368 23.4885C294.37 23.7974 294.402 24.1053 294.464 24.4079C294.535 24.753 294.631 25.0925 294.752 25.4236H295.425C295.778 25.4316 296.128 25.3414 296.433 25.1629C296.724 24.9864 296.959 24.732 297.113 24.4285C297.283 24.0904 297.367 23.7158 297.36 23.3375C297.381 22.8895 297.24 22.4489 296.963 22.0963C296.841 21.9449 296.686 21.8235 296.51 21.7414C296.334 21.6594 296.141 21.6189 295.947 21.6231C295.709 21.6246 295.473 21.6639 295.247 21.7397C295.004 21.82 294.773 21.9332 294.561 22.0761C294.496 22.2987 294.448 22.5257 294.417 22.7554C294.384 22.9988 294.368 23.2442 294.369 23.4898" fill="#F9F9F9"/>
<path d="M300.256 26.8786C300.247 26.8799 300.237 26.879 300.228 26.876C300.219 26.873 300.211 26.868 300.205 26.8614C300.198 26.8548 300.193 26.8467 300.19 26.8378C300.187 26.8289 300.186 26.8195 300.188 26.8102V25.4791C300.188 25.4424 300.21 25.424 300.256 25.424L305.91 25.4103C305.696 25.191 305.535 24.9263 305.437 24.6359C305.274 24.1975 305.153 23.745 305.074 23.2841C305.008 22.9098 304.895 22.5454 304.737 22.2C304.626 21.9574 304.441 21.7558 304.209 21.6235C303.958 21.4973 303.68 21.436 303.399 21.445C303.084 21.4439 302.769 21.4873 302.466 21.574C302.136 21.6728 301.819 21.8087 301.52 21.9789L300.943 20.6615C301.342 20.4246 301.775 20.2505 302.226 20.1453C302.706 20.037 303.197 19.9841 303.689 19.9874C303.928 19.9861 304.167 20.0045 304.403 20.0425C304.609 20.0756 304.811 20.1309 305.005 20.2072C305.456 20.37 305.845 20.6707 306.116 21.0668C306.429 21.5693 306.63 22.1333 306.706 22.7205C306.798 23.2055 306.891 23.6264 306.988 23.9832C307.066 24.2904 307.174 24.5891 307.31 24.8751C307.408 25.0818 307.537 25.2718 307.694 25.4378V26.8786H300.256Z" fill="#F9F9F9"/>
<path d="M229.415 41.8918H233.999C233.922 41.4977 233.823 41.1084 233.702 40.7259C233.598 40.3973 233.472 40.0763 233.324 39.7652C233.068 39.2203 232.72 38.7236 232.295 38.2969C231.845 37.855 231.326 37.4889 230.758 37.2128L231.417 35.578C232.173 35.9011 232.861 36.3647 233.444 36.9443C234.039 37.5509 234.525 38.2569 234.877 39.0304C235.291 39.943 235.586 40.9045 235.755 41.8918H237.457C237.503 41.8918 237.525 41.9101 237.525 41.9469V43.2779C237.527 43.2873 237.526 43.2968 237.523 43.3057C237.52 43.3146 237.515 43.3228 237.508 43.3295C237.502 43.3361 237.494 43.3412 237.485 43.3442C237.476 43.3472 237.466 43.3481 237.457 43.3468H229.415V41.8918Z" fill="#F9F9F9"/>
<path d="M237.32 43.3468C237.311 43.3481 237.301 43.3472 237.292 43.3442C237.283 43.3412 237.275 43.3362 237.269 43.3296C237.262 43.323 237.257 43.3149 237.254 43.306C237.251 43.2971 237.25 43.2877 237.252 43.2784V41.9473C237.252 41.9106 237.274 41.8922 237.32 41.8922H239.804V36.595H241.574V43.3468H237.32ZM238.363 46.5446C238.246 46.5501 238.129 46.5317 238.019 46.4904C237.909 46.4491 237.809 46.3859 237.725 46.3045C237.569 46.1083 237.485 45.8653 237.485 45.6149C237.485 45.3645 237.569 45.1214 237.725 44.9252C237.808 44.8421 237.908 44.7772 238.018 44.7347C238.128 44.6922 238.245 44.673 238.363 44.6783C238.478 44.6721 238.594 44.691 238.702 44.7336C238.81 44.7762 238.907 44.8416 238.987 44.9252C239.147 45.1167 239.228 45.3622 239.213 45.6114C239.222 45.7366 239.206 45.8622 239.166 45.9812C239.126 46.1001 239.063 46.21 238.98 46.3045C238.9 46.3852 238.803 46.4482 238.697 46.4895C238.59 46.5308 238.477 46.5496 238.363 46.5446ZM240.71 46.5446C240.591 46.5512 240.472 46.5327 240.361 46.4901C240.249 46.4476 240.148 46.382 240.064 46.2976C239.913 46.1022 239.831 45.862 239.831 45.6149C239.831 45.3677 239.913 45.1276 240.064 44.9321C240.147 44.8459 240.248 44.7786 240.359 44.7348C240.471 44.691 240.59 44.6717 240.71 44.6783C240.826 44.6722 240.942 44.6918 241.05 44.7357C241.158 44.7795 241.255 44.8466 241.334 44.9321C241.481 45.1281 241.56 45.3665 241.56 45.6114C241.56 45.8564 241.481 46.0948 241.334 46.2907C241.255 46.3763 241.158 46.4433 241.05 46.4872C240.942 46.5311 240.826 46.5506 240.71 46.5446Z" fill="#F9F9F9"/>
<path d="M246.461 46.6405C245.954 46.6469 245.447 46.5939 244.952 46.4826C244.507 46.3748 244.082 46.2008 243.689 45.9663L244.403 44.6628C244.723 44.8348 245.061 44.9706 245.412 45.0676C245.75 45.1558 246.098 45.1992 246.448 45.1967C246.681 45.2107 246.915 45.1779 247.135 45.1001C247.355 45.0223 247.558 44.9011 247.731 44.7437C247.887 44.5826 248.009 44.391 248.088 44.1809C248.167 43.9707 248.202 43.7465 248.191 43.5223V43.3468H246.832C246.419 43.3739 246.005 43.3149 245.617 43.1734C245.228 43.0319 244.873 42.8111 244.574 42.5251C244.013 41.8771 243.729 41.0339 243.785 40.1782C243.765 39.4919 243.951 38.8152 244.321 38.2362C244.684 37.6953 245.196 37.2712 245.796 37.0149C246.474 36.7255 247.206 36.5828 247.943 36.5963H249.933V43.484C249.96 43.9152 249.892 44.347 249.736 44.7497C249.58 45.1525 249.338 45.5166 249.028 45.8171C248.307 46.406 247.39 46.7003 246.461 46.6405ZM248.177 41.8922V38.0508H247.696C247.413 38.0335 247.129 38.0732 246.862 38.1675C246.594 38.2618 246.348 38.4088 246.139 38.5998C245.946 38.8047 245.798 39.0467 245.702 39.311C245.607 39.5753 245.566 39.8564 245.583 40.1369C245.543 40.6128 245.68 41.0866 245.967 41.468C246.117 41.6176 246.298 41.7331 246.497 41.8065C246.696 41.8799 246.908 41.9096 247.12 41.8935L248.177 41.8922Z" fill="#F9F9F9"/>
<path d="M252.704 46.6405C252.335 46.6426 251.968 46.5941 251.613 46.4964C251.235 46.3842 250.876 46.2153 250.549 45.9956L251.222 44.8018C251.409 44.9205 251.612 45.0129 251.824 45.0762C252.021 45.1246 252.223 45.1476 252.426 45.1446C252.602 45.1491 252.776 45.1108 252.934 45.0331C253.092 44.9554 253.228 44.8406 253.332 44.6985C253.571 44.3705 253.692 43.9716 253.676 43.5662V36.5967H255.421V43.6092C255.435 44.1647 255.322 44.7161 255.092 45.2217C254.888 45.655 254.561 46.0189 254.152 46.2679C253.713 46.5233 253.212 46.6515 252.704 46.6384" fill="#F9F9F9"/>
<path d="M257.206 41.8918H261.789C261.713 41.4977 261.614 41.1084 261.492 40.7259C261.389 40.3973 261.263 40.0763 261.115 39.7652C260.859 39.2203 260.511 38.7236 260.086 38.2969C259.635 37.855 259.116 37.4889 258.549 37.2128L259.207 35.578C259.963 35.9011 260.651 36.3647 261.234 36.9443C261.83 37.5509 262.315 38.2569 262.668 39.0304C263.081 39.943 263.376 40.9045 263.546 41.8918H265.248C265.293 41.8918 265.316 41.9101 265.316 41.9469V43.2779C265.317 43.2873 265.317 43.2968 265.314 43.3057C265.311 43.3146 265.306 43.3228 265.299 43.3295C265.292 43.3361 265.284 43.3412 265.275 43.3442C265.266 43.3472 265.257 43.3481 265.248 43.3468H257.206V41.8918Z" fill="#F9F9F9"/>
<path d="M265.11 43.3472C265.101 43.3485 265.091 43.3476 265.082 43.3446C265.073 43.3416 265.065 43.3366 265.059 43.33C265.052 43.3234 265.047 43.3153 265.044 43.3064C265.041 43.2975 265.04 43.2881 265.042 43.2788V41.9473C265.042 41.9106 265.064 41.8922 265.11 41.8922H266.854V36.595H268.624V43.3472H265.11ZM267.731 35.3736C267.612 35.3803 267.493 35.3617 267.382 35.3192C267.271 35.2766 267.17 35.211 267.086 35.1267C266.922 34.9372 266.838 34.6909 266.853 34.4405C266.838 34.1901 266.922 33.9437 267.086 33.7543C267.17 33.6699 267.271 33.6043 267.382 33.5618C267.493 33.5192 267.612 33.5007 267.731 33.5073C267.848 33.5013 267.964 33.5208 268.072 33.5647C268.18 33.6086 268.276 33.6756 268.356 33.7612C268.514 33.9512 268.594 34.1937 268.582 34.4405C268.594 34.6873 268.514 34.9298 268.356 35.1198C268.276 35.2053 268.18 35.2724 268.072 35.3162C267.964 35.3601 267.848 35.3797 267.731 35.3736Z" fill="#F9F9F9"/>
<path d="M270.545 32.2584L271.287 32.1349C271.118 32.0488 270.973 31.9214 270.867 31.7645C270.762 31.6061 270.707 31.4195 270.71 31.2293C270.701 31.0551 270.733 30.8812 270.803 30.7215C270.874 30.5619 270.98 30.4209 271.115 30.31C271.42 30.079 271.796 29.9624 272.178 29.9804C272.544 29.9678 272.908 30.048 273.235 30.2136L272.987 30.886C272.877 30.8305 272.759 30.789 272.638 30.7626C272.515 30.7345 272.388 30.7201 272.261 30.7195C272.082 30.7112 271.907 30.7729 271.773 30.8916C271.708 30.9573 271.659 31.0359 271.627 31.1222C271.595 31.2085 271.581 31.3006 271.587 31.3924C271.584 31.5275 271.625 31.6601 271.704 31.7697C271.781 31.8736 271.882 31.9563 272 32.0097L272.233 31.9667C272.369 31.9482 272.509 31.928 272.65 31.9048C272.792 31.8815 272.926 31.8661 273.05 31.8566C273.173 31.8471 273.275 31.8381 273.359 31.8291V32.5837C273.194 32.5928 272.979 32.6135 272.713 32.6456C272.447 32.6774 272.169 32.7097 271.876 32.7415C271.583 32.7734 271.317 32.8056 271.079 32.8375C270.841 32.8693 270.662 32.8994 270.545 32.9265L270.545 32.2584ZM271.163 33.7405H272.933V43.3463H271.163L271.163 33.7405Z" fill="#F9F9F9"/>
</g>
</g>
</g>
</g>
<defs>
<clipPath id="clip0_60_3396">
<rect width="200.41" height="60" fill="white" transform="translate(349.59)"/>
</clipPath>
<clipPath id="clip1_60_3396">
<rect width="200.41" height="60" fill="white" transform="translate(349.59)"/>
</clipPath>
<clipPath id="clip2_60_3396">
<rect width="200.41" height="59.9965" fill="white" transform="translate(349.59 0.00177002)"/>
</clipPath>
<clipPath id="clip3_60_3396">
<rect width="200.41" height="60" fill="white" transform="translate(129.19)"/>
</clipPath>
<clipPath id="clip4_60_3396">
<rect width="200.41" height="60" fill="white" transform="translate(129.19)"/>
</clipPath>
<clipPath id="clip5_60_3396">
<rect width="200.41" height="59.9965" fill="white" transform="translate(129.19 0.00177002)"/>
</clipPath>
</defs>
</svg>
