<svg width="130" height="54" viewBox="0 0 130 54" fill="none" xmlns="http://www.w3.org/2000/svg">
<g clip-path="url(#clip0_60_3278)">
<g clip-path="url(#clip1_60_3278)">
<g clip-path="url(#clip2_60_3278)">
<path d="M119.964 11.7044V19.5546H109.146L111.897 14.6717V11.702H98.6057V14.6717L101.356 19.5546H91.9899L83.4294 10.7771L80.7064 13.252L86.8863 19.558H82.0807C82.1286 19.5984 82.1834 19.6405 82.2362 19.6958L82.548 20.0043C82.7328 20.1899 83.3817 20.8705 83.6606 21.2095C83.7042 21.2555 83.7291 21.3165 83.7291 21.3799C83.7291 21.4433 83.7042 21.5043 83.6606 21.5503L82.0936 23.0822H129.476V11.7076L119.964 11.7044ZM105.251 19.5538L103.149 15.227H107.356L105.251 19.5538ZM126.115 19.5538H123.21V15.227H126.115V19.5538ZM81.1301 19.7189L81.3259 19.5538H73.2616V11.7036H63.7399V19.5538H56.5078V23.0782H81.1092C80.6829 22.6761 80.2571 22.2476 79.8314 21.7928C79.776 21.7466 79.7301 21.6899 79.6969 21.6258C79.6637 21.5618 79.6439 21.4917 79.6381 21.4198C79.6323 21.3479 79.6413 21.2754 79.6639 21.2069C79.6864 21.1384 79.722 21.075 79.7694 21.0206C80.4789 20.3408 80.8818 19.9384 81.1285 19.7189H81.1301ZM69.8908 19.5538H66.9858V15.227H69.8908V19.5538Z" fill="white"/>
<path d="M76.8843 9.01521V7.1145L56.5053 7.1145V9.01521L76.8843 9.01521Z" fill="#CEFDFF" fill-opacity="0.65"/>
<path d="M117.033 9.01521V7.1145L91.5299 7.1145V9.01521L117.033 9.01521Z" fill="#CEFDFF" fill-opacity="0.65"/>
<path d="M124.17 4.96127L123.879 7.21843L119.782 7.24985L119.557 9.02021L129.169 9.01357L129.765 4.3772L124.17 4.96127ZM127.664 7.20856L125.618 7.19366L125.7 6.5832L127.778 6.3538L127.664 7.20856Z" fill="white"/>
<path d="M94.5449 48.3443V46.4436H69.3127V48.3443H94.5449Z" fill="#CEFDFF" fill-opacity="0.65"/>
<path d="M130 48.3443V46.4436H113.644V48.3443H130Z" fill="#CEFDFF" fill-opacity="0.65"/>
<path d="M72.0711 32.9984C72.1667 33.099 72.2975 33.1583 72.4361 33.164C72.5747 33.1697 72.7097 33.1212 72.8131 33.0288L74.5138 31.3285C74.555 31.2892 74.5804 31.2366 74.5863 31.1799C74.5922 31.1232 74.5782 31.0662 74.546 31.0192C74.268 30.6793 73.5868 29.9682 73.402 29.7817L73.0935 29.4724C72.7206 29.1325 72.5051 29.0089 72.4135 29.1326L71.9793 29.503C71.7318 29.7191 71.3313 30.1523 70.6202 30.8329C70.526 30.9435 70.4789 31.0869 70.4905 31.2317C70.5021 31.3765 70.5708 31.5109 70.6814 31.6051C71.1445 32.1034 71.6081 32.5678 72.0711 32.9984Z" fill="white"/>
<path d="M91.3658 44.3572H82.2139V25.9968H85.9528L85.894 40.8322H91.4794L91.336 40.9559C91.0885 41.172 90.688 41.5738 89.9761 42.2527C89.9288 42.3074 89.893 42.3709 89.8705 42.4396C89.8481 42.5083 89.8397 42.5807 89.8455 42.6527C89.8514 42.7247 89.8719 42.795 89.9052 42.8592C89.9384 42.9233 89.9835 42.9802 90.0389 43.0265C90.4805 43.4978 90.923 43.9414 91.3658 44.3572Z" fill="white"/>
<path d="M94.8913 44.3572H92.2617L93.5628 43.0571C94.0033 43.5001 94.4474 43.9423 94.8913 44.3572Z" fill="white"/>
<path d="M95.0055 40.832L94.8589 40.9567C94.6114 41.172 94.274 41.5424 93.6215 42.1603C93.3121 41.8204 92.8792 41.3881 92.7546 41.2338L92.4453 40.9245C92.4114 40.8907 92.3759 40.8601 92.3438 40.832H95.0055Z" fill="white"/>
<path d="M103.601 32.9825V44.3571H95.7876L97.394 42.7789C97.439 42.7336 97.4641 42.6725 97.4641 42.6087C97.4641 42.5449 97.439 42.4836 97.394 42.4383C97.1152 42.0984 96.4671 41.4179 96.2798 41.2339L95.9721 40.9237C95.9366 40.8899 95.9011 40.8601 95.869 40.8321H99.8294V32.9817L103.601 32.9825Z" fill="white"/>
<path d="M119.954 40.8329H112.256V33.2294H108.456V45.914H104.716V49.6263H112.257V44.3597H123.724V26.124H119.954V40.8329Z" fill="white"/>
<path d="M129.999 27.9908C129.999 26.9579 129.162 26.1206 128.13 26.1206C127.097 26.1206 126.26 26.9579 126.26 27.9908V42.487C126.26 43.5198 127.097 44.3572 128.13 44.3572C129.162 44.3572 129.999 43.5198 129.999 42.487V27.9908Z" fill="white"/>
<path d="M88.932 26.6554L88.6348 28.9198L101.292 28.8199L101.127 30.1028L103.279 30.0789L103.736 26.6074L88.932 26.6554Z" fill="#CEFDFF" fill-opacity="0.65"/>
<path d="M67.4127 32.9209H63.8293V44.8828H60.1855V38.6519H56.4731V48.4038H67.4127V44.3845H79.6284V34.5386H67.4127V32.9209ZM76.0426 38.2831V40.8406H67.4127V38.2831H76.0426Z" fill="white"/>
<path d="M4.45406 9.55879C4.55453 9.56206 4.65462 9.54472 4.74812 9.50783C4.84162 9.47094 4.92589 9.41528 4.99706 9.34429C5.13423 9.20694 5.21135 9.0208 5.21135 8.82668C5.21135 8.63256 5.13423 8.44642 4.99706 8.30907C4.84964 8.17145 4.65573 8.09497 4.45406 8.09497C4.2524 8.09497 4.05849 8.17145 3.91107 8.30907C3.7739 8.44642 3.69678 8.63256 3.69678 8.82668C3.69678 9.0208 3.7739 9.20694 3.91107 9.34429C3.98214 9.41518 4.06666 9.47075 4.16001 9.50763C4.25336 9.54452 4.35374 9.56195 4.45406 9.55879Z" fill="white"/>
<path d="M2.48675 9.55879C2.5866 9.56209 2.68556 9.54474 2.77839 9.50783C2.87123 9.47093 2.95539 9.41524 3.02572 9.34429C3.09433 9.27667 3.14884 9.19611 3.18604 9.10724C3.22323 9.01837 3.24243 8.92302 3.24243 8.82668C3.24243 8.73034 3.22323 8.63499 3.18604 8.54612C3.14884 8.45725 3.09433 8.37669 3.02572 8.30907C2.87894 8.17149 2.68551 8.09497 2.48434 8.09497C2.28316 8.09497 2.08974 8.17149 1.94296 8.30907C1.87454 8.3768 1.82051 8.45747 1.78344 8.54632C1.74638 8.63518 1.72705 8.7304 1.72705 8.82668C1.72705 8.92295 1.74638 9.01838 1.78344 9.10724C1.82051 9.19609 1.87454 9.27656 1.94296 9.34429C2.014 9.41544 2.09917 9.47134 2.1927 9.50824C2.28623 9.54514 2.38627 9.56226 2.48675 9.55879Z" fill="white"/>
<path d="M26.5443 9.55892C26.6448 9.56149 26.744 9.5438 26.8375 9.50695C26.9311 9.47011 27.0164 9.41484 27.0881 9.34442C27.1569 9.27691 27.2119 9.19645 27.2492 9.10757C27.2865 9.01868 27.3056 8.92321 27.3056 8.82681C27.3056 8.7304 27.2865 8.63493 27.2492 8.54605C27.2119 8.45716 27.1569 8.3767 27.0881 8.30919C27.0162 8.23892 26.9311 8.1837 26.8375 8.14686C26.744 8.11002 26.6448 8.09231 26.5443 8.09469C26.4456 8.09288 26.3474 8.11082 26.2559 8.14766C26.1643 8.18451 26.0809 8.23953 26.011 8.30919C25.9422 8.3767 25.8872 8.45716 25.8499 8.54605C25.8125 8.63493 25.7935 8.7304 25.7935 8.82681C25.7935 8.92321 25.8125 9.01868 25.8499 9.10757C25.8872 9.19645 25.9422 9.27691 26.011 9.34442C26.0808 9.4142 26.1643 9.46929 26.2559 9.50615C26.3475 9.543 26.4456 9.56087 26.5443 9.55892Z" fill="white"/>
<path d="M45.5654 6.78198H44.1386V14.3577H42.297C42.1349 14.378 41.9705 14.3586 41.8176 14.3011C41.6647 14.2436 41.5282 14.1497 41.4196 14.0276C41.255 13.7817 41.1726 13.49 41.1844 13.1944V6.78198H39.7343V13.7009C39.7418 13.8662 39.709 14.031 39.6392 14.181C39.6002 14.2427 39.5447 14.292 39.4789 14.3232C39.413 14.3545 39.3394 14.3665 39.267 14.3577H28.8632C28.5685 14.3636 28.2742 14.3511 27.981 14.3204C28.4346 13.9276 28.803 13.4466 29.0646 12.9065C29.2361 12.5338 29.3309 12.1304 29.3433 11.7203C29.3386 11.5445 29.2864 11.3734 29.1919 11.2252C29.0752 11.0367 28.9199 10.8753 28.7359 10.7517C28.501 10.5934 28.2406 10.476 27.9665 10.4045C27.6036 10.3096 27.2298 10.2648 26.8547 10.2715C26.5747 10.2717 26.2956 10.3014 26.0217 10.36C25.7444 10.4193 25.4717 10.4994 25.2064 10.5998C24.9476 10.6986 24.6965 10.8171 24.4556 10.9539C24.2342 11.0798 24.0236 11.2235 23.8256 11.3837L23.8739 12.3942C23.925 12.5283 23.9894 12.6571 24.0657 12.7786C24.1665 12.9496 24.2761 13.1149 24.3952 13.2737C24.5222 13.4464 24.6597 13.621 24.8077 13.7976C24.9508 13.9658 25.1037 14.1259 25.2644 14.2775C25.1441 14.306 25.0217 14.3271 24.8987 14.3404C24.7343 14.3581 24.5694 14.3664 24.404 14.3651H5.92946V12.8628C5.93389 12.5163 5.87602 12.1716 5.75867 11.8455C5.6541 11.5495 5.488 11.2794 5.27046 11.053C5.05291 10.8266 4.78951 10.6494 4.49786 10.5332C4.18294 10.4083 3.84651 10.346 3.50775 10.3499C3.13294 10.3453 2.76156 10.4253 2.42177 10.5835C2.09884 10.735 1.81138 10.9518 1.57667 11.2204C1.33587 11.4982 1.14635 11.8169 1.01837 12.1615C0.884287 12.5229 0.817303 12.9056 0.819383 13.291C0.818978 13.6043 0.869395 13.9155 0.969229 14.2125C1.0727 14.517 1.24133 14.7953 1.46388 15.0275C1.71228 15.28 2.01184 15.4768 2.34201 15.605C2.7591 15.7628 3.20297 15.8377 3.64874 15.8253H24.4048C24.7774 15.8245 25.1486 15.7821 25.5118 15.699C25.8775 15.6185 26.2284 15.4821 26.5526 15.2948C26.8297 15.4438 27.1226 15.5624 27.4251 15.6487C27.8854 15.7772 28.3621 15.8367 28.8398 15.8253H39.3307C39.6508 15.8334 39.9681 15.7618 40.2539 15.6173C40.5163 15.4774 40.7276 15.2588 40.8589 14.9921C40.989 15.2172 41.1633 15.4136 41.3713 15.5695C41.6254 15.7522 41.9344 15.8432 42.247 15.8277H45.5686L45.5654 6.78198ZM4.49142 14.3577H3.60765C3.43509 14.3585 3.26314 14.3354 3.09688 14.2892C2.93733 14.2453 2.78878 14.1676 2.66185 14.0614C2.53138 13.9512 2.42723 13.813 2.35732 13.6572C2.27756 13.4675 2.23926 13.2631 2.24453 13.0574C2.23512 12.7036 2.36686 12.3606 2.61029 12.1037C2.71649 11.9928 2.84207 11.9031 2.98168 11.8391C3.11865 11.7765 3.26774 11.7442 3.41833 11.7442C3.57377 11.7354 3.72911 11.7661 3.86948 11.8334C4.00984 11.9008 4.13038 12.0025 4.22073 12.1293C4.42101 12.4615 4.51549 12.8469 4.49142 13.234V14.3577ZM27.8626 12.4131C27.7878 12.5786 27.6949 12.7353 27.5855 12.8802C27.4591 13.0483 27.3179 13.2045 27.1633 13.347C27.1362 13.4599 27.0713 13.5603 26.9796 13.6316C26.888 13.7029 26.7751 13.741 26.659 13.7396C26.5429 13.7381 26.4306 13.6973 26.3408 13.6237C26.2509 13.5502 26.1887 13.4483 26.1643 13.3347C26.011 13.1773 25.8656 13.012 25.7293 12.8397C25.6073 12.6906 25.4937 12.5348 25.3893 12.3728C25.3175 12.268 25.2545 12.1575 25.2 12.0427C25.4359 11.9088 25.6915 11.813 25.9573 11.7589C26.3764 11.658 26.8092 11.6282 27.2382 11.6707C27.3598 11.6817 27.4809 11.7008 27.6 11.7277C27.6938 11.747 27.7827 11.7832 27.8634 11.8349C27.8935 11.8522 27.9189 11.8771 27.9367 11.907C27.9545 11.9369 27.964 11.9709 27.9649 12.0057C27.9596 12.1469 27.9247 12.2862 27.8626 12.4131Z" fill="white"/>
<path d="M4.99803 24.3866C5.13526 24.2491 5.21233 24.0628 5.21233 23.8685C5.21233 23.6743 5.13526 23.488 4.99803 23.3505C4.85061 23.2129 4.65671 23.1362 4.45504 23.1362C4.25337 23.1362 4.05947 23.2129 3.91205 23.3505C3.77482 23.488 3.69775 23.6743 3.69775 23.8685C3.69775 24.0628 3.77482 24.2491 3.91205 24.3866C4.05938 24.5244 4.25332 24.6011 4.45504 24.6011C4.65676 24.6011 4.85071 24.5244 4.99803 24.3866Z" fill="white"/>
<path d="M2.48675 24.6011C2.58659 24.6043 2.68557 24.587 2.77839 24.5501C2.87121 24.5132 2.95533 24.4575 3.02572 24.3866C3.09436 24.3189 3.14964 24.2383 3.18684 24.1493C3.22405 24.0604 3.24243 23.965 3.24243 23.8686C3.24243 23.7722 3.22405 23.6768 3.18684 23.5878C3.14964 23.4989 3.09436 23.4183 3.02572 23.3506C2.87894 23.213 2.68551 23.1365 2.48434 23.1365C2.28316 23.1365 2.08974 23.213 1.94296 23.3506C1.87452 23.4184 1.82052 23.4991 1.78344 23.588C1.74637 23.6769 1.72705 23.7722 1.72705 23.8686C1.72705 23.9649 1.74637 24.0602 1.78344 24.1491C1.82052 24.2381 1.87452 24.3188 1.94296 24.3866C2.01406 24.4577 2.09919 24.5135 2.1927 24.5503C2.28622 24.5872 2.38628 24.6045 2.48675 24.6011Z" fill="white"/>
<path d="M1.01771 27.1965C0.883627 27.5578 0.815838 27.9403 0.817918 28.3257C0.817527 28.639 0.86875 28.9504 0.968569 29.2474C1.0722 29.5516 1.24082 29.8294 1.46322 30.0615C1.71153 30.314 2.01111 30.5111 2.34135 30.6391C2.75832 30.7974 3.20224 30.8724 3.64808 30.86H14.1647C14.4863 30.8687 14.8032 30.7854 15.0791 30.62C15.3266 30.4706 15.5336 30.2624 15.6809 30.0137C15.8119 30.2381 15.9861 30.4343 16.1933 30.5912C16.4498 30.779 16.7634 30.8729 17.0811 30.8568H22.6906V25.8311H21.2518V29.3916H17.1221C16.961 29.4104 16.7978 29.3902 16.646 29.3328C16.4943 29.2754 16.358 29.1824 16.2497 29.0617C16.082 28.817 15.9978 28.5248 16.0096 28.2285V25.8295H14.5732V28.7334C14.5799 28.8987 14.5472 29.0633 14.4781 29.2135C14.439 29.275 14.3836 29.3241 14.3178 29.3553C14.2519 29.3866 14.1782 29.3986 14.1059 29.39H5.93847V27.8877C5.94279 27.5414 5.88493 27.1972 5.76767 26.8714C5.66307 26.5753 5.497 26.305 5.27947 26.0785C5.06193 25.852 4.79852 25.6745 4.50687 25.558C4.19195 25.4331 3.85552 25.371 3.51676 25.3749C3.14195 25.3704 2.77057 25.4501 2.43078 25.6084C2.1077 25.7599 1.8202 25.9771 1.58568 26.246C1.34037 26.5257 1.14765 26.8479 1.01771 27.1965ZM2.34377 27.5562C2.40724 27.4041 2.49739 27.2644 2.60963 27.1437C2.71566 27.0323 2.84126 26.9422 2.98102 26.878C3.11796 26.8154 3.26707 26.783 3.41767 26.7832C3.57312 26.7743 3.72844 26.8048 3.86882 26.8722C4.0092 26.9396 4.12977 27.0416 4.22007 27.1685C4.4204 27.5006 4.51489 27.8858 4.49076 28.273V29.3966H3.60699C3.43438 29.3973 3.2624 29.374 3.09622 29.3273C2.93335 29.2839 2.78237 29.2047 2.65394 29.0955C2.5255 28.9864 2.42253 28.8499 2.35344 28.6961C2.2737 28.5065 2.23541 28.3022 2.24065 28.0965C2.23917 27.9111 2.27421 27.728 2.34377 27.5562Z" fill="white"/>
<path d="M15.7186 31.9325C15.649 31.9989 15.5937 32.079 15.5567 32.1678C15.5196 32.2565 15.501 32.352 15.5027 32.4481C15.5001 32.5464 15.518 32.6441 15.5551 32.7351C15.5921 32.8261 15.6481 32.9083 15.7186 32.9768C15.867 33.1118 16.0602 33.1867 16.2608 33.1867C16.4614 33.1867 16.6546 33.1118 16.803 32.9768C16.8735 32.9084 16.9288 32.8262 16.9657 32.7351C17.0026 32.6441 17.0202 32.5463 17.0173 32.4481C17.0193 32.352 17.0018 32.2565 16.9649 32.1678C16.928 32.079 16.8726 31.9989 16.803 31.9325C16.6546 31.7975 16.4614 31.7227 16.2608 31.7227C16.0602 31.7227 15.867 31.7975 15.7186 31.9325Z" fill="white"/>
<path d="M13.7597 31.9326C13.6904 31.9991 13.6362 32.0793 13.5994 32.168C13.5626 32.2568 13.5442 32.3521 13.5462 32.4482C13.5433 32.5463 13.561 32.6439 13.5978 32.735C13.6345 32.826 13.6894 32.9083 13.7597 32.9769C13.9083 33.1117 14.102 33.1865 14.3027 33.1865C14.5034 33.1865 14.6971 33.1117 14.8457 32.9769C14.9165 32.9086 14.9721 32.8264 15.0092 32.7354C15.0463 32.6443 15.0638 32.5465 15.0608 32.4482C15.0628 32.352 15.0447 32.2564 15.0076 32.1676C14.9705 32.0788 14.9156 31.9987 14.8457 31.9326C14.6971 31.7977 14.5034 31.7229 14.3027 31.7229C14.102 31.7229 13.9083 31.7977 13.7597 31.9326Z" fill="white"/>
<path d="M22.3038 31.9327C22.2336 31.864 22.1503 31.8101 22.0589 31.7741C21.9675 31.7382 21.8695 31.7208 21.7713 31.7232C21.671 31.7204 21.5718 31.7374 21.4781 31.7733C21.3844 31.8093 21.2987 31.8635 21.2259 31.9327C21.1556 31.9986 21.0991 32.0785 21.0616 32.1673C21.0241 32.2561 21.0058 32.3519 21.0076 32.4483C21.0049 32.5467 21.0232 32.6446 21.0608 32.7357C21.0983 32.8267 21.1546 32.909 21.2259 32.9769C21.2986 33.0461 21.3843 33.1003 21.4781 33.1363C21.5718 33.1722 21.671 33.1894 21.7713 33.1866C21.8695 33.189 21.9675 33.1716 22.0589 33.1357C22.1503 33.0997 22.2336 33.0456 22.3038 32.9769C22.3755 32.9092 22.432 32.8272 22.4698 32.7361C22.5076 32.6449 22.5256 32.5469 22.523 32.4483C22.5247 32.3517 22.506 32.2559 22.4682 32.1671C22.4304 32.0782 22.3746 31.9984 22.3038 31.9327Z" fill="white"/>
<path d="M40.7942 29.3992H38.3064C38.0117 29.4049 37.7174 29.3921 37.4242 29.3611C37.8786 28.9692 38.2469 28.488 38.507 27.9472C38.6777 27.574 38.7722 27.1702 38.7849 26.76C38.7796 26.5846 38.7281 26.4139 38.6351 26.2651C38.5181 26.0772 38.3631 25.9159 38.1799 25.7916C37.9446 25.6335 37.684 25.516 37.4097 25.4442C37.0466 25.3493 36.6725 25.3047 36.2972 25.3114C36.0171 25.3118 35.7381 25.3413 35.4642 25.3997C34.9143 25.516 34.3853 25.7163 33.8964 25.9936C33.6748 26.1189 33.4642 26.2624 33.2664 26.4226L33.3156 27.4324C33.3656 27.567 33.4296 27.6961 33.5057 27.8177C33.5981 27.9737 33.7065 28.1377 33.8352 28.3126C33.9639 28.4875 34.1 28.6599 34.2477 28.8364C34.3909 29.0044 34.5435 29.1647 34.7036 29.3166C34.5833 29.3452 34.4609 29.3661 34.3379 29.3792C34.1735 29.3974 34.0086 29.406 33.8432 29.4048H28.0999C27.9357 29.4253 27.7685 29.406 27.6133 29.3486C27.4582 29.2912 27.3195 29.1973 27.2081 29.0749C27.0444 28.8287 26.9625 28.5371 26.9745 28.2417V25.8419H25.5381V30.5516C25.557 30.9068 25.4916 31.2614 25.3479 31.5868C25.2707 31.7104 25.1604 31.8095 25.0289 31.8722C24.8974 31.9349 24.7506 31.9586 24.6059 31.9407C24.502 31.9401 24.3982 31.9338 24.295 31.9218C24.182 31.9094 24.075 31.8946 23.9727 31.8773L23.6183 31.8013L23.4668 33.241C23.5185 33.2577 23.571 33.2703 23.6247 33.2789L23.8084 33.3044C23.909 33.3209 24.0283 33.3358 24.1685 33.349C24.3087 33.3622 24.4525 33.3679 24.6051 33.3679C24.9568 33.3749 25.3059 33.3037 25.6267 33.1592C25.9143 33.0247 26.1675 32.8274 26.3687 32.5818C26.5758 32.3288 26.7299 32.0367 26.8222 31.723C26.9255 31.3789 26.9772 31.0214 26.9745 30.6622V30.3214C27.116 30.4757 27.2832 30.6039 27.4691 30.7001C27.675 30.8106 27.9058 30.8673 28.1394 30.865H33.8457C34.2177 30.8639 34.5883 30.8215 34.951 30.7387C35.3169 30.658 35.668 30.5217 35.9926 30.3345C36.2698 30.4831 36.5627 30.6017 36.8651 30.6878C37.3251 30.8164 37.8015 30.8758 38.279 30.8642H42.2193V21.8235H40.7918L40.7942 29.3992ZM37.3082 27.4546C37.2333 27.6203 37.1404 27.7772 37.0311 27.9225C36.9051 28.0909 36.7639 28.2471 36.6089 28.3893C36.4476 28.5369 36.272 28.668 36.0845 28.7805C35.9134 28.6621 35.7545 28.5267 35.6108 28.3762C35.4569 28.2193 35.3115 28.054 35.1757 27.8812C35.0536 27.7318 34.9395 27.576 34.8342 27.4143C34.7633 27.3089 34.7003 27.1985 34.6448 27.0842C34.8807 26.9502 35.1363 26.8544 35.4021 26.8004C35.6917 26.7317 35.9883 26.6958 36.2859 26.6933C36.4212 26.6933 36.5527 26.6998 36.6839 26.7122C36.8049 26.7233 36.9255 26.7424 37.044 26.7692C37.1382 26.788 37.2275 26.8243 37.3082 26.8764C37.3385 26.8936 37.3644 26.9184 37.3823 26.9483C37.4003 26.9782 37.4096 27.0123 37.4105 27.0472C37.4055 27.1886 37.3701 27.3273 37.3082 27.4546Z" fill="white"/>
<path d="M45.7192 21.8235H44.292V30.8642H45.7192V21.8235Z" fill="white"/>
<path d="M3.8497 38.393C3.78128 38.4607 3.72725 38.5412 3.69018 38.63C3.65312 38.7189 3.63379 38.8143 3.63379 38.9106C3.63379 39.0069 3.65312 39.1021 3.69018 39.1909C3.72725 39.2798 3.78128 39.3605 3.8497 39.4282C3.99648 39.5658 4.19071 39.6423 4.39188 39.6423C4.59305 39.6423 4.78648 39.5658 4.93326 39.4282C5.00188 39.3606 5.05639 39.28 5.09358 39.1911C5.13077 39.1023 5.14997 39.0069 5.14997 38.9106C5.14997 38.8142 5.13077 38.7189 5.09358 38.63C5.05639 38.5412 5.00188 38.4606 4.93326 38.393C4.78657 38.2552 4.59311 38.1785 4.39188 38.1785C4.19065 38.1785 3.99638 38.2552 3.8497 38.393Z" fill="white"/>
<path d="M5.22964 41.1243C5.01259 40.8991 4.74977 40.7226 4.45946 40.6062C4.14444 40.4818 3.80885 40.4197 3.47015 40.4238C3.09539 40.4196 2.72411 40.4996 2.38417 40.6574C2.05977 40.8103 1.76948 41.0272 1.53102 41.2951C1.28768 41.5703 1.09935 41.8894 0.975941 42.2354C0.845624 42.5979 0.779714 42.9805 0.781786 43.3657C0.781615 43.6791 0.833365 43.9904 0.934049 44.2871C1.03656 44.5919 1.20532 44.8701 1.4287 45.1014C1.67648 45.3543 1.97587 45.5511 2.30603 45.6789C2.72364 45.8369 3.16801 45.9121 3.61436 45.9H5.89831V42.9301C5.90331 42.5842 5.84731 42.2403 5.73315 41.9138C5.62188 41.6184 5.45074 41.3495 5.22964 41.1243ZM4.45302 44.4382H3.57086C3.39799 44.4387 3.22578 44.4154 3.05929 44.3689C2.89973 44.325 2.75118 44.2473 2.62425 44.1411C2.49363 44.031 2.38946 43.8928 2.31972 43.7369C2.23983 43.5473 2.20178 43.3428 2.20774 43.1371C2.20466 42.9514 2.2384 42.767 2.30683 42.5943C2.36943 42.4419 2.45859 42.3022 2.57108 42.1818C2.67816 42.0708 2.80531 41.9809 2.94569 41.917C3.07794 41.8551 3.22264 41.8227 3.36865 41.8221C3.52479 41.8133 3.68025 41.844 3.82141 41.9114C3.96257 41.9787 4.08448 42.0805 4.17588 42.2074C4.38152 42.5376 4.47865 42.9239 4.45382 43.3121L4.45302 44.4382Z" fill="white"/>
<path d="M1.87836 38.3929C1.74118 38.5303 1.66406 38.7164 1.66406 38.9105C1.66406 39.1047 1.74118 39.2908 1.87836 39.4281C2.0255 39.5657 2.21996 39.642 2.42135 39.642C2.62274 39.642 2.81639 39.5657 2.96353 39.4281C3.03175 39.3603 3.08611 39.2797 3.12305 39.1909C3.15999 39.1021 3.17864 39.0067 3.17864 38.9105C3.17864 38.8143 3.15999 38.719 3.12305 38.6302C3.08611 38.5413 3.03175 38.4608 2.96353 38.3929C2.81657 38.2551 2.62286 38.1782 2.42135 38.1782C2.21984 38.1782 2.02532 38.2551 1.87836 38.3929Z" fill="white"/>
<path d="M19.7442 41.3536C19.496 41.0695 19.1879 40.8443 18.8419 40.6938C18.4488 40.5268 18.025 40.445 17.598 40.4538C17.0684 40.4578 16.548 40.5919 16.0826 40.8447C15.5827 41.1081 15.1472 41.4788 14.8073 41.9303V40.8679H13.3548V44.4416H11.2352C11.071 44.4624 10.9039 44.4433 10.7486 44.3858C10.5933 44.3284 10.4545 44.2342 10.3434 44.1115C10.1801 43.8651 10.0982 43.5736 10.1097 43.2783V40.8785H8.6717V45.5882C8.69153 45.9439 8.62636 46.2993 8.48077 46.6244C8.40373 46.7482 8.29251 46.8471 8.16093 46.9098C8.02936 46.9726 7.88261 46.9964 7.73798 46.9783C7.63457 46.9776 7.53128 46.971 7.42862 46.9586C7.31395 46.9462 7.20782 46.9312 7.10718 46.9147L6.7519 46.8389L6.60205 48.2784C6.65262 48.2951 6.70489 48.3074 6.75754 48.3155L6.94202 48.341C7.04267 48.3575 7.16276 48.3726 7.30053 48.3849C7.4383 48.3973 7.58621 48.4039 7.73718 48.4039C8.08892 48.4114 8.43813 48.34 8.75871 48.195C9.04761 48.0607 9.30295 47.8635 9.50552 47.6176C9.71219 47.3642 9.86626 47.0723 9.95909 46.7588C10.0631 46.4149 10.114 46.0573 10.1105 45.698V45.3572C10.2519 45.5118 10.42 45.6403 10.606 45.7366C10.8115 45.8473 11.0413 45.9042 11.2747 45.9018H20.4789V43.6166C20.4828 43.1889 20.4219 42.763 20.2977 42.3536C20.1836 41.9861 19.9947 41.6457 19.7442 41.3536ZM19.0256 44.4408H14.8339C14.9171 43.7169 15.2576 43.047 15.7934 42.5532C16.0274 42.3365 16.2965 42.1614 16.5894 42.0352C17.061 41.8264 17.5917 41.7949 18.0846 41.9468C18.2763 42.0063 18.4503 42.1126 18.5905 42.2561C18.7413 42.4207 18.8508 42.6187 18.9104 42.8338C18.9947 43.123 19.0342 43.4234 19.0264 43.7246L19.0256 44.4408Z" fill="white"/>
<path d="M40.6562 44.4413H39.3568C39.32 44.4324 39.2826 44.4281 39.2448 44.4282H38.7904C38.584 44.4378 38.3777 44.3994 38.1886 44.316C38.0589 44.2533 37.9463 44.1608 37.8591 44.0461C37.7854 43.9491 37.7359 43.8361 37.7141 43.7162C37.6948 43.6211 37.684 43.5244 37.6819 43.4274C37.7299 42.6457 37.4992 41.8723 37.0309 41.2446C36.7983 40.9808 36.5082 40.7736 36.1834 40.6387C35.8586 40.5039 35.5073 40.4452 35.1562 40.4667C34.8078 40.4646 34.4631 40.5343 34.1428 40.6714C33.8224 40.8085 33.5334 41.0102 33.2944 41.2637C33.0577 41.5178 32.873 41.8161 32.7514 42.1414C32.6176 42.4962 32.5516 42.8727 32.5557 43.2518C32.5608 43.4522 32.5396 43.6524 32.4928 43.8473C32.4621 43.9791 32.4041 44.1031 32.3228 44.2113C32.2596 44.2933 32.1736 44.3546 32.0755 44.3877C31.9855 44.4159 31.8911 44.4304 31.7968 44.4306H31.3021C31.2695 44.4305 31.2369 44.4351 31.2054 44.4439H30.2911C29.9963 44.4497 29.7013 44.4369 29.4081 44.4058C29.8621 44.013 30.2318 43.532 30.4941 42.992C30.6642 42.6185 30.7584 42.215 30.7712 41.8049C30.7654 41.6293 30.7126 41.4584 30.619 41.3098C30.5036 41.1206 30.3484 40.9589 30.1638 40.8363C29.9286 40.6774 29.6684 40.56 29.3936 40.4891C29.0309 40.3945 28.6566 40.3497 28.2818 40.3562C28.002 40.3563 27.7232 40.3858 27.4496 40.4444C27.1724 40.5027 26.8999 40.5827 26.6351 40.6837C26.3758 40.7821 26.1242 40.9002 25.8827 41.0367C25.6609 41.1625 25.4501 41.3062 25.2519 41.4665L25.3042 42.4764C25.3536 42.6109 25.4162 42.74 25.492 42.8617C25.5855 43.0173 25.6958 43.1822 25.8223 43.3565C25.9485 43.5289 26.087 43.703 26.2396 43.8804C26.383 44.0479 26.5345 44.2082 26.6939 44.3605C26.5735 44.3887 26.4512 44.4096 26.3282 44.4232C26.1638 44.441 25.9989 44.4496 25.8335 44.4487H23.751V36.8732H22.3105V45.9132H25.8343C26.2064 45.912 26.577 45.8696 26.9397 45.7869C27.3056 45.7061 27.6567 45.5697 27.9813 45.3827C28.2577 45.5317 28.5501 45.6501 28.8522 45.7357C29.3127 45.8643 29.7897 45.9239 30.2677 45.9124H31.8709C32.1381 45.9147 32.3983 45.8299 32.6129 45.6707C32.8289 45.5118 33.0024 45.3016 33.1172 45.0592C33.3242 45.3336 33.5888 45.559 33.893 45.7192C34.2635 45.9015 34.6736 45.9891 35.0861 45.9742C35.2891 45.9742 35.4852 45.9659 35.6799 45.9486C35.8697 45.9324 36.0573 45.8917 36.2366 45.8274C36.4243 45.7572 36.5991 45.6562 36.7538 45.5287C36.943 45.3688 37.1052 45.1794 37.2339 44.9678C37.3684 45.2544 37.5823 45.4959 37.851 45.6632C38.1198 45.8305 38.4319 45.9164 38.7485 45.9105H42.083V36.865H40.6562V44.4413ZM29.2921 42.4961C29.2168 42.6615 29.1229 42.818 29.0133 42.963C28.8883 43.1321 28.747 43.2887 28.5912 43.43C28.5642 43.5428 28.4998 43.643 28.4083 43.7142C28.3169 43.7855 28.2036 43.8235 28.0877 43.8222C27.9718 43.8208 27.86 43.7801 27.7703 43.7068C27.6805 43.6334 27.6182 43.5317 27.5938 43.4183C27.4382 43.2578 27.2925 43.0929 27.1572 42.9235C27.0219 42.7585 26.9104 42.5983 26.8164 42.4556C26.7463 42.3499 26.6828 42.2397 26.6271 42.1257C26.8628 41.9921 27.1181 41.8964 27.3836 41.8419C27.674 41.7732 27.9713 41.7371 28.2698 41.7346C28.4042 41.7346 28.5358 41.7413 28.6669 41.7537C28.7877 41.7647 28.908 41.7836 29.0262 41.8105C29.1204 41.8296 29.2104 41.8661 29.2913 41.9179C29.3212 41.9354 29.3462 41.9603 29.3638 41.9902C29.3814 42.0201 29.3903 42.054 29.3912 42.0887C29.3868 42.2299 29.353 42.3686 29.2921 42.4961ZM36.0287 44.146C35.7895 44.3758 35.4702 44.5041 35.1385 44.5041C34.8068 44.5041 34.4883 44.3758 34.2491 44.146C34.0546 43.8926 33.9544 43.5794 33.9655 43.26C33.9628 43.0593 33.9938 42.8595 34.0582 42.6693C34.115 42.5049 34.201 42.352 34.3111 42.2174C34.4111 42.0953 34.5366 41.9969 34.6793 41.9295C34.822 41.8622 34.9783 41.8275 35.1361 41.8278C35.2891 41.8282 35.4394 41.8627 35.5776 41.9285C35.7215 41.996 35.8485 42.095 35.949 42.2182C36.0592 42.3539 36.147 42.5064 36.2084 42.6701C36.2773 42.8593 36.3114 43.0595 36.3091 43.2608C36.3199 43.5795 36.2215 43.8921 36.0287 44.146Z" fill="white"/>
<path d="M45.58 36.865H44.1528V45.9057H45.58V36.865Z" fill="white"/>
</g>
</g>
</g>
<defs>
<clipPath id="clip0_60_3278">
<rect width="129.22" height="54" fill="white" transform="translate(0.780273)"/>
</clipPath>
<clipPath id="clip1_60_3278">
<rect width="129.22" height="54" fill="white" transform="translate(0.780273)"/>
</clipPath>
<clipPath id="clip2_60_3278">
<rect width="129.22" height="45.2457" fill="white" transform="translate(0.780273 4.3772)"/>
</clipPath>
</defs>
</svg>
