<svg width="30" height="29" viewBox="0 0 30 29" fill="none" xmlns="http://www.w3.org/2000/svg">
<g clip-path="url(#clip0_46_1761)">
<g clip-path="url(#clip1_46_1761)">
<g clip-path="url(#clip2_46_1761)">
<path d="M6.29223 3.39887C5.26633 3.40009 4.28281 3.80817 3.55739 4.53358C2.83197 5.259 2.42389 6.24253 2.42267 7.26843V21.781C2.42369 22.8072 2.83178 23.791 3.55739 24.5166C4.283 25.2422 5.26684 25.6503 6.293 25.6513H23.7072C24.7333 25.6503 25.7172 25.2422 26.4428 24.5166C27.1684 23.791 27.5765 22.8072 27.5775 21.781V7.26843C27.5765 6.24226 27.1684 5.25842 26.4428 4.53282C25.7172 3.80721 24.7333 3.39912 23.7072 3.3981L6.29223 3.39887ZM6.29223 0.980103H23.7072C24.533 0.980103 25.3507 1.14275 26.1136 1.45877C26.8765 1.77479 27.5698 2.23799 28.1537 2.82191C28.7376 3.40583 29.2008 4.09905 29.5168 4.86199C29.8328 5.62492 29.9955 6.44263 29.9955 7.26843V21.781C29.9955 23.4488 29.333 25.0482 28.1537 26.2275C26.9744 27.4068 25.3749 28.0693 23.7072 28.0693H6.29223C4.62446 28.0693 3.025 27.4068 1.84571 26.2275C0.666424 25.0482 0.00390625 23.4488 0.00390625 21.781L0.00390625 7.26843C0.00390625 5.60066 0.666424 4.0012 1.84571 2.82191C3.025 1.64262 4.62446 0.980103 6.29223 0.980103Z" fill="#02A4AC"/>
<mask id="mask0_46_1761" style="mask-type:luminance" maskUnits="userSpaceOnUse" x="6" y="8" width="18" height="13">
<path d="M23.3162 8.86548H6.68359V20.1846H23.3162V8.86548Z" fill="white"/>
</mask>
<g mask="url(#mask0_46_1761)">
<path d="M10.3516 8.86466H12.3052H12.9698C13.2207 8.85883 13.4646 8.94747 13.6533 9.11301C13.8419 9.27854 13.9615 9.5089 13.9883 9.75844C14.0152 10.008 13.9473 10.2585 13.7981 10.4603C13.649 10.6622 13.4295 10.8007 13.1831 10.8483C13.0747 10.8609 12.9656 10.866 12.8566 10.8637H8.91693C8.70131 10.8637 8.70054 10.8637 8.70054 11.0809C8.70054 11.834 8.70054 12.5871 8.70054 13.3403C8.70054 13.4835 8.74289 13.5274 8.88689 13.5266C10.1382 13.522 11.3896 13.5266 12.6417 13.5266C12.8354 13.5166 13.0277 13.5644 13.1942 13.6639C13.3606 13.7635 13.4937 13.9103 13.5766 14.0857C13.6492 14.233 13.6842 14.396 13.6785 14.5601C13.6728 14.7242 13.6265 14.8844 13.5439 15.0263C13.4612 15.1682 13.3447 15.2874 13.2048 15.3734C13.0648 15.4593 12.9058 15.5092 12.7418 15.5188C12.6648 15.5234 12.5878 15.5188 12.5108 15.5188H8.90923C8.69977 15.5188 8.699 15.5188 8.699 15.7221C8.699 16.47 8.699 17.2178 8.699 17.9652C8.699 18.1778 8.699 18.1786 8.91924 18.1786C10.1552 18.1786 11.3911 18.1786 12.6271 18.1786C12.8018 18.1683 12.9761 18.2051 13.1318 18.285C13.2875 18.3649 13.419 18.485 13.5127 18.6329C13.6091 18.7802 13.6647 18.9504 13.6739 19.1262C13.6831 19.302 13.6455 19.4771 13.5649 19.6337C13.4844 19.7902 13.3638 19.9226 13.2154 20.0174C13.067 20.1121 12.8962 20.1658 12.7203 20.173C12.6479 20.1776 12.5747 20.173 12.5023 20.173C11.0377 20.173 9.57328 20.173 8.10913 20.173C7.88246 20.1849 7.65517 20.1715 7.43148 20.133C7.21072 20.0777 7.01583 19.9478 6.87973 19.7654C6.74364 19.583 6.67468 19.3593 6.68452 19.1319C6.69145 18.5351 6.70069 17.9375 6.69992 17.3407C6.69761 16.4113 6.68375 15.4749 6.68375 14.5408C6.68375 13.0007 6.70069 11.4567 6.69684 9.91425C6.69356 9.77388 6.71911 9.63433 6.77191 9.50422C6.82472 9.37412 6.90365 9.25623 7.00384 9.15786C7.10402 9.05948 7.22332 8.9827 7.35436 8.93227C7.4854 8.88184 7.6254 8.85882 7.76568 8.86466H10.3516Z" fill="#DBDBDB"/>
<path d="M17.3474 11.3727C17.4244 11.3396 17.4722 11.3226 17.5168 11.3003C18.127 10.9897 18.8069 10.8413 19.4911 10.8695C20.1752 10.8978 20.8406 11.1017 21.4231 11.4615C22.0056 11.8214 22.4857 12.3252 22.8171 12.9244C23.1486 13.5235 23.3201 14.1979 23.3154 14.8826C23.3154 16.2957 23.3154 17.708 23.3154 19.118C23.3306 19.3536 23.2607 19.5868 23.1186 19.7753C22.9764 19.9638 22.7714 20.095 22.5407 20.1452C22.3905 20.179 22.2344 20.1777 22.0848 20.1414C21.9351 20.1051 21.7958 20.0347 21.6778 19.9357C21.5598 19.8368 21.4662 19.7119 21.4043 19.5709C21.3424 19.4299 21.3139 19.2764 21.321 19.1226C21.3148 18.2809 21.321 17.44 21.321 16.5983C21.321 16.0169 21.3163 15.4348 21.321 14.8534C21.3226 14.3778 21.1534 13.9175 20.8442 13.5563C20.535 13.195 20.1064 12.9567 19.6363 12.8849C19.1662 12.8131 18.686 12.9124 18.283 13.1649C17.88 13.4173 17.5811 13.8061 17.4406 14.2604C17.3817 14.4965 17.3542 14.7394 17.359 14.9827C17.3513 16.3488 17.359 17.7149 17.3551 19.081C17.3697 19.2871 17.3219 19.4928 17.2179 19.6714C17.114 19.85 16.9586 19.9931 16.7722 20.0821C16.6412 20.1443 16.4983 20.1773 16.3534 20.1789C16.2084 20.1804 16.0648 20.1505 15.9326 20.0911C15.8003 20.0317 15.6825 19.9443 15.5874 19.8349C15.4922 19.7255 15.422 19.5968 15.3815 19.4576C15.3502 19.3538 15.3326 19.2463 15.3291 19.138C15.3291 16.5147 15.3324 13.8916 15.3391 11.2687C15.3296 11.1229 15.3521 10.9767 15.4051 10.8405C15.4581 10.7042 15.5403 10.5813 15.646 10.4802C15.7516 10.3791 15.878 10.3024 16.0165 10.2555C16.1549 10.2085 16.3019 10.1924 16.4472 10.2084C16.6737 10.2315 16.8851 10.3324 17.0456 10.4939C17.206 10.6553 17.3056 10.8673 17.3274 11.0939C17.3343 11.1756 17.3413 11.2564 17.3513 11.3704" fill="#DBDBDB"/>
</g>
</g>
</g>
</g>
<defs>
<clipPath id="clip0_46_1761">
<rect width="30" height="27.09" fill="white" transform="translate(0 0.980103)"/>
</clipPath>
<clipPath id="clip1_46_1761">
<rect width="30" height="27.09" fill="white" transform="translate(0 0.980103)"/>
</clipPath>
<clipPath id="clip2_46_1761">
<rect width="29.9924" height="27.09" fill="white" transform="translate(0.00390625 0.980103)"/>
</clipPath>
</defs>
</svg>
