<svg width="21" height="21" viewBox="0 0 21 21" fill="none" xmlns="http://www.w3.org/2000/svg">
<g clip-path="url(#clip0_46_1800)">
<g clip-path="url(#clip1_46_1800)">
<path d="M10.39 7.1969V11.3636M10.39 13.8636H10.3983M7.76289 17.7472H13.017C13.5779 17.7472 13.8584 17.7472 14.1094 17.6656C14.3315 17.5934 14.536 17.4753 14.7095 17.319C14.9058 17.1424 15.046 16.8995 15.3264 16.4138L17.9535 11.8636C18.234 11.3778 18.3741 11.135 18.429 10.8767C18.4776 10.6483 18.4776 10.4122 18.429 10.1837C18.3741 9.92549 18.234 9.68265 17.9535 9.1969L15.3264 4.64669C15.046 4.16095 14.9058 3.91808 14.7095 3.74145C14.536 3.58516 14.3315 3.4671 14.1094 3.39493C13.8584 3.31335 13.5779 3.31335 13.017 3.31335H7.76289C7.202 3.31335 6.92156 3.31335 6.6705 3.39493C6.44837 3.4671 6.24389 3.58516 6.07032 3.74145C5.87415 3.91808 5.73393 4.16095 5.45349 4.64669L2.82642 9.1969C2.54598 9.68265 2.40576 9.92549 2.35087 10.1837C2.30231 10.4122 2.30231 10.6483 2.35087 10.8767C2.40576 11.135 2.54598 11.3778 2.82642 11.8636L5.45349 16.4138C5.73393 16.8995 5.87415 17.1424 6.07032 17.319C6.24389 17.4753 6.44837 17.5934 6.6705 17.6656C6.92156 17.7472 7.202 17.7472 7.76289 17.7472Z" stroke="black" stroke-width="1.76" stroke-linecap="round" stroke-linejoin="round"/>
</g>
</g>
<defs>
<clipPath id="clip0_46_1800">
<rect width="20" height="20" fill="white" transform="translate(0.389648 0.530151)"/>
</clipPath>
<clipPath id="clip1_46_1800">
<rect width="20" height="20" fill="white" transform="translate(0.389648 0.530151)"/>
</clipPath>
</defs>
</svg>
