<svg width="21" height="20" viewBox="0 0 21 20" fill="none" xmlns="http://www.w3.org/2000/svg">
<g clip-path="url(#clip0_46_1738)">
<g clip-path="url(#clip1_46_1738)">
<path d="M10.39 6.66688V10.8335M10.39 13.3335H10.3983M7.76289 17.2171H13.017C13.5779 17.2171 13.8584 17.2171 14.1094 17.1355C14.3315 17.0634 14.536 16.9453 14.7095 16.789C14.9058 16.6124 15.046 16.3695 15.3264 15.8838L17.9535 11.3335C18.234 10.8478 18.3741 10.605 18.429 10.3467C18.4776 10.1183 18.4776 9.88213 18.429 9.65371C18.3741 9.39546 18.234 9.15262 17.9535 8.66687L15.3264 4.11666C15.046 3.63093 14.9058 3.38805 14.7095 3.21142C14.536 3.05513 14.3315 2.93708 14.1094 2.8649C13.8584 2.78333 13.5779 2.78333 13.017 2.78333H7.76289C7.202 2.78333 6.92156 2.78333 6.6705 2.8649C6.44837 2.93708 6.24389 3.05513 6.07032 3.21142C5.87415 3.38805 5.73393 3.63093 5.45349 4.11666L2.82642 8.66687C2.54598 9.15262 2.40576 9.39546 2.35087 9.65371C2.30231 9.88213 2.30231 10.1183 2.35087 10.3467C2.40576 10.605 2.54598 10.8478 2.82642 11.3335L5.45349 15.8838C5.73393 16.3695 5.87415 16.6124 6.07032 16.789C6.24389 16.9453 6.44837 17.0634 6.6705 17.1355C6.92156 17.2171 7.202 17.2171 7.76289 17.2171Z" stroke="black" stroke-width="1.76" stroke-linecap="round" stroke-linejoin="round"/>
</g>
</g>
<defs>
<clipPath id="clip0_46_1738">
<rect width="20" height="20" fill="white" transform="translate(0.389648 0.00012207)"/>
</clipPath>
<clipPath id="clip1_46_1738">
<rect width="20" height="20" fill="white" transform="translate(0.389648 0.00012207)"/>
</clipPath>
</defs>
</svg>
