<svg width="24" height="22" viewBox="0 0 24 22" fill="none" xmlns="http://www.w3.org/2000/svg">
<g clip-path="url(#clip0_81_4616)">
<g clip-path="url(#clip1_81_4616)">
<g clip-path="url(#clip2_81_4616)">
<path d="M5.0341 2.04494C4.21346 2.04592 3.42671 2.37235 2.84643 2.95263C2.26615 3.53291 1.93972 4.31966 1.93874 5.1403V16.7493C1.93955 17.5702 2.266 18.3572 2.84643 18.9376C3.42686 19.518 4.21386 19.8445 5.03472 19.8453H18.9648C19.7856 19.8445 20.5726 19.518 21.1531 18.9376C21.7335 18.3572 22.0599 17.5702 22.0607 16.7493V5.1403C22.0599 4.31945 21.7335 3.53245 21.1531 2.95202C20.5726 2.37158 19.7856 2.04514 18.9648 2.04432L5.0341 2.04494ZM5.0341 0.110107H18.9648C19.6253 0.110107 20.2795 0.240217 20.8897 0.493008C21.5 0.745799 22.0546 1.11632 22.5217 1.58342C22.9888 2.05051 23.3593 2.60504 23.6121 3.21533C23.8649 3.82562 23.995 4.47973 23.995 5.1403V16.7493C23.995 18.0834 23.465 19.3628 22.5217 20.3062C21.5783 21.2495 20.2989 21.7795 18.9648 21.7795H5.0341C3.70001 21.7795 2.42056 21.2495 1.47722 20.3062C0.533872 19.3628 0.00390625 18.0834 0.00390625 16.7493L0.00390625 5.1403C0.00390625 3.80621 0.533872 2.52676 1.47722 1.58342C2.42056 0.640073 3.70001 0.110107 5.0341 0.110107Z" fill="#02A4AC"/>
<mask id="mask0_81_4616" style="mask-type:luminance" maskUnits="userSpaceOnUse" x="5" y="6" width="14" height="10">
<path d="M18.6515 6.41797H5.34668V15.4724H18.6515V6.41797Z" fill="white"/>
</mask>
<g mask="url(#mask0_81_4616)">
<path d="M8.28078 6.41746H9.84355H10.3751C10.5759 6.4128 10.771 6.4837 10.9219 6.61612C11.0728 6.74853 11.1685 6.9328 11.1899 7.13242C11.2114 7.33203 11.1571 7.53242 11.0378 7.69389C10.9185 7.85536 10.7429 7.96613 10.5458 8.00425C10.4591 8.01427 10.3718 8.01839 10.2846 8.01657H7.13318C6.9607 8.01657 6.96009 8.01657 6.96009 8.19028C6.96009 8.79272 6.96009 9.39516 6.96009 9.9976C6.96009 10.1122 6.99397 10.1473 7.10916 10.1467C8.11015 10.143 9.11113 10.1467 10.1127 10.1467C10.2677 10.1387 10.4215 10.1769 10.5547 10.2565C10.6878 10.3362 10.7943 10.4536 10.8606 10.5939C10.9186 10.7117 10.9466 10.8421 10.9421 10.9734C10.9375 11.1047 10.9005 11.2328 10.8344 11.3463C10.7683 11.4598 10.6751 11.5552 10.5631 11.6239C10.4512 11.6927 10.324 11.7326 10.1928 11.7402C10.1312 11.7439 10.0696 11.7402 10.008 11.7402H7.12702C6.95947 11.7402 6.95886 11.7402 6.95886 11.9029C6.95886 12.5012 6.95886 13.0993 6.95886 13.6973C6.95886 13.8673 6.95886 13.8679 7.13503 13.8679C8.1237 13.8679 9.11237 13.8679 10.101 13.8679C10.2408 13.8597 10.3802 13.8891 10.5048 13.953C10.6294 14.0169 10.7345 14.113 10.8094 14.2313C10.8865 14.3492 10.931 14.4853 10.9384 14.626C10.9457 14.7666 10.9157 14.9067 10.8512 15.0319C10.7868 15.1571 10.6903 15.263 10.5716 15.3388C10.4529 15.4146 10.3163 15.4575 10.1756 15.4633C10.1177 15.467 10.0591 15.4633 10.0012 15.4633C8.82962 15.4633 7.65821 15.4633 6.487 15.4633C6.30568 15.4728 6.12387 15.4621 5.94493 15.4313C5.76834 15.387 5.61244 15.2832 5.50358 15.1373C5.39471 14.9914 5.33955 14.8124 5.34742 14.6305C5.35296 14.1531 5.36035 13.6751 5.35974 13.1977C5.35789 12.4542 5.3468 11.7051 5.3468 10.9579C5.3468 9.72595 5.36035 8.49089 5.35727 7.25705C5.35465 7.14477 5.37509 7.03314 5.41733 6.92906C5.45957 6.82499 5.52271 6.73069 5.60285 6.652C5.68299 6.5733 5.77842 6.51188 5.88324 6.47154C5.98807 6.4312 6.10005 6.41279 6.21227 6.41746H8.28078Z" fill="#DBDBDB"/>
<path d="M13.8772 8.42371C13.9388 8.39722 13.977 8.38367 14.0127 8.3658C14.5008 8.1173 15.0447 7.99863 15.592 8.02122C16.1392 8.04381 16.6715 8.20689 17.1375 8.49477C17.6034 8.78264 17.9875 9.18563 18.2526 9.66492C18.5177 10.1442 18.6549 10.6837 18.6512 11.2314C18.6512 12.3617 18.6512 13.4915 18.6512 14.6194C18.6633 14.8078 18.6074 14.9944 18.4937 15.1452C18.38 15.2959 18.216 15.4009 18.0315 15.4411C17.9113 15.4681 17.7865 15.4671 17.6667 15.438C17.547 15.4089 17.4356 15.3526 17.3412 15.2735C17.2468 15.1943 17.1719 15.0945 17.1224 14.9817C17.0729 14.8688 17.0501 14.7461 17.0557 14.6231C17.0508 13.9498 17.0557 13.2771 17.0557 12.6038C17.0557 12.1388 17.052 11.6731 17.0557 11.208C17.057 10.8276 16.9217 10.4594 16.6744 10.1704C16.427 9.8814 16.0841 9.69083 15.7081 9.63337C15.3321 9.57591 14.9479 9.65539 14.6256 9.85733C14.3032 10.0593 14.0641 10.3703 13.9517 10.7337C13.9046 10.9226 13.8826 11.1168 13.8865 11.3115C13.8803 12.4042 13.8865 13.497 13.8834 14.5898C13.8951 14.7547 13.8568 14.9192 13.7736 15.0621C13.6905 15.2049 13.5662 15.3194 13.4171 15.3906C13.3123 15.4403 13.198 15.4668 13.082 15.468C12.9661 15.4692 12.8512 15.4453 12.7454 15.3978C12.6396 15.3503 12.5454 15.2803 12.4693 15.1928C12.3932 15.1053 12.337 15.0024 12.3046 14.891C12.2796 14.808 12.2655 14.722 12.2627 14.6354C12.2627 12.5369 12.2654 10.4386 12.2707 8.34055C12.2631 8.22386 12.2811 8.10692 12.3235 7.99795C12.3659 7.88898 12.4317 7.79061 12.5162 7.70977C12.6006 7.62892 12.7018 7.56756 12.8125 7.53C12.9233 7.49243 13.0409 7.47957 13.1571 7.49232C13.3383 7.51085 13.5074 7.59155 13.6357 7.7207C13.7641 7.84984 13.8438 8.01947 13.8612 8.20072C13.8667 8.26601 13.8723 8.33069 13.8803 8.42186" fill="#DBDBDB"/>
</g>
</g>
</g>
</g>
<defs>
<clipPath id="clip0_81_4616">
<rect width="24" height="21.67" fill="white" transform="translate(0 0.110107)"/>
</clipPath>
<clipPath id="clip1_81_4616">
<rect width="24" height="21.67" fill="white" transform="translate(0 0.110107)"/>
</clipPath>
<clipPath id="clip2_81_4616">
<rect width="23.9917" height="21.67" fill="white" transform="translate(0.00390625 0.110107)"/>
</clipPath>
</defs>
</svg>
