<svg width="39" height="38" viewBox="0 0 39 38" fill="none" xmlns="http://www.w3.org/2000/svg">
<g clip-path="url(#clip0_81_4658)">
<g clip-path="url(#clip1_81_4658)">
<g clip-path="url(#clip2_81_4658)">
<path d="M33.9031 10.972L35.0231 9.852C35.4799 9.41457 35.8447 8.89032 36.0962 8.31001C36.3477 7.72969 36.4808 7.105 36.4876 6.47257C36.4945 5.84014 36.375 5.21271 36.1361 4.62708C35.8972 4.04146 35.5438 3.50943 35.0966 3.06221C34.6494 2.61498 34.1174 2.26157 33.5317 2.02271C32.9461 1.78384 32.3187 1.66433 31.6863 1.67118C31.0538 1.67803 30.4291 1.8111 29.8488 2.0626C29.2685 2.3141 28.7443 2.67895 28.3068 3.13575L27.1869 4.25571C27.4035 5.9594 28.1934 7.53866 29.4268 8.73379C30.622 9.96682 32.2013 10.7564 33.9049 10.9728M27.1886 4.25658L16.8962 14.549C16.4198 14.9986 15.9706 15.4763 15.5512 15.9795C15.1967 16.4335 14.8928 16.9249 14.6449 17.4448C14.383 18.0452 14.157 18.6607 13.9681 19.2879L12.9702 22.2823M33.904 10.9763L23.6116 21.2687C23.162 21.7454 22.6843 22.1949 22.1811 22.6146C21.7281 22.9683 21.2379 23.2716 20.7192 23.5191C20.1183 23.7813 19.5023 24.0073 18.8744 24.196L15.8809 25.1938M15.8809 25.1938L13.9437 25.8393C13.7179 25.9148 13.4756 25.926 13.2438 25.8714C13.0121 25.8168 12.8002 25.6988 12.6319 25.5304C12.4635 25.3621 12.3455 25.1502 12.2909 24.9185C12.2364 24.6867 12.2475 24.4444 12.323 24.2187L12.9685 22.2814L15.8809 25.1938Z" stroke="#DBDBDB" stroke-width="3.48896"/>
<path d="M36.4153 19C36.4153 22.4128 35.4033 25.749 33.5073 28.5867C31.6112 31.4243 28.9163 33.636 25.7632 34.942C22.6102 36.2481 19.1407 36.5898 15.7934 35.924C12.4462 35.2582 9.37155 33.6147 6.95833 31.2015C4.5451 28.7883 2.90167 25.7137 2.23587 22.3664C1.57006 19.0192 1.91177 15.5497 3.2178 12.3966C4.52383 9.24359 6.73551 6.54865 9.57317 4.65259C12.4108 2.75653 15.747 1.74451 19.1598 1.74451" stroke="#02ADB4" stroke-width="3.48896" stroke-linecap="round"/>
</g>
</g>
</g>
<defs>
<clipPath id="clip0_81_4658">
<rect width="38" height="38" fill="white" transform="translate(0.160156)"/>
</clipPath>
<clipPath id="clip1_81_4658">
<rect width="38" height="38" fill="white" transform="translate(0.160156)"/>
</clipPath>
<clipPath id="clip2_81_4658">
<rect width="38" height="38" fill="white" transform="translate(0.160156)"/>
</clipPath>
</defs>
</svg>
