<svg width="39" height="38" viewBox="0 0 39 38" fill="none" xmlns="http://www.w3.org/2000/svg">
<g clip-path="url(#clip0_81_4575)">
<g clip-path="url(#clip1_81_4575)">
<g clip-path="url(#clip2_81_4575)">
<path d="M19.8309 0C15.156 0.00481247 10.6475 1.73496 7.16956 4.85877V1.58264C7.17011 1.37401 7.12939 1.1674 7.04977 0.974555C6.97016 0.781709 6.85322 0.60644 6.70564 0.458962C6.40748 0.165015 6.00556 0.000241496 5.58686 0.000241496C5.16816 0.000241496 4.7663 0.165015 4.46813 0.458962C4.32055 0.60644 4.20361 0.781709 4.124 0.974555C4.04438 1.1674 4.00366 1.37401 4.00421 1.58264V6.33068C4.00421 7.58993 4.50444 8.79753 5.39487 9.68795C6.28529 10.5784 7.49295 11.0786 8.7522 11.0786H13.5002C13.9182 11.075 14.3189 10.9107 14.619 10.6196C14.9162 10.3212 15.083 9.91716 15.083 9.49597C15.083 9.07478 14.9162 8.67075 14.619 8.37229C14.3189 8.08127 13.9182 7.91692 13.5002 7.91332H8.7522C8.69817 7.9106 8.64487 7.89995 8.59396 7.88169C11.1717 5.28706 14.5699 3.66736 18.2087 3.29907C21.8475 2.93078 25.5014 3.83678 28.5467 5.8623C31.592 7.88783 33.84 10.9074 34.907 14.4057C35.974 17.904 35.794 21.6641 34.3976 25.0444C33.0011 28.4247 30.4749 31.2158 27.25 32.9411C24.025 34.6663 20.3013 35.2189 16.7144 34.5046C13.1274 33.7903 9.89946 31.8533 7.58149 29.0243C5.26351 26.1952 3.99916 22.6493 4.00421 18.9919C4.00477 18.7833 3.96405 18.5767 3.88443 18.3838C3.80482 18.191 3.68788 18.0157 3.5403 17.8683C3.24226 17.5741 2.84029 17.4092 2.42151 17.4092C2.00274 17.4092 1.60083 17.5741 1.30279 17.8683C1.15521 18.0157 1.03827 18.191 0.958655 18.3838C0.879038 18.5767 0.838318 18.7833 0.838873 18.9919C0.838873 22.7482 1.95273 26.4201 4.03959 29.5434C6.12646 32.6666 9.09261 35.1008 12.5629 36.5383C16.0333 37.9757 19.8519 38.3519 23.536 37.6191C27.2201 36.8863 30.6041 35.0775 33.2602 32.4214C35.9163 29.7653 37.7251 26.3812 38.4579 22.6971C39.1907 19.013 38.8146 15.1945 37.3771 11.7241C35.9397 8.25379 33.5054 5.28765 30.3822 3.20078C27.259 1.11392 23.5871 0 19.8309 0Z" fill="#02A4AC"/>
<path d="M24.3408 16.1035C24.4212 16.1883 24.5315 16.2384 24.6482 16.2432C24.7649 16.248 24.8789 16.2071 24.966 16.1292L26.3993 14.6959C26.4345 14.6631 26.4565 14.6186 26.4612 14.5707C26.466 14.5228 26.4531 14.4749 26.425 14.4358C26.1906 14.1489 25.6179 13.5455 25.4616 13.3932L25.2004 13.136C24.8879 12.8492 24.7058 12.7453 24.6277 12.8492L24.2627 13.1617C24.055 13.3437 23.7157 13.7087 23.1163 14.2825C23.0769 14.3286 23.047 14.3821 23.0283 14.4398C23.0096 14.4975 23.0025 14.5583 23.0073 14.6188C23.0122 14.6792 23.029 14.7382 23.0567 14.7921C23.0843 14.8461 23.1224 14.8941 23.1687 14.9333C23.5591 15.3501 23.9498 15.7408 24.3408 16.1055" fill="#DBDBDB"/>
<path d="M28.8425 17.4418H21.0508C20.8706 17.4382 20.6991 17.3633 20.574 17.2335C20.4488 17.1037 20.3802 16.9297 20.3831 16.7494C20.3795 16.5721 20.3065 16.4033 20.1798 16.2792C20.0531 16.1551 19.8829 16.0857 19.7055 16.0857H18.0635C17.8838 16.0857 17.7115 16.1571 17.5844 16.2842C17.4573 16.4112 17.3859 16.5836 17.3859 16.7633V25.4145C17.3859 25.5942 17.3146 25.7666 17.1875 25.8936C17.0604 26.0207 16.8881 26.0921 16.7084 26.0921H15.0159C14.8362 26.0921 14.6639 26.0207 14.5368 25.8936C14.4097 25.7666 14.3383 25.5942 14.3383 25.4145V21.5568C14.3383 21.3771 14.2669 21.2047 14.1399 21.0776C14.0128 20.9506 13.8405 20.8792 13.6607 20.8792H11.9159C11.7362 20.8792 11.5638 20.9506 11.4367 21.0776C11.3097 21.2047 11.2383 21.3771 11.2383 21.5568V28.3563C11.2383 28.536 11.3097 28.7083 11.4367 28.8354C11.5638 28.9625 11.7362 29.0339 11.9159 29.0339H19.7055C19.8852 29.0339 20.0576 28.9625 20.1847 28.8354C20.3117 28.7083 20.3831 28.536 20.3831 28.3563V26.3522C20.383 26.2632 20.4004 26.1751 20.4344 26.0928C20.4684 26.0105 20.5183 25.9358 20.5813 25.8728C20.6442 25.8099 20.719 25.76 20.8012 25.726C20.8835 25.692 20.9717 25.6745 21.0607 25.6747H29.9187C30.0984 25.6747 30.2707 25.6033 30.3978 25.4762C30.5249 25.3491 30.5963 25.1768 30.5963 24.9971V19.1956C30.5963 18.9653 30.5509 18.7373 30.4628 18.5245C30.3746 18.3117 30.2454 18.1184 30.0826 17.9555C29.9197 17.7927 29.7264 17.6635 29.5136 17.5753C29.3008 17.4872 29.0728 17.4418 28.8425 17.4418ZM28.4339 22.6508C28.2802 22.7573 28.0967 22.8127 27.9097 22.8091H20.9094C20.8482 22.8091 20.7896 22.7848 20.7464 22.7415C20.7032 22.6983 20.6789 22.6397 20.6789 22.5786V21.355C20.6789 21.2939 20.7032 21.2352 20.7464 21.192C20.7896 21.1488 20.8482 21.1245 20.9094 21.1245H27.9097C28.0966 21.1206 28.28 21.1756 28.4339 21.2818C28.5432 21.3594 28.6322 21.4621 28.6937 21.5811C28.7551 21.7002 28.7872 21.8323 28.7872 21.9663C28.7872 22.1003 28.7551 22.2323 28.6937 22.3514C28.6322 22.4705 28.5432 22.5731 28.4339 22.6508Z" fill="#DBDBDB"/>
<path d="M11.2383 15.7049V14.3547L14.3106 13.9313V12.2131L18.4542 11.2358V14.7741L11.2383 15.7049ZM15.6143 13.7493L17.1505 13.5633V12.9115L15.6143 13.2834V13.7493Z" fill="#DBDBDB"/>
</g>
</g>
</g>
<defs>
<clipPath id="clip0_81_4575">
<rect width="38" height="37.98" fill="white" transform="translate(0.830078)"/>
</clipPath>
<clipPath id="clip1_81_4575">
<rect width="38" height="37.98" fill="white" transform="translate(0.830078)"/>
</clipPath>
<clipPath id="clip2_81_4575">
<rect width="37.982" height="37.98" fill="white" transform="translate(0.838867)"/>
</clipPath>
</defs>
</svg>
