<svg width="166" height="46" viewBox="0 0 166 46" fill="none" xmlns="http://www.w3.org/2000/svg">
<g clip-path="url(#clip0_81_4393)">
<g clip-path="url(#clip1_81_4393)">
<g clip-path="url(#clip2_81_4393)">
<path d="M1.91928 37.3859L0.662649 38.9906H0.645015V37.3869H0.0185547V40.9136H0.645015V39.8844L1.15268 39.2542L2.10676 40.9136H2.79818L1.52856 38.7614L2.61442 37.385L1.91928 37.3859Z" fill="white"/>
<path d="M3.80932 38.2639H3.1875V40.9145H3.80932V38.2639Z" fill="white"/>
<mask id="mask0_81_4393" style="mask-type:luminance" maskUnits="userSpaceOnUse" x="0" y="0" width="166" height="46">
<path d="M165.22 0.501709H0.0195312V45.4983H165.22V0.501709Z" fill="white"/>
</mask>
<g mask="url(#mask0_81_4393)">
<path d="M3.50168 37.0964C3.43329 37.1023 3.36811 37.1281 3.31409 37.1704C3.26007 37.2128 3.21955 37.27 3.19748 37.335C3.17541 37.4 3.17274 37.47 3.1898 37.5365C3.20686 37.603 3.24291 37.6631 3.29354 37.7095C3.34418 37.7558 3.40722 37.7864 3.47497 37.7976C3.54271 37.8087 3.61223 37.7999 3.67504 37.7722C3.73785 37.7445 3.79124 37.6991 3.82869 37.6415C3.86613 37.584 3.88602 37.5168 3.88591 37.4481C3.88556 37.3992 3.87513 37.3509 3.85527 37.3063C3.83541 37.2616 3.80655 37.2215 3.77048 37.1885C3.73442 37.1555 3.69194 37.1302 3.64569 37.1144C3.59944 37.0985 3.55041 37.0924 3.50168 37.0964Z" fill="white"/>
<path d="M6.04562 38.1998C5.87954 38.2083 5.71687 38.2501 5.56731 38.3228C5.41775 38.3955 5.28435 38.4976 5.17508 38.623H5.15744L5.10918 38.2647H4.60059V40.9153H5.22241V39.0592C5.29384 38.9643 5.38468 38.8858 5.48887 38.8288C5.59305 38.7718 5.70819 38.7377 5.8266 38.7288C6.11338 38.7288 6.2396 38.8931 6.2396 39.3293V40.907H6.86049V39.2448C6.86049 38.5756 6.61176 38.1914 6.04469 38.1914" fill="white"/>
<path d="M8.98853 40.4988H8.51799C8.19594 40.4988 8.08828 40.406 8.08828 40.2593C8.08754 40.2098 8.0989 40.1608 8.12139 40.1167C8.14387 40.0725 8.17679 40.0345 8.21729 40.006C8.33155 40.0505 8.45291 40.0741 8.57553 40.0756C8.70274 40.0904 8.83166 40.0781 8.95374 40.0394C9.07583 40.0006 9.18829 39.9364 9.28367 39.851C9.37906 39.7655 9.45519 39.6607 9.50703 39.5436C9.55887 39.4265 9.58523 39.2997 9.58436 39.1716C9.5868 39.0104 9.53334 38.8533 9.43308 38.7271H9.91662V38.263H8.96811C8.84156 38.2193 8.70851 38.1973 8.5746 38.198C8.44224 38.1868 8.30898 38.203 8.18317 38.2456C8.05735 38.2882 7.94169 38.3564 7.84342 38.4458C7.74515 38.5351 7.66639 38.6439 7.61207 38.7651C7.55774 38.8863 7.52903 39.0174 7.52772 39.1503C7.52833 39.286 7.56021 39.4197 7.62089 39.541C7.68157 39.6624 7.76942 39.7681 7.87761 39.85V39.8714C7.79359 39.9253 7.72333 39.9981 7.67242 40.084C7.6215 40.1699 7.59134 40.2665 7.58433 40.3661C7.58185 40.4544 7.60267 40.5418 7.64471 40.6195C7.68674 40.6972 7.74851 40.7625 7.82378 40.8088V40.8301C7.71562 40.8819 7.62319 40.9616 7.55599 41.0609C7.4888 41.1602 7.44925 41.2757 7.44141 41.3953C7.44141 41.8594 7.91194 42.0858 8.5449 42.0858C9.41081 42.0858 9.95931 41.6738 9.95931 41.1512C9.95931 40.6937 9.62242 40.5016 8.98853 40.5016M8.57553 38.6324C8.64163 38.6319 8.70708 38.6455 8.76748 38.6723C8.82789 38.6991 8.88187 38.7386 8.92581 38.788C8.96975 38.8373 9.00262 38.8956 9.02224 38.9587C9.04186 39.0218 9.04778 39.0884 9.03958 39.154C9.04844 39.2196 9.04317 39.2863 9.02411 39.3497C9.00506 39.413 8.97267 39.4716 8.92911 39.5215C8.88555 39.5713 8.83184 39.6112 8.77158 39.6386C8.71131 39.666 8.6459 39.6801 8.57971 39.6801C8.51352 39.6801 8.4481 39.666 8.38784 39.6386C8.32757 39.6112 8.27386 39.5713 8.2303 39.5215C8.18675 39.4716 8.15436 39.413 8.13531 39.3497C8.11625 39.2863 8.11098 39.2196 8.11984 39.154C8.11164 39.0884 8.11755 39.0218 8.13717 38.9587C8.15679 38.8956 8.18967 38.8373 8.2336 38.788C8.27754 38.7386 8.33152 38.6991 8.39193 38.6723C8.45234 38.6455 8.51779 38.6319 8.58389 38.6324M8.64885 41.6867C8.23214 41.6867 7.9732 41.5466 7.9732 41.3044C7.97688 41.234 7.99743 41.1656 8.03313 41.1048C8.06883 41.0441 8.11863 40.9928 8.17831 40.9554C8.29576 40.9823 8.4161 40.9944 8.53655 40.9916H8.88922C9.19271 40.9916 9.35327 41.0519 9.35327 41.257C9.35327 41.4853 9.06185 41.6867 8.634 41.6867" fill="white"/>
<path d="M13.1454 38.9786L12.6693 38.779C12.3769 38.6593 12.1124 38.5563 12.1124 38.2797C12.1124 38.0217 12.3296 37.8648 12.6693 37.8648C12.9538 37.8663 13.2274 37.9747 13.4359 38.1684L13.757 37.7711C13.4679 37.4836 13.077 37.3218 12.6693 37.321C12.5255 37.3057 12.3802 37.3195 12.2419 37.3617C12.1037 37.404 11.9754 37.4736 11.8647 37.5666C11.754 37.6596 11.6633 37.774 11.5979 37.9029C11.5325 38.0318 11.4938 38.1726 11.4841 38.3168C11.4908 38.5277 11.5632 38.7312 11.6911 38.8989C11.8191 39.0666 11.9962 39.1902 12.1978 39.2524L12.6804 39.4612C13.0006 39.5976 13.2289 39.6904 13.2289 39.9809C13.2289 40.2593 13.0108 40.4357 12.6136 40.4357C12.2677 40.4207 11.9398 40.2775 11.6938 40.0338L11.3291 40.4635C11.6691 40.7953 12.1255 40.9809 12.6006 40.9805C12.7536 41.0005 12.9091 40.9887 13.0574 40.946C13.2057 40.9032 13.3435 40.8304 13.4624 40.732C13.5813 40.6336 13.6786 40.5117 13.7483 40.374C13.818 40.2363 13.8585 40.0858 13.8674 39.9317C13.8697 39.7166 13.801 39.5067 13.672 39.3346C13.543 39.1624 13.3608 39.0377 13.1537 38.9795" fill="white"/>
<path d="M15.4982 38.1997C15.1102 38.2109 14.7332 38.3312 14.4104 38.5468L14.6397 38.9617C14.8586 38.8081 15.1154 38.7176 15.3822 38.6999C15.7404 38.6999 15.8555 38.9376 15.8638 39.2225C14.7761 39.3385 14.3056 39.6345 14.3056 40.2016C14.3005 40.3056 14.3173 40.4094 14.3549 40.5065C14.3925 40.6035 14.4502 40.6916 14.524 40.7649C14.5979 40.8383 14.6863 40.8953 14.7837 40.9322C14.881 40.9691 14.985 40.9852 15.0889 40.9794C15.3972 40.963 15.6892 40.8357 15.9112 40.6211H15.9288L15.9761 40.9153H16.4857V39.3459C16.4857 38.6034 16.159 38.1997 15.4963 38.1997M15.8676 40.2053C15.7952 40.2889 15.707 40.3572 15.6081 40.4065C15.5092 40.4557 15.4015 40.4848 15.2912 40.4921C15.0685 40.4921 14.9088 40.3891 14.9088 40.1552C14.9088 39.8879 15.1483 39.7004 15.8666 39.6095L15.8676 40.2053Z" fill="white"/>
<path d="M17.9908 40.4727C17.9259 40.4727 17.8572 40.4189 17.8572 40.2657V37.1028H17.2354V40.2332C17.2354 40.6973 17.3968 40.9757 17.8377 40.9757C17.9493 40.9787 18.0605 40.9605 18.1653 40.9219L18.0883 40.4578C18.0579 40.4655 18.0267 40.4693 17.9955 40.469" fill="white"/>
<path d="M21.8657 39.333V40.9108H22.4875V39.2486C22.4875 38.5794 22.2286 38.1952 21.669 38.1952C21.5014 38.2102 21.339 38.2603 21.192 38.3422C21.0451 38.424 20.917 38.5358 20.816 38.6703C20.7637 38.5215 20.6636 38.3942 20.5313 38.3083C20.399 38.2223 20.242 38.1825 20.0847 38.1952C19.9269 38.2059 19.7731 38.2493 19.633 38.3226C19.4928 38.3959 19.3695 38.4976 19.2708 38.6212H19.2541L19.2058 38.2601H18.6963V40.9108H19.3181V39.0546C19.3839 38.9649 19.4672 38.8894 19.5629 38.8326C19.6585 38.7758 19.7647 38.739 19.875 38.7242C20.1534 38.7242 20.2833 38.8885 20.2833 39.3247V40.9024H20.9051V39.0462C20.9706 38.9562 21.0538 38.8804 21.1495 38.8236C21.2453 38.7668 21.3516 38.7301 21.462 38.7158C21.7404 38.7158 21.8704 38.8801 21.8704 39.3163" fill="white"/>
<path d="M23.1044 40.2026C23.0993 40.3065 23.1161 40.4104 23.1537 40.5075C23.1914 40.6045 23.249 40.6926 23.3228 40.7659C23.3967 40.8392 23.4852 40.8962 23.5825 40.9332C23.6798 40.9701 23.7838 40.9862 23.8877 40.9803C24.196 40.9639 24.488 40.8367 24.71 40.6221H24.7276L24.775 40.9163H25.2845V39.346C25.2845 38.6081 24.9578 38.2007 24.2951 38.2007C23.9072 38.2119 23.5302 38.3322 23.2074 38.5478L23.4367 38.9617C23.6557 38.8087 23.9125 38.7185 24.1791 38.7009C24.5374 38.7009 24.6524 38.9385 24.6608 39.2234C23.5731 39.3404 23.1025 39.6355 23.1025 40.2035M24.6608 39.6095V40.2054C24.5885 40.2889 24.5003 40.3573 24.4014 40.4065C24.3024 40.4557 24.1947 40.4848 24.0845 40.4921C23.8617 40.4921 23.7021 40.3891 23.7021 40.1553C23.7021 39.888 23.9425 39.6996 24.6608 39.6095Z" fill="white"/>
<path d="M27.4753 38.1998C27.3092 38.2083 27.1466 38.2501 26.997 38.3228C26.8474 38.3955 26.7141 38.4976 26.6048 38.623H26.5881L26.5398 38.2647H26.0303V40.9153H26.6521V39.0592C26.7235 38.9643 26.8144 38.8858 26.9186 38.8288C27.0228 38.7718 27.1379 38.7377 27.2563 38.7288C27.5431 38.7288 27.6693 38.8931 27.6693 39.3293V40.907H28.2902V39.2448C28.2902 38.5756 28.0414 38.1914 27.4744 38.1914" fill="white"/>
<path d="M31.6632 40.9804C32.0788 40.9922 32.4828 40.8421 32.7899 40.5619V39.0055H31.5639V39.5196H32.2293V40.2816C32.0843 40.3893 31.9068 40.444 31.7263 40.4366C31.0182 40.4366 30.6451 39.9493 30.6451 39.1438C30.6451 38.3382 31.0655 37.8658 31.692 37.8658C31.8254 37.8642 31.9578 37.8906 32.0804 37.9434C32.203 37.9961 32.3132 38.074 32.4038 38.172L32.7388 37.7683C32.601 37.6248 32.4351 37.5111 32.2515 37.4343C32.068 37.3576 31.8705 37.3193 31.6715 37.3219C31.437 37.3207 31.2049 37.3688 30.9902 37.4633C30.7755 37.5577 30.5831 37.6963 30.4256 37.87C30.268 38.0436 30.1487 38.2486 30.0756 38.4714C30.0024 38.6942 29.977 38.9299 30.001 39.1632C29.9742 39.3952 29.9975 39.6303 30.0694 39.8525C30.1413 40.0747 30.26 40.2789 30.4176 40.4512C30.5752 40.6236 30.768 40.7601 30.9828 40.8516C31.1977 40.943 31.4297 40.9873 31.6632 40.9814" fill="white"/>
<path d="M34.123 40.9804C34.2347 40.9835 34.3459 40.9652 34.4507 40.9265L34.3727 40.4625C34.3423 40.4698 34.3111 40.4732 34.2799 40.4727C34.2149 40.4727 34.1462 40.4189 34.1462 40.2657V37.1028H33.5244V40.2332C33.5244 40.6973 33.6868 40.9757 34.1268 40.9757" fill="white"/>
<path d="M36.0706 40.9803C36.3513 41.0077 36.6336 40.9495 36.8805 40.8133C37.1274 40.6772 37.3274 40.4695 37.454 40.2176C37.5807 39.9657 37.6282 39.6814 37.5902 39.402C37.5522 39.1226 37.4306 38.8613 37.2413 38.6523C37.0519 38.4434 36.8038 38.2966 36.5296 38.2313C36.2553 38.166 35.9676 38.1853 35.7045 38.2865C35.4413 38.3878 35.215 38.5664 35.0553 38.7987C34.8955 39.031 34.8098 39.3062 34.8094 39.5882C34.7943 39.7638 34.8156 39.9407 34.8719 40.1077C34.9283 40.2747 35.0184 40.4284 35.1368 40.559C35.2551 40.6896 35.3992 40.7945 35.5598 40.8669C35.7205 40.9394 35.8944 40.978 36.0706 40.9803ZM36.0706 38.7074C36.4586 38.7074 36.6925 39.061 36.6925 39.5928C36.6925 40.1246 36.4595 40.4736 36.0706 40.4736C35.6818 40.4736 35.4488 40.1237 35.4488 39.5928C35.4488 39.062 35.6827 38.7074 36.0706 38.7074Z" fill="white"/>
<path d="M38.4579 40.637H38.4746C38.6619 40.841 38.9212 40.9641 39.1976 40.9804C39.7879 40.9804 40.3299 40.455 40.3299 39.5455C40.3299 38.7306 39.9466 38.1998 39.2839 38.1998C38.9976 38.2154 38.7261 38.3325 38.5182 38.5302L38.5359 38.0893V37.1028H37.9141V40.9154H38.4041L38.4579 40.637ZM38.5359 39.0109C38.6074 38.9251 38.6955 38.8546 38.7948 38.8034C38.8941 38.7522 39.0027 38.7215 39.1141 38.713C39.5178 38.713 39.6914 39.0258 39.6914 39.5548C39.6914 40.1553 39.4213 40.4662 39.0677 40.4662C38.87 40.4594 38.6814 40.3813 38.5368 40.2462L38.5359 39.0109Z" fill="white"/>
<path d="M42.3504 40.6184H42.3672L42.4154 40.9116H42.925V39.3423C42.925 38.5998 42.5983 38.196 41.9356 38.196C41.5476 38.2072 41.1706 38.3275 40.8479 38.5432L41.0762 38.958C41.2953 38.805 41.552 38.7148 41.8187 38.6972C42.1769 38.6972 42.2911 38.9348 42.2994 39.2197C41.2117 39.3367 40.7411 39.6318 40.7411 40.1998C40.736 40.3038 40.7529 40.4078 40.7906 40.5049C40.8282 40.602 40.8859 40.6901 40.9599 40.7635C41.0339 40.8368 41.1225 40.8938 41.2199 40.9307C41.3173 40.9676 41.4214 40.9835 41.5254 40.9775C41.8336 40.9609 42.1256 40.8337 42.3477 40.6193M41.3416 40.1553C41.3416 39.888 41.5811 39.7005 42.2994 39.6086V40.2044C42.2272 40.2879 42.1392 40.3562 42.0404 40.4054C41.9416 40.4546 41.8341 40.4838 41.724 40.4912C41.5013 40.4912 41.3416 40.3891 41.3416 40.1543" fill="white"/>
<path d="M44.4274 40.4727C44.3624 40.4727 44.2937 40.4189 44.2937 40.2657V37.1028H43.6719V40.2332C43.6719 40.6973 43.8334 40.9757 44.2742 40.9757C44.3859 40.9787 44.497 40.9605 44.6018 40.9219L44.5239 40.4578C44.4935 40.4655 44.4624 40.4693 44.4311 40.469" fill="white"/>
<path d="M46.7217 39.9595H47.905L48.1788 40.9154H48.8414L47.6906 37.3887H46.9565L45.8057 40.9154H46.4451L46.7217 39.9595ZM46.9871 39.0379C47.0994 38.6667 47.2034 38.2648 47.3008 37.8741H47.3222C47.4261 38.2611 47.5291 38.6639 47.6414 39.0379L47.7649 39.4685H46.8637L46.9871 39.0379Z" fill="white"/>
<path d="M50.9414 40.248C50.791 40.3862 50.5969 40.4673 50.3928 40.4772C49.9808 40.4772 49.6894 40.1273 49.6894 39.5964C49.6894 39.0656 49.9854 38.711 50.4133 38.711C50.5798 38.7171 50.7376 38.7868 50.8541 38.9059L51.1567 38.5022C50.945 38.3083 50.6678 38.2018 50.3808 38.2043C50.2 38.2012 50.0206 38.2357 49.8537 38.3054C49.6869 38.3751 49.5364 38.4786 49.4115 38.6094C49.2867 38.7402 49.1902 38.8954 49.1283 39.0653C49.0664 39.2351 49.0403 39.416 49.0517 39.5964C49.0332 39.7741 49.0526 39.9538 49.1087 40.1234C49.1648 40.293 49.2562 40.4488 49.3771 40.5805C49.4979 40.7121 49.6453 40.8165 49.8096 40.8869C49.9738 40.9572 50.1511 40.9919 50.3297 40.9886C50.6485 40.9887 50.9564 40.8725 51.1957 40.6619L50.9414 40.248Z" fill="white"/>
<path d="M53.7023 39.3459C53.7023 38.6034 53.3756 38.1997 52.713 38.1997C52.3247 38.2109 51.9474 38.3312 51.6243 38.5468L51.8535 38.9617C52.0724 38.8081 52.3292 38.7176 52.596 38.6999C52.9542 38.6999 53.0693 38.9376 53.0768 39.2225C51.989 39.3385 51.5185 39.6345 51.5185 40.2016C51.5134 40.3056 51.5302 40.4094 51.5678 40.5065C51.6054 40.6035 51.6631 40.6916 51.737 40.7649C51.8108 40.8383 51.8993 40.8953 51.9966 40.9322C52.0939 40.9691 52.1979 40.9852 52.3018 40.9794C52.6101 40.963 52.9022 40.8357 53.1241 40.6211H53.1417L53.1891 40.9153H53.6986L53.7023 39.3459ZM53.0805 40.2053C53.0082 40.2889 52.92 40.3572 52.8211 40.4065C52.7221 40.4557 52.6144 40.4848 52.5041 40.4921C52.2814 40.4921 52.1218 40.3891 52.1218 40.1552C52.1218 39.8879 52.3612 39.7004 53.0795 39.6095L53.0805 40.2053Z" fill="white"/>
<path d="M56.7033 40.9154V37.1028H56.0815V38.0634L56.1056 38.4912C56.0149 38.3989 55.9067 38.3256 55.7874 38.2756C55.668 38.2255 55.5399 38.1998 55.4105 38.1998C55.2444 38.2151 55.0831 38.2635 54.936 38.3423C54.789 38.4211 54.6593 38.5286 54.5546 38.6584C54.4499 38.7882 54.3723 38.9377 54.3264 39.0981C54.2805 39.2584 54.2673 39.4264 54.2875 39.5919C54.2875 40.4662 54.7153 40.9841 55.3761 40.9841C55.6633 40.9685 55.9334 40.8425 56.1297 40.6323H56.1474L56.1947 40.9191L56.7033 40.9154ZM56.0815 40.1729C56.0185 40.2627 55.9352 40.3364 55.8385 40.3881C55.7418 40.4399 55.6343 40.4682 55.5246 40.4708C55.1432 40.4708 54.9223 40.1664 54.9223 39.5901C54.9223 39.0332 55.2007 38.7177 55.5376 38.7177C55.7393 38.7186 55.9328 38.7974 56.0778 38.9376L56.0815 40.1729Z" fill="white"/>
<path d="M59.3225 40.3066C59.1405 40.4294 58.9267 40.4965 58.7071 40.4996C58.6068 40.5032 58.5068 40.4867 58.4129 40.4512C58.319 40.4156 58.2332 40.3617 58.1604 40.2926C58.0877 40.2234 58.0294 40.1404 57.9891 40.0485C57.9488 39.9566 57.9272 39.8575 57.9257 39.7571H59.6083C59.6267 39.6577 59.6357 39.5567 59.6352 39.4555C59.6352 38.713 59.2575 38.197 58.541 38.197C58.1929 38.237 57.8725 38.4062 57.6433 38.6713C57.4141 38.9363 57.2928 39.2777 57.3034 39.628C57.314 39.9782 57.4558 40.3117 57.7006 40.5623C57.9455 40.8129 58.2756 40.9625 58.6254 40.9813C58.95 40.9775 59.2661 40.8777 59.534 40.6945L59.3225 40.3066ZM58.554 38.6815C58.9169 38.6815 59.0979 38.9302 59.0979 39.3376H57.9192C57.9214 39.1679 57.9883 39.0055 58.1063 38.8835C58.2243 38.7615 58.3845 38.6893 58.554 38.6815Z" fill="white"/>
<path d="M61.8129 40.9155H62.4347V39.0593C62.5001 38.9692 62.5832 38.8934 62.679 38.8366C62.7748 38.7798 62.8811 38.7431 62.9915 38.7289C63.2699 38.7289 63.3999 38.8932 63.3999 39.3294V40.9071H64.0208V39.2449C64.0208 38.5758 63.7619 38.1916 63.2031 38.1916C63.0356 38.2065 62.8731 38.2565 62.7261 38.3384C62.5792 38.4203 62.4511 38.5321 62.3502 38.6667C62.298 38.5178 62.1979 38.3904 62.0656 38.3045C61.9333 38.2185 61.7762 38.1788 61.6189 38.1916C61.4611 38.2021 61.3072 38.2455 61.1671 38.3188C61.0269 38.3922 60.9036 38.4939 60.805 38.6175H60.7873L60.74 38.2565H60.2305V40.9071H60.8523V39.051C60.9181 38.9612 61.0013 38.8857 61.097 38.8289C61.1927 38.7722 61.2989 38.7353 61.4092 38.7206C61.6876 38.7206 61.8175 38.8849 61.8175 39.3211L61.8129 40.9155Z" fill="white"/>
<path d="M65.4406 41.0499C65.4174 41.1746 65.3523 41.2876 65.2561 41.3703C65.1599 41.453 65.0383 41.5004 64.9115 41.5046C64.8484 41.5005 64.786 41.4883 64.7259 41.4684L64.6118 41.9501C64.723 41.9875 64.8397 42.0057 64.957 42.0039C65.5352 42.0039 65.8145 41.6327 66.0345 41.0369L66.9932 38.2646H66.3928L65.9974 39.564C65.9278 39.8062 65.861 40.067 65.7951 40.3129H65.7728C65.6958 40.0605 65.6197 39.7988 65.5399 39.564L65.0823 38.2646H64.4521L65.4944 40.8828L65.4406 41.0499Z" fill="white"/>
<path d="M68.7167 37.9844V38.2628L68.3604 38.2888V38.7528H68.7167V40.9097H69.3385V38.7528H69.8564V38.2591H69.3385V37.9723C69.3385 37.6642 69.4555 37.525 69.6754 37.525C69.7742 37.5263 69.8717 37.5474 69.9622 37.5871L70.081 37.1231C69.9263 37.0625 69.7618 37.031 69.5956 37.0303C68.9701 37.0303 68.7177 37.4331 68.7177 37.9825" fill="white"/>
<path d="M71.3496 38.1942C71.069 38.1666 70.7866 38.2247 70.5396 38.3607C70.2925 38.4967 70.0924 38.7043 69.9656 38.9562C69.8388 39.208 69.7912 39.4924 69.8291 39.7718C69.8669 40.0512 69.9885 40.3127 70.1777 40.5217C70.367 40.7308 70.6151 40.8776 70.8894 40.943C71.1637 41.0084 71.4514 40.9892 71.7146 40.888C71.9778 40.7868 72.2041 40.6082 72.364 40.3759C72.5238 40.1436 72.6096 39.8683 72.61 39.5863C72.6248 39.4108 72.6033 39.2342 72.5469 39.0673C72.4905 38.9005 72.4004 38.747 72.2822 38.6164C72.164 38.4859 72.0203 38.381 71.8598 38.3084C71.6994 38.2357 71.5257 38.1969 71.3496 38.1942ZM71.3496 40.4671C70.9617 40.4671 70.7278 40.1172 70.7278 39.5863C70.7278 39.0554 70.9617 38.7009 71.3496 38.7009C71.7375 38.7009 71.9714 39.0545 71.9714 39.5863C71.9714 40.1181 71.7385 40.4671 71.3496 40.4671Z" fill="white"/>
<path d="M73.805 38.7316H73.7874L73.74 38.2592H73.2305V40.9099H73.8523V39.2931C74.012 38.8894 74.2672 38.7446 74.4788 38.7446C74.5711 38.7447 74.6628 38.7591 74.7507 38.7873L74.8584 38.2481C74.7639 38.2073 74.6613 38.1889 74.5586 38.1943C74.3962 38.2077 74.2405 38.2647 74.1079 38.3593C73.9752 38.4539 73.8706 38.5825 73.805 38.7316Z" fill="white"/>
<path d="M77.0717 37.3804L75.9209 40.9071H76.5604L76.8388 39.9512H78.0221L78.2959 40.9071H78.9585L77.8077 37.3804H77.0717ZM76.9789 39.4621L77.1033 39.0314C77.2156 38.6602 77.3196 38.2583 77.4161 37.8676H77.4374C77.5404 38.2546 77.6444 38.6574 77.7567 39.0314L77.8801 39.4621H76.9789Z" fill="white"/>
<path d="M79.9075 38.7316H79.8898L79.8425 38.2592H79.333V40.9099H79.9548V39.2931C80.1144 38.8894 80.3697 38.7446 80.5813 38.7446C80.6736 38.7447 80.7653 38.7591 80.8532 38.7873L80.9609 38.2481C80.8665 38.2073 80.7639 38.1889 80.6611 38.1943C80.4988 38.2077 80.343 38.2647 80.2104 38.3593C80.0778 38.4539 79.9731 38.5825 79.9075 38.7316Z" fill="white"/>
<path d="M82.253 38.1943C81.8647 38.2054 81.4875 38.3257 81.1644 38.5414L81.3936 38.9563C81.6125 38.8026 81.8693 38.7121 82.1361 38.6945C82.4943 38.6945 82.6094 38.9321 82.6178 39.217C81.53 39.3331 81.0595 39.6291 81.0595 40.1962C81.0544 40.3002 81.0712 40.404 81.1088 40.5011C81.1465 40.5981 81.2041 40.6862 81.278 40.7595C81.3518 40.8329 81.4403 40.8898 81.5376 40.9268C81.6349 40.9637 81.7389 40.9798 81.8428 40.9739C82.1512 40.9573 82.4433 40.8297 82.6651 40.6148H82.6827L82.7301 40.909H83.2396V39.3396C83.2396 38.5971 82.9129 38.1934 82.2502 38.1934M82.6215 40.199C82.5492 40.2825 82.461 40.3509 82.3621 40.4001C82.2631 40.4493 82.1554 40.4784 82.0451 40.4857C81.8224 40.4857 81.6628 40.3827 81.6628 40.1489C81.6628 39.8816 81.9022 39.6941 82.6205 39.6031L82.6215 40.199Z" fill="white"/>
<path d="M85.3602 38.1942C85.0741 38.21 84.803 38.3271 84.5954 38.5246L84.6131 38.0837V37.0972H83.9912V40.9098H84.4813L84.5351 40.6313H84.5527C84.74 40.8353 84.9993 40.9585 85.2757 40.9747C85.8651 40.9747 86.4071 40.4503 86.4071 39.5399C86.4071 38.725 86.0238 38.1942 85.3602 38.1942ZM85.1439 40.4606C84.9462 40.4538 84.7576 40.3757 84.6131 40.2406V39.0053C84.6846 38.9195 84.7726 38.8489 84.8719 38.7978C84.9713 38.7466 85.0799 38.7159 85.1913 38.7074C85.595 38.7074 85.7676 39.0202 85.7676 39.5492C85.7676 40.1487 85.4975 40.4606 85.1439 40.4606Z" fill="white"/>
<path d="M87.3415 37.0917C87.2731 37.0977 87.208 37.1234 87.154 37.1658C87.1 37.2082 87.0594 37.2654 87.0373 37.3304C87.0153 37.3954 87.0126 37.4654 87.0296 37.5319C87.0467 37.5984 87.0828 37.6585 87.1334 37.7049C87.184 37.7512 87.2471 37.7818 87.3148 37.7929C87.3826 37.8041 87.4521 37.7952 87.5149 37.7675C87.5777 37.7398 87.6311 37.6944 87.6685 37.6369C87.706 37.5794 87.7259 37.5121 87.7258 37.4435C87.7254 37.3946 87.715 37.3463 87.6951 37.3016C87.6753 37.257 87.6464 37.2169 87.6104 37.1838C87.5743 37.1508 87.5318 37.1256 87.4855 37.1098C87.4393 37.0939 87.3903 37.0878 87.3415 37.0917Z" fill="white"/>
<path d="M87.6511 38.2593H87.0293V40.9099H87.6511V38.2593Z" fill="white"/>
<path d="M89.6106 40.4671C89.1985 40.4671 88.9071 40.1172 88.9071 39.5863C88.9071 39.0555 89.2031 38.7009 89.63 38.7009C89.7964 38.7067 89.9543 38.7762 90.0709 38.8949L90.3735 38.4912C90.1618 38.2974 89.8846 38.1909 89.5976 38.1933C89.4168 38.1904 89.2374 38.2249 89.0707 38.2946C88.9039 38.3644 88.7534 38.4679 88.6286 38.5987C88.5038 38.7294 88.4073 38.8846 88.3454 39.0544C88.2834 39.2242 88.2573 39.405 88.2686 39.5854C88.25 39.7631 88.2693 39.9427 88.3254 40.1124C88.3815 40.282 88.473 40.4378 88.5939 40.5694C88.7147 40.7011 88.8621 40.8055 89.0263 40.8759C89.1905 40.9462 89.3679 40.9809 89.5465 40.9776C89.8652 40.9777 90.1729 40.8619 90.4124 40.6518L90.16 40.2416C90.0097 40.38 89.8155 40.4611 89.6115 40.4708" fill="white"/>
<path d="M92.6948 37.3804H92.0684V40.9071H94.1603V40.38H92.6939L92.6948 37.3804Z" fill="white"/>
<path d="M95.7735 38.1943C95.3852 38.2054 95.008 38.3257 94.6849 38.5414L94.9141 38.9563C95.1329 38.8027 95.3898 38.7121 95.6566 38.6945C96.0149 38.6945 96.1299 38.9321 96.1383 39.217C95.0506 39.3331 94.58 39.6291 94.58 40.1962C94.5749 40.3002 94.5917 40.404 94.6293 40.5011C94.667 40.5981 94.7246 40.6862 94.7985 40.7595C94.8723 40.8329 94.9608 40.8898 95.0581 40.9268C95.1554 40.9637 95.2594 40.9798 95.3633 40.9739C95.6717 40.9573 95.9638 40.8297 96.1856 40.6148H96.2032L96.2505 40.909H96.7601V39.3396C96.7601 38.5971 96.4334 38.1934 95.7708 38.1934M96.142 40.199C96.0696 40.2825 95.9815 40.3509 95.8826 40.4001C95.7836 40.4493 95.6759 40.4784 95.5656 40.4857C95.3429 40.4857 95.1833 40.3827 95.1833 40.1489C95.1833 39.8816 95.4227 39.6941 96.142 39.6031V40.199Z" fill="white"/>
<path d="M98.9529 38.1941C98.7868 38.2027 98.6242 38.2445 98.4746 38.3172C98.325 38.3899 98.1917 38.492 98.0824 38.6174H98.0656L98.0184 38.2591H97.5088V40.9098H98.1307V39.0536C98.2021 38.9587 98.2929 38.8802 98.3971 38.8232C98.5013 38.7662 98.6164 38.7321 98.7348 38.7232C99.0216 38.7232 99.1478 38.8874 99.1478 39.3236V40.9014H99.7696V39.2392C99.7696 38.57 99.5218 38.1858 98.9538 38.1858" fill="white"/>
<path d="M101.897 40.493H101.425C101.103 40.493 100.996 40.4002 100.996 40.2536C100.995 40.2039 101.007 40.1549 101.029 40.1108C101.052 40.0666 101.085 40.0286 101.126 40.0002C101.24 40.0449 101.361 40.0685 101.484 40.0698C101.611 40.0845 101.74 40.072 101.862 40.0333C101.984 39.9945 102.096 39.9303 102.192 39.8448C102.287 39.7594 102.363 39.6547 102.415 39.5376C102.467 39.4206 102.493 39.2939 102.493 39.1658C102.495 39.0046 102.442 38.8476 102.341 38.7213H102.825V38.2572H101.877C101.751 38.2135 101.618 38.1915 101.485 38.1923C101.352 38.1809 101.219 38.197 101.093 38.2396C100.967 38.2821 100.852 38.3503 100.753 38.4397C100.655 38.5291 100.576 38.6378 100.522 38.7591C100.468 38.8804 100.439 39.0116 100.438 39.1445C100.438 39.2802 100.47 39.4139 100.531 39.5353C100.592 39.6567 100.679 39.7624 100.788 39.8443V39.8656C100.704 39.9195 100.633 39.9922 100.582 40.0781C100.531 40.164 100.501 40.2606 100.494 40.3603C100.491 40.4487 100.512 40.5361 100.554 40.6138C100.597 40.6915 100.659 40.7568 100.734 40.803V40.8243C100.626 40.876 100.533 40.9557 100.466 41.055C100.399 41.1544 100.359 41.2698 100.352 41.3895C100.352 41.8536 100.822 42.08 101.455 42.08C102.321 42.08 102.869 41.668 102.869 41.1455C102.869 40.6879 102.532 40.4958 101.899 40.4958M101.486 38.6266C101.552 38.6261 101.617 38.6397 101.678 38.6666C101.738 38.6934 101.792 38.7328 101.836 38.7822C101.88 38.8316 101.913 38.8898 101.932 38.9529C101.952 39.016 101.958 39.0826 101.95 39.1482C101.958 39.2136 101.952 39.2799 101.933 39.3429C101.914 39.4059 101.881 39.4641 101.838 39.5135C101.794 39.5629 101.741 39.6025 101.68 39.6297C101.62 39.6568 101.555 39.6708 101.489 39.6708C101.423 39.6708 101.358 39.6568 101.298 39.6297C101.238 39.6025 101.185 39.5629 101.141 39.5135C101.098 39.4641 101.065 39.4059 101.046 39.3429C101.026 39.2799 101.021 39.2136 101.029 39.1482C101.021 39.0826 101.027 39.016 101.046 38.9529C101.066 38.8898 101.099 38.8316 101.143 38.7822C101.187 38.7328 101.241 38.6934 101.301 38.6666C101.362 38.6397 101.427 38.6261 101.493 38.6266M101.558 41.681C101.141 41.681 100.882 41.5408 100.882 41.2986C100.886 41.2283 100.907 41.1598 100.942 41.0991C100.978 41.0384 101.028 40.9871 101.088 40.9496C101.205 40.9765 101.325 40.9887 101.446 40.9858H101.81C102.113 40.9858 102.274 41.0461 102.274 41.2512C102.274 41.4796 101.982 41.681 101.554 41.681" fill="white"/>
<path d="M104.928 40.0746C104.728 40.3335 104.574 40.4458 104.341 40.4458C104.054 40.4458 103.929 40.2825 103.929 39.8463V38.2686H103.307V39.9307C103.307 40.5999 103.555 40.9841 104.123 40.9841C104.291 40.9797 104.455 40.9361 104.603 40.857C104.751 40.7779 104.879 40.6654 104.975 40.5285H104.993L105.04 40.9192H105.55V38.2686H104.928V40.0746Z" fill="white"/>
<path d="M107.387 38.1943C106.999 38.2055 106.622 38.3258 106.299 38.5414L106.528 38.9563C106.747 38.8026 107.004 38.7121 107.271 38.6945C107.629 38.6945 107.744 38.9321 107.753 39.217C106.665 39.3331 106.194 39.6291 106.194 40.1962C106.189 40.3002 106.206 40.404 106.244 40.5011C106.281 40.5981 106.339 40.6862 106.413 40.7595C106.487 40.8329 106.575 40.8898 106.672 40.9268C106.77 40.9637 106.874 40.9798 106.978 40.9739C107.286 40.9572 107.578 40.8296 107.8 40.6148H107.818L107.865 40.909H108.374V39.3396C108.374 38.5971 108.049 38.1934 107.385 38.1934M107.756 40.199C107.684 40.2825 107.596 40.3509 107.497 40.4001C107.398 40.4493 107.29 40.4784 107.18 40.4857C106.957 40.4857 106.798 40.3827 106.798 40.1489C106.798 39.8816 107.037 39.6941 107.755 39.6031L107.756 40.199Z" fill="white"/>
<path d="M110.488 40.4932H110.016C109.694 40.4932 109.586 40.4004 109.586 40.2537C109.586 40.2041 109.597 40.1551 109.62 40.1109C109.643 40.0668 109.676 40.0288 109.716 40.0003C109.831 40.045 109.952 40.0686 110.075 40.07C110.202 40.0847 110.331 40.0722 110.453 40.0334C110.575 39.9946 110.687 39.9304 110.782 39.845C110.878 39.7596 110.954 39.6548 111.006 39.5378C111.058 39.4208 111.084 39.294 111.083 39.166C111.086 39.0048 111.032 38.8477 110.932 38.7214H111.416V38.2574H110.468C110.342 38.2136 110.208 38.1916 110.075 38.1924C109.942 38.1812 109.809 38.1974 109.683 38.24C109.557 38.2826 109.442 38.3508 109.343 38.4401C109.245 38.5295 109.166 38.6382 109.112 38.7595C109.058 38.8807 109.029 39.0118 109.028 39.1447C109.028 39.2803 109.06 39.4141 109.121 39.5354C109.182 39.6568 109.269 39.7625 109.378 39.8444V39.8658C109.294 39.9197 109.223 39.9925 109.172 40.0784C109.121 40.1643 109.091 40.2609 109.084 40.3604C109.082 40.4488 109.103 40.5362 109.145 40.6139C109.187 40.6916 109.248 40.7569 109.324 40.8031V40.8245C109.216 40.8762 109.123 40.9558 109.056 41.0552C108.989 41.1545 108.949 41.27 108.941 41.3897C108.941 41.8538 109.412 42.0802 110.045 42.0802C110.911 42.0802 111.459 41.6681 111.459 41.1456C111.459 40.6881 111.121 40.4959 110.489 40.4959M110.076 38.6268C110.142 38.6263 110.207 38.6399 110.267 38.6667C110.328 38.6936 110.382 38.733 110.426 38.7824C110.47 38.8318 110.503 38.89 110.522 38.9531C110.542 39.0162 110.548 39.0828 110.54 39.1484C110.548 39.214 110.543 39.2807 110.524 39.3441C110.505 39.4075 110.473 39.466 110.429 39.5159C110.385 39.5657 110.332 39.6056 110.272 39.633C110.211 39.6604 110.146 39.6745 110.08 39.6745C110.013 39.6745 109.948 39.6604 109.888 39.633C109.828 39.6056 109.774 39.5657 109.73 39.5159C109.687 39.466 109.654 39.4075 109.635 39.3441C109.616 39.2807 109.611 39.214 109.62 39.1484C109.612 39.0832 109.617 39.017 109.637 38.9542C109.656 38.8914 109.689 38.8334 109.732 38.7841C109.776 38.7348 109.829 38.6953 109.889 38.6681C109.949 38.641 110.013 38.6269 110.079 38.6268M110.144 41.6811C109.728 41.6811 109.469 41.541 109.469 41.2988C109.472 41.2284 109.493 41.16 109.528 41.0992C109.564 41.0385 109.614 40.9872 109.674 40.9498C109.791 40.9767 109.911 40.9888 110.032 40.986H110.396C110.699 40.986 110.86 41.0463 110.86 41.2514C110.86 41.4797 110.568 41.6811 110.14 41.6811" fill="white"/>
<path d="M112.893 38.1943C112.545 38.2343 112.224 38.4035 111.995 38.6685C111.766 38.9336 111.644 39.275 111.655 39.6253C111.666 39.9755 111.807 40.3089 112.052 40.5596C112.297 40.8102 112.627 40.9598 112.977 40.9786C113.302 40.9744 113.618 40.8746 113.886 40.6918L113.674 40.3048C113.492 40.4273 113.278 40.494 113.059 40.4969C112.958 40.5006 112.858 40.4842 112.764 40.4487C112.67 40.4132 112.584 40.3593 112.511 40.2902C112.439 40.221 112.38 40.138 112.34 40.046C112.299 39.954 112.278 39.8549 112.276 39.7544H113.959C113.978 39.6546 113.987 39.5533 113.986 39.4519C113.986 38.7094 113.608 38.1934 112.891 38.1934M112.269 39.3312C112.271 39.1615 112.338 38.999 112.456 38.8771C112.574 38.7551 112.734 38.6828 112.904 38.675C113.267 38.675 113.448 38.9238 113.448 39.3312H112.269Z" fill="white"/>
<path d="M5.11646 13.378H18.5496C19.1424 12.9991 19.5703 12.4104 19.7478 11.7297C19.7843 11.3584 19.8029 10.9872 19.8035 10.616C19.8035 10.4638 19.8035 10.3134 19.7961 10.1658C19.7175 9.34083 19.5719 8.52358 19.3608 7.72219L19.1659 7.6665L18.1552 9.16815C18.4094 10.0341 18.6081 10.9154 18.7501 11.8067H5.11646C4.29367 11.8119 3.47383 11.708 2.67836 11.4977C2.10295 11.3877 1.58427 11.0795 1.21244 10.6268C0.840616 10.1741 0.639153 9.60547 0.643062 9.01966V8.66698L0.463941 8.59738C0.216181 9.07203 0.0641844 9.59077 0.0166016 10.1241L0.0166016 10.3839C0.0166016 12.3639 1.71562 13.3609 5.11367 13.3752" fill="white"/>
<path d="M10.4229 8.37938V8.35804C9.99646 8.04296 9.5448 7.76358 9.07248 7.52276C9.04035 7.52203 9.00852 7.52902 8.97967 7.54317C8.65682 7.87576 8.44842 8.30263 8.38477 8.76176V8.7831C8.82692 9.0946 9.29482 9.36782 9.78339 9.59982C10.1218 9.27302 10.3454 8.84556 10.421 8.38124" fill="white"/>
<path d="M47.6947 11.8754C47.8878 11.3547 47.9822 10.8027 47.9732 10.2475V9.36861L47.8135 9.26467L46.7824 10.3375L46.7964 11.8401C45.614 11.7894 44.9423 11.6579 44.7815 11.4457L45.2808 9.40945L45.1351 9.33334L44.207 10.2197L43.7494 11.8058H40.7508C40.9469 11.5146 41.1118 11.2035 41.2427 10.8777C41.3547 10.5942 41.4133 10.2924 41.4153 9.98765L41.2362 9.90412C40.9646 10.3338 40.6382 10.7262 40.2654 11.0717C39.7972 11.4634 39.2289 11.7163 38.6245 11.8021H36.9206C36.6776 11.8272 36.4325 11.7818 36.2147 11.6712C35.9969 11.5605 35.8157 11.3894 35.6927 11.1784C35.3914 10.4089 35.2308 9.5916 35.2184 8.76535C35.1256 7.56997 34.9985 6.1503 34.837 4.50635H34.6597L33.9256 5.77412C34.0871 7.38281 34.2025 8.6512 34.2718 9.57929C34.306 10.1479 34.3708 10.7142 34.4658 11.2758C34.2393 11.6316 33.6667 11.8092 32.7479 11.8086C32.6749 11.8086 32.6009 11.8064 32.526 11.8021H32.1966C31.9901 11.7596 31.7876 11.6993 31.5915 11.622C31.1848 11.4244 30.843 11.1147 30.6063 10.7295C30.3696 10.3443 30.2477 9.89957 30.255 9.4475V8.93705C30.255 8.88137 30.152 8.84424 29.9441 8.81269C29.2343 8.833 28.5392 9.02027 27.9153 9.35933C27.293 9.64895 26.7669 10.1112 26.3997 10.6911C26.1861 11.0753 25.8639 11.3879 25.4735 11.5898C25.083 11.7917 24.6417 11.8739 24.2048 11.8262H24.1324C24.1203 11.816 24.1083 11.8058 24.1018 11.8058H23.88C23.6365 11.8308 23.391 11.7853 23.1726 11.6747C22.9543 11.5641 22.7723 11.3931 22.6484 11.1821C22.3447 10.4133 22.1837 9.5956 22.1732 8.76907C22.0829 7.57369 21.9573 6.15402 21.7964 4.51006H21.6163L20.8896 5.77783C21.0511 7.38652 21.1653 8.65491 21.2321 9.583C21.2656 10.2775 21.3572 10.9679 21.5059 11.6471C21.6392 12.1732 21.9621 12.6316 22.4126 12.9343C22.8147 13.2057 23.2865 13.3552 23.7714 13.365L23.7844 13.378H24.1027L24.1073 13.3733C24.4054 13.3328 24.6984 13.2612 24.9816 13.1599C25.2467 13.0453 25.4823 12.872 25.6706 12.653C25.8589 12.434 25.9949 12.1751 26.0684 11.8958C26.0826 12.0301 26.2682 12.2519 26.6253 12.5612C27.6807 13.1696 28.8089 13.6417 29.9831 13.9664C30.1446 13.9664 30.3639 13.6666 30.6411 13.0671C31.0896 13.2906 31.5872 13.3979 32.088 13.3789H32.4592L32.4694 13.3687C32.7717 13.3683 33.0721 13.3204 33.3595 13.2267C33.9199 12.9784 34.3894 12.5624 34.7033 12.0359C34.8634 12.4041 35.1284 12.7169 35.4653 12.9353C35.8763 13.2143 36.3607 13.3651 36.8574 13.3687L36.8676 13.3789H38.5707C39.0175 13.3027 39.4266 13.0812 39.7345 12.7487L39.9563 13.3789H42.0269V13.3715H43.1406L43.833 12.707C44.6202 13.2253 45.5596 13.4621 46.4984 13.3789H46.8242C47.2048 12.9359 47.5006 12.4265 47.6966 11.8763M29.6582 12.0619C28.7815 11.8247 27.961 11.4145 27.2452 10.8554V10.8136C27.8395 10.5518 28.47 10.3816 29.1153 10.3088C29.1586 10.3101 29.2008 10.3221 29.2382 10.3439C29.2756 10.3656 29.3071 10.3962 29.3297 10.4331V10.8693C29.3368 11.2773 29.4515 11.6762 29.662 12.0257L29.6582 12.0619Z" fill="white"/>
<path d="M58.0126 10.3108L58.0608 10.3321C58.3816 10.1911 58.6558 9.96215 58.8519 9.67178C59.048 9.38141 59.158 9.04147 59.169 8.69126C59.169 8.28042 58.5917 8.07501 57.4371 8.07501C57.9861 7.6765 58.6422 7.4521 59.3202 7.43091H59.5421C59.9133 7.43091 60.0989 7.57848 60.0989 7.87361H60.1202C60.3556 7.64193 60.5046 7.33671 60.5425 7.00864C60.5425 6.68566 60.3278 6.52417 59.8984 6.52417H59.6348C58.7981 6.56602 58.0011 6.89361 57.3768 7.45226C56.8416 7.94724 56.574 8.35344 56.574 8.67085V8.76365C56.574 8.91153 56.7012 8.98546 56.9555 8.98546H57.1977C57.6869 8.95113 58.1749 9.06706 58.5964 9.31772C57.9501 9.63763 57.2316 9.7835 56.5118 9.74093C56.023 9.72237 55.4829 9.67627 54.8914 9.60265L54.8496 9.62956V9.65091C55.7296 10.1413 56.7194 10.4009 57.7267 10.4054C57.828 10.4004 57.926 10.3684 58.0107 10.3126" fill="white"/>
<path d="M57.1957 13.378H61.8362C62.36 13.011 62.8165 12.5564 63.1856 12.0341C63.3281 12.8581 63.7518 13.6073 64.3847 14.1538C64.6521 14.3999 65.0043 14.533 65.3675 14.5251C65.5689 14.523 65.7691 14.4952 65.9634 14.4425C66.1914 14.2882 66.3817 14.0846 66.5202 13.8466C66.7192 13.4209 66.8049 12.9509 66.769 12.4823V12.2745C66.9784 12.5658 67.2447 12.8118 67.5517 12.9974C67.8588 13.1831 68.2002 13.3046 68.5555 13.3548C68.6816 13.3681 68.8083 13.3746 68.9351 13.3742H69.0892L69.1059 13.3603C69.3964 13.346 69.6839 13.2948 69.9616 13.2081C70.3996 12.9794 70.8715 12.8227 71.3593 12.7441H71.415C72.1385 12.8835 72.8277 13.1632 73.4438 13.5673H73.5617C73.7838 13.1401 73.9581 12.6897 74.0814 12.2243C74.1005 12.1643 74.1099 12.1017 74.1092 12.0387C74.11 11.9968 74.1053 11.955 74.0953 11.9144C73.8975 11.7489 73.6844 11.6028 73.4586 11.4782C72.981 11.3204 72.5486 11.0494 72.1983 10.6884C71.8372 9.7784 71.6562 8.80694 71.6656 7.82798L72.0535 8.02195H72.1575L72.8359 6.69293V6.54072L71.4781 5.66089C71.2933 5.59638 71.1327 5.4769 71.0177 5.31848C70.9028 5.16005 70.839 4.97027 70.835 4.77457C70.835 4.71888 70.835 4.6632 70.8424 4.60844L70.718 4.51563L70.6252 4.66784C70.2751 5.11486 70.0612 5.65327 70.009 6.21867V6.3848C70.009 6.66137 70.2697 6.9398 70.7913 7.22008C71.0314 9.71788 71.1654 11.0822 71.1932 11.313C70.5802 11.6486 69.89 11.8181 69.1913 11.8048C69.1124 11.8048 69.0363 11.8048 68.963 11.7974L68.9528 11.8048H68.873C68.7848 11.8048 68.6613 11.7974 68.5017 11.7844C68.3084 11.7648 68.1227 11.6992 67.96 11.5931C67.7972 11.487 67.6622 11.3436 67.5662 11.1747C67.3305 10.7638 67.0004 8.54106 66.5759 4.50635H66.3959L65.6478 5.77412C66.0191 9.07874 66.2081 10.9968 66.2149 11.5283C66.1849 11.9035 66.126 12.2758 66.0386 12.642C66.0097 12.7573 65.9402 12.8583 65.8429 12.9265C65.7455 12.9947 65.6269 13.0255 65.5086 13.0132L65.5012 13.0206C65.2365 13.0094 64.9816 12.9175 64.7706 12.7572C64.5595 12.597 64.4026 12.3761 64.3207 12.1241C64.041 11.5258 63.7316 8.98902 63.3926 4.51377H63.2126L62.4302 5.78154L62.7699 9.58671C62.8043 10.1553 62.869 10.7216 62.9638 11.2833C62.7782 11.6341 62.2149 11.8095 61.2738 11.8095H57.1957C56.3744 11.8133 55.5558 11.7155 54.7586 11.5181C54.183 11.4083 53.6641 11.1002 53.2921 10.6475C52.9201 10.1948 52.7185 9.62601 52.7223 9.04007V8.68275L52.5423 8.61314C52.2959 9.08803 52.1455 9.60681 52.0996 10.1399V10.4025C52.0996 12.3824 53.7983 13.3724 57.1957 13.3724" fill="white"/>
<path d="M75.9538 13.378C76.319 12.6696 76.5696 11.9078 76.6963 11.1209C76.5683 8.90827 76.314 6.70479 75.9343 4.52124H75.6921L74.8818 6.16953C75.3159 8.55163 75.5934 10.9596 75.7125 13.378H75.9538Z" fill="white"/>
<path d="M101.755 12.309C102.382 11.8172 103.111 11.4727 103.89 11.3011C103.927 11.7978 104.062 12.2823 104.285 12.7276C104.479 13.1662 105.093 13.3856 106.127 13.3856H107.528L107.536 13.3772C107.95 13.381 108.361 13.3138 108.753 13.1786C108.973 13.0086 109.172 12.8119 109.345 12.593C109.519 12.374 109.711 12.1051 109.923 11.7865C110.198 11.9841 110.493 12.1536 110.802 12.2923C111.515 12.6175 112.26 12.8664 113.025 13.0348C113.136 13.0348 113.441 12.5593 113.939 11.6083V11.0403C113.769 9.0647 113.245 8.0769 112.368 8.0769H112.312C111.315 8.0769 110.407 9.10182 109.591 11.1517C109.272 11.5897 108.552 11.8091 107.43 11.8097H105.393C105.211 11.791 105.038 11.724 104.891 11.6156C104.744 11.5072 104.629 11.3614 104.558 11.1934H105.88L106.663 9.70848L106.614 9.58319H106.243C105.096 9.52286 103.963 9.31128 102.871 8.95394C102.701 8.91187 102.391 8.83329 101.943 8.71821C101.57 8.6138 101.185 8.55551 100.798 8.54465H100.777C100.403 8.53045 100.032 8.60987 99.6969 8.77569C99.3619 8.94151 99.0736 9.18847 98.8584 9.49409C98.6129 9.84775 98.4249 10.2381 98.3015 10.6505L98.4676 10.734C98.6276 10.5298 98.8345 10.3672 99.0707 10.2599C99.3069 10.1526 99.5654 10.1039 99.8245 10.1178H100.025C100.496 10.1384 100.963 10.2116 101.417 10.3359C102.015 10.4813 102.362 10.5679 102.459 10.5957C101.163 11.3413 99.7027 11.7575 98.2077 11.8078H97.3075L97.2927 11.8282H97.2583C97.0215 11.7846 96.7895 11.7175 96.566 11.6278C96.1592 11.4302 95.8174 11.1206 95.5807 10.7354C95.3439 10.3502 95.2221 9.90535 95.2295 9.45326V8.93352C95.2295 8.87784 95.1246 8.84072 94.9177 8.80916C94.2078 8.82937 93.5128 9.01665 92.8889 9.3558C92.2655 9.64682 91.739 10.1111 91.3724 10.6932C91.1587 11.0773 90.8365 11.3898 90.4461 11.5917C90.0557 11.7936 89.6144 11.8758 89.1774 11.8282H89.0466L89.0252 11.8078H87.6294C86.8339 11.9057 86.0279 11.7453 85.3305 11.3503L85.2609 11.2742L85.7658 11.0737C86.2926 10.9252 86.8012 10.7185 87.2823 10.4575L87.8846 9.121L87.699 8.98921C86.36 9.57515 85.1136 10.1289 83.9597 10.6505C83.3874 10.5329 82.8485 10.2894 82.382 9.93772C81.7162 9.45263 81.3833 9.03871 81.3833 8.69593C81.6689 8.38385 82.0241 8.14347 82.4199 7.99432C82.8158 7.84516 83.2413 7.79141 83.6618 7.83745C84.2768 7.86036 84.8885 7.93927 85.4892 8.07319H85.5097L85.6553 7.85137L85.5857 7.74C85.0241 7.16384 84.3434 6.71724 83.5913 6.4314C83.2531 6.44141 82.9203 6.5188 82.6124 6.65904C82.3045 6.79928 82.0277 6.99955 81.7982 7.24812C81.1681 7.90001 80.7924 8.75608 80.7393 9.66115C80.7393 10.5385 81.337 11.2562 82.5323 11.8143C81.9476 12.3568 81.4942 13.0256 81.207 13.7698C81.0276 14.2348 80.9191 14.7241 80.885 15.2213V15.8998C80.9175 16.2635 81.0236 16.6168 81.1968 16.9383C81.7363 17.8385 83.0357 18.2887 85.0948 18.2887C85.9208 18.3413 86.7463 18.1792 87.4911 17.8181L88.8962 16.9383V16.7174H85.7324C84.57 16.803 83.4112 16.51 82.4293 15.8821C82.1896 15.7158 81.9938 15.4938 81.8586 15.2351C81.7235 14.9765 81.6531 14.689 81.6534 14.3972C81.6538 14.2929 81.6609 14.1887 81.6748 14.0854C81.9409 13.5294 82.3415 13.0487 82.8404 12.6867C83.4064 12.1941 84.0438 11.7901 84.7309 11.4886C84.7353 11.8347 84.7891 12.1785 84.8906 12.5095C85.2086 13.0911 86.0418 13.3819 87.39 13.3819H89.0308C89.3454 13.3472 89.6547 13.2739 89.9514 13.1638C90.2165 13.0492 90.4522 12.8759 90.6404 12.6569C90.8287 12.4379 90.9647 12.179 91.0383 11.8997C91.0519 12.034 91.2375 12.2558 91.5951 12.5651C92.6507 13.1737 93.7793 13.6459 94.9539 13.9703C95.1154 13.9703 95.3347 13.6705 95.6119 13.0709C96.0604 13.2946 96.558 13.4018 97.0588 13.3828H98.2087C99.4659 13.3556 100.692 12.9856 101.754 12.3127M111.856 9.43562C112.345 9.47212 112.716 10.1255 112.97 11.3957C112.169 11.1702 111.403 10.8374 110.692 10.4064C110.79 10.161 110.947 9.94391 111.15 9.77462C111.353 9.60532 111.595 9.48915 111.854 9.43655M94.6272 12.063C93.7505 11.8257 92.9301 11.4155 92.2142 10.8565V10.8148C92.8084 10.5529 93.4389 10.3827 94.0842 10.3099C94.1275 10.3113 94.1697 10.3234 94.2071 10.3451C94.2445 10.3668 94.276 10.3974 94.2986 10.4342V10.8705C94.3043 11.2787 94.4177 11.6783 94.6272 12.0287V12.063Z" fill="white"/>
<path d="M101.748 14.1808C101.464 14.4989 101.275 14.8897 101.201 15.3093C101.212 15.3336 101.218 15.3592 101.222 15.3854C102.075 15.8978 102.521 16.1539 102.559 16.1539H102.614C102.919 15.8218 103.122 15.4076 103.196 14.9622C103.194 14.9453 103.19 14.9289 103.182 14.914C103.02 14.8038 102.579 14.5338 101.859 14.1038C101.836 14.1038 101.799 14.1288 101.748 14.1799" fill="white"/>
<path d="M2.24237 20.594C1.80887 20.2837 1.3419 20.0232 0.850239 19.8171C0.531315 20.1591 0.315169 20.584 0.226562 21.0431C0.655328 21.3946 1.12232 21.6965 1.6187 21.9434C1.69294 21.9292 1.88939 21.673 2.20803 21.1749C2.61103 21.4613 3.04541 21.7008 3.50272 21.8886H3.55841C3.86442 21.5723 4.06313 21.1678 4.1264 20.7322V20.6765C3.73179 20.3178 3.28011 20.0273 2.78995 19.8171C2.63217 19.8171 2.44965 20.0758 2.24237 20.593" fill="white"/>
<path d="M20.71 29.9278C20.5671 29.9278 20.3777 30.184 20.142 30.6963C19.3012 30.2069 18.8761 29.9507 18.8668 29.9278C18.8213 29.9299 18.7767 29.9417 18.736 29.9622C18.4454 30.3024 18.2495 30.713 18.168 31.1529V31.1743C18.5998 31.4846 19.0533 31.7637 19.5248 32.0095C19.7632 31.811 19.9447 31.5529 20.0511 31.2615V31.2411C20.9049 31.7299 21.338 31.986 21.3504 32.0095L21.42 31.9956C21.7392 31.6621 21.9492 31.2394 22.0223 30.7835V30.7705C21.6067 30.4549 21.167 30.1721 20.7072 29.925" fill="white"/>
<path d="M28.369 26.66C28.3083 25.7274 27.9945 24.8289 27.4613 24.0614H27.3509L26.6371 25.4813C26.9577 26.0357 27.2178 26.6228 27.413 27.2326H25.71C25.2999 27.2562 24.8918 27.1595 24.536 26.9542C24.2841 26.7859 24.0934 26.5408 23.9921 26.2554C24.1257 25.9046 24.239 25.6045 24.3318 25.3551L23.7155 25.098C23.051 26.5211 22.2086 27.2326 21.1883 27.2326H6.66744C6.2066 27.1338 5.78789 26.8941 5.46928 26.5468C4.87508 25.7262 4.51601 24.7591 4.43074 23.7495C4.41873 23.3112 4.35867 22.8754 4.25162 22.4502L4.20986 22.4706C3.90157 22.8311 3.71483 23.2796 3.67621 23.7523V24.001L3.69755 24.0428C3.61031 24.0985 3.56669 24.1356 3.56669 24.1542C2.63215 24.4596 1.76146 24.9336 0.997738 25.5528C0.474448 26.1981 0.136334 26.9735 0.0195312 27.796L0.0195313 27.8888C0.0195313 28.2303 0.345291 28.4011 0.99681 28.4011C1.9731 28.4734 2.9478 28.2413 3.78665 27.7366C4.00341 27.5006 4.15614 27.2131 4.23028 26.9013H4.25162C4.38369 27.4353 4.68779 27.911 5.117 28.255C5.54621 28.599 6.07669 28.7922 6.6266 28.8048H21.0491C21.3825 28.7715 21.7104 28.697 22.0255 28.583C22.338 28.4528 22.6219 28.2623 22.8608 28.0223C23.0996 27.7823 23.2889 27.4976 23.4176 27.1844H23.439C23.4531 27.3867 23.5074 27.5842 23.5986 27.7654C23.7664 28.077 24.0149 28.3379 24.3181 28.5206C24.6213 28.7033 24.9681 28.8011 25.322 28.8039H27.6905C27.9901 28.1139 28.2177 27.3948 28.3699 26.6582M1.86272 26.8104H1.45993C1.25039 26.8107 1.04148 26.7873 0.837178 26.7408V26.7194C0.961092 26.6018 1.10383 26.5058 1.25946 26.4354C1.961 26.1948 2.63613 25.8832 3.27434 25.5055C3.47988 25.3127 3.65288 25.088 3.78665 24.84C3.83291 25.3338 3.92077 25.8228 4.0493 26.3018C3.37827 26.663 2.62344 26.8398 1.86179 26.8141" fill="white"/>
<path d="M26.1601 30.918V31.0108C26.5771 31.346 27.03 31.6339 27.5105 31.8693C27.7042 31.8693 27.9303 31.4492 28.1889 30.609C27.7621 30.284 27.3077 29.9968 26.8311 29.7505C26.6146 29.7505 26.3906 30.1406 26.1592 30.9208" fill="white"/>
<path d="M43.3043 19.8736L43.3535 19.6175L43.18 19.5247C42.774 19.9807 42.5282 20.5569 42.4802 21.1655C42.4792 21.4083 42.5452 21.6466 42.671 21.8542C42.7967 22.0619 42.9773 22.2308 43.1929 22.3423C43.579 23.9512 43.8384 25.5877 43.9688 27.2371H41.9957C41.4332 27.267 40.8813 27.0758 40.4579 26.7044C40.7002 26.3268 40.8388 25.8921 40.8597 25.444V25.3336C40.8539 25.2232 40.8352 25.1139 40.804 25.0078C40.6335 24.7178 40.3859 24.4808 40.0886 24.3232C39.7914 24.1655 39.4562 24.0935 39.1205 24.115H38.8086C38.2458 24.1236 37.692 24.2584 37.1882 24.5094C36.976 24.976 36.7845 25.4468 36.6137 25.922L36.6759 25.9842C36.8488 25.9461 37.0251 25.9253 37.2021 25.922C37.5166 25.9457 37.8221 26.0379 38.0972 26.1921C38.3723 26.3464 38.6104 26.5589 38.7947 26.8148C37.8206 27.1204 36.8028 27.2631 35.7822 27.2371H35.2253C34.7086 27.216 34.2194 26.9987 33.8573 26.6295C33.4952 26.2603 33.2874 25.767 33.2763 25.2501L33.048 25.2426C32.7994 25.6812 32.6121 26.1518 32.4912 26.6413C32.5203 26.9805 32.6304 27.3079 32.8123 27.5958C32.9941 27.8838 33.2423 28.1239 33.5362 28.296L33.3905 28.6357C33.0553 29.2888 32.5432 29.8344 31.9127 30.2102C31.2821 30.586 30.5586 30.7769 29.8247 30.761C29.3335 30.74 28.8481 30.6461 28.3843 30.4826L28.3018 30.788C29.1733 31.3862 30.1491 31.8159 31.1788 32.0548C31.4218 32.053 31.6636 32.0218 31.899 31.962C32.0463 31.9385 32.3532 31.6662 32.8197 31.1453C33.4401 30.3898 33.9147 29.5256 34.2193 28.5967L34.4049 28.6728C34.6262 28.7461 34.8561 28.7901 35.0889 28.8037L35.0963 28.8121H35.3747C36.8205 28.8336 38.244 28.4549 39.488 27.7178C39.5521 27.7692 39.6082 27.8299 39.6541 27.8979C39.9046 28.2312 40.2394 28.4917 40.6241 28.6524C41.0088 28.8131 41.4295 28.8682 41.8426 28.8121H44.225C44.6536 27.9831 44.8833 27.0658 44.896 26.1327C44.8717 25.1576 44.7605 24.1867 44.5638 23.2315L44.7373 23.314L44.8134 23.2927L45.4918 21.9284V21.818L44.612 21.2361C43.7396 20.733 43.3034 20.2807 43.3034 19.8792" fill="white"/>
<path d="M47.5778 19.9497L46.7676 21.598C47.2035 23.98 47.4825 26.388 47.6029 28.8065H47.8451C48.2101 28.0976 48.4607 27.3355 48.5876 26.5484C48.4598 24.3362 48.2057 22.133 47.8265 19.9497H47.5778Z" fill="white"/>
<path d="M54.7863 20.594C54.3527 20.2842 53.8857 20.0239 53.3942 19.8181C53.0753 20.1601 52.8592 20.585 52.7705 21.0441C53.1992 21.3957 53.6662 21.6977 54.1626 21.9444C54.2369 21.9301 54.4331 21.674 54.7511 21.1759C55.1555 21.4626 55.5915 21.7021 56.0504 21.8896H56.1061C56.4117 21.573 56.6103 21.1686 56.674 20.7332V20.6775C56.2793 20.3192 55.8276 20.029 55.3376 19.819C55.1804 19.819 54.9979 20.0777 54.7901 20.5949" fill="white"/>
<path d="M65.3121 20.9781C65.0134 21.2941 64.8094 21.6877 64.7236 22.114V22.2384C65.1527 22.5362 65.6041 22.8003 66.074 23.0282H66.1158C66.4077 22.7058 66.6148 22.3157 66.7181 21.8932V21.7892C66.6674 21.7341 66.2219 21.4557 65.3816 20.9539C65.3567 20.953 65.3322 20.9606 65.3121 20.9753" fill="white"/>
<path d="M75.282 19.8736L75.3303 19.6175L75.1577 19.5247C74.7519 19.9808 74.5062 20.5569 74.4579 21.1655C74.4567 21.4086 74.5227 21.6472 74.6487 21.855C74.7746 22.0629 74.9556 22.2319 75.1716 22.3433C75.5573 23.9525 75.8167 25.5893 75.9475 27.2389H74.0291C73.7859 27.2643 73.5405 27.2189 73.3224 27.1083C73.1043 26.9977 72.9227 26.8265 72.7994 26.6153C72.499 25.8456 72.3384 25.0284 72.3252 24.2022C72.233 23.0068 72.1061 21.5872 71.9446 19.9432H71.772L71.0379 21.211C71.1994 22.8197 71.3148 24.0881 71.3841 25.0162C71.4186 25.5847 71.4834 26.151 71.5781 26.7127C71.3516 27.0685 70.7793 27.2461 69.8611 27.2454C69.7868 27.2454 69.7135 27.2454 69.6383 27.2389H69.3682C68.8059 27.2689 68.2541 27.0773 67.8313 26.7053C68.0728 26.3278 68.2111 25.8935 68.2323 25.4459V25.3345C68.2262 25.2241 68.2076 25.1148 68.1766 25.0087C68.006 24.7187 67.7584 24.4817 67.4611 24.3241C67.1639 24.1665 66.8288 24.0944 66.4931 24.1159H66.1821C65.6193 24.1245 65.0655 24.2593 64.5617 24.5104C64.3495 24.9769 64.158 25.4477 63.9872 25.9229L64.0503 25.9851C64.2232 25.947 64.3995 25.9262 64.5765 25.9229C64.891 25.9469 65.1963 26.0393 65.4713 26.1937C65.7462 26.3481 65.984 26.5607 66.1682 26.8167C65.1941 27.1223 64.1762 27.265 63.1556 27.2389H59.2085C58.7478 27.1403 58.329 26.901 58.0103 26.554C57.4155 25.7337 57.0564 24.7664 56.9717 23.7567C56.9592 23.3184 56.8989 22.8827 56.7917 22.4574L56.7499 22.4778C56.4419 22.8383 56.2555 23.2869 56.2172 23.7595V24.0083L56.2377 24.05C56.1495 24.1057 56.1068 24.1428 56.1068 24.1614C55.1721 24.4672 54.3012 24.9412 53.5369 25.56C53.0147 26.2058 52.6773 26.981 52.5605 27.8032V27.896C52.5605 28.2376 52.886 28.4083 53.5369 28.4083C54.5135 28.4809 55.4886 28.2487 56.3277 27.7438C56.5445 27.5079 56.6972 27.2203 56.7713 26.9085H56.7926C56.9247 27.4425 57.2288 27.9182 57.658 28.2622C58.0872 28.6062 58.6177 28.7994 59.1676 28.8121H62.7482C64.1937 28.8338 65.617 28.4551 66.8606 27.7178C66.9249 27.769 66.9809 27.8297 67.0267 27.8979C67.2773 28.2311 67.6121 28.4914 67.9968 28.6521C68.3815 28.8128 68.802 28.868 69.2151 28.8121H69.5817L69.5947 28.8009C69.8892 28.7985 70.1815 28.751 70.4616 28.6598C71.0219 28.4114 71.4914 27.9954 71.8054 27.4691C71.965 27.8378 72.2301 28.1511 72.5674 28.3694C72.9784 28.6482 73.4628 28.799 73.9595 28.8028L73.9697 28.813H76.1972C76.6263 27.9842 76.8563 27.0668 76.8691 26.1336C76.8447 25.1586 76.7335 24.1877 76.5368 23.2324L76.7104 23.315L76.7865 23.2936L77.4649 21.9303V21.8189L76.586 21.237C75.7142 20.7333 75.278 20.281 75.2774 19.8801M54.4 26.8185H53.9982C53.7886 26.8188 53.5797 26.7955 53.3754 26.7489V26.7276C53.4992 26.6098 53.6419 26.5138 53.7977 26.4436C54.4994 26.2016 55.1746 25.8884 55.8126 25.509C56.0183 25.3164 56.1913 25.0917 56.3249 24.8435C56.3712 25.3373 56.4591 25.8263 56.5875 26.3053C55.9165 26.6665 55.1617 26.8442 54.4 26.8185Z" fill="white"/>
<path d="M87.8988 31.9778C87.6958 32.1883 87.5338 32.4347 87.4209 32.7045C87.4213 32.7074 87.4211 32.7104 87.4202 32.7132C87.4193 32.716 87.4178 32.7186 87.4157 32.7206C87.4136 32.7227 87.411 32.7243 87.4082 32.7252C87.4054 32.7261 87.4024 32.7263 87.3995 32.7258C86.5593 32.2277 86.1209 31.9784 86.0844 31.9778H86.0677L86.013 31.9917C85.7072 32.3226 85.5071 32.7372 85.4385 33.1824V33.2521C85.8835 33.5472 86.3487 33.8108 86.8306 34.0409C87.0464 33.8348 87.2103 33.5803 87.3086 33.2985H87.3225C88.1887 33.7965 88.6342 34.044 88.659 34.0409H88.7007C88.9816 33.7221 89.1813 33.3399 89.2827 32.9272V32.7611C88.8466 32.4731 88.3935 32.2118 87.9258 31.9787L87.8988 31.9778Z" fill="white"/>
<path d="M96.3404 26.9077C95.8631 26.7502 95.431 26.4796 95.081 26.1188C94.7191 25.209 94.5379 24.2375 94.5474 23.2584L94.9353 23.4524H95.0393L95.7177 22.1233V21.9702L94.3608 21.0913C94.1759 21.027 94.0151 20.9076 93.9001 20.7491C93.7851 20.5907 93.7214 20.4008 93.7177 20.205C93.7177 20.1493 93.7176 20.0945 93.7232 20.0389L93.5989 19.946L93.506 20.0983C93.1563 20.5454 92.9427 21.0838 92.8907 21.6491V21.8152C92.8907 22.0918 93.1515 22.3702 93.6731 22.6505C93.9125 25.1477 94.0462 26.5117 94.074 26.7424C93.4616 27.078 92.7722 27.2476 92.074 27.2343C91.9954 27.2343 91.9193 27.2322 91.8457 27.2278L91.8355 27.2343H89.6573L88.9148 28.7091L88.9844 28.8019C89.4777 28.7906 89.9697 28.8586 90.4415 29.0033C90.6664 29.098 90.8669 29.2426 91.0277 29.4263C91.1884 29.6099 91.3054 29.8277 91.3696 30.0632H86.5648C85.742 30.0671 84.9222 29.9622 84.1268 29.7513C83.5506 29.6401 83.0316 29.3306 82.6598 28.8766C82.288 28.4226 82.0869 27.8527 82.0914 27.2659V26.9197L81.9114 26.851C81.6653 27.3248 81.5145 27.8422 81.4678 28.374V28.6441C81.4678 30.624 83.1668 31.6211 86.5648 31.6353H90.8582C91.3474 31.2273 91.7565 30.7319 92.0647 30.1745C92.139 30.0405 92.2011 29.9001 92.2504 29.755C92.2935 29.6172 92.3145 29.4734 92.3125 29.329C92.2982 29.1354 92.2232 28.9513 92.0982 28.8028H92.5974L92.7218 28.6784V28.6682C92.7664 28.6562 92.81 28.6515 92.8536 28.6367C93.292 28.4082 93.7642 28.2515 94.2522 28.1726H94.307C95.0308 28.3126 95.7202 28.5925 96.3367 28.9968H96.4537C96.6757 28.5692 96.85 28.1186 96.9734 27.6529C96.9922 27.5929 97.0013 27.5302 97.0003 27.4673C97.0008 27.4251 96.9961 27.383 96.9864 27.342C96.7879 27.177 96.5745 27.0309 96.3488 26.9058" fill="white"/>
<path d="M108.797 19.8736L108.846 19.6175L108.673 19.5247C108.267 19.9807 108.022 20.557 107.974 21.1655C107.973 21.4083 108.039 21.6466 108.165 21.8542C108.291 22.0619 108.471 22.2308 108.687 22.3423C109.073 23.9512 109.332 25.5877 109.463 27.2371H107.49C106.927 27.2673 106.375 27.0761 105.952 26.7044C106.194 26.3269 106.333 25.8922 106.354 25.444V25.3336C106.348 25.2232 106.329 25.1138 106.298 25.0078C106.127 24.7179 105.88 24.4809 105.583 24.3233C105.286 24.1656 104.951 24.0935 104.615 24.115H104.303C103.741 24.1235 103.187 24.2583 102.683 24.5094C102.47 24.976 102.279 25.4468 102.109 25.922L102.171 25.9842C102.344 25.9462 102.52 25.9254 102.697 25.922C103.011 25.9456 103.317 26.0378 103.592 26.192C103.867 26.3462 104.105 26.5588 104.29 26.8148C103.316 27.1203 102.298 27.263 101.278 27.2371H100.689C100.445 27.2623 100.199 27.2169 99.981 27.1063C99.7626 26.9957 99.5807 26.8246 99.4569 26.6134C99.1532 25.8446 98.9923 25.0269 98.9818 24.2004C98.8927 23.005 98.7671 21.5853 98.605 19.9414H98.424L97.6973 21.2082C97.8588 22.8169 97.9729 24.0853 98.0397 25.0134C98.0732 25.7075 98.1648 26.3977 98.3136 27.0765C98.447 27.6029 98.7698 28.0615 99.2203 28.3647C99.6219 28.636 100.093 28.7856 100.578 28.7953L100.591 28.8083H100.91C102.341 28.8243 103.749 28.4467 104.979 27.7169C104.993 27.7169 105.049 27.7763 105.145 27.897C105.396 28.2302 105.731 28.4906 106.115 28.6513C106.5 28.812 106.921 28.8672 107.334 28.8111H109.715C110.144 27.9823 110.374 27.0649 110.386 26.1317C110.362 25.1567 110.251 24.1858 110.054 23.2305L110.226 23.3131L110.304 23.2918L110.982 21.9275V21.817L110.102 21.2351C109.23 20.7321 108.794 20.2798 108.794 19.8783" fill="white"/>
<path d="M113.311 19.9497H113.07L112.259 21.598C112.695 23.9799 112.974 26.388 113.094 28.8065H113.336C113.701 28.0976 113.952 27.3355 114.079 26.5484C113.951 24.3361 113.696 22.1329 113.317 19.9497" fill="white"/>
<path d="M139.846 42.2118C139.846 42.2118 142.758 45.384 142.855 45.4991C143.657 44.3941 144.598 43.3961 145.653 42.5292L143.189 39.9649L145.695 37.5992C144.658 36.3103 143.717 34.9476 142.878 33.5221C142.878 33.5091 142.859 33.51 142.858 33.5221C142.753 35.3931 140.022 37.3514 140.022 37.3514L142.298 39.9575L139.846 42.2118Z" fill="white"/>
<path d="M124.673 30.0707C124.673 30.0707 123.382 34.1794 123.331 34.3204C124.688 34.4638 126.021 34.7794 127.299 35.2597L128.287 31.8434L131.587 32.8281C132.185 31.286 132.894 29.7894 133.709 28.35C133.719 28.3389 133.709 28.3278 133.698 28.3343C132.027 29.1779 128.965 27.7922 128.965 27.7922L127.844 31.0703L124.673 30.0707Z" fill="white"/>
<path d="M127.601 10.8628C127.601 10.8628 123.398 11.7992 123.249 11.8252C123.804 13.0723 124.197 14.385 124.419 15.7316L127.872 14.8796L128.669 18.229C130.304 17.9757 131.954 17.8417 133.608 17.8281C133.622 17.8281 133.628 17.8179 133.616 17.8105C132.048 16.7831 131.718 13.4401 131.718 13.4401L128.323 14.1074L127.601 10.8628Z" fill="white"/>
<path d="M145.701 3.789C145.701 3.789 142.789 0.616792 142.693 0.501709C141.89 1.6068 140.95 2.60484 139.894 3.4716L142.358 6.03591L139.853 8.40161C140.889 9.69053 141.831 11.0532 142.669 12.4787C142.669 12.4917 142.688 12.4908 142.689 12.4787C142.795 10.6077 145.525 8.65034 145.525 8.65034L143.249 6.04426L145.701 3.789Z" fill="white"/>
<path d="M160.876 15.9302C160.876 15.9302 162.166 11.8215 162.218 11.6804C160.861 11.5371 159.528 11.2215 158.251 10.7412L157.262 14.1575L153.962 13.1728C153.364 14.7149 152.655 16.2115 151.84 17.6508C151.83 17.662 151.84 17.6731 151.851 17.6666C153.522 16.823 156.585 18.2086 156.585 18.2086L157.704 14.9343L160.876 15.9302Z" fill="white"/>
<path d="M157.948 35.1417C157.948 35.1417 162.151 34.2052 162.299 34.1792C161.744 32.9321 161.351 31.6194 161.129 30.2729L157.677 31.1249L156.879 27.7754C155.245 28.0287 153.594 28.1628 151.94 28.1763C151.926 28.1763 151.921 28.1866 151.932 28.194C153.499 29.2214 153.83 32.5643 153.83 32.5643L157.225 31.897L157.948 35.1417Z" fill="white"/>
<path d="M136.281 2.30122C136.452 2.35381 136.598 2.63224 136.718 3.1365C136.876 3.62158 136.88 3.90341 136.731 3.98199L136.161 3.71377C136.016 3.62764 135.853 3.57708 135.685 3.56627C135.518 3.55546 135.35 3.5847 135.195 3.65159C134.67 3.92692 134.805 5.09724 135.601 7.16255C136.397 9.22786 136.691 10.2915 136.483 10.3533C136.257 10.4715 135.79 10.1727 135.08 9.45679C134.336 8.6086 133.346 8.01175 132.249 7.74818C132.248 7.85393 132.231 7.95891 132.197 8.05909C132.104 8.15499 131.731 8.19644 131.078 8.18345C130.426 8.17046 130.023 8.06249 129.872 7.85955C129.235 6.91661 129.161 6.31737 129.648 6.06184C130.529 5.55262 131.981 5.9978 134.005 7.39736C134.433 7.77826 134.883 8.1346 135.352 8.46466C134.981 7.4747 134.645 6.46865 134.345 5.44651C133.751 3.58167 133.782 2.50107 134.438 2.2047C134.733 2.07982 135.052 2.02378 135.372 2.04083C135.692 2.05788 136.003 2.14756 136.283 2.30307" fill="white"/>
<path d="M121.583 18.8667C121.714 18.743 122.028 18.756 122.525 18.9057C123.023 19.0106 123.267 19.1479 123.262 19.3178L122.745 19.6779C122.598 19.7597 122.473 19.8754 122.379 20.0153C122.286 20.1552 122.228 20.3154 122.209 20.4825C122.184 21.074 123.266 21.5424 125.452 21.8876C127.639 22.2329 128.707 22.5113 128.656 22.7229C128.646 22.9772 128.154 23.2324 127.178 23.4886C126.072 23.7095 125.06 24.2674 124.283 25.0858C124.374 25.1392 124.456 25.2069 124.526 25.2863C124.564 25.4156 124.413 25.7593 124.075 26.3174C123.736 26.8755 123.442 27.1709 123.19 27.2037C122.054 27.2842 121.498 27.0491 121.52 26.4984C121.52 25.4812 122.632 24.4458 124.855 23.3921C125.4 23.2118 125.933 23.0005 126.454 22.7591C125.412 22.589 124.373 22.3767 123.335 22.1225C121.425 21.7042 120.505 21.1362 120.576 20.4185C120.615 20.1009 120.726 19.7965 120.901 19.5282C121.075 19.26 121.309 19.035 121.583 18.8704" fill="white"/>
<path d="M128.747 39.3608C128.707 39.1869 128.876 38.9215 129.252 38.5645C129.592 38.1858 129.834 38.0417 129.977 38.132C129.977 38.132 129.995 38.3408 130.03 38.7603C130.027 38.9285 130.065 39.0949 130.14 39.2456C130.214 39.3964 130.324 39.5272 130.459 39.6272C130.96 39.9446 131.906 39.2423 133.297 37.5204C134.689 35.7985 135.462 35.0118 135.618 35.1603C135.832 35.2964 135.807 35.8508 135.541 36.8234C135.18 37.8924 135.157 39.0471 135.477 40.1293C135.569 40.0773 135.669 40.0403 135.773 40.0198C135.903 40.0519 136.125 40.3539 136.44 40.9256C136.755 41.4973 136.863 41.8995 136.764 42.1321C136.265 43.1555 135.783 43.5199 135.319 43.2254C134.438 42.7162 134.098 41.2358 134.298 38.7845C134.414 38.2226 134.498 37.6547 134.549 37.0833C133.881 37.9 133.177 38.6938 132.438 39.4647C131.121 40.9113 130.169 41.4243 129.583 41.0035C129.328 40.8108 129.12 40.5622 128.975 40.2769C128.83 39.9916 128.753 39.677 128.748 39.3571" fill="white"/>
<path d="M149.844 43.2755C149.673 43.2235 149.527 42.9451 149.407 42.4402C149.249 41.9551 149.245 41.6736 149.394 41.5956L149.965 41.8648C150.11 41.9507 150.273 42.0011 150.441 42.0117C150.608 42.0224 150.776 41.993 150.931 41.9261C151.456 41.6507 151.321 40.4804 150.525 38.4151C149.729 36.3498 149.435 35.2862 149.643 35.2243C149.868 35.1061 150.335 35.4053 151.046 36.1218C151.791 36.9696 152.78 37.5661 153.877 37.8295C153.878 37.724 153.895 37.6194 153.929 37.5195C154.023 37.423 154.395 37.3812 155.048 37.3942C155.7 37.4072 156.102 37.5151 156.254 37.7181C156.891 38.661 156.965 39.2603 156.478 39.5158C155.597 40.0244 154.145 39.5792 152.121 38.1803C151.693 37.7997 151.243 37.4437 150.774 37.1139C151.145 38.1002 151.481 39.1065 151.781 40.133C152.375 41.9972 152.344 43.0775 151.688 43.3739C151.393 43.499 151.074 43.5552 150.754 43.5382C150.434 43.5211 150.123 43.4313 149.844 43.2755Z" fill="white"/>
<path d="M164.209 27.1333C164.078 27.257 163.764 27.244 163.267 27.0943C162.769 26.9894 162.525 26.853 162.53 26.6822L163.047 26.323C163.194 26.241 163.319 26.1253 163.413 25.9854C163.506 25.8455 163.565 25.6854 163.584 25.5184C163.608 24.9263 162.527 24.4579 160.34 24.1133C158.154 23.7686 157.086 23.4902 157.136 23.278C157.147 23.0243 157.639 22.7691 158.614 22.5123C159.721 22.2916 160.732 21.7337 161.51 20.9151C161.419 20.8616 161.337 20.794 161.267 20.7146C161.23 20.5859 161.38 20.2425 161.718 19.6844C162.057 19.1263 162.352 18.8309 162.604 18.7981C163.739 18.7177 164.296 18.9528 164.274 19.5034C164.274 20.5212 163.163 21.5564 160.939 22.6088C160.394 22.7894 159.861 23.001 159.341 23.2427C160.382 23.4116 161.421 23.6235 162.459 23.8785C164.37 24.2967 165.289 24.8647 165.218 25.5824C165.179 25.9 165.068 26.2045 164.893 26.4727C164.719 26.741 164.486 26.9659 164.211 27.1305" fill="white"/>
<path d="M157.339 6.73196C157.378 6.90583 157.21 7.17126 156.834 7.52826C156.493 7.90785 156.251 8.05171 156.109 7.96168C156.109 7.96168 156.091 7.75193 156.055 7.33336C156.058 7.16521 156.02 6.99888 155.946 6.84814C155.871 6.6974 155.762 6.56659 155.626 6.46653C155.126 6.14912 154.18 6.85107 152.788 8.57237C151.397 10.2937 150.623 11.0801 150.468 10.9316C150.253 10.7961 150.279 10.242 150.544 9.26936C150.906 8.20005 150.928 7.04509 150.608 5.96258C150.516 6.01484 150.417 6.05212 150.313 6.07302C150.184 6.04023 149.961 5.73798 149.646 5.16628C149.33 4.59457 149.222 4.1924 149.322 3.95976C149.821 2.937 150.302 2.57257 150.767 2.86647C151.648 3.37568 151.988 4.85598 151.788 7.30738C151.672 7.86923 151.588 8.43721 151.536 9.00857C152.205 8.19185 152.908 7.39802 153.647 6.62709C154.964 5.18112 155.916 4.6682 156.502 5.08832C156.757 5.28119 156.965 5.52972 157.11 5.81502C157.254 6.10032 157.332 6.41487 157.337 6.73475" fill="white"/>
<path d="M151.619 25.8431C151.282 25.6533 150.926 25.4996 150.557 25.3846C149.614 25.0859 148.614 25.0128 147.637 25.1712C147.207 25.2404 146.784 25.3495 146.374 25.4969L146.248 25.5415C146.02 25.6287 145.796 25.7279 145.579 25.8385C145.388 25.9356 145.197 26.0411 145.008 26.1549C144.568 26.4218 144.143 26.7134 143.735 27.0283C143.495 25.0092 143.428 22.9733 143.535 20.9428C143.606 20.7238 143.776 20.6922 143.85 20.4602C143.883 20.3267 143.864 20.1853 143.796 20.0658C144.603 20.3702 145.088 21.1219 145.121 22.5001C145.285 22.2713 145.402 22.0119 145.464 21.7372C145.527 21.4625 145.533 21.1781 145.484 20.9008C145.434 20.6235 145.33 20.3589 145.176 20.1227C145.023 19.8865 144.824 19.6835 144.59 19.5256C145.461 19.7521 146.193 20.1892 146.347 22.0314C146.981 20.3163 146.207 18.8602 144.758 18.5344C145.4 18.5714 146.007 18.8376 146.469 19.2845C146.931 19.7315 147.217 20.3295 147.275 20.9697C147.39 20.5868 147.416 20.1829 147.352 19.7884C147.288 19.3939 147.135 19.0192 146.904 18.6925C146.674 18.3658 146.373 18.0957 146.023 17.9026C145.673 17.7094 145.284 17.5983 144.884 17.5775C145.306 17.463 145.75 17.4652 146.17 17.5839C146.59 17.7026 146.97 17.9333 147.269 18.2513C147.069 17.7427 146.698 17.32 146.219 17.0566C145.74 16.7932 145.184 16.7056 144.648 16.8091C144.787 16.5307 145.271 16.3311 146.121 16.2114C145.783 16.0586 145.41 15.9981 145.041 16.0361C144.672 16.0741 144.32 16.2092 144.02 16.4276C144.147 16.0218 144.426 15.6808 144.798 15.4763C144.511 15.4787 144.23 15.5559 143.982 15.7005C143.734 15.8451 143.529 16.0519 143.386 16.3005C143.408 15.8964 143.311 15.4945 143.107 15.145C143.003 15.2983 142.931 15.4714 142.896 15.6536C142.855 15.8678 142.833 16.0852 142.83 16.3033C142.687 16.0548 142.481 15.8481 142.233 15.7035C141.986 15.559 141.705 15.4816 141.418 15.4791C141.791 15.6838 142.069 16.0247 142.196 16.4304C141.896 16.2121 141.544 16.077 141.175 16.039C140.806 16.0011 140.434 16.0615 140.097 16.2142C140.946 16.3339 141.429 16.5344 141.568 16.8119C141.032 16.7084 140.476 16.796 139.997 17.0594C139.519 17.3228 139.147 17.7455 138.947 18.2541C139.246 17.9362 139.626 17.7055 140.046 17.5868C140.466 17.4681 140.911 17.4659 141.332 17.5803C140.933 17.6012 140.544 17.7125 140.194 17.9057C139.844 18.0989 139.543 18.369 139.312 18.6956C139.082 19.0223 138.929 19.3969 138.865 19.7913C138.8 20.1858 138.827 20.5896 138.941 20.9725C138.999 20.3322 139.286 19.7342 139.748 19.2873C140.21 18.8403 140.817 18.5741 141.459 18.5372C140.009 18.8629 139.232 20.3191 139.87 22.0342C140.023 20.191 140.755 19.7539 141.626 19.5284C141.393 19.6863 141.194 19.8894 141.04 20.1256C140.887 20.3618 140.782 20.6264 140.733 20.9036C140.683 21.1809 140.69 21.4652 140.752 21.7399C140.814 22.0146 140.931 22.274 141.095 22.5029C141.128 21.1247 141.613 20.3729 142.42 20.0685C142.352 20.1879 142.332 20.3295 142.367 20.463C142.44 20.6968 142.611 20.7275 142.682 20.9502C142.786 22.9792 142.719 25.0134 142.481 27.0311C141.718 26.4196 140.872 25.9197 139.968 25.5461C139.863 25.5071 139.761 25.471 139.659 25.4385C138.895 25.1832 138.091 25.069 137.286 25.1016C136.435 25.1361 135.601 25.3472 134.836 25.7215C134.743 25.7689 134.661 25.8143 134.598 25.8487C134.593 25.852 134.59 25.8568 134.589 25.8622C134.587 25.8677 134.588 25.8734 134.59 25.8784C134.593 25.8834 134.597 25.8875 134.602 25.8898C134.607 25.8922 134.613 25.8927 134.618 25.8914C134.691 25.8682 134.764 25.8477 134.836 25.8273C135.631 25.5982 136.462 25.5168 137.286 25.587C138.108 25.6643 138.91 25.8802 139.659 26.2255C140.679 26.709 141.63 27.3278 142.484 28.0649C141.592 28.9249 140.648 29.7307 139.659 30.478L139.567 30.5281C139.492 30.4258 139.391 30.3468 139.273 30.3006C139.155 30.2544 139.027 30.2428 138.903 30.2674C138.779 30.2919 138.665 30.3514 138.574 30.4389C138.482 30.5264 138.418 30.6382 138.389 30.7611C138.363 30.8594 138.361 30.9624 138.384 31.0615C138.406 31.1606 138.452 31.253 138.517 31.3309C138.662 31.4797 138.853 31.5765 139.059 31.6065C139.265 31.6365 139.475 31.5981 139.657 31.497C140.807 30.7674 141.858 29.892 142.784 28.8928C142.889 28.7957 142.996 28.6985 143.105 28.6014C143.214 28.6942 143.321 28.7944 143.425 28.8909C144 29.4153 144.525 29.9286 145.003 30.3638C145.202 30.543 145.391 30.71 145.574 30.8585C145.821 31.0677 146.087 31.2523 146.369 31.4098C146.553 31.5457 146.777 31.6168 147.006 31.6117C147.234 31.6067 147.455 31.5259 147.633 31.3819C147.653 31.3657 147.673 31.3484 147.691 31.33C147.75 31.2487 147.792 31.1562 147.814 31.0583C147.836 30.9603 147.838 30.8589 147.82 30.7601C147.79 30.6408 147.729 30.532 147.641 30.4457C147.554 30.3594 147.444 30.2989 147.324 30.271C147.198 30.2421 147.066 30.2511 146.945 30.2968C146.823 30.3425 146.718 30.423 146.642 30.5281C146.548 30.4787 146.456 30.4233 146.368 30.362C146.092 30.1626 145.826 29.9482 145.573 29.7197C145.394 29.5629 145.202 29.3912 145.002 29.2084C144.612 28.8529 144.183 28.4603 143.726 28.0631C144.135 27.7202 144.561 27.3983 145.002 27.0988C145.188 26.9726 145.379 26.8519 145.573 26.735C145.831 26.5816 146.096 26.4396 146.368 26.309C146.775 26.1129 147.198 25.9511 147.632 25.8255C148.579 25.5484 149.576 25.485 150.551 25.6399C150.904 25.6962 151.251 25.7781 151.592 25.8849C151.597 25.8862 151.603 25.8857 151.608 25.8833C151.613 25.881 151.617 25.8769 151.619 25.8719C151.622 25.8669 151.622 25.8612 151.621 25.8557C151.62 25.8503 151.617 25.8455 151.612 25.8422" fill="white"/>
</g>
</g>
</g>
</g>
<defs>
<clipPath id="clip0_81_4393">
<rect width="165.2" height="45" fill="white" transform="translate(0.0195312 0.5)"/>
</clipPath>
<clipPath id="clip1_81_4393">
<rect width="165.2" height="45" fill="white" transform="translate(0.0195312 0.5)"/>
</clipPath>
<clipPath id="clip2_81_4393">
<rect width="165.2" height="44.9966" fill="white" transform="translate(0.0195312 0.501709)"/>
</clipPath>
</defs>
</svg>
