<svg width="130" height="54" viewBox="0 0 130 54" fill="none" xmlns="http://www.w3.org/2000/svg">
<g clip-path="url(#clip0_81_4477)">
<g clip-path="url(#clip1_81_4477)">
<g clip-path="url(#clip2_81_4477)">
<path d="M119.964 11.7044V19.5546H109.146L111.897 14.6717V11.702H98.6057V14.6717L101.356 19.5546H91.9899L83.4294 10.7771L80.7064 13.252L86.8863 19.558H82.0807C82.1286 19.5984 82.1834 19.6405 82.2362 19.6958L82.548 20.0043C82.7328 20.1899 83.3817 20.8705 83.6606 21.2095C83.7042 21.2555 83.7291 21.3165 83.7291 21.3799C83.7291 21.4433 83.7042 21.5043 83.6606 21.5503L82.0936 23.0822H129.476V11.7076L119.964 11.7044ZM105.251 19.5538L103.149 15.227H107.356L105.251 19.5538ZM126.115 19.5538H123.21V15.227H126.115V19.5538ZM81.1301 19.7189L81.3259 19.5538H73.2616V11.7036H63.7399V19.5538H56.5078V23.0782H81.1092C80.6829 22.6761 80.2571 22.2476 79.8314 21.7928C79.776 21.7466 79.7301 21.6899 79.6969 21.6258C79.6637 21.5618 79.6439 21.4917 79.6381 21.4198C79.6323 21.3479 79.6413 21.2754 79.6639 21.2069C79.6864 21.1384 79.722 21.075 79.7694 21.0206C80.4789 20.3408 80.8818 19.9384 81.1285 19.7189H81.1301ZM69.8908 19.5538H66.9858V15.227H69.8908V19.5538Z" fill="white"/>
<path d="M76.8848 9.01521V7.1145L56.5058 7.1145V9.01521L76.8848 9.01521Z" fill="#CEFDFF" fill-opacity="0.65"/>
<path d="M117.033 9.01521V7.1145L91.5304 7.1145V9.01521L117.033 9.01521Z" fill="#CEFDFF" fill-opacity="0.65"/>
<path d="M124.17 4.96127L123.879 7.21843L119.782 7.24985L119.557 9.02021L129.169 9.01357L129.765 4.3772L124.17 4.96127ZM127.664 7.20856L125.618 7.19366L125.7 6.5832L127.778 6.3538L127.664 7.20856Z" fill="white"/>
<path d="M94.5449 48.3443V46.4436H69.3127V48.3443H94.5449Z" fill="#CEFDFF" fill-opacity="0.65"/>
<path d="M129.999 48.3443V46.4436H113.643V48.3443H129.999Z" fill="#CEFDFF" fill-opacity="0.65"/>
<path d="M72.0706 32.9984C72.1662 33.099 72.297 33.1583 72.4356 33.164C72.5742 33.1697 72.7092 33.1212 72.8126 33.0288L74.5133 31.3285C74.5545 31.2892 74.5799 31.2366 74.5858 31.1799C74.5917 31.1232 74.5778 31.0662 74.5455 31.0192C74.2675 30.6793 73.5863 29.9682 73.4015 29.7817L73.093 29.4724C72.7201 29.1325 72.5046 29.0089 72.413 29.1326L71.9788 29.503C71.7313 29.7191 71.3308 30.1523 70.6197 30.8329C70.5255 30.9435 70.4784 31.0869 70.49 31.2317C70.5016 31.3765 70.5704 31.5109 70.6809 31.6051C71.144 32.1034 71.6076 32.5678 72.0706 32.9984Z" fill="white"/>
<path d="M91.3658 44.3572H82.2139V25.9968H85.9528L85.894 40.8322H91.4794L91.336 40.9559C91.0885 41.172 90.688 41.5738 89.9761 42.2527C89.9288 42.3074 89.893 42.3709 89.8705 42.4396C89.8481 42.5083 89.8397 42.5807 89.8455 42.6527C89.8514 42.7247 89.8719 42.795 89.9052 42.8592C89.9384 42.9233 89.9835 42.9802 90.0389 43.0265C90.4805 43.4978 90.923 43.9414 91.3658 44.3572Z" fill="white"/>
<path d="M94.8913 44.3572H92.2617L93.5628 43.0571C94.0033 43.5001 94.4474 43.9423 94.8913 44.3572Z" fill="white"/>
<path d="M95.0055 40.832L94.8589 40.9567C94.6114 41.172 94.274 41.5424 93.6215 42.1603C93.3121 41.8204 92.8792 41.3881 92.7546 41.2338L92.4453 40.9245C92.4114 40.8907 92.3759 40.8601 92.3438 40.832H95.0055Z" fill="white"/>
<path d="M103.6 32.9825V44.3571H95.7871L97.3935 42.7789C97.4385 42.7336 97.4636 42.6725 97.4636 42.6087C97.4636 42.5449 97.4385 42.4836 97.3935 42.4383C97.1147 42.0984 96.4666 41.4179 96.2793 41.2339L95.9716 40.9237C95.9361 40.8899 95.9007 40.8601 95.8685 40.8321H99.8289V32.9817L103.6 32.9825Z" fill="white"/>
<path d="M119.953 40.8329H112.256V33.2294H108.456V45.914H104.716V49.6263H112.256V44.3597H123.724V26.124H119.953V40.8329Z" fill="white"/>
<path d="M129.999 27.9908C129.999 26.9579 129.162 26.1206 128.13 26.1206C127.097 26.1206 126.26 26.9579 126.26 27.9908V42.487C126.26 43.5198 127.097 44.3572 128.13 44.3572C129.162 44.3572 129.999 43.5198 129.999 42.487V27.9908Z" fill="white"/>
<path d="M88.932 26.6554L88.6348 28.9198L101.292 28.8199L101.127 30.1028L103.279 30.0789L103.736 26.6074L88.932 26.6554Z" fill="#CEFDFF" fill-opacity="0.65"/>
<path d="M67.4132 32.9209H63.8298V44.8828H60.186V38.6519H56.4736V48.4038H67.4132V44.3845H79.6289V34.5386H67.4132V32.9209ZM76.0431 38.2831V40.8406H67.4132V38.2831H76.0431Z" fill="white"/>
<path d="M4.45358 9.55879C4.55404 9.56206 4.65413 9.54472 4.74763 9.50783C4.84113 9.47094 4.9254 9.41528 4.99657 9.34429C5.13374 9.20694 5.21086 9.0208 5.21086 8.82668C5.21086 8.63256 5.13374 8.44642 4.99657 8.30907C4.84915 8.17145 4.65524 8.09497 4.45358 8.09497C4.25191 8.09497 4.058 8.17145 3.91059 8.30907C3.77341 8.44642 3.69629 8.63256 3.69629 8.82668C3.69629 9.0208 3.77341 9.20694 3.91059 9.34429C3.98165 9.41518 4.06617 9.47075 4.15952 9.50763C4.25287 9.54452 4.35325 9.56195 4.45358 9.55879Z" fill="white"/>
<path d="M2.48627 9.55879C2.58611 9.56209 2.68507 9.54474 2.7779 9.50783C2.87074 9.47093 2.9549 9.41524 3.02523 9.34429C3.09385 9.27667 3.14836 9.19611 3.18555 9.10724C3.22274 9.01837 3.24194 8.92302 3.24194 8.82668C3.24194 8.73034 3.22274 8.63499 3.18555 8.54612C3.14836 8.45725 3.09385 8.37669 3.02523 8.30907C2.87845 8.17149 2.68502 8.09497 2.48385 8.09497C2.28268 8.09497 2.08925 8.17149 1.94247 8.30907C1.87405 8.3768 1.82002 8.45747 1.78296 8.54632C1.74589 8.63518 1.72656 8.7304 1.72656 8.82668C1.72656 8.92295 1.74589 9.01838 1.78296 9.10724C1.82002 9.19609 1.87405 9.27656 1.94247 9.34429C2.01352 9.41544 2.09868 9.47134 2.19221 9.50824C2.28574 9.54514 2.38578 9.56226 2.48627 9.55879Z" fill="white"/>
<path d="M26.5438 9.55892C26.6443 9.56149 26.7435 9.5438 26.8371 9.50695C26.9306 9.47011 27.0159 9.41484 27.0876 9.34442C27.1564 9.27691 27.2114 9.19645 27.2487 9.10757C27.2861 9.01868 27.3051 8.92321 27.3051 8.82681C27.3051 8.7304 27.2861 8.63493 27.2487 8.54605C27.2114 8.45716 27.1564 8.3767 27.0876 8.30919C27.0158 8.23892 26.9306 8.1837 26.8371 8.14686C26.7435 8.11002 26.6443 8.09231 26.5438 8.09469C26.4451 8.09288 26.347 8.11082 26.2554 8.14766C26.1638 8.18451 26.0804 8.23953 26.0105 8.30919C25.9417 8.3767 25.8867 8.45716 25.8494 8.54605C25.812 8.63493 25.793 8.7304 25.793 8.82681C25.793 8.92321 25.812 9.01868 25.8494 9.10757C25.8867 9.19645 25.9417 9.27691 26.0105 9.34442C26.0803 9.4142 26.1638 9.46929 26.2554 9.50615C26.347 9.543 26.4451 9.56087 26.5438 9.55892Z" fill="white"/>
<path d="M45.5654 6.78198H44.1386V14.3577H42.297C42.1349 14.378 41.9705 14.3586 41.8176 14.3011C41.6647 14.2436 41.5282 14.1497 41.4196 14.0276C41.255 13.7817 41.1726 13.49 41.1844 13.1944V6.78198H39.7343V13.7009C39.7418 13.8662 39.709 14.031 39.6392 14.181C39.6002 14.2427 39.5447 14.292 39.4789 14.3232C39.413 14.3545 39.3394 14.3665 39.267 14.3577H28.8632C28.5685 14.3636 28.2742 14.3511 27.981 14.3204C28.4346 13.9276 28.803 13.4466 29.0646 12.9065C29.2361 12.5338 29.3309 12.1304 29.3433 11.7203C29.3386 11.5445 29.2864 11.3734 29.1919 11.2252C29.0752 11.0367 28.9199 10.8753 28.7359 10.7517C28.501 10.5934 28.2406 10.476 27.9665 10.4045C27.6036 10.3096 27.2298 10.2648 26.8547 10.2715C26.5747 10.2717 26.2956 10.3014 26.0217 10.36C25.7444 10.4193 25.4717 10.4994 25.2064 10.5998C24.9476 10.6986 24.6965 10.8171 24.4556 10.9539C24.2342 11.0798 24.0236 11.2235 23.8256 11.3837L23.8739 12.3942C23.925 12.5283 23.9894 12.6571 24.0657 12.7786C24.1665 12.9496 24.2761 13.1149 24.3952 13.2737C24.5222 13.4464 24.6597 13.621 24.8077 13.7976C24.9508 13.9658 25.1037 14.1259 25.2644 14.2775C25.1441 14.306 25.0217 14.3271 24.8987 14.3404C24.7343 14.3581 24.5694 14.3664 24.404 14.3651H5.92946V12.8628C5.93389 12.5163 5.87602 12.1716 5.75867 11.8455C5.6541 11.5495 5.488 11.2794 5.27046 11.053C5.05291 10.8266 4.78951 10.6494 4.49786 10.5332C4.18294 10.4083 3.84651 10.346 3.50775 10.3499C3.13294 10.3453 2.76156 10.4253 2.42177 10.5835C2.09884 10.735 1.81138 10.9518 1.57667 11.2204C1.33587 11.4982 1.14635 11.8169 1.01837 12.1615C0.884287 12.5229 0.817303 12.9056 0.819383 13.291C0.818978 13.6043 0.869395 13.9155 0.969229 14.2125C1.0727 14.517 1.24133 14.7953 1.46388 15.0275C1.71228 15.28 2.01184 15.4768 2.34201 15.605C2.7591 15.7628 3.20297 15.8377 3.64874 15.8253H24.4048C24.7774 15.8245 25.1486 15.7821 25.5118 15.699C25.8775 15.6185 26.2284 15.4821 26.5526 15.2948C26.8297 15.4438 27.1226 15.5624 27.4251 15.6487C27.8854 15.7772 28.3621 15.8367 28.8398 15.8253H39.3307C39.6508 15.8334 39.9681 15.7618 40.2539 15.6173C40.5163 15.4774 40.7276 15.2588 40.8589 14.9921C40.989 15.2172 41.1633 15.4136 41.3713 15.5695C41.6254 15.7522 41.9344 15.8432 42.247 15.8277H45.5686L45.5654 6.78198ZM4.49142 14.3577H3.60765C3.43509 14.3585 3.26314 14.3354 3.09688 14.2892C2.93733 14.2453 2.78878 14.1676 2.66185 14.0614C2.53138 13.9512 2.42723 13.813 2.35732 13.6572C2.27756 13.4675 2.23926 13.2631 2.24453 13.0574C2.23512 12.7036 2.36686 12.3606 2.61029 12.1037C2.71649 11.9928 2.84207 11.9031 2.98168 11.8391C3.11865 11.7765 3.26774 11.7442 3.41833 11.7442C3.57377 11.7354 3.72911 11.7661 3.86948 11.8334C4.00984 11.9008 4.13038 12.0025 4.22073 12.1293C4.42101 12.4615 4.51549 12.8469 4.49142 13.234V14.3577ZM27.8626 12.4131C27.7878 12.5786 27.6949 12.7353 27.5855 12.8802C27.4591 13.0483 27.3179 13.2045 27.1633 13.347C27.1362 13.4599 27.0713 13.5603 26.9796 13.6316C26.888 13.7029 26.7751 13.741 26.659 13.7396C26.5429 13.7381 26.4306 13.6973 26.3408 13.6237C26.2509 13.5502 26.1887 13.4483 26.1643 13.3347C26.011 13.1773 25.8656 13.012 25.7293 12.8397C25.6073 12.6906 25.4937 12.5348 25.3893 12.3728C25.3175 12.268 25.2545 12.1575 25.2 12.0427C25.4359 11.9088 25.6915 11.813 25.9573 11.7589C26.3764 11.658 26.8092 11.6282 27.2382 11.6707C27.3598 11.6817 27.4809 11.7008 27.6 11.7277C27.6938 11.747 27.7827 11.7832 27.8634 11.8349C27.8935 11.8522 27.9189 11.8771 27.9367 11.907C27.9545 11.9369 27.964 11.9709 27.9649 12.0057C27.9596 12.1469 27.9247 12.2862 27.8626 12.4131Z" fill="white"/>
<path d="M4.99754 24.3866C5.13477 24.2491 5.21184 24.0628 5.21184 23.8685C5.21184 23.6743 5.13477 23.488 4.99754 23.3505C4.85013 23.2129 4.65622 23.1362 4.45455 23.1362C4.25289 23.1362 4.05898 23.2129 3.91156 23.3505C3.77434 23.488 3.69727 23.6743 3.69727 23.8685C3.69727 24.0628 3.77434 24.2491 3.91156 24.3866C4.05889 24.5244 4.25283 24.6011 4.45455 24.6011C4.65628 24.6011 4.85022 24.5244 4.99754 24.3866Z" fill="white"/>
<path d="M2.48627 24.6011C2.5861 24.6043 2.68508 24.587 2.7779 24.5501C2.87072 24.5132 2.95484 24.4575 3.02523 24.3866C3.09387 24.3189 3.14915 24.2383 3.18635 24.1493C3.22356 24.0604 3.24194 23.965 3.24194 23.8686C3.24194 23.7722 3.22356 23.6768 3.18635 23.5878C3.14915 23.4989 3.09387 23.4183 3.02523 23.3506C2.87845 23.213 2.68502 23.1365 2.48385 23.1365C2.28268 23.1365 2.08925 23.213 1.94247 23.3506C1.87403 23.4184 1.82003 23.4991 1.78296 23.588C1.74588 23.6769 1.72656 23.7722 1.72656 23.8686C1.72656 23.9649 1.74588 24.0602 1.78296 24.1491C1.82003 24.2381 1.87403 24.3188 1.94247 24.3866C2.01358 24.4577 2.0987 24.5135 2.19221 24.5503C2.28573 24.5872 2.38579 24.6045 2.48627 24.6011Z" fill="white"/>
<path d="M1.01722 27.1965C0.883139 27.5578 0.815349 27.9403 0.817429 28.3257C0.817039 28.639 0.868261 28.9504 0.968081 29.2474C1.07171 29.5516 1.24033 29.8294 1.46273 30.0615C1.71104 30.314 2.01063 30.5111 2.34087 30.6391C2.75783 30.7974 3.20175 30.8724 3.64759 30.86H14.1642C14.4858 30.8687 14.8027 30.7854 15.0786 30.62C15.3261 30.4706 15.5331 30.2624 15.6804 30.0137C15.8114 30.2381 15.9856 30.4343 16.1928 30.5912C16.4494 30.779 16.763 30.8729 17.0806 30.8568H22.6901V25.8311H21.2513V29.3916H17.1217C16.9605 29.4104 16.7973 29.3902 16.6455 29.3328C16.4938 29.2754 16.3575 29.1824 16.2492 29.0617C16.0816 28.817 15.9973 28.5248 16.0091 28.2285V25.8295H14.5727V28.7334C14.5794 28.8987 14.5467 29.0633 14.4776 29.2135C14.4385 29.275 14.3831 29.3241 14.3173 29.3553C14.2515 29.3866 14.1777 29.3986 14.1054 29.39H5.93798V27.8877C5.94231 27.5414 5.88444 27.1972 5.76719 26.8714C5.66258 26.5753 5.49651 26.305 5.27898 26.0785C5.06144 25.852 4.79803 25.6745 4.50638 25.558C4.19146 25.4331 3.85503 25.371 3.51627 25.3749C3.14146 25.3704 2.77008 25.4501 2.43029 25.6084C2.10721 25.7599 1.81972 25.9771 1.58519 26.246C1.33988 26.5257 1.14716 26.8479 1.01722 27.1965ZM2.34328 27.5562C2.40675 27.4041 2.49691 27.2644 2.60914 27.1437C2.71517 27.0323 2.84077 26.9422 2.98053 26.878C3.11747 26.8154 3.26658 26.783 3.41718 26.7832C3.57264 26.7743 3.72795 26.8048 3.86833 26.8722C4.00871 26.9396 4.12928 27.0416 4.21958 27.1685C4.41991 27.5006 4.5144 27.8858 4.49027 28.273V29.3966H3.6065C3.43389 29.3973 3.26191 29.374 3.09574 29.3273C2.93286 29.2839 2.78188 29.2047 2.65345 29.0955C2.52501 28.9864 2.42204 28.8499 2.35295 28.6961C2.27321 28.5065 2.23492 28.3022 2.24016 28.0965C2.23868 27.9111 2.27372 27.728 2.34328 27.5562Z" fill="white"/>
<path d="M15.7181 31.9325C15.6485 31.9989 15.5932 32.079 15.5562 32.1678C15.5191 32.2565 15.5005 32.352 15.5022 32.4481C15.4996 32.5464 15.5175 32.6441 15.5546 32.7351C15.5916 32.8261 15.6476 32.9083 15.7181 32.9768C15.8665 33.1118 16.0597 33.1867 16.2603 33.1867C16.4609 33.1867 16.6541 33.1118 16.8025 32.9768C16.873 32.9084 16.9283 32.8262 16.9652 32.7351C17.0021 32.6441 17.0197 32.5463 17.0168 32.4481C17.0188 32.352 17.0013 32.2565 16.9644 32.1678C16.9275 32.079 16.8721 31.9989 16.8025 31.9325C16.6541 31.7975 16.4609 31.7227 16.2603 31.7227C16.0597 31.7227 15.8665 31.7975 15.7181 31.9325Z" fill="white"/>
<path d="M13.7587 31.9326C13.6894 31.9991 13.6352 32.0793 13.5984 32.168C13.5616 32.2568 13.5433 32.3521 13.5452 32.4482C13.5423 32.5463 13.56 32.6439 13.5968 32.735C13.6336 32.826 13.6885 32.9083 13.7587 32.9769C13.9073 33.1117 14.101 33.1865 14.3017 33.1865C14.5024 33.1865 14.6961 33.1117 14.8447 32.9769C14.9155 32.9086 14.9712 32.8264 15.0082 32.7354C15.0453 32.6443 15.0628 32.5465 15.0598 32.4482C15.0619 32.352 15.0437 32.2564 15.0066 32.1676C14.9696 32.0788 14.9146 31.9987 14.8447 31.9326C14.6961 31.7977 14.5024 31.7229 14.3017 31.7229C14.101 31.7229 13.9073 31.7977 13.7587 31.9326Z" fill="white"/>
<path d="M22.3034 31.9327C22.2331 31.864 22.1498 31.8101 22.0584 31.7741C21.9671 31.7382 21.869 31.7208 21.7708 31.7232C21.6705 31.7204 21.5713 31.7374 21.4776 31.7733C21.3839 31.8093 21.2982 31.8635 21.2254 31.9327C21.1551 31.9986 21.0986 32.0785 21.0611 32.1673C21.0236 32.2561 21.0053 32.3519 21.0071 32.4483C21.0044 32.5467 21.0228 32.6446 21.0603 32.7357C21.0978 32.8267 21.1541 32.909 21.2254 32.9769C21.2981 33.0461 21.3839 33.1003 21.4776 33.1363C21.5713 33.1722 21.6705 33.1894 21.7708 33.1866C21.869 33.189 21.9671 33.1716 22.0584 33.1357C22.1498 33.0997 22.2332 33.0456 22.3034 32.9769C22.375 32.9092 22.4315 32.8272 22.4693 32.7361C22.5071 32.6449 22.5251 32.5469 22.5225 32.4483C22.5242 32.3517 22.5055 32.2559 22.4677 32.1671C22.4299 32.0782 22.3741 31.9984 22.3034 31.9327Z" fill="white"/>
<path d="M40.7942 29.3992H38.3064C38.0117 29.4049 37.7174 29.3921 37.4242 29.3611C37.8786 28.9692 38.2469 28.488 38.507 27.9472C38.6777 27.574 38.7722 27.1702 38.7849 26.76C38.7796 26.5846 38.7281 26.4139 38.6351 26.2651C38.5181 26.0772 38.3631 25.9159 38.1799 25.7916C37.9446 25.6335 37.684 25.516 37.4097 25.4442C37.0466 25.3493 36.6725 25.3047 36.2972 25.3114C36.0171 25.3118 35.7381 25.3413 35.4642 25.3997C34.9143 25.516 34.3853 25.7163 33.8964 25.9936C33.6748 26.1189 33.4642 26.2624 33.2664 26.4226L33.3156 27.4324C33.3656 27.567 33.4296 27.6961 33.5057 27.8177C33.5981 27.9737 33.7065 28.1377 33.8352 28.3126C33.9639 28.4875 34.1 28.6599 34.2477 28.8364C34.3909 29.0044 34.5435 29.1647 34.7036 29.3166C34.5833 29.3452 34.4609 29.3661 34.3379 29.3792C34.1735 29.3974 34.0086 29.406 33.8432 29.4048H28.0999C27.9357 29.4253 27.7685 29.406 27.6133 29.3486C27.4582 29.2912 27.3195 29.1973 27.2081 29.0749C27.0444 28.8287 26.9625 28.5371 26.9745 28.2417V25.8419H25.5381V30.5516C25.557 30.9068 25.4916 31.2614 25.3479 31.5868C25.2707 31.7104 25.1604 31.8095 25.0289 31.8722C24.8974 31.9349 24.7506 31.9586 24.6059 31.9407C24.502 31.9401 24.3982 31.9338 24.295 31.9218C24.182 31.9094 24.075 31.8946 23.9727 31.8773L23.6183 31.8013L23.4668 33.241C23.5185 33.2577 23.571 33.2703 23.6247 33.2789L23.8084 33.3044C23.909 33.3209 24.0283 33.3358 24.1685 33.349C24.3087 33.3622 24.4525 33.3679 24.6051 33.3679C24.9568 33.3749 25.3059 33.3037 25.6267 33.1592C25.9143 33.0247 26.1675 32.8274 26.3687 32.5818C26.5758 32.3288 26.7299 32.0367 26.8222 31.723C26.9255 31.3789 26.9772 31.0214 26.9745 30.6622V30.3214C27.116 30.4757 27.2832 30.6039 27.4691 30.7001C27.675 30.8106 27.9058 30.8673 28.1394 30.865H33.8457C34.2177 30.8639 34.5883 30.8215 34.951 30.7387C35.3169 30.658 35.668 30.5217 35.9926 30.3345C36.2698 30.4831 36.5627 30.6017 36.8651 30.6878C37.3251 30.8164 37.8015 30.8758 38.279 30.8642H42.2193V21.8235H40.7918L40.7942 29.3992ZM37.3082 27.4546C37.2333 27.6203 37.1404 27.7772 37.0311 27.9225C36.9051 28.0909 36.7639 28.2471 36.6089 28.3893C36.4476 28.5369 36.272 28.668 36.0845 28.7805C35.9134 28.6621 35.7545 28.5267 35.6108 28.3762C35.4569 28.2193 35.3115 28.054 35.1757 27.8812C35.0536 27.7318 34.9395 27.576 34.8342 27.4143C34.7633 27.3089 34.7003 27.1985 34.6448 27.0842C34.8807 26.9502 35.1363 26.8544 35.4021 26.8004C35.6917 26.7317 35.9883 26.6958 36.2859 26.6933C36.4212 26.6933 36.5527 26.6998 36.6839 26.7122C36.8049 26.7233 36.9255 26.7424 37.044 26.7692C37.1382 26.788 37.2275 26.8243 37.3082 26.8764C37.3385 26.8936 37.3644 26.9184 37.3823 26.9483C37.4003 26.9782 37.4096 27.0123 37.4105 27.0472C37.4055 27.1886 37.3701 27.3273 37.3082 27.4546Z" fill="white"/>
<path d="M45.7192 21.8235H44.292V30.8642H45.7192V21.8235Z" fill="white"/>
<path d="M3.8497 38.393C3.78128 38.4607 3.72725 38.5412 3.69018 38.63C3.65312 38.7189 3.63379 38.8143 3.63379 38.9106C3.63379 39.0069 3.65312 39.1021 3.69018 39.1909C3.72725 39.2798 3.78128 39.3605 3.8497 39.4282C3.99648 39.5658 4.19071 39.6423 4.39188 39.6423C4.59305 39.6423 4.78648 39.5658 4.93326 39.4282C5.00188 39.3606 5.05639 39.28 5.09358 39.1911C5.13077 39.1023 5.14997 39.0069 5.14997 38.9106C5.14997 38.8142 5.13077 38.7189 5.09358 38.63C5.05639 38.5412 5.00188 38.4606 4.93326 38.393C4.78657 38.2552 4.59311 38.1785 4.39188 38.1785C4.19065 38.1785 3.99638 38.2552 3.8497 38.393Z" fill="white"/>
<path d="M5.22915 41.1243C5.0121 40.8991 4.74928 40.7226 4.45897 40.6062C4.14396 40.4818 3.80836 40.4197 3.46967 40.4238C3.0949 40.4196 2.72362 40.4996 2.38368 40.6574C2.05929 40.8103 1.76899 41.0272 1.53053 41.2951C1.28719 41.5703 1.09886 41.8894 0.975453 42.2354C0.845135 42.5979 0.779226 42.9805 0.781297 43.3657C0.781127 43.6791 0.832877 43.9904 0.93356 44.2871C1.03608 44.5919 1.20484 44.8701 1.42821 45.1014C1.67599 45.3543 1.97538 45.5511 2.30554 45.6789C2.72315 45.8369 3.16752 45.9121 3.61387 45.9H5.89782V42.9301C5.90283 42.5842 5.84682 42.2403 5.73267 41.9138C5.6214 41.6184 5.45026 41.3495 5.22915 41.1243ZM4.45253 44.4382H3.57037C3.3975 44.4387 3.22529 44.4154 3.0588 44.3689C2.89924 44.325 2.75069 44.2473 2.62376 44.1411C2.49315 44.031 2.38897 43.8928 2.31923 43.7369C2.23934 43.5473 2.20129 43.3428 2.20725 43.1371C2.20418 42.9514 2.23792 42.767 2.30634 42.5943C2.36894 42.4419 2.4581 42.3022 2.57059 42.1818C2.67767 42.0708 2.80482 41.9809 2.9452 41.917C3.07745 41.8551 3.22215 41.8227 3.36816 41.8221C3.52431 41.8133 3.67976 41.844 3.82092 41.9114C3.96208 41.9787 4.08399 42.0805 4.17539 42.2074C4.38103 42.5376 4.47817 42.9239 4.45333 43.3121L4.45253 44.4382Z" fill="white"/>
<path d="M1.87738 38.3929C1.74021 38.5303 1.66309 38.7164 1.66309 38.9105C1.66309 39.1047 1.74021 39.2908 1.87738 39.4281C2.02453 39.5657 2.21898 39.642 2.42037 39.642C2.62176 39.642 2.81541 39.5657 2.96256 39.4281C3.03078 39.3603 3.08513 39.2797 3.12207 39.1909C3.15901 39.1021 3.17766 39.0067 3.17766 38.9105C3.17766 38.8143 3.15901 38.719 3.12207 38.6302C3.08513 38.5413 3.03078 38.4608 2.96256 38.3929C2.8156 38.2551 2.62188 38.1782 2.42037 38.1782C2.21887 38.1782 2.02434 38.2551 1.87738 38.3929Z" fill="white"/>
<path d="M19.7437 41.3536C19.4955 41.0695 19.1874 40.8443 18.8414 40.6938C18.4484 40.5268 18.0245 40.445 17.5975 40.4538C17.0679 40.4578 16.5476 40.5919 16.0822 40.8447C15.5822 41.1081 15.1467 41.4788 14.8068 41.9303V40.8679H13.3543V44.4416H11.2347C11.0705 44.4624 10.9034 44.4433 10.7481 44.3858C10.5929 44.3284 10.454 44.2342 10.3429 44.1115C10.1796 43.8651 10.0978 43.5736 10.1093 43.2783V40.8785H8.67121V45.5882C8.69104 45.9439 8.62587 46.2993 8.48028 46.6244C8.40325 46.7482 8.29202 46.8471 8.16045 46.9098C8.02887 46.9726 7.88213 46.9964 7.73749 46.9783C7.63408 46.9776 7.5308 46.971 7.42813 46.9586C7.31346 46.9462 7.20733 46.9312 7.10669 46.9147L6.75141 46.8389L6.60156 48.2784C6.65213 48.2951 6.7044 48.3074 6.75705 48.3155L6.94154 48.341C7.04218 48.3575 7.16227 48.3726 7.30004 48.3849C7.43781 48.3973 7.58572 48.4039 7.73669 48.4039C8.08843 48.4114 8.43764 48.34 8.75822 48.195C9.04712 48.0607 9.30247 47.8635 9.50503 47.6176C9.7117 47.3642 9.86577 47.0723 9.9586 46.7588C10.0626 46.4149 10.1135 46.0573 10.1101 45.698V45.3572C10.2514 45.5118 10.4195 45.6403 10.6055 45.7366C10.811 45.8473 11.0408 45.9042 11.2742 45.9018H20.4784V43.6166C20.4824 43.1889 20.4214 42.763 20.2972 42.3536C20.1831 41.9861 19.9943 41.6457 19.7437 41.3536ZM19.0251 44.4408H14.8334C14.9166 43.7169 15.2571 43.047 15.7929 42.5532C16.0269 42.3365 16.296 42.1614 16.5889 42.0352C17.0605 41.8264 17.5912 41.7949 18.0841 41.9468C18.2758 42.0063 18.4498 42.1126 18.5901 42.2561C18.7408 42.4207 18.8503 42.6187 18.9099 42.8338C18.9942 43.123 19.0337 43.4234 19.0259 43.7246L19.0251 44.4408Z" fill="white"/>
<path d="M40.6562 44.4413H39.3568C39.32 44.4324 39.2826 44.4281 39.2448 44.4282H38.7904C38.584 44.4378 38.3777 44.3994 38.1886 44.316C38.0589 44.2533 37.9463 44.1608 37.8591 44.0461C37.7854 43.9491 37.7359 43.8361 37.7141 43.7162C37.6948 43.6211 37.684 43.5244 37.6819 43.4274C37.7299 42.6457 37.4992 41.8723 37.0309 41.2446C36.7983 40.9808 36.5082 40.7736 36.1834 40.6387C35.8586 40.5039 35.5073 40.4452 35.1562 40.4667C34.8078 40.4646 34.4631 40.5343 34.1428 40.6714C33.8224 40.8085 33.5334 41.0102 33.2944 41.2637C33.0577 41.5178 32.873 41.8161 32.7514 42.1414C32.6176 42.4962 32.5516 42.8727 32.5557 43.2518C32.5608 43.4522 32.5396 43.6524 32.4928 43.8473C32.4621 43.9791 32.4041 44.1031 32.3228 44.2113C32.2596 44.2933 32.1736 44.3546 32.0755 44.3877C31.9855 44.4159 31.8911 44.4304 31.7968 44.4306H31.3021C31.2695 44.4305 31.2369 44.4351 31.2054 44.4439H30.2911C29.9963 44.4497 29.7013 44.4369 29.4081 44.4058C29.8621 44.013 30.2318 43.532 30.4941 42.992C30.6642 42.6185 30.7584 42.215 30.7712 41.8049C30.7654 41.6293 30.7126 41.4584 30.619 41.3098C30.5036 41.1206 30.3484 40.9589 30.1638 40.8363C29.9286 40.6774 29.6684 40.56 29.3936 40.4891C29.0309 40.3945 28.6566 40.3497 28.2818 40.3562C28.002 40.3563 27.7232 40.3858 27.4496 40.4444C27.1724 40.5027 26.8999 40.5827 26.6351 40.6837C26.3758 40.7821 26.1242 40.9002 25.8827 41.0367C25.6609 41.1625 25.4501 41.3062 25.2519 41.4665L25.3042 42.4764C25.3536 42.6109 25.4162 42.74 25.492 42.8617C25.5855 43.0173 25.6958 43.1822 25.8223 43.3565C25.9485 43.5289 26.087 43.703 26.2396 43.8804C26.383 44.0479 26.5345 44.2082 26.6939 44.3605C26.5735 44.3887 26.4512 44.4096 26.3282 44.4232C26.1638 44.441 25.9989 44.4496 25.8335 44.4487H23.751V36.8732H22.3105V45.9132H25.8343C26.2064 45.912 26.577 45.8696 26.9397 45.7869C27.3056 45.7061 27.6567 45.5697 27.9813 45.3827C28.2577 45.5317 28.5501 45.6501 28.8522 45.7357C29.3127 45.8643 29.7897 45.9239 30.2677 45.9124H31.8709C32.1381 45.9147 32.3983 45.8299 32.6129 45.6707C32.8289 45.5118 33.0024 45.3016 33.1172 45.0592C33.3242 45.3336 33.5888 45.559 33.893 45.7192C34.2635 45.9015 34.6736 45.9891 35.0861 45.9742C35.2891 45.9742 35.4852 45.9659 35.6799 45.9486C35.8697 45.9324 36.0573 45.8917 36.2366 45.8274C36.4243 45.7572 36.5991 45.6562 36.7538 45.5287C36.943 45.3688 37.1052 45.1794 37.2339 44.9678C37.3684 45.2544 37.5823 45.4959 37.851 45.6632C38.1198 45.8305 38.4319 45.9164 38.7485 45.9105H42.083V36.865H40.6562V44.4413ZM29.2921 42.4961C29.2168 42.6615 29.1229 42.818 29.0133 42.963C28.8883 43.1321 28.747 43.2887 28.5912 43.43C28.5642 43.5428 28.4998 43.643 28.4083 43.7142C28.3169 43.7855 28.2036 43.8235 28.0877 43.8222C27.9718 43.8208 27.86 43.7801 27.7703 43.7068C27.6805 43.6334 27.6182 43.5317 27.5938 43.4183C27.4382 43.2578 27.2925 43.0929 27.1572 42.9235C27.0219 42.7585 26.9104 42.5983 26.8164 42.4556C26.7463 42.3499 26.6828 42.2397 26.6271 42.1257C26.8628 41.9921 27.1181 41.8964 27.3836 41.8419C27.674 41.7732 27.9713 41.7371 28.2698 41.7346C28.4042 41.7346 28.5358 41.7413 28.6669 41.7537C28.7877 41.7647 28.908 41.7836 29.0262 41.8105C29.1204 41.8296 29.2104 41.8661 29.2913 41.9179C29.3212 41.9354 29.3462 41.9603 29.3638 41.9902C29.3814 42.0201 29.3903 42.054 29.3912 42.0887C29.3868 42.2299 29.353 42.3686 29.2921 42.4961ZM36.0287 44.146C35.7895 44.3758 35.4702 44.5041 35.1385 44.5041C34.8068 44.5041 34.4883 44.3758 34.2491 44.146C34.0546 43.8926 33.9544 43.5794 33.9655 43.26C33.9628 43.0593 33.9938 42.8595 34.0582 42.6693C34.115 42.5049 34.201 42.352 34.3111 42.2174C34.4111 42.0953 34.5366 41.9969 34.6793 41.9295C34.822 41.8622 34.9783 41.8275 35.1361 41.8278C35.2891 41.8282 35.4394 41.8627 35.5776 41.9285C35.7215 41.996 35.8485 42.095 35.949 42.2182C36.0592 42.3539 36.147 42.5064 36.2084 42.6701C36.2773 42.8593 36.3114 43.0595 36.3091 43.2608C36.3199 43.5795 36.2215 43.8921 36.0287 44.146Z" fill="white"/>
<path d="M45.5795 36.865H44.1523V45.9057H45.5795V36.865Z" fill="white"/>
</g>
</g>
</g>
<defs>
<clipPath id="clip0_81_4477">
<rect width="129.22" height="54" fill="white" transform="translate(0.780273)"/>
</clipPath>
<clipPath id="clip1_81_4477">
<rect width="129.22" height="54" fill="white" transform="translate(0.780273)"/>
</clipPath>
<clipPath id="clip2_81_4477">
<rect width="129.22" height="45.2457" fill="white" transform="translate(0.780273 4.3772)"/>
</clipPath>
</defs>
</svg>
