<svg width="39" height="39" viewBox="0 0 39 39" fill="none" xmlns="http://www.w3.org/2000/svg">
<g clip-path="url(#clip0_81_4601)">
<g clip-path="url(#clip1_81_4601)">
<g clip-path="url(#clip2_81_4601)">
<path d="M1.77734 18.6472C1.77734 11.8907 1.77734 8.51246 3.81047 6.41346C5.8436 4.31445 9.12426 4.31445 15.6758 4.31445H22.6251C29.1774 4.31445 32.4532 4.31445 34.4888 6.41346C36.5243 8.51246 36.5219 11.8907 36.5219 18.6472V22.2304C36.5219 28.9869 36.5219 32.3651 34.4888 34.4641C32.4556 36.5631 29.1774 36.5631 22.6259 36.5631H15.6758C9.12426 36.5631 5.84767 36.5631 3.81291 34.4641C1.77816 32.3651 1.77734 28.9877 1.77734 22.2304V18.6472Z" stroke="#02A4AC" stroke-width="3.25301"/>
<path d="M10.4639 4.31044V1.62671" stroke="#02A4AC" stroke-width="3.25301" stroke-linecap="round"/>
<path d="M27.8369 4.31044V1.62671" stroke="#02A4AC" stroke-width="3.25301" stroke-linecap="round"/>
<path d="M10.4601 24.5174C10.9906 24.5174 11.5092 24.3601 11.9503 24.0656C12.3915 23.771 12.7355 23.3523 12.9388 22.8623C13.1422 22.3724 13.1958 21.8331 13.0928 21.3128C12.9898 20.7924 12.735 20.3142 12.3604 19.9385C11.9858 19.5629 11.5083 19.3067 10.9881 19.2024C10.468 19.098 9.92866 19.1501 9.43815 19.3521C8.94764 19.5541 8.52799 19.8969 8.23222 20.3373C7.93645 20.7777 7.77782 21.2958 7.77638 21.8263C7.77541 22.1794 7.84412 22.5291 7.97856 22.8556C8.113 23.182 8.31053 23.4787 8.55983 23.7287C8.80913 23.9787 9.10531 24.1771 9.4314 24.3124C9.75748 24.4477 10.1071 24.5174 10.4601 24.5174Z" stroke="#DBDBDB" stroke-width="3.25301"/>
<path d="M2.67383 13.2725H35.6292" stroke="#02A4AC" stroke-width="3.25301" stroke-linecap="round"/>
<path d="M28.2205 22.8266H22.5733C22.5083 22.8258 22.4442 22.8123 22.3845 22.7867C22.3247 22.7611 22.2707 22.7239 22.2253 22.6774C22.18 22.6308 22.1443 22.5758 22.1203 22.5154C22.0963 22.4551 22.0844 22.3906 22.0854 22.3256C22.0834 22.1975 22.0312 22.0752 21.9399 21.9853C21.8486 21.8954 21.7256 21.845 21.5974 21.845H20.4084C20.279 21.845 20.1549 21.8964 20.0634 21.9879C19.9719 22.0794 19.9205 22.2035 19.9205 22.3329V28.6023C19.9205 28.7317 19.8691 28.8558 19.7776 28.9473C19.6861 29.0388 19.5619 29.0902 19.4325 29.0902H18.1988C18.1348 29.0902 18.0713 29.0776 18.0121 29.0531C17.9529 29.0286 17.8991 28.9926 17.8538 28.9473C17.8085 28.902 17.7725 28.8482 17.748 28.789C17.7235 28.7298 17.7109 28.6664 17.7109 28.6023V25.8096C17.7109 25.7455 17.6983 25.682 17.6737 25.6228C17.6492 25.5636 17.6133 25.5098 17.568 25.4645C17.5227 25.4192 17.4689 25.3833 17.4097 25.3588C17.3505 25.3342 17.287 25.3216 17.2229 25.3216H15.9518C15.8877 25.3216 15.8243 25.3342 15.7651 25.3588C15.7059 25.3833 15.6521 25.4192 15.6068 25.4645C15.5615 25.5098 15.5255 25.5636 15.501 25.6228C15.4765 25.682 15.4639 25.7455 15.4639 25.8096V30.7379C15.4639 30.8673 15.5153 30.9914 15.6068 31.0829C15.6983 31.1744 15.8224 31.2258 15.9518 31.2258H21.5974C21.7268 31.2258 21.8509 31.1744 21.9424 31.0829C22.034 30.9914 22.0854 30.8673 22.0854 30.7379V29.2846C22.0854 29.1552 22.1368 29.0311 22.2283 28.9396C22.3198 28.8481 22.4439 28.7966 22.5733 28.7966H28.998C29.1274 28.7966 29.2515 28.7452 29.343 28.6537C29.4345 28.5622 29.486 28.4381 29.486 28.3087V24.0961C29.486 23.7589 29.352 23.4356 29.1137 23.1972C28.8753 22.9589 28.552 22.8249 28.2148 22.8249M27.9188 26.6001C27.8074 26.6772 27.6745 26.7173 27.539 26.7147H22.47C22.4258 26.7147 22.3834 26.6972 22.3521 26.6659C22.3209 26.6346 22.3033 26.5922 22.3033 26.548V25.6616C22.3033 25.6173 22.3209 25.5749 22.3521 25.5437C22.3834 25.5124 22.4258 25.4948 22.47 25.4948H27.5439C27.6795 25.4922 27.8126 25.532 27.9245 25.6087C28.0037 25.6649 28.0683 25.7393 28.1129 25.8256C28.1575 25.9119 28.1808 26.0076 28.1808 26.1048C28.1808 26.2019 28.1575 26.2977 28.1129 26.384C28.0683 26.4703 28.0037 26.5446 27.9245 26.6009" fill="#02A4AC"/>
</g>
</g>
</g>
<defs>
<clipPath id="clip0_81_4601">
<rect width="38" height="38.19" fill="white" transform="translate(0.150391)"/>
</clipPath>
<clipPath id="clip1_81_4601">
<rect width="38" height="38.19" fill="white" transform="translate(0.150391)"/>
</clipPath>
<clipPath id="clip2_81_4601">
<rect width="38" height="38.1895" fill="white" transform="translate(0.150391 0.000244141)"/>
</clipPath>
</defs>
</svg>
