<svg width="27" height="26" viewBox="0 0 27 26" fill="none" xmlns="http://www.w3.org/2000/svg">
<g clip-path="url(#clip0_66_58)">
<g clip-path="url(#clip1_66_58)">
<g clip-path="url(#clip2_66_58)">
<path d="M3.40918 4.531C4.80044 2.91353 6.56841 1.66333 8.55709 0.890712C10.5458 0.118093 12.6941 -0.1532 14.8124 0.10077C16.9307 0.354741 18.954 1.12617 20.7037 2.34699C22.4534 3.56781 23.8757 5.20049 24.8452 7.101H14.7692C12.9562 7.101 11.7842 7.061 10.5162 7.728C9.76224 8.1336 9.10383 8.69585 8.58518 9.37698C8.06653 10.0581 7.69965 10.8423 7.50918 11.677L3.40918 4.531Z" fill="#F44336"/>
<path d="M8.94531 13.001C8.94571 13.8555 9.19947 14.6908 9.6745 15.4011C10.1495 16.1114 10.8245 16.6649 11.6141 16.9917C12.4037 17.3184 13.2725 17.4037 14.1105 17.2367C14.9486 17.0698 15.7183 16.6581 16.3224 16.0537C16.9265 15.4493 17.3379 14.6794 17.5044 13.8413C17.671 13.0031 17.5853 12.1344 17.2582 11.345C16.9311 10.5555 16.3773 9.8808 15.6667 9.40609C14.9562 8.93138 14.1208 8.67801 13.2663 8.67801C10.8803 8.68101 8.94631 10.615 8.94631 13.001H8.94531Z" fill="#2196F3"/>
<path d="M14.9411 18.659C13.6605 19.0538 12.283 18.9946 11.041 18.4914C9.79902 17.9882 8.76874 17.0718 8.12411 15.897L2.36911 5.90302C0.019114 9.52302 -0.384886 14.073 1.29211 18.048C2.96911 22.023 6.50711 24.912 10.7391 25.748L14.9411 18.659Z" fill="#4CAF50"/>
<path d="M17.2693 8.67502C18.2464 9.58702 18.8862 10.8028 19.0844 12.1246C19.2827 13.4465 19.0278 14.7965 18.3613 15.955L12.4463 25.975C14.5887 26.1059 16.7303 25.7046 18.68 24.807C20.6298 23.9094 22.3272 22.5433 23.6209 20.8305C24.9146 19.1177 25.7644 17.1115 26.0946 14.9906C26.4248 12.8697 26.2251 10.7 25.5133 8.67502H17.2693Z" fill="#FFC107"/>
</g>
</g>
</g>
<defs>
<clipPath id="clip0_66_58">
<rect width="26" height="26" fill="white" transform="translate(0.269531)"/>
</clipPath>
<clipPath id="clip1_66_58">
<rect width="26" height="26" fill="white" transform="translate(0.269531)"/>
</clipPath>
<clipPath id="clip2_66_58">
<rect width="26" height="25.998" fill="white" transform="translate(0.269531 0.00100708)"/>
</clipPath>
</defs>
</svg>
