<svg width="38" height="38" viewBox="0 0 38 38" fill="none" xmlns="http://www.w3.org/2000/svg">
<g clip-path="url(#clip0_66_332)">
<g clip-path="url(#clip1_66_332)">
<g clip-path="url(#clip2_66_332)">
<path d="M19 28.1348V16.4116" stroke="#DBDBDB" stroke-width="3.37358" stroke-linecap="round"/>
<path d="M19.0002 10.2202C19.3865 10.2202 19.7642 10.3348 20.0854 10.5494C20.4066 10.764 20.657 11.0691 20.8048 11.426C20.9526 11.7829 20.9913 12.1757 20.9159 12.5546C20.8406 12.9335 20.6545 13.2815 20.3814 13.5547C20.1082 13.8279 19.7602 14.0139 19.3812 14.0893C19.0023 14.1647 18.6096 14.126 18.2527 13.9781C17.8958 13.8303 17.5907 13.5799 17.3761 13.2587C17.1614 12.9375 17.0469 12.5598 17.0469 12.1735C17.0469 11.6555 17.2527 11.1586 17.619 10.7923C17.9853 10.426 18.4821 10.2202 19.0002 10.2202Z" fill="#DBDBDB"/>
<path d="M1.68652 19C1.68652 10.8384 1.68652 6.75726 4.22177 4.22201C6.75701 1.68677 10.8382 1.68677 18.9997 1.68677C27.1613 1.68677 31.2416 1.68677 33.7769 4.22201C36.3121 6.75726 36.3121 10.8384 36.3121 19C36.3121 27.1615 36.3121 31.2419 33.7769 33.7771C31.2416 36.3123 27.157 36.3123 18.9997 36.3123C10.8424 36.3123 6.75786 36.3123 4.22177 33.7771C1.68568 31.2419 1.68652 27.1573 1.68652 19Z" stroke="#02A4AC" stroke-width="3.37358"/>
</g>
</g>
</g>
<defs>
<clipPath id="clip0_66_332">
<rect width="38" height="38" fill="white"/>
</clipPath>
<clipPath id="clip1_66_332">
<rect width="38" height="38" fill="white"/>
</clipPath>
<clipPath id="clip2_66_332">
<rect width="38" height="38" fill="white"/>
</clipPath>
</defs>
</svg>
