<svg width="39" height="47" viewBox="0 0 39 47" fill="none" xmlns="http://www.w3.org/2000/svg">
<g clip-path="url(#clip0_66_361)">
<g clip-path="url(#clip1_66_361)">
<g clip-path="url(#clip2_66_361)">
<path d="M22.0068 32.056V39.7419C22.0068 40.3417 22.0068 40.6416 21.7956 40.763C21.5844 40.8845 21.3066 40.7504 20.7396 40.4821L18.0361 39.198C17.9256 39.1098 17.7884 39.0618 17.647 39.0618C17.5056 39.0618 17.3684 39.1098 17.2578 39.198L14.5543 40.4821C13.9894 40.7504 13.7095 40.8845 13.4983 40.763C13.2871 40.6416 13.2871 40.3406 13.2871 39.7419V33.036" stroke="#DBDBDB" stroke-width="3.16811" stroke-linecap="round"/>
<path d="M2.41699 14.6441C2.41699 8.48741 2.41699 5.40907 4.32947 3.49659C6.24195 1.58411 9.32029 1.58411 15.477 1.58411H24.1829C30.3396 1.58411 33.4169 1.58411 35.3304 3.49659C37.244 5.40907 37.2429 8.48741 37.2429 14.6441V32.0571C37.2429 38.2138 37.2429 41.291 35.3304 43.2046C33.418 45.1181 30.3396 45.1171 24.1829 45.1171H15.477C9.32029 45.1171 6.24301 45.1171 4.32947 43.2046C2.41593 41.2921 2.41699 38.2127 2.41699 32.0571V14.6441Z" stroke="#02A4AC" stroke-width="3.16811"/>
<path d="M37.0201 32.056H10.9012C9.60783 31.977 8.30968 32.0517 7.03398 32.2788C5.92689 32.5755 4.91739 33.1583 4.10694 33.9688C3.29649 34.7792 2.71364 35.7887 2.41699 36.8958" stroke="#02A4AC" stroke-width="3.16811"/>
<path d="M8.94629 32.057V2.67285" stroke="#02A4AC" stroke-width="3.16811" stroke-linecap="round"/>
<path d="M32.5138 10.2499C32.7779 10.5783 32.6944 11.3144 32.2646 12.4676C31.932 13.6229 31.5676 14.1815 31.1716 14.1351C31.1716 14.1351 30.915 13.7126 30.4081 12.8551C30.2393 12.4953 29.9874 12.1809 29.673 11.9377C29.3586 11.6946 28.9909 11.5298 28.6002 11.4569C27.2083 11.3007 25.9245 13.7707 24.7488 18.8671C23.5731 23.9636 22.742 26.435 22.2555 26.2816C21.6585 26.2112 21.1389 25.0069 20.6968 22.6689C20.36 20.0234 19.2132 17.5468 17.4136 15.5787C17.2724 15.7848 17.0992 15.967 16.9004 16.1183C16.5913 16.1845 15.8063 15.773 14.5454 14.8838C13.2845 13.9946 12.6379 13.2501 12.6055 12.6503C12.6055 9.96019 13.2521 8.68802 14.5454 8.83375C16.9426 9.00413 19.1955 11.7966 21.304 17.2113C21.6391 18.5245 22.0481 19.8177 22.529 21.0848C23.1049 18.6595 23.779 16.245 24.5513 13.8415C25.8587 9.40542 27.3519 7.33207 29.031 7.62143C29.7739 7.76585 30.474 8.07799 31.078 8.53406C31.6819 8.99012 32.1737 9.57807 32.516 10.2531" fill="#02A4AC"/>
<path d="M26.3945 23.7387C26.3945 23.7387 29.2068 26.6956 29.2997 26.8012C30.0427 25.744 30.9175 24.7859 31.9028 23.9499L29.5257 21.5612L31.8585 19.278C30.8553 18.0739 29.9412 16.7984 29.1233 15.4615C29.1233 15.4488 29.1054 15.4509 29.1043 15.4615C29.0346 17.2356 26.4801 19.1354 26.4801 19.1354L28.6787 21.5643L26.3945 23.7387Z" fill="#DBDBDB"/>
</g>
</g>
</g>
<defs>
<clipPath id="clip0_66_361">
<rect width="38" height="46.7" fill="white" transform="translate(0.830078)"/>
</clipPath>
<clipPath id="clip1_66_361">
<rect width="38" height="46.7" fill="white" transform="translate(0.830078)"/>
</clipPath>
<clipPath id="clip2_66_361">
<rect width="37.994" height="46.7" fill="white" transform="translate(0.833008)"/>
</clipPath>
</defs>
</svg>
