<svg width="27" height="26" viewBox="0 0 27 26" fill="none" xmlns="http://www.w3.org/2000/svg">
<g clip-path="url(#clip0_60_3519)">
<g clip-path="url(#clip1_60_3519)">
<g clip-path="url(#clip2_60_3519)">
<path d="M3.41016 4.531C4.80142 2.91353 6.56938 1.66333 8.55807 0.890712C10.5468 0.118093 12.695 -0.1532 14.8134 0.10077C16.9317 0.354741 18.955 1.12617 20.7046 2.34699C22.4543 3.56781 23.8767 5.20049 24.8462 7.101H14.7702C12.9572 7.101 11.7852 7.061 10.5172 7.728C9.76322 8.1336 9.10481 8.69585 8.58616 9.37698C8.06751 10.0581 7.70063 10.8423 7.51016 11.677L3.41016 4.531Z" fill="#F44336"/>
<path d="M8.9458 13.001C8.9462 13.8555 9.19995 14.6908 9.67499 15.4011C10.15 16.1114 10.825 16.6649 11.6146 16.9917C12.4042 17.3184 13.273 17.4037 14.111 17.2367C14.9491 17.0698 15.7188 16.6581 16.3229 16.0537C16.927 15.4493 17.3384 14.6794 17.5049 13.8413C17.6715 13.0031 17.5858 12.1344 17.2587 11.345C16.9316 10.5555 16.3778 9.8808 15.6672 9.40609C14.9567 8.93138 14.1213 8.67801 13.2668 8.67801C10.8808 8.68101 8.9468 10.615 8.9468 13.001H8.9458Z" fill="#2196F3"/>
<path d="M14.9421 18.659C13.6615 19.0538 12.2839 18.9946 11.042 18.4914C9.8 17.9882 8.76971 17.0718 8.12509 15.897L2.37009 5.90302C0.0200906 9.52302 -0.383909 14.073 1.29309 18.048C2.97009 22.023 6.50809 24.912 10.7401 25.748L14.9421 18.659Z" fill="#4CAF50"/>
<path d="M17.2698 8.67502C18.2469 9.58702 18.8866 10.8028 19.0849 12.1246C19.2832 13.4465 19.0283 14.7965 18.3618 15.955L12.4468 25.975C14.5892 26.1059 16.7308 25.7046 18.6805 24.807C20.6303 23.9094 22.3277 22.5433 23.6214 20.8305C24.915 19.1177 25.7649 17.1115 26.0951 14.9906C26.4252 12.8697 26.2256 10.7 25.5138 8.67502H17.2698Z" fill="#FFC107"/>
</g>
</g>
</g>
<defs>
<clipPath id="clip0_60_3519">
<rect width="26" height="26" fill="white" transform="translate(0.27002)"/>
</clipPath>
<clipPath id="clip1_60_3519">
<rect width="26" height="26" fill="white" transform="translate(0.27002)"/>
</clipPath>
<clipPath id="clip2_60_3519">
<rect width="26" height="25.998" fill="white" transform="translate(0.27002 0.00100708)"/>
</clipPath>
</defs>
</svg>
