<svg width="39" height="38" viewBox="0 0 39 38" fill="none" xmlns="http://www.w3.org/2000/svg">
<g clip-path="url(#clip0_1_242)">
<g clip-path="url(#clip1_1_242)">
<g clip-path="url(#clip2_1_242)">
<path d="M19.8311 0C15.1563 0.00481247 10.6477 1.73496 7.1698 4.85877V1.58264C7.17036 1.37401 7.12964 1.1674 7.05002 0.974555C6.9704 0.781709 6.85346 0.60644 6.70589 0.458962C6.40772 0.165015 6.0058 0.000241496 5.5871 0.000241496C5.1684 0.000241496 4.76654 0.165015 4.46837 0.458962C4.3208 0.60644 4.20386 0.781709 4.12424 0.974555C4.04462 1.1674 4.0039 1.37401 4.00446 1.58264V6.33068C4.00446 7.58993 4.50469 8.79753 5.39511 9.68795C6.28553 10.5784 7.4932 11.0786 8.75244 11.0786H13.5004C13.9185 11.075 14.3191 10.9107 14.6192 10.6196C14.9164 10.3212 15.0832 9.91716 15.0832 9.49597C15.0832 9.07478 14.9164 8.67075 14.6192 8.37229C14.3191 8.08127 13.9185 7.91692 13.5004 7.91332H8.75244C8.69842 7.9106 8.64512 7.89995 8.5942 7.88169C11.1719 5.28706 14.5701 3.66736 18.2089 3.29907C21.8477 2.93078 25.5016 3.83678 28.5469 5.8623C31.5922 7.88783 33.8402 10.9074 34.9072 14.4057C35.9743 17.904 35.7942 21.6641 34.3978 25.0444C33.0014 28.4247 30.4751 31.2158 27.2502 32.9411C24.0253 34.6663 20.3016 35.2189 16.7146 34.5046C13.1276 33.7903 9.89971 31.8533 7.58173 29.0243C5.26375 26.1952 3.99941 22.6493 4.00446 18.9919C4.00501 18.7833 3.96429 18.5767 3.88468 18.3838C3.80506 18.191 3.68812 18.0157 3.54055 17.8683C3.2425 17.5741 2.84054 17.4092 2.42176 17.4092C2.00298 17.4092 1.60107 17.5741 1.30303 17.8683C1.15545 18.0157 1.03852 18.191 0.958899 18.3838C0.879282 18.5767 0.838562 18.7833 0.839117 18.9919C0.839117 22.7482 1.95297 26.4201 4.03984 29.5434C6.1267 32.6666 9.09285 35.1008 12.5632 36.5383C16.0335 37.9757 19.8522 38.3519 23.5363 37.6191C27.2203 36.8863 30.6044 35.0775 33.2604 32.4214C35.9165 29.7653 37.7253 26.3812 38.4581 22.6971C39.1909 19.013 38.8148 15.1945 37.3774 11.7241C35.9399 8.25379 33.5057 5.28765 30.3825 3.20078C27.2593 1.11392 23.5874 0 19.8311 0Z" fill="#02A4AC"/>
<path d="M24.3406 16.1035C24.421 16.1883 24.5312 16.2384 24.648 16.2432C24.7647 16.248 24.8787 16.2071 24.9658 16.1292L26.3991 14.6959C26.4342 14.6631 26.4563 14.6186 26.461 14.5707C26.4657 14.5228 26.4529 14.4749 26.4248 14.4358C26.1903 14.1489 25.6176 13.5455 25.4613 13.3932L25.2002 13.136C24.8876 12.8492 24.7056 12.7453 24.6275 12.8492L24.2625 13.1617C24.0547 13.3437 23.7154 13.7087 23.116 14.2825C23.0766 14.3286 23.0467 14.3821 23.028 14.4398C23.0093 14.4975 23.0022 14.5583 23.0071 14.6188C23.012 14.6792 23.0287 14.7382 23.0564 14.7921C23.0841 14.8461 23.1222 14.8941 23.1684 14.9333C23.5588 15.3501 23.9495 15.7408 24.3406 16.1055" fill="#DBDBDB"/>
<path d="M28.8425 17.4418H21.0508C20.8706 17.4382 20.6991 17.3633 20.574 17.2335C20.4488 17.1037 20.3802 16.9297 20.3831 16.7494C20.3795 16.5721 20.3065 16.4033 20.1798 16.2792C20.0531 16.1551 19.8829 16.0857 19.7055 16.0857H18.0635C17.8838 16.0857 17.7115 16.1571 17.5844 16.2842C17.4573 16.4112 17.3859 16.5836 17.3859 16.7633V25.4145C17.3859 25.5942 17.3146 25.7666 17.1875 25.8936C17.0604 26.0207 16.8881 26.0921 16.7084 26.0921H15.0159C14.8362 26.0921 14.6639 26.0207 14.5368 25.8936C14.4097 25.7666 14.3383 25.5942 14.3383 25.4145V21.5568C14.3383 21.3771 14.2669 21.2047 14.1399 21.0776C14.0128 20.9506 13.8405 20.8792 13.6607 20.8792H11.9159C11.7362 20.8792 11.5638 20.9506 11.4367 21.0776C11.3097 21.2047 11.2383 21.3771 11.2383 21.5568V28.3563C11.2383 28.536 11.3097 28.7083 11.4367 28.8354C11.5638 28.9625 11.7362 29.0339 11.9159 29.0339H19.7055C19.8852 29.0339 20.0576 28.9625 20.1847 28.8354C20.3117 28.7083 20.3831 28.536 20.3831 28.3563V26.3522C20.383 26.2632 20.4004 26.1751 20.4344 26.0928C20.4684 26.0105 20.5183 25.9358 20.5813 25.8728C20.6442 25.8099 20.719 25.76 20.8012 25.726C20.8835 25.692 20.9717 25.6745 21.0607 25.6747H29.9187C30.0984 25.6747 30.2707 25.6033 30.3978 25.4762C30.5249 25.3491 30.5963 25.1768 30.5963 24.9971V19.1956C30.5963 18.9653 30.5509 18.7373 30.4628 18.5245C30.3746 18.3117 30.2454 18.1184 30.0826 17.9555C29.9197 17.7927 29.7264 17.6635 29.5136 17.5753C29.3008 17.4872 29.0728 17.4418 28.8425 17.4418ZM28.4339 22.6508C28.2802 22.7573 28.0967 22.8127 27.9097 22.8091H20.9094C20.8482 22.8091 20.7896 22.7848 20.7464 22.7415C20.7032 22.6983 20.6789 22.6397 20.6789 22.5786V21.355C20.6789 21.2939 20.7032 21.2352 20.7464 21.192C20.7896 21.1488 20.8482 21.1245 20.9094 21.1245H27.9097C28.0966 21.1206 28.28 21.1756 28.4339 21.2818C28.5432 21.3594 28.6322 21.4621 28.6937 21.5811C28.7551 21.7002 28.7872 21.8323 28.7872 21.9663C28.7872 22.1003 28.7551 22.2323 28.6937 22.3514C28.6322 22.4705 28.5432 22.5731 28.4339 22.6508Z" fill="#DBDBDB"/>
<path d="M11.2383 15.7049V14.3547L14.3106 13.9313V12.2131L18.4542 11.2358V14.7741L11.2383 15.7049ZM15.6143 13.7493L17.1505 13.5633V12.9115L15.6143 13.2834V13.7493Z" fill="#DBDBDB"/>
</g>
</g>
</g>
<defs>
<clipPath id="clip0_1_242">
<rect width="38" height="37.98" fill="white" transform="translate(0.830078)"/>
</clipPath>
<clipPath id="clip1_1_242">
<rect width="38" height="37.98" fill="white" transform="translate(0.830078)"/>
</clipPath>
<clipPath id="clip2_1_242">
<rect width="37.982" height="37.98" fill="white" transform="translate(0.839111)"/>
</clipPath>
</defs>
</svg>
