<svg width="39" height="38" viewBox="0 0 39 38" fill="none" xmlns="http://www.w3.org/2000/svg">
<g clip-path="url(#clip0_14_314)">
<g clip-path="url(#clip1_14_314)">
<g clip-path="url(#clip2_14_314)">
<path d="M33.9034 10.972L35.0233 9.852C35.4801 9.41457 35.845 8.89032 36.0965 8.31001C36.348 7.72969 36.481 7.105 36.4879 6.47257C36.4947 5.84014 36.3752 5.21271 36.1364 4.62708C35.8975 4.04146 35.5441 3.50943 35.0969 3.06221C34.6496 2.61498 34.1176 2.26157 33.532 2.02271C32.9464 1.78384 32.3189 1.66433 31.6865 1.67118C31.0541 1.67803 30.4294 1.8111 29.8491 2.0626C29.2687 2.3141 28.7445 2.67895 28.3071 3.13575L27.1871 4.25571C27.4037 5.9594 28.1937 7.53866 29.427 8.73379C30.6223 9.96682 32.2015 10.7564 33.9051 10.9728M27.1889 4.25658L16.8964 14.549C16.42 14.9986 15.9709 15.4763 15.5514 15.9795C15.197 16.4335 14.8931 16.9249 14.6452 17.4448C14.3832 18.0452 14.1572 18.6607 13.9683 19.2879L12.9705 22.2823M33.9042 10.9763L23.6118 21.2687C23.1622 21.7454 22.6845 22.1949 22.1813 22.6146C21.7283 22.9683 21.2381 23.2716 20.7195 23.5191C20.1186 23.7813 19.5025 24.0073 18.8747 24.196L15.8811 25.1938M15.8811 25.1938L13.9439 25.8393C13.7181 25.9148 13.4758 25.926 13.2441 25.8714C13.0124 25.8168 12.8004 25.6988 12.6321 25.5304C12.4638 25.3621 12.3457 25.1502 12.2912 24.9185C12.2366 24.6867 12.2477 24.4444 12.3233 24.2187L12.9687 22.2814L15.8811 25.1938Z" stroke="#DBDBDB" stroke-width="3.48896"/>
<path d="M36.4153 19C36.4153 22.4128 35.4033 25.749 33.5073 28.5867C31.6112 31.4243 28.9163 33.636 25.7632 34.942C22.6102 36.2481 19.1407 36.5898 15.7934 35.924C12.4462 35.2582 9.37155 33.6147 6.95833 31.2015C4.5451 28.7883 2.90167 25.7137 2.23587 22.3664C1.57006 19.0192 1.91177 15.5497 3.2178 12.3966C4.52383 9.24359 6.73551 6.54865 9.57317 4.65259C12.4108 2.75653 15.747 1.74451 19.1598 1.74451" stroke="#02ADB4" stroke-width="3.48896" stroke-linecap="round"/>
</g>
</g>
</g>
<defs>
<clipPath id="clip0_14_314">
<rect width="38" height="38" fill="white" transform="translate(0.159912)"/>
</clipPath>
<clipPath id="clip1_14_314">
<rect width="38" height="38" fill="white" transform="translate(0.159912)"/>
</clipPath>
<clipPath id="clip2_14_314">
<rect width="38" height="38" fill="white" transform="translate(0.159912)"/>
</clipPath>
</defs>
</svg>
