<svg width="27" height="26" viewBox="0 0 27 26" fill="none" xmlns="http://www.w3.org/2000/svg">
<g clip-path="url(#clip0_46_522)">
<g clip-path="url(#clip1_46_522)">
<g clip-path="url(#clip2_46_522)">
<path d="M3.40991 4.531C4.80117 2.91353 6.56914 1.66333 8.55783 0.890712C10.5465 0.118093 12.6948 -0.1532 14.8131 0.10077C16.9314 0.354741 18.9547 1.12617 20.7044 2.34699C22.4541 3.56781 23.8764 5.20049 24.8459 7.101H14.7699C12.9569 7.101 11.7849 7.061 10.5169 7.728C9.76297 8.1336 9.10457 8.69585 8.58592 9.37698C8.06726 10.0581 7.70038 10.8423 7.50991 11.677L3.40991 4.531Z" fill="#F44336"/>
<path d="M8.94604 13.001C8.94644 13.8555 9.2002 14.6908 9.67524 15.4011C10.1503 16.1114 10.8253 16.6649 11.6149 16.9917C12.4044 17.3184 13.2732 17.4037 14.1113 17.2367C14.9493 17.0698 15.7191 16.6581 16.3232 16.0537C16.9273 15.4493 17.3386 14.6794 17.5052 13.8413C17.6717 13.0031 17.586 12.1344 17.2589 11.345C16.9318 10.5555 16.378 9.8808 15.6675 9.40609C14.9569 8.93138 14.1216 8.67801 13.267 8.67801C10.881 8.68101 8.94705 10.615 8.94705 13.001H8.94604Z" fill="#2196F3"/>
<path d="M14.9421 18.659C13.6615 19.0538 12.2839 18.9946 11.042 18.4914C9.8 17.9882 8.76971 17.0718 8.12509 15.897L2.37009 5.90302C0.0200906 9.52302 -0.383909 14.073 1.29309 18.048C2.97009 22.023 6.50809 24.912 10.7401 25.748L14.9421 18.659Z" fill="#4CAF50"/>
<path d="M17.27 8.67502C18.2471 9.58702 18.8869 10.8028 19.0852 12.1246C19.2834 13.4465 19.0286 14.7965 18.362 15.955L12.447 25.975C14.5895 26.1059 16.731 25.7046 18.6808 24.807C20.6305 23.9094 22.3279 22.5433 23.6216 20.8305C24.9153 19.1177 25.7651 17.1115 26.0953 14.9906C26.4255 12.8697 26.2258 10.7 25.514 8.67502H17.27Z" fill="#FFC107"/>
</g>
</g>
</g>
<defs>
<clipPath id="clip0_46_522">
<rect width="26" height="26" fill="white" transform="translate(0.27002)"/>
</clipPath>
<clipPath id="clip1_46_522">
<rect width="26" height="26" fill="white" transform="translate(0.27002)"/>
</clipPath>
<clipPath id="clip2_46_522">
<rect width="26" height="25.998" fill="white" transform="translate(0.27002 0.00100708)"/>
</clipPath>
</defs>
</svg>
