<svg width="130" height="54" viewBox="0 0 130 54" fill="none" xmlns="http://www.w3.org/2000/svg">
<g clip-path="url(#clip0_14_102)">
<g clip-path="url(#clip1_14_102)">
<g clip-path="url(#clip2_14_102)">
<path d="M119.963 11.7044V19.5546H109.145L111.896 14.6717V11.702H98.6052V14.6717L101.356 19.5546H91.9894L83.4289 10.7771L80.7059 13.252L86.8858 19.558H82.0803C82.1281 19.5984 82.1829 19.6405 82.2357 19.6958L82.5475 20.0043C82.7323 20.1899 83.3813 20.8705 83.6601 21.2095C83.7037 21.2555 83.7286 21.3165 83.7286 21.3799C83.7286 21.4433 83.7037 21.5043 83.6601 21.5503L82.0931 23.0822H129.476V11.7076L119.963 11.7044ZM105.251 19.5538L103.148 15.227H107.356L105.251 19.5538ZM126.114 19.5538H123.21V15.227H126.114V19.5538ZM81.1296 19.7189L81.3254 19.5538H73.2611V11.7036H63.7394V19.5538H56.5073V23.0782H81.1087C80.6824 22.6761 80.2566 22.2476 79.831 21.7928C79.7755 21.7466 79.7296 21.6899 79.6964 21.6258C79.6632 21.5618 79.6434 21.4917 79.6376 21.4198C79.6318 21.3479 79.6408 21.2754 79.6634 21.2069C79.686 21.1384 79.7216 21.075 79.7689 21.0206C80.4784 20.3408 80.8813 19.9384 81.128 19.7189H81.1296ZM69.8904 19.5538H66.9853V15.227H69.8904V19.5538Z" fill="white"/>
<path d="M76.8843 9.01521V7.1145L56.5053 7.1145V9.01521L76.8843 9.01521Z" fill="#CEFDFF" fill-opacity="0.65"/>
<path d="M117.032 9.01521V7.1145L91.5297 7.1145V9.01521L117.032 9.01521Z" fill="#CEFDFF" fill-opacity="0.65"/>
<path d="M124.169 4.96127L123.879 7.21843L119.782 7.24985L119.556 9.02021L129.168 9.01357L129.764 4.3772L124.169 4.96127ZM127.663 7.20856L125.618 7.19366L125.7 6.5832L127.778 6.3538L127.663 7.20856Z" fill="white"/>
<path d="M94.5449 48.3443V46.4436H69.3127V48.3443H94.5449Z" fill="#CEFDFF" fill-opacity="0.65"/>
<path d="M129.999 48.3443V46.4436H113.644V48.3443H129.999Z" fill="#CEFDFF" fill-opacity="0.65"/>
<path d="M72.0709 32.9984C72.1664 33.099 72.2973 33.1583 72.4358 33.164C72.5744 33.1697 72.7094 33.1212 72.8129 33.0288L74.5135 31.3285C74.5548 31.2892 74.5802 31.2366 74.5861 31.1799C74.5919 31.1232 74.578 31.0662 74.5458 31.0192C74.2678 30.6793 73.5866 29.9682 73.4018 29.7817L73.0932 29.4724C72.7203 29.1325 72.5049 29.0089 72.4133 29.1326L71.9791 29.503C71.7316 29.7191 71.3311 30.1523 70.62 30.8329C70.5258 30.9435 70.4787 31.0869 70.4903 31.2317C70.5019 31.3765 70.5706 31.5109 70.6812 31.6051C71.1443 32.1034 71.6078 32.5678 72.0709 32.9984Z" fill="white"/>
<path d="M91.3655 44.3572H82.2136V25.9968H85.9525L85.8937 40.8322H91.4791L91.3357 40.9559C91.0882 41.172 90.6878 41.5738 89.9758 42.2527C89.9286 42.3074 89.8927 42.3709 89.8703 42.4396C89.8478 42.5083 89.8395 42.5807 89.8453 42.6527C89.8511 42.7247 89.8717 42.795 89.9049 42.8592C89.9381 42.9233 89.9832 42.9802 90.0387 43.0265C90.4803 43.4978 90.9228 43.9414 91.3655 44.3572Z" fill="white"/>
<path d="M94.8908 44.3572H92.2612L93.5623 43.0571C94.0028 43.5001 94.447 43.9423 94.8908 44.3572Z" fill="white"/>
<path d="M95.0053 40.832L94.8587 40.9567C94.6112 41.172 94.2738 41.5424 93.6212 42.1603C93.3119 41.8204 92.8789 41.3881 92.7544 41.2338L92.445 40.9245C92.4112 40.8907 92.3757 40.8601 92.3435 40.832H95.0053Z" fill="white"/>
<path d="M103.6 32.9825V44.3571H95.7874L97.3938 42.7789C97.4388 42.7336 97.4639 42.6725 97.4639 42.6087C97.4639 42.5449 97.4388 42.4836 97.3938 42.4383C97.1149 42.0984 96.4669 41.4179 96.2796 41.2339L95.9718 40.9237C95.9364 40.8899 95.9009 40.8601 95.8687 40.8321H99.8292V32.9817L103.6 32.9825Z" fill="white"/>
<path d="M119.954 40.8329H112.256V33.2294H108.456V45.914H104.716V49.6263H112.257V44.3597H123.724V26.124H119.954V40.8329Z" fill="white"/>
<path d="M129.999 27.9908C129.999 26.9579 129.162 26.1206 128.13 26.1206C127.097 26.1206 126.26 26.9579 126.26 27.9908V42.487C126.26 43.5198 127.097 44.3572 128.13 44.3572C129.162 44.3572 129.999 43.5198 129.999 42.487V27.9908Z" fill="white"/>
<path d="M88.9316 26.6554L88.6343 28.9198L101.291 28.8199L101.126 30.1028L103.279 30.0789L103.736 26.6074L88.9316 26.6554Z" fill="#CEFDFF" fill-opacity="0.65"/>
<path d="M67.4125 32.9209H63.8291V44.8828H60.1852V38.6519H56.4729V48.4038H67.4125V44.3845H79.6282V34.5386H67.4125V32.9209ZM76.0423 38.2831V40.8406H67.4125V38.2831H76.0423Z" fill="white"/>
<path d="M4.45382 9.55879C4.55428 9.56206 4.65437 9.54472 4.74787 9.50783C4.84137 9.47094 4.92565 9.41528 4.99681 9.34429C5.13399 9.20694 5.21111 9.0208 5.21111 8.82668C5.21111 8.63256 5.13399 8.44642 4.99681 8.30907C4.84939 8.17145 4.65549 8.09497 4.45382 8.09497C4.25215 8.09497 4.05825 8.17145 3.91083 8.30907C3.77365 8.44642 3.69653 8.63256 3.69653 8.82668C3.69653 9.0208 3.77365 9.20694 3.91083 9.34429C3.9819 9.41518 4.06642 9.47075 4.15977 9.50763C4.25312 9.54452 4.3535 9.56195 4.45382 9.55879Z" fill="white"/>
<path d="M2.48602 9.55879C2.58587 9.56209 2.68482 9.54474 2.77766 9.50783C2.87049 9.47093 2.95465 9.41524 3.02498 9.34429C3.0936 9.27667 3.14811 9.19611 3.1853 9.10724C3.2225 9.01837 3.2417 8.92302 3.2417 8.82668C3.2417 8.73034 3.2225 8.63499 3.1853 8.54612C3.14811 8.45725 3.0936 8.37669 3.02498 8.30907C2.87821 8.17149 2.68478 8.09497 2.48361 8.09497C2.28243 8.09497 2.08901 8.17149 1.94223 8.30907C1.87381 8.3768 1.81978 8.45747 1.78271 8.54632C1.74565 8.63518 1.72632 8.7304 1.72632 8.82668C1.72632 8.92295 1.74565 9.01838 1.78271 9.10724C1.81978 9.19609 1.87381 9.27656 1.94223 9.34429C2.01327 9.41544 2.09844 9.47134 2.19197 9.50824C2.2855 9.54514 2.38554 9.56226 2.48602 9.55879Z" fill="white"/>
<path d="M26.5438 9.55892C26.6443 9.56149 26.7435 9.5438 26.8371 9.50695C26.9306 9.47011 27.0159 9.41484 27.0876 9.34442C27.1564 9.27691 27.2114 9.19645 27.2487 9.10757C27.2861 9.01868 27.3051 8.92321 27.3051 8.82681C27.3051 8.7304 27.2861 8.63493 27.2487 8.54605C27.2114 8.45716 27.1564 8.3767 27.0876 8.30919C27.0158 8.23892 26.9306 8.1837 26.8371 8.14686C26.7435 8.11002 26.6443 8.09231 26.5438 8.09469C26.4451 8.09288 26.347 8.11082 26.2554 8.14766C26.1638 8.18451 26.0804 8.23953 26.0105 8.30919C25.9417 8.3767 25.8867 8.45716 25.8494 8.54605C25.812 8.63493 25.793 8.7304 25.793 8.82681C25.793 8.92321 25.812 9.01868 25.8494 9.10757C25.8867 9.19645 25.9417 9.27691 26.0105 9.34442C26.0803 9.4142 26.1638 9.46929 26.2554 9.50615C26.347 9.543 26.4451 9.56087 26.5438 9.55892Z" fill="white"/>
<path d="M45.5651 6.78198H44.1384V14.3577H42.2967C42.1346 14.378 41.9703 14.3586 41.8174 14.3011C41.6644 14.2436 41.5279 14.1497 41.4194 14.0276C41.2548 13.7817 41.1723 13.49 41.1841 13.1944V6.78198H39.734V13.7009C39.7415 13.8662 39.7088 14.031 39.639 14.181C39.6 14.2427 39.5445 14.292 39.4786 14.3232C39.4128 14.3545 39.3391 14.3665 39.2668 14.3577H28.8629C28.5682 14.3636 28.2739 14.3511 27.9808 14.3204C28.4343 13.9276 28.8027 13.4466 29.0643 12.9065C29.2359 12.5338 29.3306 12.1304 29.3431 11.7203C29.3383 11.5445 29.2862 11.3734 29.1916 11.2252C29.075 11.0367 28.9197 10.8753 28.7356 10.7517C28.5008 10.5934 28.2403 10.476 27.9663 10.4045C27.6034 10.3096 27.2295 10.2648 26.8545 10.2715C26.5744 10.2717 26.2954 10.3014 26.0215 10.36C25.7441 10.4193 25.4715 10.4994 25.2062 10.5998C24.9474 10.6986 24.6963 10.8171 24.4554 10.9539C24.2339 11.0798 24.0234 11.2235 23.8254 11.3837L23.8737 12.3942C23.9247 12.5283 23.9892 12.6571 24.0654 12.7786C24.1662 12.9496 24.2759 13.1149 24.3949 13.2737C24.522 13.4464 24.6595 13.621 24.8074 13.7976C24.9506 13.9658 25.1035 14.1259 25.2642 14.2775C25.1438 14.306 25.0215 14.3271 24.8984 14.3404C24.7341 14.3581 24.5691 14.3664 24.4038 14.3651H5.92921V12.8628C5.93364 12.5163 5.87578 12.1716 5.75842 11.8455C5.65386 11.5495 5.48776 11.2794 5.27021 11.053C5.05267 10.8266 4.78926 10.6494 4.49762 10.5332C4.18269 10.4083 3.84626 10.346 3.50751 10.3499C3.1327 10.3453 2.76132 10.4253 2.42153 10.5835C2.09859 10.735 1.81113 10.9518 1.57643 11.2204C1.33563 11.4982 1.14611 11.8169 1.01813 12.1615C0.884043 12.5229 0.817059 12.9056 0.819139 13.291C0.818733 13.6043 0.869151 13.9155 0.968985 14.2125C1.07246 14.517 1.24109 14.7953 1.46364 15.0275C1.71204 15.28 2.0116 15.4768 2.34177 15.605C2.75885 15.7628 3.20273 15.8377 3.64849 15.8253H24.4046C24.7772 15.8245 25.1483 15.7821 25.5115 15.699C25.8772 15.6185 26.2281 15.4821 26.5524 15.2948C26.8295 15.4438 27.1224 15.5624 27.4249 15.6487C27.8852 15.7772 28.3618 15.8367 28.8396 15.8253H39.3304C39.6506 15.8334 39.9679 15.7618 40.2537 15.6173C40.516 15.4774 40.7273 15.2588 40.8587 14.9921C40.9887 15.2172 41.1631 15.4136 41.3711 15.5695C41.6252 15.7522 41.9342 15.8432 42.2468 15.8277H45.5684L45.5651 6.78198ZM4.49117 14.3577H3.60741C3.43485 14.3585 3.26289 14.3354 3.09664 14.2892C2.93708 14.2453 2.78853 14.1676 2.6616 14.0614C2.53113 13.9512 2.42698 13.813 2.35708 13.6572C2.27731 13.4675 2.23902 13.2631 2.24429 13.0574C2.23487 12.7036 2.36662 12.3606 2.61004 12.1037C2.71625 11.9928 2.84182 11.9031 2.98143 11.8391C3.11841 11.7765 3.26749 11.7442 3.41808 11.7442C3.57353 11.7354 3.72887 11.7661 3.86923 11.8334C4.0096 11.9008 4.13013 12.0025 4.22049 12.1293C4.42077 12.4615 4.51525 12.8469 4.49117 13.234V14.3577ZM27.8623 12.4131C27.7876 12.5786 27.6947 12.7353 27.5852 12.8802C27.4588 13.0483 27.3177 13.2045 27.1631 13.347C27.1359 13.4599 27.071 13.5603 26.9794 13.6316C26.8877 13.7029 26.7749 13.741 26.6587 13.7396C26.5426 13.7381 26.4304 13.6973 26.3405 13.6237C26.2507 13.5502 26.1884 13.4483 26.1641 13.3347C26.0108 13.1773 25.8654 13.012 25.729 12.8397C25.607 12.6906 25.4934 12.5348 25.3891 12.3728C25.3172 12.268 25.2542 12.1575 25.1998 12.0427C25.4356 11.9088 25.6912 11.813 25.957 11.7589C26.3761 11.658 26.809 11.6282 27.238 11.6707C27.3595 11.6817 27.4806 11.7008 27.5997 11.7277C27.6935 11.747 27.7825 11.7832 27.8631 11.8349C27.8933 11.8522 27.9187 11.8771 27.9365 11.907C27.9542 11.9369 27.9638 11.9709 27.9647 12.0057C27.9593 12.1469 27.9245 12.2862 27.8623 12.4131Z" fill="white"/>
<path d="M4.99754 24.3866C5.13477 24.2491 5.21184 24.0628 5.21184 23.8685C5.21184 23.6743 5.13477 23.488 4.99754 23.3505C4.85013 23.2129 4.65622 23.1362 4.45455 23.1362C4.25289 23.1362 4.05898 23.2129 3.91156 23.3505C3.77434 23.488 3.69727 23.6743 3.69727 23.8685C3.69727 24.0628 3.77434 24.2491 3.91156 24.3866C4.05889 24.5244 4.25283 24.6011 4.45455 24.6011C4.65628 24.6011 4.85022 24.5244 4.99754 24.3866Z" fill="white"/>
<path d="M2.48602 24.6011C2.58586 24.6043 2.68484 24.587 2.77766 24.5501C2.87048 24.5132 2.95459 24.4575 3.02498 24.3866C3.09363 24.3189 3.14891 24.2383 3.18611 24.1493C3.22331 24.0604 3.2417 23.965 3.2417 23.8686C3.2417 23.7722 3.22331 23.6768 3.18611 23.5878C3.14891 23.4989 3.09363 23.4183 3.02498 23.3506C2.87821 23.213 2.68478 23.1365 2.48361 23.1365C2.28243 23.1365 2.08901 23.213 1.94223 23.3506C1.87378 23.4184 1.81979 23.4991 1.78271 23.588C1.74564 23.6769 1.72632 23.7722 1.72632 23.8686C1.72632 23.9649 1.74564 24.0602 1.78271 24.1491C1.81979 24.2381 1.87378 24.3188 1.94223 24.3866C2.01333 24.4577 2.09845 24.5135 2.19197 24.5503C2.28548 24.5872 2.38555 24.6045 2.48602 24.6011Z" fill="white"/>
<path d="M1.01722 27.1965C0.883139 27.5578 0.815349 27.9403 0.817429 28.3257C0.817039 28.639 0.868261 28.9504 0.968081 29.2474C1.07171 29.5516 1.24033 29.8294 1.46273 30.0615C1.71104 30.314 2.01063 30.5111 2.34087 30.6391C2.75783 30.7974 3.20175 30.8724 3.64759 30.86H14.1642C14.4858 30.8687 14.8027 30.7854 15.0786 30.62C15.3261 30.4706 15.5331 30.2624 15.6804 30.0137C15.8114 30.2381 15.9856 30.4343 16.1928 30.5912C16.4494 30.779 16.763 30.8729 17.0806 30.8568H22.6901V25.8311H21.2513V29.3916H17.1217C16.9605 29.4104 16.7973 29.3902 16.6455 29.3328C16.4938 29.2754 16.3575 29.1824 16.2492 29.0617C16.0816 28.817 15.9973 28.5248 16.0091 28.2285V25.8295H14.5727V28.7334C14.5794 28.8987 14.5467 29.0633 14.4776 29.2135C14.4385 29.275 14.3831 29.3241 14.3173 29.3553C14.2515 29.3866 14.1777 29.3986 14.1054 29.39H5.93798V27.8877C5.94231 27.5414 5.88444 27.1972 5.76719 26.8714C5.66258 26.5753 5.49651 26.305 5.27898 26.0785C5.06144 25.852 4.79803 25.6745 4.50638 25.558C4.19146 25.4331 3.85503 25.371 3.51627 25.3749C3.14146 25.3704 2.77008 25.4501 2.43029 25.6084C2.10721 25.7599 1.81972 25.9771 1.58519 26.246C1.33988 26.5257 1.14716 26.8479 1.01722 27.1965ZM2.34328 27.5562C2.40675 27.4041 2.49691 27.2644 2.60914 27.1437C2.71517 27.0323 2.84077 26.9422 2.98053 26.878C3.11747 26.8154 3.26658 26.783 3.41718 26.7832C3.57264 26.7743 3.72795 26.8048 3.86833 26.8722C4.00871 26.9396 4.12928 27.0416 4.21958 27.1685C4.41991 27.5006 4.5144 27.8858 4.49027 28.273V29.3966H3.6065C3.43389 29.3973 3.26191 29.374 3.09574 29.3273C2.93286 29.2839 2.78188 29.2047 2.65345 29.0955C2.52501 28.9864 2.42204 28.8499 2.35295 28.6961C2.27321 28.5065 2.23492 28.3022 2.24016 28.0965C2.23868 27.9111 2.27372 27.728 2.34328 27.5562Z" fill="white"/>
<path d="M15.7181 31.9325C15.6485 31.9989 15.5932 32.079 15.5562 32.1678C15.5191 32.2565 15.5005 32.352 15.5022 32.4481C15.4996 32.5464 15.5175 32.6441 15.5546 32.7351C15.5916 32.8261 15.6476 32.9083 15.7181 32.9768C15.8665 33.1118 16.0597 33.1867 16.2603 33.1867C16.4609 33.1867 16.6541 33.1118 16.8025 32.9768C16.873 32.9084 16.9283 32.8262 16.9652 32.7351C17.0021 32.6441 17.0197 32.5463 17.0168 32.4481C17.0188 32.352 17.0013 32.2565 16.9644 32.1678C16.9275 32.079 16.8721 31.9989 16.8025 31.9325C16.6541 31.7975 16.4609 31.7227 16.2603 31.7227C16.0597 31.7227 15.8665 31.7975 15.7181 31.9325Z" fill="white"/>
<path d="M13.759 31.9326C13.6896 31.9991 13.6354 32.0793 13.5986 32.168C13.5619 32.2568 13.5435 32.3521 13.5455 32.4482C13.5426 32.5463 13.5603 32.6439 13.597 32.735C13.6338 32.826 13.6887 32.9083 13.759 32.9769C13.9076 33.1117 14.1013 33.1865 14.302 33.1865C14.5027 33.1865 14.6963 33.1117 14.8449 32.9769C14.9158 32.9086 14.9714 32.8264 15.0085 32.7354C15.0456 32.6443 15.0631 32.5465 15.06 32.4482C15.0621 32.352 15.044 32.2564 15.0069 32.1676C14.9698 32.0788 14.9148 31.9987 14.8449 31.9326C14.6963 31.7977 14.5027 31.7229 14.302 31.7229C14.1013 31.7229 13.9076 31.7977 13.759 31.9326Z" fill="white"/>
<path d="M22.3034 31.9327C22.2331 31.864 22.1498 31.8101 22.0584 31.7741C21.9671 31.7382 21.869 31.7208 21.7708 31.7232C21.6705 31.7204 21.5713 31.7374 21.4776 31.7733C21.3839 31.8093 21.2982 31.8635 21.2254 31.9327C21.1551 31.9986 21.0986 32.0785 21.0611 32.1673C21.0236 32.2561 21.0053 32.3519 21.0071 32.4483C21.0044 32.5467 21.0228 32.6446 21.0603 32.7357C21.0978 32.8267 21.1541 32.909 21.2254 32.9769C21.2981 33.0461 21.3839 33.1003 21.4776 33.1363C21.5713 33.1722 21.6705 33.1894 21.7708 33.1866C21.869 33.189 21.9671 33.1716 22.0584 33.1357C22.1498 33.0997 22.2332 33.0456 22.3034 32.9769C22.375 32.9092 22.4315 32.8272 22.4693 32.7361C22.5071 32.6449 22.5251 32.5469 22.5225 32.4483C22.5242 32.3517 22.5055 32.2559 22.4677 32.1671C22.4299 32.0782 22.3741 31.9984 22.3034 31.9327Z" fill="white"/>
<path d="M40.7939 29.3992H38.3062C38.0114 29.4049 37.7172 29.3921 37.424 29.3611C37.8784 28.9692 38.2467 28.488 38.5068 27.9472C38.6775 27.574 38.7719 27.1702 38.7847 26.76C38.7794 26.5846 38.7279 26.4139 38.6349 26.2651C38.5178 26.0772 38.3629 25.9159 38.1797 25.7916C37.9444 25.6335 37.6837 25.516 37.4095 25.4442C37.0464 25.3493 36.6722 25.3047 36.2969 25.3114C36.0169 25.3118 35.7378 25.3413 35.4639 25.3997C34.914 25.516 34.385 25.7163 33.8962 25.9936C33.6745 26.1189 33.464 26.2624 33.2662 26.4226L33.3153 27.4324C33.3654 27.567 33.4293 27.6961 33.5054 27.8177C33.5978 27.9737 33.7062 28.1377 33.8349 28.3126C33.9636 28.4875 34.0998 28.6599 34.2474 28.8364C34.3906 29.0044 34.5433 29.1647 34.7034 29.3166C34.583 29.3452 34.4607 29.3661 34.3377 29.3792C34.1733 29.3974 34.0083 29.406 33.843 29.4048H28.0997C27.9355 29.4253 27.7683 29.406 27.6131 29.3486C27.4579 29.2912 27.3192 29.1973 27.2079 29.0749C27.0442 28.8287 26.9623 28.5371 26.9742 28.2417V25.8419H25.5378V30.5516C25.5568 30.9068 25.4914 31.2614 25.3477 31.5868C25.2705 31.7104 25.1602 31.8095 25.0287 31.8722C24.8971 31.9349 24.7503 31.9586 24.6057 31.9407C24.5018 31.9401 24.398 31.9338 24.2947 31.9218C24.1817 31.9094 24.0748 31.8946 23.9725 31.8773L23.618 31.8013L23.4666 33.241C23.5183 33.2577 23.5708 33.2703 23.6245 33.2789L23.8081 33.3044C23.9088 33.3209 24.028 33.3358 24.1683 33.349C24.3085 33.3622 24.4523 33.3679 24.6049 33.3679C24.9566 33.3749 25.3057 33.3037 25.6264 33.1592C25.914 33.0247 26.1672 32.8274 26.3684 32.5818C26.5756 32.3288 26.7297 32.0367 26.822 31.723C26.9253 31.3789 26.9769 31.0214 26.9742 30.6622V30.3214C27.1157 30.4757 27.283 30.6039 27.4689 30.7001C27.6747 30.8106 27.9056 30.8673 28.1392 30.865H33.8454C34.2174 30.8639 34.588 30.8215 34.9507 30.7387C35.3166 30.658 35.6678 30.5217 35.9924 30.3345C36.2696 30.4831 36.5624 30.6017 36.8649 30.6878C37.3249 30.8164 37.8013 30.8758 38.2788 30.8642H42.2191V21.8235H40.7915L40.7939 29.3992ZM37.308 27.4546C37.2331 27.6203 37.1402 27.7772 37.0309 27.9225C36.9048 28.0909 36.7637 28.2471 36.6087 28.3893C36.4473 28.5369 36.2718 28.668 36.0842 28.7805C35.9131 28.6621 35.7543 28.5267 35.6105 28.3762C35.4567 28.2193 35.3113 28.054 35.1755 27.8812C35.0533 27.7318 34.9393 27.576 34.8339 27.4143C34.763 27.3089 34.7 27.1985 34.6446 27.0842C34.8805 26.9502 35.136 26.8544 35.4019 26.8004C35.6914 26.7317 35.9881 26.6958 36.2857 26.6933C36.4209 26.6933 36.5525 26.6998 36.6836 26.7122C36.8046 26.7233 36.9252 26.7424 37.0437 26.7692C37.138 26.788 37.2272 26.8243 37.308 26.8764C37.3383 26.8936 37.3642 26.9184 37.3821 26.9483C37.4 26.9782 37.4094 27.0123 37.4103 27.0472C37.4053 27.1886 37.3699 27.3273 37.308 27.4546Z" fill="white"/>
<path d="M45.7187 21.8235H44.2915V30.8642H45.7187V21.8235Z" fill="white"/>
<path d="M3.84945 38.393C3.78103 38.4607 3.727 38.5412 3.68994 38.63C3.65287 38.7189 3.63354 38.8143 3.63354 38.9106C3.63354 39.0069 3.65287 39.1021 3.68994 39.1909C3.727 39.2798 3.78103 39.3605 3.84945 39.4282C3.99623 39.5658 4.19046 39.6423 4.39164 39.6423C4.59281 39.6423 4.78624 39.5658 4.93302 39.4282C5.00163 39.3606 5.05614 39.28 5.09334 39.1911C5.13053 39.1023 5.14973 39.0069 5.14973 38.9106C5.14973 38.8142 5.13053 38.7189 5.09334 38.63C5.05614 38.5412 5.00163 38.4606 4.93302 38.393C4.78633 38.2552 4.59287 38.1785 4.39164 38.1785C4.19041 38.1785 3.99614 38.2552 3.84945 38.393Z" fill="white"/>
<path d="M5.22915 41.1243C5.0121 40.8991 4.74928 40.7226 4.45897 40.6062C4.14396 40.4818 3.80836 40.4197 3.46967 40.4238C3.0949 40.4196 2.72362 40.4996 2.38368 40.6574C2.05929 40.8103 1.76899 41.0272 1.53053 41.2951C1.28719 41.5703 1.09886 41.8894 0.975453 42.2354C0.845135 42.5979 0.779226 42.9805 0.781297 43.3657C0.781127 43.6791 0.832877 43.9904 0.93356 44.2871C1.03608 44.5919 1.20484 44.8701 1.42821 45.1014C1.67599 45.3543 1.97538 45.5511 2.30554 45.6789C2.72315 45.8369 3.16752 45.9121 3.61387 45.9H5.89782V42.9301C5.90283 42.5842 5.84682 42.2403 5.73267 41.9138C5.6214 41.6184 5.45026 41.3495 5.22915 41.1243ZM4.45253 44.4382H3.57037C3.3975 44.4387 3.22529 44.4154 3.0588 44.3689C2.89924 44.325 2.75069 44.2473 2.62376 44.1411C2.49315 44.031 2.38897 43.8928 2.31923 43.7369C2.23934 43.5473 2.20129 43.3428 2.20725 43.1371C2.20418 42.9514 2.23792 42.767 2.30634 42.5943C2.36894 42.4419 2.4581 42.3022 2.57059 42.1818C2.67767 42.0708 2.80482 41.9809 2.9452 41.917C3.07745 41.8551 3.22215 41.8227 3.36816 41.8221C3.52431 41.8133 3.67976 41.844 3.82092 41.9114C3.96208 41.9787 4.08399 42.0805 4.17539 42.2074C4.38103 42.5376 4.47817 42.9239 4.45333 43.3121L4.45253 44.4382Z" fill="white"/>
<path d="M1.87763 38.3929C1.74045 38.5303 1.66333 38.7164 1.66333 38.9105C1.66333 39.1047 1.74045 39.2908 1.87763 39.4281C2.02477 39.5657 2.21923 39.642 2.42062 39.642C2.62201 39.642 2.81566 39.5657 2.9628 39.4281C3.03102 39.3603 3.08538 39.2797 3.12232 39.1909C3.15926 39.1021 3.1779 39.0067 3.1779 38.9105C3.1779 38.8143 3.15926 38.719 3.12232 38.6302C3.08538 38.5413 3.03102 38.4608 2.9628 38.3929C2.81584 38.2551 2.62212 38.1782 2.42062 38.1782C2.21911 38.1782 2.02459 38.2551 1.87763 38.3929Z" fill="white"/>
<path d="M19.7437 41.3536C19.4955 41.0695 19.1874 40.8443 18.8414 40.6938C18.4484 40.5268 18.0245 40.445 17.5975 40.4538C17.0679 40.4578 16.5476 40.5919 16.0822 40.8447C15.5822 41.1081 15.1467 41.4788 14.8068 41.9303V40.8679H13.3543V44.4416H11.2347C11.0705 44.4624 10.9034 44.4433 10.7481 44.3858C10.5929 44.3284 10.454 44.2342 10.3429 44.1115C10.1796 43.8651 10.0978 43.5736 10.1093 43.2783V40.8785H8.67121V45.5882C8.69104 45.9439 8.62587 46.2993 8.48028 46.6244C8.40325 46.7482 8.29202 46.8471 8.16045 46.9098C8.02887 46.9726 7.88213 46.9964 7.73749 46.9783C7.63408 46.9776 7.5308 46.971 7.42813 46.9586C7.31346 46.9462 7.20733 46.9312 7.10669 46.9147L6.75141 46.8389L6.60156 48.2784C6.65213 48.2951 6.7044 48.3074 6.75705 48.3155L6.94154 48.341C7.04218 48.3575 7.16227 48.3726 7.30004 48.3849C7.43781 48.3973 7.58572 48.4039 7.73669 48.4039C8.08843 48.4114 8.43764 48.34 8.75822 48.195C9.04712 48.0607 9.30247 47.8635 9.50503 47.6176C9.7117 47.3642 9.86577 47.0723 9.9586 46.7588C10.0626 46.4149 10.1135 46.0573 10.1101 45.698V45.3572C10.2514 45.5118 10.4195 45.6403 10.6055 45.7366C10.811 45.8473 11.0408 45.9042 11.2742 45.9018H20.4784V43.6166C20.4824 43.1889 20.4214 42.763 20.2972 42.3536C20.1831 41.9861 19.9943 41.6457 19.7437 41.3536ZM19.0251 44.4408H14.8334C14.9166 43.7169 15.2571 43.047 15.7929 42.5532C16.0269 42.3365 16.296 42.1614 16.5889 42.0352C17.0605 41.8264 17.5912 41.7949 18.0841 41.9468C18.2758 42.0063 18.4498 42.1126 18.5901 42.2561C18.7408 42.4207 18.8503 42.6187 18.9099 42.8338C18.9942 43.123 19.0337 43.4234 19.0259 43.7246L19.0251 44.4408Z" fill="white"/>
<path d="M40.6557 44.4413H39.3563C39.3195 44.4324 39.2821 44.4281 39.2443 44.4282H38.7899C38.5835 44.4378 38.3772 44.3994 38.1881 44.316C38.0584 44.2533 37.9458 44.1608 37.8586 44.0461C37.785 43.9491 37.7354 43.8361 37.7136 43.7162C37.6943 43.6211 37.6835 43.5244 37.6814 43.4274C37.7294 42.6457 37.4988 41.8723 37.0304 41.2446C36.7978 40.9808 36.5077 40.7736 36.1829 40.6387C35.8581 40.5039 35.5068 40.4452 35.1557 40.4667C34.8073 40.4646 34.4626 40.5343 34.1423 40.6714C33.8219 40.8085 33.533 41.0102 33.2939 41.2637C33.0572 41.5178 32.8726 41.8161 32.751 42.1414C32.6171 42.4962 32.5511 42.8727 32.5552 43.2518C32.5603 43.4522 32.5391 43.6524 32.4923 43.8473C32.4616 43.9791 32.4037 44.1031 32.3224 44.2113C32.2591 44.2933 32.1731 44.3546 32.075 44.3877C31.9851 44.4159 31.8906 44.4304 31.7963 44.4306H31.3016C31.269 44.4305 31.2364 44.4351 31.205 44.4439H30.2906C29.9958 44.4497 29.7008 44.4369 29.4076 44.4058C29.8616 44.013 30.2313 43.532 30.4936 42.992C30.6637 42.6185 30.7579 42.215 30.7707 41.8049C30.7649 41.6293 30.7121 41.4584 30.6185 41.3098C30.5031 41.1206 30.3479 40.9589 30.1633 40.8363C29.9282 40.6774 29.6679 40.56 29.3931 40.4891C29.0305 40.3945 28.6561 40.3497 28.2813 40.3562C28.0016 40.3563 27.7227 40.3858 27.4491 40.4444C27.1719 40.5027 26.8994 40.5827 26.6347 40.6837C26.3753 40.7821 26.1237 40.9002 25.8822 41.0367C25.6604 41.1625 25.4497 41.3062 25.2514 41.4665L25.3038 42.4764C25.3531 42.6109 25.4158 42.74 25.4915 42.8617C25.585 43.0173 25.6953 43.1822 25.8218 43.3565C25.948 43.5289 26.0865 43.703 26.2391 43.8804C26.3825 44.0479 26.534 44.2082 26.6935 44.3605C26.573 44.3887 26.4507 44.4096 26.3277 44.4232C26.1633 44.441 25.9984 44.4496 25.8331 44.4487H23.7505V36.8732H22.3101V45.9132H25.8339C26.2059 45.912 26.5765 45.8696 26.9392 45.7869C27.3051 45.7061 27.6562 45.5697 27.9808 45.3827C28.2572 45.5317 28.5496 45.6501 28.8517 45.7357C29.3123 45.8643 29.7892 45.9239 30.2672 45.9124H31.8704C32.1376 45.9147 32.3978 45.8299 32.6124 45.6707C32.8284 45.5118 33.0019 45.3016 33.1167 45.0592C33.3238 45.3336 33.5884 45.559 33.8925 45.7192C34.263 45.9015 34.6731 45.9891 35.0857 45.9742C35.2886 45.9742 35.4847 45.9659 35.6794 45.9486C35.8692 45.9324 36.0568 45.8917 36.2361 45.8274C36.4239 45.7572 36.5986 45.6562 36.7533 45.5287C36.9425 45.3688 37.1047 45.1794 37.2334 44.9678C37.3679 45.2544 37.5818 45.4959 37.8506 45.6632C38.1193 45.8305 38.4315 45.9164 38.748 45.9105H42.0825V36.865H40.6557V44.4413ZM29.2916 42.4961C29.2164 42.6615 29.1224 42.818 29.0129 42.963C28.8878 43.1321 28.7465 43.2887 28.5907 43.43C28.5637 43.5428 28.4993 43.643 28.4078 43.7142C28.3164 43.7855 28.2031 43.8235 28.0872 43.8222C27.9713 43.8208 27.8595 43.7801 27.7698 43.7068C27.68 43.6334 27.6178 43.5317 27.5933 43.4183C27.4377 43.2578 27.292 43.0929 27.1567 42.9235C27.0214 42.7585 26.91 42.5983 26.8159 42.4556C26.7458 42.3499 26.6823 42.2397 26.6266 42.1257C26.8624 41.9921 27.1176 41.8964 27.3831 41.8419C27.6735 41.7732 27.9708 41.7371 28.2693 41.7346C28.4037 41.7346 28.5353 41.7413 28.6664 41.7537C28.7872 41.7647 28.9075 41.7836 29.0257 41.8105C29.1199 41.8296 29.2099 41.8661 29.2908 41.9179C29.3207 41.9354 29.3457 41.9603 29.3633 41.9902C29.3809 42.0201 29.3898 42.054 29.3907 42.0887C29.3863 42.2299 29.3525 42.3686 29.2916 42.4961ZM36.0282 44.146C35.789 44.3758 35.4697 44.5041 35.138 44.5041C34.8063 44.5041 34.4878 44.3758 34.2486 44.146C34.0541 43.8926 33.954 43.5794 33.965 43.26C33.9623 43.0593 33.9933 42.8595 34.0577 42.6693C34.1146 42.5049 34.2005 42.352 34.3106 42.2174C34.4106 42.0953 34.5361 41.9969 34.6788 41.9295C34.8215 41.8622 34.9778 41.8275 35.1356 41.8278C35.2886 41.8282 35.439 41.8627 35.5771 41.9285C35.721 41.996 35.848 42.095 35.9485 42.2182C36.0587 42.3539 36.1465 42.5064 36.2079 42.6701C36.2768 42.8593 36.3109 43.0595 36.3086 43.2608C36.3194 43.5795 36.221 43.8921 36.0282 44.146Z" fill="white"/>
<path d="M45.5793 36.865H44.1521V45.9057H45.5793V36.865Z" fill="white"/>
</g>
</g>
</g>
<defs>
<clipPath id="clip0_14_102">
<rect width="129.22" height="54" fill="white" transform="translate(0.780029)"/>
</clipPath>
<clipPath id="clip1_14_102">
<rect width="129.22" height="54" fill="white" transform="translate(0.780029)"/>
</clipPath>
<clipPath id="clip2_14_102">
<rect width="129.22" height="45.2457" fill="white" transform="translate(0.780029 4.3772)"/>
</clipPath>
</defs>
</svg>
