<svg width="24" height="22" viewBox="0 0 24 22" fill="none" xmlns="http://www.w3.org/2000/svg">
<g clip-path="url(#clip0_1_283)">
<g clip-path="url(#clip1_1_283)">
<g clip-path="url(#clip2_1_283)">
<path d="M5.03435 2.04494C4.2137 2.04592 3.42695 2.37235 2.84667 2.95263C2.26639 3.53291 1.93996 4.31966 1.93898 5.1403V16.7493C1.9398 17.5702 2.26624 18.3572 2.84667 18.9376C3.42711 19.518 4.21411 19.8445 5.03496 19.8453H18.965C19.7859 19.8445 20.5729 19.518 21.1533 18.9376C21.7337 18.3572 22.0602 17.5702 22.061 16.7493V5.1403C22.0602 4.31945 21.7337 3.53245 21.1533 2.95202C20.5729 2.37158 19.7859 2.04514 18.965 2.04432L5.03435 2.04494ZM5.03435 0.110107H18.965C19.6256 0.110107 20.2797 0.240217 20.89 0.493008C21.5003 0.745799 22.0548 1.11632 22.5219 1.58342C22.989 2.05051 23.3595 2.60504 23.6123 3.21533C23.8651 3.82562 23.9952 4.47973 23.9952 5.1403V16.7493C23.9952 18.0834 23.4652 19.3628 22.5219 20.3062C21.5786 21.2495 20.2991 21.7795 18.965 21.7795H5.03435C3.70025 21.7795 2.4208 21.2495 1.47746 20.3062C0.534116 19.3628 0.00415039 18.0834 0.00415039 16.7493L0.00415039 5.1403C0.00415039 3.80621 0.534116 2.52676 1.47746 1.58342C2.4208 0.640073 3.70025 0.110107 5.03435 0.110107Z" fill="#02A4AC"/>
<mask id="mask0_1_283" style="mask-type:luminance" maskUnits="userSpaceOnUse" x="5" y="6" width="14" height="10">
<path d="M18.6521 6.41797H5.34729V15.4724H18.6521V6.41797Z" fill="white"/>
</mask>
<g mask="url(#mask0_1_283)">
<path d="M8.28126 6.41746H9.84404H10.3756C10.5763 6.4128 10.7715 6.4837 10.9224 6.61612C11.0733 6.74853 11.169 6.9328 11.1904 7.13242C11.2119 7.33203 11.1576 7.53242 11.0383 7.69389C10.919 7.85536 10.7434 7.96613 10.5463 8.00425C10.4596 8.01427 10.3723 8.01839 10.2851 8.01657H7.13367C6.96119 8.01657 6.96058 8.01657 6.96058 8.19028C6.96058 8.79272 6.96058 9.39516 6.96058 9.9976C6.96058 10.1122 6.99446 10.1473 7.10965 10.1467C8.11063 10.143 9.11162 10.1467 10.1132 10.1467C10.2682 10.1387 10.422 10.1769 10.5552 10.2565C10.6883 10.3362 10.7948 10.4536 10.861 10.5939C10.9191 10.7117 10.9471 10.8421 10.9426 10.9734C10.938 11.1047 10.901 11.2328 10.8349 11.3463C10.7688 11.4598 10.6756 11.5552 10.5636 11.6239C10.4517 11.6927 10.3245 11.7326 10.1933 11.7402C10.1317 11.7439 10.0701 11.7402 10.0085 11.7402H7.12751C6.95996 11.7402 6.95934 11.7402 6.95934 11.9029C6.95934 12.5012 6.95934 13.0993 6.95934 13.6973C6.95934 13.8673 6.95934 13.8679 7.13552 13.8679C8.12419 13.8679 9.11285 13.8679 10.1015 13.8679C10.2413 13.8597 10.3807 13.8891 10.5053 13.953C10.6298 14.0169 10.735 14.113 10.8099 14.2313C10.887 14.3492 10.9315 14.4853 10.9389 14.626C10.9462 14.7666 10.9161 14.9067 10.8517 15.0319C10.7873 15.1571 10.6908 15.263 10.5721 15.3388C10.4534 15.4146 10.3168 15.4575 10.1761 15.4633C10.1182 15.467 10.0596 15.4633 10.0017 15.4633C8.83011 15.4633 7.6587 15.4633 6.48749 15.4633C6.30617 15.4728 6.12436 15.4621 5.94542 15.4313C5.76883 15.387 5.61293 15.2832 5.50406 15.1373C5.3952 14.9914 5.34004 14.8124 5.34791 14.6305C5.35345 14.1531 5.36084 13.6751 5.36023 13.1977C5.35838 12.4542 5.34729 11.7051 5.34729 10.9579C5.34729 9.72595 5.36084 8.49089 5.35776 7.25705C5.35514 7.14477 5.37558 7.03314 5.41782 6.92906C5.46006 6.82499 5.5232 6.73069 5.60334 6.652C5.68348 6.5733 5.77891 6.51188 5.88373 6.47154C5.98856 6.4312 6.10054 6.41279 6.21276 6.41746H8.28126Z" fill="#DBDBDB"/>
<path d="M13.8775 8.42371C13.9391 8.39722 13.9772 8.38367 14.013 8.3658C14.5011 8.1173 15.0449 7.99863 15.5922 8.02122C16.1395 8.04381 16.6717 8.20689 17.1377 8.49477C17.6037 8.78264 17.9877 9.18563 18.2528 9.66492C18.5179 10.1442 18.6552 10.6837 18.6514 11.2314C18.6514 12.3617 18.6514 13.4915 18.6514 14.6194C18.6635 14.8078 18.6077 14.9944 18.494 15.1452C18.3803 15.2959 18.2162 15.4009 18.0317 15.4411C17.9115 15.4681 17.7867 15.4671 17.667 15.438C17.5473 15.4089 17.4358 15.3526 17.3414 15.2735C17.247 15.1943 17.1722 15.0945 17.1226 14.9817C17.0731 14.8688 17.0503 14.7461 17.056 14.6231C17.0511 13.9498 17.056 13.2771 17.056 12.6038C17.056 12.1388 17.0523 11.6731 17.056 11.208C17.0573 10.8276 16.9219 10.4594 16.6746 10.1704C16.4273 9.8814 16.0844 9.69083 15.7084 9.63337C15.3323 9.57591 14.9482 9.65539 14.6258 9.85733C14.3035 10.0593 14.0644 10.3703 13.952 10.7337C13.9048 10.9226 13.8829 11.1168 13.8867 11.3115C13.8805 12.4042 13.8867 13.497 13.8836 14.5898C13.8953 14.7547 13.857 14.9192 13.7739 15.0621C13.6907 15.2049 13.5665 15.3194 13.4173 15.3906C13.3126 15.4403 13.1982 15.4668 13.0823 15.468C12.9663 15.4692 12.8515 15.4453 12.7457 15.3978C12.6399 15.3503 12.5457 15.2803 12.4696 15.1928C12.3934 15.1053 12.3372 15.0024 12.3048 14.891C12.2798 14.808 12.2657 14.722 12.2629 14.6354C12.2629 12.5369 12.2656 10.4386 12.2709 8.34055C12.2633 8.22386 12.2813 8.10692 12.3238 7.99795C12.3662 7.88898 12.4319 7.79061 12.5164 7.70977C12.6009 7.62892 12.702 7.56756 12.8128 7.53C12.9235 7.49243 13.0411 7.47957 13.1574 7.49232C13.3385 7.51085 13.5076 7.59155 13.636 7.7207C13.7643 7.84984 13.844 8.01947 13.8614 8.20072C13.867 8.26601 13.8725 8.33069 13.8805 8.42186" fill="#DBDBDB"/>
</g>
</g>
</g>
</g>
<defs>
<clipPath id="clip0_1_283">
<rect width="24" height="21.67" fill="white" transform="translate(0 0.110107)"/>
</clipPath>
<clipPath id="clip1_1_283">
<rect width="24" height="21.67" fill="white" transform="translate(0 0.110107)"/>
</clipPath>
<clipPath id="clip2_1_283">
<rect width="23.9917" height="21.67" fill="white" transform="translate(0.00415039 0.110107)"/>
</clipPath>
</defs>
</svg>
