<svg width="39" height="39" viewBox="0 0 39 39" fill="none" xmlns="http://www.w3.org/2000/svg">
<g clip-path="url(#clip0_1_268)">
<g clip-path="url(#clip1_1_268)">
<g clip-path="url(#clip2_1_268)">
<path d="M1.77637 18.6472C1.77637 11.8907 1.77637 8.51246 3.8095 6.41346C5.84263 4.31445 9.12328 4.31445 15.6748 4.31445H22.6241C29.1764 4.31445 32.4522 4.31445 34.4878 6.41346C36.5234 8.51246 36.5209 11.8907 36.5209 18.6472V22.2304C36.5209 28.9869 36.5209 32.3651 34.4878 34.4641C32.4547 36.5631 29.1764 36.5631 22.6249 36.5631H15.6748C9.12328 36.5631 5.84669 36.5631 3.81194 34.4641C1.77718 32.3651 1.77637 28.9877 1.77637 22.2304V18.6472Z" stroke="#02A4AC" stroke-width="3.25301"/>
<path d="M10.4626 4.31044V1.62671" stroke="#02A4AC" stroke-width="3.25301" stroke-linecap="round"/>
<path d="M27.8362 4.31044V1.62671" stroke="#02A4AC" stroke-width="3.25301" stroke-linecap="round"/>
<path d="M10.4594 24.5174C10.9899 24.5174 11.5084 24.3601 11.9496 24.0656C12.3908 23.771 12.7348 23.3523 12.9381 22.8623C13.1415 22.3724 13.195 21.8331 13.0921 21.3128C12.9891 20.7924 12.7342 20.3142 12.3596 19.9385C11.985 19.5629 11.5075 19.3067 10.9874 19.2024C10.4673 19.098 9.92793 19.1501 9.43742 19.3521C8.9469 19.5541 8.52726 19.8969 8.23149 20.3373C7.93572 20.7777 7.77709 21.2958 7.77564 21.8263C7.77468 22.1794 7.84339 22.5291 7.97783 22.8556C8.11227 23.182 8.3098 23.4787 8.5591 23.7287C8.8084 23.9787 9.10458 24.1771 9.43066 24.3124C9.75675 24.4477 10.1063 24.5174 10.4594 24.5174Z" stroke="#DBDBDB" stroke-width="3.25301"/>
<path d="M2.67261 13.2725H35.628" stroke="#02A4AC" stroke-width="3.25301" stroke-linecap="round"/>
<path d="M28.2193 22.8266H22.5721C22.5071 22.8258 22.4429 22.8123 22.3832 22.7867C22.3235 22.7611 22.2694 22.7239 22.2241 22.6774C22.1788 22.6308 22.1431 22.5758 22.1191 22.5154C22.095 22.4551 22.0832 22.3906 22.0841 22.3256C22.0822 22.1975 22.03 22.0752 21.9387 21.9853C21.8474 21.8954 21.7243 21.845 21.5962 21.845H20.4072C20.2778 21.845 20.1537 21.8964 20.0622 21.9879C19.9707 22.0794 19.9193 22.2035 19.9193 22.3329V28.6023C19.9193 28.7317 19.8679 28.8558 19.7763 28.9473C19.6848 29.0388 19.5607 29.0902 19.4313 29.0902H18.1976C18.1335 29.0902 18.0701 29.0776 18.0109 29.0531C17.9517 29.0286 17.8979 28.9926 17.8526 28.9473C17.8073 28.902 17.7713 28.8482 17.7468 28.789C17.7223 28.7298 17.7097 28.6664 17.7097 28.6023V25.8096C17.7097 25.7455 17.697 25.682 17.6725 25.6228C17.648 25.5636 17.6121 25.5098 17.5667 25.4645C17.5214 25.4192 17.4676 25.3833 17.4084 25.3588C17.3492 25.3342 17.2858 25.3216 17.2217 25.3216H15.9506C15.8865 25.3216 15.8231 25.3342 15.7639 25.3588C15.7047 25.3833 15.6509 25.4192 15.6056 25.4645C15.5603 25.5098 15.5243 25.5636 15.4998 25.6228C15.4753 25.682 15.4626 25.7455 15.4626 25.8096V30.7379C15.4626 30.8673 15.5141 30.9914 15.6056 31.0829C15.6971 31.1744 15.8212 31.2258 15.9506 31.2258H21.5962C21.7256 31.2258 21.8497 31.1744 21.9412 31.0829C22.0327 30.9914 22.0841 30.8673 22.0841 30.7379V29.2846C22.0841 29.1552 22.1355 29.0311 22.2271 28.9396C22.3186 28.8481 22.4427 28.7966 22.5721 28.7966H28.9968C29.1262 28.7966 29.2503 28.7452 29.3418 28.6537C29.4333 28.5622 29.4847 28.4381 29.4847 28.3087V24.0961C29.4847 23.7589 29.3508 23.4356 29.1124 23.1972C28.8741 22.9589 28.5507 22.8249 28.2136 22.8249M27.9176 26.6001C27.8062 26.6772 27.6733 26.7173 27.5378 26.7147H22.4688C22.4246 26.7147 22.3822 26.6972 22.3509 26.6659C22.3197 26.6346 22.3021 26.5922 22.3021 26.548V25.6616C22.3021 25.6173 22.3197 25.5749 22.3509 25.5437C22.3822 25.5124 22.4246 25.4948 22.4688 25.4948H27.5427C27.6783 25.4922 27.8114 25.532 27.9233 25.6087C28.0025 25.6649 28.0671 25.7393 28.1117 25.8256C28.1563 25.9119 28.1795 26.0076 28.1795 26.1048C28.1795 26.2019 28.1563 26.2977 28.1117 26.384C28.0671 26.4703 28.0025 26.5446 27.9233 26.6009" fill="#02A4AC"/>
</g>
</g>
</g>
<defs>
<clipPath id="clip0_1_268">
<rect width="38" height="38.19" fill="white" transform="translate(0.149902)"/>
</clipPath>
<clipPath id="clip1_1_268">
<rect width="38" height="38.19" fill="white" transform="translate(0.149902)"/>
</clipPath>
<clipPath id="clip2_1_268">
<rect width="38" height="38.1895" fill="white" transform="translate(0.149902 0.000244141)"/>
</clipPath>
</defs>
</svg>
