<svg width="38" height="38" viewBox="0 0 38 38" fill="none" xmlns="http://www.w3.org/2000/svg">
<g clip-path="url(#clip0_1_298)">
<g clip-path="url(#clip1_1_298)">
<g clip-path="url(#clip2_1_298)">
<path d="M19 28.1348V16.4116" stroke="#DBDBDB" stroke-width="3.37358" stroke-linecap="round"/>
<path d="M18.9999 10.2202C19.3863 10.2202 19.7639 10.3348 20.0851 10.5494C20.4063 10.764 20.6567 11.0691 20.8045 11.426C20.9524 11.7829 20.9911 12.1757 20.9157 12.5546C20.8403 12.9335 20.6543 13.2815 20.3811 13.5547C20.108 13.8279 19.7599 14.0139 19.381 14.0893C19.0021 14.1647 18.6094 14.126 18.2524 13.9781C17.8955 13.8303 17.5905 13.5799 17.3758 13.2587C17.1612 12.9375 17.0466 12.5598 17.0466 12.1735C17.0466 11.6555 17.2524 11.1586 17.6187 10.7923C17.9851 10.426 18.4819 10.2202 18.9999 10.2202Z" fill="#DBDBDB"/>
<path d="M1.68677 19C1.68677 10.8384 1.68677 6.75726 4.22201 4.22201C6.75726 1.68677 10.8384 1.68677 19 1.68677C27.1615 1.68677 31.2419 1.68677 33.7771 4.22201C36.3123 6.75726 36.3123 10.8384 36.3123 19C36.3123 27.1615 36.3123 31.2419 33.7771 33.7771C31.2419 36.3123 27.1573 36.3123 19 36.3123C10.8427 36.3123 6.7581 36.3123 4.22201 33.7771C1.68592 31.2419 1.68677 27.1573 1.68677 19Z" stroke="#02A4AC" stroke-width="3.37358"/>
</g>
</g>
</g>
<defs>
<clipPath id="clip0_1_298">
<rect width="38" height="38" fill="white"/>
</clipPath>
<clipPath id="clip1_1_298">
<rect width="38" height="38" fill="white"/>
</clipPath>
<clipPath id="clip2_1_298">
<rect width="38" height="38" fill="white"/>
</clipPath>
</defs>
</svg>
