<svg width="166" height="46" viewBox="0 0 166 46" fill="none" xmlns="http://www.w3.org/2000/svg">
<g clip-path="url(#clip0_14_18)">
<g clip-path="url(#clip1_14_18)">
<g clip-path="url(#clip2_14_18)">
<path d="M1.91977 37.3859L0.663137 38.9906H0.645504V37.3869H0.019043V40.9136H0.645504V39.8844L1.15317 39.2542L2.10725 40.9136H2.79867L1.52905 38.7614L2.61491 37.385L1.91977 37.3859Z" fill="white"/>
<path d="M3.80944 38.2639H3.18762V40.9145H3.80944V38.2639Z" fill="white"/>
<mask id="mask0_14_18" style="mask-type:luminance" maskUnits="userSpaceOnUse" x="0" y="0" width="166" height="46">
<path d="M165.22 0.501709H0.0200195V45.4983H165.22V0.501709Z" fill="white"/>
</mask>
<g mask="url(#mask0_14_18)">
<path d="M3.50217 37.0964C3.43378 37.1023 3.36859 37.1281 3.31457 37.1704C3.26056 37.2128 3.22004 37.27 3.19797 37.335C3.1759 37.4 3.17323 37.47 3.19029 37.5365C3.20735 37.603 3.24339 37.6631 3.29403 37.7095C3.34467 37.7558 3.40771 37.7864 3.47546 37.7976C3.5432 37.8087 3.61272 37.7999 3.67553 37.7722C3.73834 37.7445 3.79173 37.6991 3.82918 37.6415C3.86662 37.584 3.88651 37.5168 3.8864 37.4481C3.88605 37.3992 3.87562 37.3509 3.85576 37.3063C3.8359 37.2616 3.80703 37.2215 3.77097 37.1885C3.73491 37.1555 3.69243 37.1302 3.64618 37.1144C3.59993 37.0985 3.5509 37.0924 3.50217 37.0964Z" fill="white"/>
<path d="M6.04611 38.1998C5.88003 38.2083 5.71736 38.2501 5.5678 38.3228C5.41824 38.3955 5.28484 38.4976 5.17556 38.623H5.15793L5.10967 38.2647H4.60107V40.9153H5.2229V39.0592C5.29433 38.9643 5.38517 38.8858 5.48936 38.8288C5.59354 38.7718 5.70868 38.7377 5.82708 38.7288C6.11386 38.7288 6.24008 38.8931 6.24008 39.3293V40.907H6.86097V39.2448C6.86097 38.5756 6.61224 38.1914 6.04518 38.1914" fill="white"/>
<path d="M8.98902 40.4988H8.51848C8.19643 40.4988 8.08877 40.406 8.08877 40.2593C8.08803 40.2098 8.09939 40.1608 8.12187 40.1167C8.14436 40.0725 8.17728 40.0345 8.21778 40.006C8.33204 40.0505 8.45339 40.0741 8.57602 40.0756C8.70323 40.0904 8.83215 40.0781 8.95423 40.0394C9.07631 40.0006 9.18877 39.9364 9.28416 39.851C9.37955 39.7655 9.45568 39.6607 9.50752 39.5436C9.55936 39.4265 9.58572 39.2997 9.58485 39.1716C9.58729 39.0104 9.53383 38.8533 9.43357 38.7271H9.91711V38.263H8.9686C8.84205 38.2193 8.70899 38.1973 8.57509 38.198C8.44273 38.1868 8.30947 38.203 8.18365 38.2456C8.05784 38.2882 7.94218 38.3564 7.84391 38.4458C7.74564 38.5351 7.66688 38.6439 7.61256 38.7651C7.55823 38.8863 7.52952 39.0174 7.52821 39.1503C7.52881 39.286 7.5607 39.4197 7.62138 39.541C7.68206 39.6624 7.76991 39.7681 7.8781 39.85V39.8714C7.79408 39.9253 7.72382 39.9981 7.6729 40.084C7.62199 40.1699 7.59183 40.2665 7.58482 40.3661C7.58234 40.4544 7.60316 40.5418 7.6452 40.6195C7.68723 40.6972 7.74899 40.7625 7.82427 40.8088V40.8301C7.71611 40.8819 7.62368 40.9616 7.55648 41.0609C7.48928 41.1602 7.44973 41.2757 7.44189 41.3953C7.44189 41.8594 7.91243 42.0858 8.54539 42.0858C9.4113 42.0858 9.9598 41.6738 9.9598 41.1512C9.9598 40.6937 9.62291 40.5016 8.98902 40.5016M8.57602 38.6324C8.64212 38.6319 8.70756 38.6455 8.76797 38.6723C8.82838 38.6991 8.88236 38.7386 8.9263 38.788C8.97024 38.8373 9.00311 38.8956 9.02273 38.9587C9.04235 39.0218 9.04826 39.0884 9.04007 39.154C9.04893 39.2196 9.04365 39.2863 9.0246 39.3497C9.00555 39.413 8.97315 39.4716 8.9296 39.5215C8.88604 39.5713 8.83233 39.6112 8.77207 39.6386C8.7118 39.666 8.64638 39.6801 8.5802 39.6801C8.51401 39.6801 8.44859 39.666 8.38832 39.6386C8.32806 39.6112 8.27435 39.5713 8.23079 39.5215C8.18723 39.4716 8.15485 39.413 8.1358 39.3497C8.11674 39.2863 8.11147 39.2196 8.12033 39.154C8.11213 39.0884 8.11804 39.0218 8.13766 38.9587C8.15728 38.8956 8.19015 38.8373 8.23409 38.788C8.27803 38.7386 8.33201 38.6991 8.39242 38.6723C8.45283 38.6455 8.51828 38.6319 8.58438 38.6324M8.64934 41.6867C8.23263 41.6867 7.97369 41.5466 7.97369 41.3044C7.97737 41.234 7.99792 41.1656 8.03362 41.1048C8.06932 41.0441 8.11912 40.9928 8.1788 40.9554C8.29625 40.9823 8.41659 40.9944 8.53704 40.9916H8.88971C9.1932 40.9916 9.35376 41.0519 9.35376 41.257C9.35376 41.4853 9.06234 41.6867 8.63449 41.6867" fill="white"/>
<path d="M13.146 38.9786L12.6699 38.779C12.3775 38.6593 12.113 38.5563 12.113 38.2797C12.113 38.0217 12.3302 37.8648 12.6699 37.8648C12.9544 37.8663 13.228 37.9747 13.4365 38.1684L13.7576 37.7711C13.4685 37.4836 13.0776 37.3218 12.6699 37.321C12.5261 37.3057 12.3808 37.3195 12.2425 37.3617C12.1043 37.404 11.976 37.4736 11.8653 37.5666C11.7546 37.6596 11.6639 37.774 11.5985 37.9029C11.5331 38.0318 11.4944 38.1726 11.4847 38.3168C11.4914 38.5277 11.5638 38.7312 11.6917 38.8989C11.8197 39.0666 11.9968 39.1902 12.1984 39.2524L12.681 39.4612C13.0012 39.5976 13.2295 39.6904 13.2295 39.9809C13.2295 40.2593 13.0114 40.4357 12.6142 40.4357C12.2683 40.4207 11.9404 40.2775 11.6944 40.0338L11.3297 40.4635C11.6697 40.7953 12.1261 40.9809 12.6012 40.9805C12.7542 41.0005 12.9097 40.9887 13.058 40.946C13.2063 40.9032 13.3442 40.8304 13.463 40.732C13.5819 40.6336 13.6792 40.5117 13.7489 40.374C13.8186 40.2363 13.8591 40.0858 13.868 39.9317C13.8703 39.7166 13.8017 39.5067 13.6726 39.3346C13.5436 39.1624 13.3614 39.0377 13.1543 38.9795" fill="white"/>
<path d="M15.4987 38.1997C15.1107 38.2109 14.7337 38.3312 14.4109 38.5468L14.6402 38.9617C14.8591 38.8081 15.1159 38.7176 15.3826 38.6999C15.7409 38.6999 15.856 38.9376 15.8643 39.2225C14.7766 39.3385 14.3061 39.6345 14.3061 40.2016C14.301 40.3056 14.3178 40.4094 14.3554 40.5065C14.393 40.6035 14.4506 40.6916 14.5245 40.7649C14.5984 40.8383 14.6868 40.8953 14.7841 40.9322C14.8815 40.9691 14.9855 40.9852 15.0894 40.9794C15.3977 40.963 15.6897 40.8357 15.9117 40.6211H15.9293L15.9766 40.9153H16.4862V39.3459C16.4862 38.6034 16.1595 38.1997 15.4968 38.1997M15.868 40.2053C15.7957 40.2889 15.7075 40.3572 15.6086 40.4065C15.5097 40.4557 15.402 40.4848 15.2917 40.4921C15.069 40.4921 14.9093 40.3891 14.9093 40.1552C14.9093 39.8879 15.1488 39.7004 15.8671 39.6095L15.868 40.2053Z" fill="white"/>
<path d="M17.9916 40.4727C17.9266 40.4727 17.8579 40.4189 17.8579 40.2657V37.1028H17.2361V40.2332C17.2361 40.6973 17.3976 40.9757 17.8384 40.9757C17.95 40.9787 18.0612 40.9605 18.166 40.9219L18.089 40.4578C18.0587 40.4655 18.0275 40.4693 17.9962 40.469" fill="white"/>
<path d="M21.8663 39.333V40.9108H22.4882V39.2486C22.4882 38.5794 22.2292 38.1952 21.6696 38.1952C21.5021 38.2102 21.3396 38.2603 21.1926 38.3422C21.0457 38.424 20.9176 38.5358 20.8167 38.6703C20.7643 38.5215 20.6642 38.3942 20.5319 38.3083C20.3996 38.2223 20.2426 38.1825 20.0853 38.1952C19.9275 38.2059 19.7737 38.2493 19.6336 38.3226C19.4935 38.3959 19.3701 38.4976 19.2714 38.6212H19.2547L19.2064 38.2601H18.6969V40.9108H19.3187V39.0546C19.3845 38.9649 19.4678 38.8894 19.5635 38.8326C19.6592 38.7758 19.7653 38.739 19.8756 38.7242C20.154 38.7242 20.2839 38.8885 20.2839 39.3247V40.9024H20.9058V39.0462C20.9712 38.9562 21.0544 38.8804 21.1501 38.8236C21.2459 38.7668 21.3522 38.7301 21.4626 38.7158C21.741 38.7158 21.871 38.8801 21.871 39.3163" fill="white"/>
<path d="M23.1044 40.2026C23.0993 40.3065 23.1161 40.4104 23.1537 40.5075C23.1914 40.6045 23.249 40.6926 23.3228 40.7659C23.3967 40.8392 23.4852 40.8962 23.5825 40.9332C23.6798 40.9701 23.7838 40.9862 23.8877 40.9803C24.196 40.9639 24.488 40.8367 24.71 40.6221H24.7276L24.775 40.9163H25.2845V39.346C25.2845 38.6081 24.9578 38.2007 24.2951 38.2007C23.9072 38.2119 23.5302 38.3322 23.2074 38.5478L23.4367 38.9617C23.6557 38.8087 23.9125 38.7185 24.1791 38.7009C24.5374 38.7009 24.6524 38.9385 24.6608 39.2234C23.5731 39.3404 23.1025 39.6355 23.1025 40.2035M24.6608 39.6095V40.2054C24.5885 40.2889 24.5003 40.3573 24.4014 40.4065C24.3024 40.4557 24.1947 40.4848 24.0845 40.4921C23.8617 40.4921 23.7021 40.3891 23.7021 40.1553C23.7021 39.888 23.9425 39.6996 24.6608 39.6095Z" fill="white"/>
<path d="M27.4757 38.1998C27.3096 38.2083 27.1469 38.2501 26.9974 38.3228C26.8478 38.3955 26.7144 38.4976 26.6051 38.623H26.5884L26.5402 38.2647H26.0306V40.9153H26.6525V39.0592C26.7239 38.9643 26.8148 38.8858 26.9189 38.8288C27.0231 38.7718 27.1383 38.7377 27.2567 38.7288C27.5434 38.7288 27.6697 38.8931 27.6697 39.3293V40.907H28.2905V39.2448C28.2905 38.5756 28.0418 38.1914 27.4747 38.1914" fill="white"/>
<path d="M31.6632 40.9804C32.0788 40.9922 32.4828 40.8421 32.7899 40.5619V39.0055H31.5639V39.5196H32.2293V40.2816C32.0843 40.3893 31.9068 40.444 31.7263 40.4366C31.0182 40.4366 30.6451 39.9493 30.6451 39.1438C30.6451 38.3382 31.0655 37.8658 31.692 37.8658C31.8254 37.8642 31.9578 37.8906 32.0804 37.9434C32.203 37.9961 32.3132 38.074 32.4038 38.172L32.7388 37.7683C32.601 37.6248 32.4351 37.5111 32.2515 37.4343C32.068 37.3576 31.8705 37.3193 31.6715 37.3219C31.437 37.3207 31.2049 37.3688 30.9902 37.4633C30.7755 37.5577 30.5831 37.6963 30.4256 37.87C30.268 38.0436 30.1487 38.2486 30.0756 38.4714C30.0024 38.6942 29.977 38.9299 30.001 39.1632C29.9742 39.3952 29.9975 39.6303 30.0694 39.8525C30.1413 40.0747 30.26 40.2789 30.4176 40.4512C30.5752 40.6236 30.768 40.7601 30.9828 40.8516C31.1977 40.943 31.4297 40.9873 31.6632 40.9814" fill="white"/>
<path d="M34.1235 40.9804C34.2351 40.9835 34.3464 40.9652 34.4512 40.9265L34.3732 40.4625C34.3428 40.4698 34.3116 40.4732 34.2804 40.4727C34.2154 40.4727 34.1467 40.4189 34.1467 40.2657V37.1028H33.5249V40.2332C33.5249 40.6973 33.6873 40.9757 34.1272 40.9757" fill="white"/>
<path d="M36.0706 40.9803C36.3513 41.0077 36.6336 40.9495 36.8805 40.8133C37.1274 40.6772 37.3274 40.4695 37.454 40.2176C37.5807 39.9657 37.6282 39.6814 37.5902 39.402C37.5522 39.1226 37.4306 38.8613 37.2413 38.6523C37.0519 38.4434 36.8038 38.2966 36.5296 38.2313C36.2553 38.166 35.9676 38.1853 35.7045 38.2865C35.4413 38.3878 35.215 38.5664 35.0553 38.7987C34.8955 39.031 34.8098 39.3062 34.8094 39.5882C34.7943 39.7638 34.8156 39.9407 34.8719 40.1077C34.9283 40.2747 35.0184 40.4284 35.1368 40.559C35.2551 40.6896 35.3992 40.7945 35.5598 40.8669C35.7205 40.9394 35.8944 40.978 36.0706 40.9803ZM36.0706 38.7074C36.4586 38.7074 36.6925 39.061 36.6925 39.5928C36.6925 40.1246 36.4595 40.4736 36.0706 40.4736C35.6818 40.4736 35.4488 40.1237 35.4488 39.5928C35.4488 39.062 35.6827 38.7074 36.0706 38.7074Z" fill="white"/>
<path d="M38.4587 40.637H38.4754C38.6626 40.841 38.9219 40.9641 39.1983 40.9804C39.7886 40.9804 40.3306 40.455 40.3306 39.5455C40.3306 38.7306 39.9473 38.1998 39.2847 38.1998C38.9983 38.2154 38.7268 38.3325 38.519 38.5302L38.5366 38.0893V37.1028H37.9148V40.9154H38.4048L38.4587 40.637ZM38.5366 39.0109C38.6082 38.9251 38.6962 38.8546 38.7955 38.8034C38.8948 38.7522 39.0034 38.7215 39.1148 38.713C39.5185 38.713 39.6921 39.0258 39.6921 39.5548C39.6921 40.1553 39.422 40.4662 39.0684 40.4662C38.8707 40.4594 38.6821 40.3813 38.5376 40.2462L38.5366 39.0109Z" fill="white"/>
<path d="M42.3511 40.6184H42.3678L42.416 40.9116H42.9256V39.3423C42.9256 38.5998 42.5989 38.196 41.9362 38.196C41.5482 38.2072 41.1712 38.3275 40.8485 38.5432L41.0768 38.958C41.2959 38.805 41.5526 38.7148 41.8193 38.6972C42.1775 38.6972 42.2917 38.9348 42.3 39.2197C41.2123 39.3367 40.7417 39.6318 40.7417 40.1998C40.7366 40.3038 40.7535 40.4078 40.7912 40.5049C40.8289 40.602 40.8865 40.6901 40.9605 40.7635C41.0345 40.8368 41.1231 40.8938 41.2205 40.9307C41.3179 40.9676 41.422 40.9835 41.526 40.9775C41.8342 40.9609 42.1262 40.8337 42.3483 40.6193M41.3422 40.1553C41.3422 39.888 41.5817 39.7005 42.3 39.6086V40.2044C42.2278 40.2879 42.1398 40.3562 42.041 40.4054C41.9422 40.4546 41.8347 40.4838 41.7246 40.4912C41.5019 40.4912 41.3422 40.3891 41.3422 40.1543" fill="white"/>
<path d="M44.4281 40.4727C44.3631 40.4727 44.2944 40.4189 44.2944 40.2657V37.1028H43.6726V40.2332C43.6726 40.6973 43.8341 40.9757 44.275 40.9757C44.3866 40.9787 44.4978 40.9605 44.6026 40.9219L44.5246 40.4578C44.4943 40.4655 44.4631 40.4693 44.4318 40.469" fill="white"/>
<path d="M46.7224 39.9595H47.9057L48.1795 40.9154H48.8422L47.6913 37.3887H46.9572L45.8064 40.9154H46.4458L46.7224 39.9595ZM46.9878 39.0379C47.1001 38.6667 47.2041 38.2648 47.3015 37.8741H47.3229C47.4268 38.2611 47.5299 38.6639 47.6422 39.0379L47.7656 39.4685H46.8644L46.9878 39.0379Z" fill="white"/>
<path d="M50.9414 40.248C50.791 40.3862 50.5969 40.4673 50.3928 40.4772C49.9808 40.4772 49.6894 40.1273 49.6894 39.5964C49.6894 39.0656 49.9854 38.711 50.4133 38.711C50.5798 38.7171 50.7376 38.7868 50.8541 38.9059L51.1567 38.5022C50.945 38.3083 50.6678 38.2018 50.3808 38.2043C50.2 38.2012 50.0206 38.2357 49.8537 38.3054C49.6869 38.3751 49.5364 38.4786 49.4115 38.6094C49.2867 38.7402 49.1902 38.8954 49.1283 39.0653C49.0664 39.2351 49.0403 39.416 49.0517 39.5964C49.0332 39.7741 49.0526 39.9538 49.1087 40.1234C49.1648 40.293 49.2562 40.4488 49.3771 40.5805C49.4979 40.7121 49.6453 40.8165 49.8096 40.8869C49.9738 40.9572 50.1511 40.9919 50.3297 40.9886C50.6485 40.9887 50.9564 40.8725 51.1957 40.6619L50.9414 40.248Z" fill="white"/>
<path d="M53.7025 39.3459C53.7025 38.6034 53.3759 38.1997 52.7132 38.1997C52.3249 38.2109 51.9476 38.3312 51.6245 38.5468L51.8538 38.9617C52.0727 38.8081 52.3295 38.7176 52.5962 38.6999C52.9545 38.6999 53.0696 38.9376 53.077 39.2225C51.9893 39.3385 51.5187 39.6345 51.5187 40.2016C51.5136 40.3056 51.5304 40.4094 51.5681 40.5065C51.6057 40.6035 51.6633 40.6916 51.7372 40.7649C51.8111 40.8383 51.8995 40.8953 51.9968 40.9322C52.0941 40.9691 52.1982 40.9852 52.3021 40.9794C52.6104 40.963 52.9024 40.8357 53.1244 40.6211H53.142L53.1893 40.9153H53.6988L53.7025 39.3459ZM53.0807 40.2053C53.0084 40.2889 52.9202 40.3572 52.8213 40.4065C52.7224 40.4557 52.6146 40.4848 52.5044 40.4921C52.2816 40.4921 52.122 40.3891 52.122 40.1552C52.122 39.8879 52.3614 39.7004 53.0798 39.6095L53.0807 40.2053Z" fill="white"/>
<path d="M56.704 40.9154V37.1028H56.0822V38.0634L56.1063 38.4912C56.0156 38.3989 55.9075 38.3256 55.7881 38.2756C55.6688 38.2255 55.5407 38.1998 55.4112 38.1998C55.2452 38.2151 55.0838 38.2635 54.9368 38.3423C54.7898 38.4211 54.66 38.5286 54.5553 38.6584C54.4506 38.7882 54.373 38.9377 54.3271 39.0981C54.2813 39.2584 54.268 39.4264 54.2882 39.5919C54.2882 40.4662 54.7161 40.9841 55.3769 40.9841C55.6641 40.9685 55.9341 40.8425 56.1305 40.6323H56.1481L56.1954 40.9191L56.704 40.9154ZM56.0822 40.1729C56.0192 40.2627 55.936 40.3364 55.8393 40.3881C55.7425 40.4399 55.635 40.4682 55.5254 40.4708C55.1439 40.4708 54.9231 40.1664 54.9231 39.5901C54.9231 39.0332 55.2015 38.7177 55.5384 38.7177C55.74 38.7186 55.9336 38.7974 56.0785 38.9376L56.0822 40.1729Z" fill="white"/>
<path d="M59.3232 40.3066C59.1413 40.4294 58.9274 40.4965 58.7079 40.4996C58.6075 40.5032 58.5075 40.4867 58.4136 40.4512C58.3198 40.4156 58.2339 40.3617 58.1612 40.2926C58.0884 40.2234 58.0301 40.1404 57.9898 40.0485C57.9495 39.9566 57.928 39.8575 57.9264 39.7571H59.609C59.6274 39.6577 59.6364 39.5567 59.6359 39.4555C59.6359 38.713 59.2582 38.197 58.5417 38.197C58.1936 38.237 57.8733 38.4062 57.644 38.6713C57.4148 38.9363 57.2935 39.2777 57.3041 39.628C57.3147 39.9782 57.4565 40.3117 57.7014 40.5623C57.9462 40.8129 58.2763 40.9625 58.6262 40.9813C58.9507 40.9775 59.2669 40.8777 59.5348 40.6945L59.3232 40.3066ZM58.5547 38.6815C58.9176 38.6815 59.0986 38.9302 59.0986 39.3376H57.9199C57.9221 39.1679 57.9891 39.0055 58.1071 38.8835C58.2251 38.7615 58.3852 38.6893 58.5547 38.6815Z" fill="white"/>
<path d="M61.8131 40.9155H62.4349V39.0593C62.5003 38.9692 62.5835 38.8934 62.6792 38.8366C62.775 38.7798 62.8813 38.7431 62.9918 38.7289C63.2702 38.7289 63.4001 38.8932 63.4001 39.3294V40.9071H64.021V39.2449C64.021 38.5758 63.7621 38.1916 63.2034 38.1916C63.0358 38.2065 62.8733 38.2565 62.7264 38.3384C62.5794 38.4203 62.4514 38.5321 62.3505 38.6667C62.2982 38.5178 62.1981 38.3904 62.0658 38.3045C61.9335 38.2185 61.7764 38.1788 61.6192 38.1916C61.4614 38.2021 61.3074 38.2455 61.1673 38.3188C61.0272 38.3922 60.9039 38.4939 60.8052 38.6175H60.7875L60.7402 38.2565H60.2307V40.9071H60.8525V39.051C60.9183 38.9612 61.0015 38.8857 61.0972 38.8289C61.1929 38.7722 61.2991 38.7353 61.4094 38.7206C61.6878 38.7206 61.8178 38.8849 61.8178 39.3211L61.8131 40.9155Z" fill="white"/>
<path d="M65.4411 41.0499C65.4179 41.1746 65.3528 41.2876 65.2566 41.3703C65.1604 41.453 65.0388 41.5004 64.912 41.5046C64.8489 41.5005 64.7865 41.4883 64.7264 41.4684L64.6123 41.9501C64.7235 41.9875 64.8402 42.0057 64.9575 42.0039C65.5357 42.0039 65.815 41.6327 66.035 41.0369L66.9937 38.2646H66.3933L65.9979 39.564C65.9283 39.8062 65.8614 40.067 65.7955 40.3129H65.7733C65.6963 40.0605 65.6202 39.7988 65.5404 39.564L65.0828 38.2646H64.4526L65.4949 40.8828L65.4411 41.0499Z" fill="white"/>
<path d="M68.7172 37.9844V38.2628L68.3608 38.2888V38.7528H68.7172V40.9097H69.339V38.7528H69.8569V38.2591H69.339V37.9723C69.339 37.6642 69.456 37.525 69.6759 37.525C69.7747 37.5263 69.8722 37.5474 69.9627 37.5871L70.0815 37.1231C69.9268 37.0625 69.7623 37.031 69.5961 37.0303C68.9706 37.0303 68.7182 37.4331 68.7182 37.9825" fill="white"/>
<path d="M71.3501 38.1942C71.0694 38.1666 70.7871 38.2247 70.5401 38.3607C70.293 38.4967 70.0929 38.7043 69.9661 38.9562C69.8393 39.208 69.7917 39.4924 69.8295 39.7718C69.8674 40.0512 69.9889 40.3127 70.1782 40.5217C70.3675 40.7308 70.6156 40.8776 70.8899 40.943C71.1642 41.0084 71.4519 40.9892 71.7151 40.888C71.9783 40.7868 72.2046 40.6082 72.3645 40.3759C72.5243 40.1436 72.6101 39.8683 72.6105 39.5863C72.6252 39.4108 72.6037 39.2342 72.5474 39.0673C72.491 38.9005 72.4009 38.747 72.2827 38.6164C72.1645 38.4859 72.0207 38.381 71.8603 38.3084C71.6999 38.2357 71.5262 38.1969 71.3501 38.1942ZM71.3501 40.4671C70.9621 40.4671 70.7283 40.1172 70.7283 39.5863C70.7283 39.0554 70.9621 38.7009 71.3501 38.7009C71.738 38.7009 71.9719 39.0545 71.9719 39.5863C71.9719 40.1181 71.739 40.4671 71.3501 40.4671Z" fill="white"/>
<path d="M73.805 38.7316H73.7874L73.74 38.2592H73.2305V40.9099H73.8523V39.2931C74.012 38.8894 74.2672 38.7446 74.4788 38.7446C74.5711 38.7447 74.6628 38.7591 74.7507 38.7873L74.8584 38.2481C74.7639 38.2073 74.6613 38.1889 74.5586 38.1943C74.3962 38.2077 74.2405 38.2647 74.1079 38.3593C73.9752 38.4539 73.8706 38.5825 73.805 38.7316Z" fill="white"/>
<path d="M77.0717 37.3804L75.9209 40.9071H76.5604L76.8388 39.9512H78.0221L78.2959 40.9071H78.9585L77.8077 37.3804H77.0717ZM76.9789 39.4621L77.1033 39.0314C77.2156 38.6602 77.3196 38.2583 77.4161 37.8676H77.4374C77.5404 38.2546 77.6444 38.6574 77.7567 39.0314L77.8801 39.4621H76.9789Z" fill="white"/>
<path d="M79.908 38.7316H79.8903L79.843 38.2592H79.3335V40.9099H79.9553V39.2931C80.1149 38.8894 80.3701 38.7446 80.5817 38.7446C80.6741 38.7447 80.7658 38.7591 80.8537 38.7873L80.9614 38.2481C80.8669 38.2073 80.7644 38.1889 80.6616 38.1943C80.4993 38.2077 80.3435 38.2647 80.2109 38.3593C80.0782 38.4539 79.9736 38.5825 79.908 38.7316Z" fill="white"/>
<path d="M82.2533 38.1943C81.865 38.2054 81.4877 38.3257 81.1646 38.5414L81.3939 38.9563C81.6127 38.8026 81.8696 38.7121 82.1363 38.6945C82.4946 38.6945 82.6097 38.9321 82.618 39.217C81.5303 39.3331 81.0597 39.6291 81.0597 40.1962C81.0546 40.3002 81.0714 40.404 81.1091 40.5011C81.1467 40.5981 81.2044 40.6862 81.2782 40.7595C81.3521 40.8329 81.4405 40.8898 81.5378 40.9268C81.6351 40.9637 81.7391 40.9798 81.843 40.9739C82.1515 40.9573 82.4436 40.8297 82.6654 40.6148H82.683L82.7303 40.909H83.2398V39.3396C83.2398 38.5971 82.9131 38.1934 82.2505 38.1934M82.6217 40.199C82.5494 40.2825 82.4612 40.3509 82.3623 40.4001C82.2634 40.4493 82.1556 40.4784 82.0454 40.4857C81.8226 40.4857 81.663 40.3827 81.663 40.1489C81.663 39.8816 81.9024 39.6941 82.6208 39.6031L82.6217 40.199Z" fill="white"/>
<path d="M85.3607 38.1942C85.0746 38.21 84.8035 38.3271 84.5959 38.5246L84.6136 38.0837V37.0972H83.9917V40.9098H84.4817L84.5356 40.6313H84.5532C84.7405 40.8353 84.9998 40.9585 85.2762 40.9747C85.8655 40.9747 86.4075 40.4503 86.4075 39.5399C86.4075 38.725 86.0243 38.1942 85.3607 38.1942ZM85.1444 40.4606C84.9467 40.4538 84.7581 40.3757 84.6136 40.2406V39.0053C84.6851 38.9195 84.7731 38.8489 84.8724 38.7978C84.9717 38.7466 85.0803 38.7159 85.1917 38.7074C85.5955 38.7074 85.7681 39.0202 85.7681 39.5492C85.7681 40.1487 85.498 40.4606 85.1444 40.4606Z" fill="white"/>
<path d="M87.342 37.0917C87.2736 37.0977 87.2085 37.1234 87.1545 37.1658C87.1004 37.2082 87.0599 37.2654 87.0378 37.3304C87.0158 37.3954 87.0131 37.4654 87.0301 37.5319C87.0472 37.5984 87.0833 37.6585 87.1339 37.7049C87.1845 37.7512 87.2476 37.7818 87.3153 37.7929C87.3831 37.8041 87.4526 37.7952 87.5154 37.7675C87.5782 37.7398 87.6316 37.6944 87.669 37.6369C87.7065 37.5794 87.7263 37.5121 87.7262 37.4435C87.7259 37.3946 87.7155 37.3463 87.6956 37.3016C87.6757 37.257 87.6469 37.2169 87.6109 37.1838C87.5748 37.1508 87.5323 37.1256 87.486 37.1098C87.4398 37.0939 87.3907 37.0878 87.342 37.0917Z" fill="white"/>
<path d="M87.6511 38.2593H87.0293V40.9099H87.6511V38.2593Z" fill="white"/>
<path d="M89.6113 40.4671C89.1992 40.4671 88.9078 40.1172 88.9078 39.5863C88.9078 39.0555 89.2039 38.7009 89.6308 38.7009C89.7971 38.7067 89.955 38.7762 90.0717 38.8949L90.3742 38.4912C90.1625 38.2974 89.8853 38.1909 89.5983 38.1933C89.4176 38.1904 89.2382 38.2249 89.0714 38.2946C88.9046 38.3644 88.7542 38.4679 88.6293 38.5987C88.5045 38.7294 88.4081 38.8846 88.3461 39.0544C88.2841 39.2242 88.258 39.405 88.2693 39.5854C88.2507 39.7631 88.2701 39.9427 88.3262 40.1124C88.3822 40.282 88.4738 40.4378 88.5946 40.5694C88.7154 40.7011 88.8628 40.8055 89.027 40.8759C89.1913 40.9462 89.3686 40.9809 89.5473 40.9776C89.8659 40.9777 90.1737 40.8619 90.4132 40.6518L90.1607 40.2416C90.0104 40.38 89.8163 40.4611 89.6122 40.4708" fill="white"/>
<path d="M92.6953 37.3804H92.0688V40.9071H94.1608V40.38H92.6944L92.6953 37.3804Z" fill="white"/>
<path d="M95.7738 38.1943C95.3855 38.2054 95.0082 38.3257 94.6851 38.5414L94.9143 38.9563C95.1332 38.8027 95.3901 38.7121 95.6569 38.6945C96.0151 38.6945 96.1302 38.9321 96.1385 39.217C95.0508 39.3331 94.5802 39.6291 94.5802 40.1962C94.5751 40.3002 94.5919 40.404 94.6296 40.5011C94.6672 40.5981 94.7249 40.6862 94.7987 40.7595C94.8726 40.8329 94.961 40.8898 95.0583 40.9268C95.1556 40.9637 95.2596 40.9798 95.3635 40.9739C95.672 40.9573 95.9641 40.8297 96.1859 40.6148H96.2035L96.2508 40.909H96.7603V39.3396C96.7603 38.5971 96.4337 38.1934 95.771 38.1934M96.1422 40.199C96.0699 40.2825 95.9817 40.3509 95.8828 40.4001C95.7839 40.4493 95.6761 40.4784 95.5659 40.4857C95.3431 40.4857 95.1835 40.3827 95.1835 40.1489C95.1835 39.8816 95.4229 39.6941 96.1422 39.6031V40.199Z" fill="white"/>
<path d="M98.9534 38.1941C98.7873 38.2027 98.6247 38.2445 98.4751 38.3172C98.3255 38.3899 98.1922 38.492 98.0829 38.6174H98.0661L98.0189 38.2591H97.5093V40.9098H98.1311V39.0536C98.2026 38.9587 98.2934 38.8802 98.3976 38.8232C98.5018 38.7662 98.6169 38.7321 98.7353 38.7232C99.0221 38.7232 99.1483 38.8874 99.1483 39.3236V40.9014H99.7701V39.2392C99.7701 38.57 99.5223 38.1858 98.9543 38.1858" fill="white"/>
<path d="M101.897 40.493H101.426C101.104 40.493 100.996 40.4002 100.996 40.2536C100.995 40.2039 101.007 40.1549 101.03 40.1108C101.052 40.0666 101.085 40.0286 101.126 40.0002C101.24 40.0449 101.362 40.0685 101.484 40.0698C101.611 40.0845 101.74 40.072 101.862 40.0333C101.984 39.9945 102.097 39.9303 102.192 39.8448C102.287 39.7594 102.364 39.6547 102.416 39.5376C102.467 39.4206 102.494 39.2939 102.493 39.1658C102.496 39.0046 102.442 38.8476 102.342 38.7213H102.825V38.2572H101.878C101.752 38.2135 101.619 38.1915 101.485 38.1923C101.353 38.1809 101.22 38.197 101.094 38.2396C100.968 38.2821 100.852 38.3503 100.754 38.4397C100.655 38.5291 100.577 38.6378 100.522 38.7591C100.468 38.8804 100.44 39.0116 100.438 39.1445C100.439 39.2802 100.471 39.4139 100.531 39.5353C100.592 39.6567 100.68 39.7624 100.788 39.8443V39.8656C100.704 39.9195 100.634 39.9922 100.582 40.0781C100.531 40.164 100.501 40.2606 100.494 40.3603C100.492 40.4487 100.513 40.5361 100.555 40.6138C100.597 40.6915 100.659 40.7568 100.734 40.803V40.8243C100.626 40.876 100.534 40.9557 100.466 41.055C100.399 41.1544 100.36 41.2698 100.352 41.3895C100.352 41.8536 100.823 42.08 101.456 42.08C102.321 42.08 102.87 41.668 102.87 41.1455C102.87 40.6879 102.532 40.4958 101.899 40.4958M101.486 38.6266C101.552 38.6261 101.618 38.6397 101.678 38.6666C101.739 38.6934 101.792 38.7328 101.836 38.7822C101.88 38.8316 101.913 38.8898 101.933 38.9529C101.953 39.016 101.958 39.0826 101.95 39.1482C101.959 39.2136 101.953 39.2799 101.933 39.3429C101.914 39.4059 101.882 39.4641 101.838 39.5135C101.795 39.5629 101.741 39.6025 101.681 39.6297C101.621 39.6568 101.556 39.6708 101.49 39.6708C101.424 39.6708 101.359 39.6568 101.299 39.6297C101.239 39.6025 101.185 39.5629 101.142 39.5135C101.098 39.4641 101.066 39.4059 101.046 39.3429C101.027 39.2799 101.021 39.2136 101.03 39.1482C101.021 39.0826 101.027 39.016 101.047 38.9529C101.066 38.8898 101.099 38.8316 101.143 38.7822C101.187 38.7328 101.241 38.6934 101.302 38.6666C101.362 38.6397 101.427 38.6261 101.494 38.6266M101.559 41.681C101.142 41.681 100.883 41.5408 100.883 41.2986C100.887 41.2283 100.907 41.1598 100.943 41.0991C100.979 41.0384 101.028 40.9871 101.088 40.9496C101.205 40.9765 101.326 40.9887 101.446 40.9858H101.81C102.114 40.9858 102.274 41.0461 102.274 41.2512C102.274 41.4796 101.983 41.681 101.555 41.681" fill="white"/>
<path d="M104.929 40.0746C104.728 40.3335 104.575 40.4458 104.341 40.4458C104.054 40.4458 103.929 40.2825 103.929 39.8463V38.2686H103.307V39.9307C103.307 40.5999 103.556 40.9841 104.124 40.9841C104.292 40.9797 104.456 40.9361 104.604 40.857C104.752 40.7779 104.879 40.6654 104.976 40.5285H104.993L105.041 40.9192H105.55V38.2686H104.929V40.0746Z" fill="white"/>
<path d="M107.387 38.1943C106.999 38.2055 106.622 38.3258 106.299 38.5414L106.528 38.9563C106.747 38.8026 107.004 38.7121 107.271 38.6945C107.629 38.6945 107.744 38.9321 107.753 39.217C106.665 39.3331 106.194 39.6291 106.194 40.1962C106.189 40.3002 106.206 40.404 106.244 40.5011C106.281 40.5981 106.339 40.6862 106.413 40.7595C106.487 40.8329 106.575 40.8898 106.672 40.9268C106.77 40.9637 106.874 40.9798 106.978 40.9739C107.286 40.9572 107.578 40.8296 107.8 40.6148H107.818L107.865 40.909H108.374V39.3396C108.374 38.5971 108.049 38.1934 107.385 38.1934M107.756 40.199C107.684 40.2825 107.596 40.3509 107.497 40.4001C107.398 40.4493 107.29 40.4784 107.18 40.4857C106.957 40.4857 106.798 40.3827 106.798 40.1489C106.798 39.8816 107.037 39.6941 107.755 39.6031L107.756 40.199Z" fill="white"/>
<path d="M110.488 40.4932H110.016C109.694 40.4932 109.587 40.4004 109.587 40.2537C109.586 40.2041 109.598 40.1551 109.62 40.1109C109.643 40.0668 109.676 40.0288 109.717 40.0003C109.831 40.045 109.952 40.0686 110.075 40.07C110.202 40.0847 110.331 40.0722 110.453 40.0334C110.575 39.9946 110.687 39.9304 110.783 39.845C110.878 39.7596 110.954 39.6548 111.006 39.5378C111.058 39.4208 111.084 39.294 111.084 39.166C111.086 39.0048 111.033 38.8477 110.932 38.7214H111.416V38.2574H110.468C110.342 38.2136 110.209 38.1916 110.075 38.1924C109.942 38.1812 109.809 38.1974 109.683 38.24C109.558 38.2826 109.442 38.3508 109.344 38.4401C109.245 38.5295 109.167 38.6382 109.112 38.7595C109.058 38.8807 109.029 39.0118 109.028 39.1447C109.029 39.2803 109.06 39.4141 109.121 39.5354C109.182 39.6568 109.27 39.7625 109.378 39.8444V39.8658C109.294 39.9197 109.224 39.9925 109.173 40.0784C109.122 40.1643 109.092 40.2609 109.085 40.3604C109.082 40.4488 109.103 40.5362 109.145 40.6139C109.187 40.6916 109.249 40.7569 109.324 40.8031V40.8245C109.216 40.8762 109.123 40.9558 109.056 41.0552C108.989 41.1545 108.949 41.27 108.942 41.3897C108.942 41.8538 109.412 42.0802 110.045 42.0802C110.911 42.0802 111.46 41.6681 111.46 41.1456C111.46 40.6881 111.122 40.4959 110.489 40.4959M110.076 38.6268C110.142 38.6263 110.207 38.6399 110.268 38.6667C110.328 38.6936 110.382 38.733 110.426 38.7824C110.47 38.8318 110.503 38.89 110.523 38.9531C110.542 39.0162 110.548 39.0828 110.54 39.1484C110.549 39.214 110.543 39.2807 110.524 39.3441C110.505 39.4075 110.473 39.466 110.429 39.5159C110.386 39.5657 110.332 39.6056 110.272 39.633C110.212 39.6604 110.146 39.6745 110.08 39.6745C110.014 39.6745 109.948 39.6604 109.888 39.633C109.828 39.6056 109.774 39.5657 109.731 39.5159C109.687 39.466 109.655 39.4075 109.636 39.3441C109.617 39.2807 109.611 39.214 109.62 39.1484C109.612 39.0832 109.618 39.017 109.637 38.9542C109.656 38.8914 109.689 38.8334 109.732 38.7841C109.776 38.7348 109.829 38.6953 109.889 38.6681C109.949 38.641 110.014 38.6269 110.079 38.6268M110.144 41.6811C109.729 41.6811 109.469 41.541 109.469 41.2988C109.472 41.2284 109.493 41.16 109.529 41.0992C109.564 41.0385 109.614 40.9872 109.674 40.9498C109.791 40.9767 109.912 40.9888 110.032 40.986H110.396C110.699 40.986 110.86 41.0463 110.86 41.2514C110.86 41.4797 110.569 41.6811 110.141 41.6811" fill="white"/>
<path d="M112.893 38.1943C112.545 38.2343 112.225 38.4035 111.996 38.6685C111.766 38.9336 111.645 39.275 111.656 39.6253C111.666 39.9755 111.808 40.3089 112.053 40.5596C112.298 40.8102 112.628 40.9598 112.978 40.9786C113.302 40.9744 113.618 40.8746 113.886 40.6918L113.675 40.3048C113.493 40.4273 113.279 40.494 113.059 40.4969C112.959 40.5006 112.859 40.4842 112.765 40.4487C112.671 40.4132 112.585 40.3593 112.512 40.2902C112.439 40.221 112.381 40.138 112.341 40.046C112.3 39.954 112.279 39.8549 112.277 39.7544H113.96C113.978 39.6546 113.987 39.5533 113.987 39.4519C113.987 38.7094 113.609 38.1934 112.891 38.1934M112.27 39.3312C112.272 39.1615 112.339 38.999 112.457 38.8771C112.575 38.7551 112.735 38.6828 112.904 38.675C113.267 38.675 113.448 38.9238 113.448 39.3312H112.27Z" fill="white"/>
<path d="M5.11707 13.378H18.5502C19.143 12.9991 19.5709 12.4104 19.7484 11.7297C19.7849 11.3584 19.8035 10.9872 19.8041 10.616C19.8041 10.4638 19.8041 10.3134 19.7967 10.1658C19.7181 9.34083 19.5725 8.52358 19.3614 7.72219L19.1665 7.6665L18.1558 9.16815C18.41 10.0341 18.6087 10.9154 18.7507 11.8067H5.11707C4.29428 11.8119 3.47444 11.708 2.67897 11.4977C2.10356 11.3877 1.58488 11.0795 1.21305 10.6268C0.841227 10.1741 0.639763 9.60547 0.643673 9.01966V8.66698L0.464551 8.59738C0.216792 9.07203 0.0647948 9.59077 0.0172119 10.1241L0.0172119 10.3839C0.0172119 12.3639 1.71624 13.3609 5.11428 13.3752" fill="white"/>
<path d="M10.423 8.37938V8.35804C9.99658 8.04296 9.54492 7.76358 9.0726 7.52276C9.04047 7.52203 9.00864 7.52902 8.97979 7.54317C8.65694 7.87576 8.44854 8.30263 8.38489 8.76176V8.7831C8.82704 9.0946 9.29494 9.36782 9.78352 9.59982C10.1219 9.27302 10.3456 8.84556 10.4211 8.38124" fill="white"/>
<path d="M47.695 11.8754C47.888 11.3547 47.9825 10.8027 47.9734 10.2475V9.36861L47.8138 9.26467L46.7827 10.3375L46.7966 11.8401C45.6142 11.7894 44.9426 11.6579 44.7817 11.4457L45.281 9.40945L45.1353 9.33334L44.2072 10.2197L43.7497 11.8058H40.751C40.9472 11.5146 41.112 11.2035 41.2429 10.8777C41.355 10.5942 41.4135 10.2924 41.4155 9.98765L41.2364 9.90412C40.9648 10.3338 40.6385 10.7262 40.2656 11.0717C39.7975 11.4634 39.2291 11.7163 38.6248 11.8021H36.9208C36.6778 11.8272 36.4327 11.7818 36.215 11.6712C35.9972 11.5605 35.8159 11.3894 35.6929 11.1784C35.3917 10.4089 35.231 9.5916 35.2187 8.76535C35.1259 7.56997 34.9987 6.1503 34.8372 4.50635H34.66L33.9258 5.77412C34.0873 7.38281 34.2027 8.6512 34.272 9.57929C34.3063 10.1479 34.371 10.7142 34.466 11.2758C34.2395 11.6316 33.6669 11.8092 32.7481 11.8086C32.6751 11.8086 32.6012 11.8064 32.5263 11.8021H32.1968C31.9903 11.7596 31.7879 11.6993 31.5917 11.622C31.1851 11.4244 30.8433 11.1147 30.6065 10.7295C30.3698 10.3443 30.2479 9.89957 30.2553 9.4475V8.93705C30.2553 8.88137 30.1522 8.84424 29.9443 8.81269C29.2345 8.833 28.5395 9.02027 27.9155 9.35933C27.2932 9.64895 26.7672 10.1112 26.4 10.6911C26.1864 11.0753 25.8642 11.3879 25.4737 11.5898C25.0833 11.7917 24.642 11.8739 24.205 11.8262H24.1326C24.1206 11.816 24.1085 11.8058 24.102 11.8058H23.8802C23.6367 11.8308 23.3912 11.7853 23.1729 11.6747C22.9545 11.5641 22.7726 11.3931 22.6486 11.1821C22.345 10.4133 22.1839 9.5956 22.1735 8.76907C22.0831 7.57369 21.9575 6.15402 21.7966 4.51006H21.6166L20.8899 5.77783C21.0514 7.38652 21.1655 8.65491 21.2324 9.583C21.2659 10.2775 21.3574 10.9679 21.5061 11.6471C21.6394 12.1732 21.9623 12.6316 22.4129 12.9343C22.8149 13.2057 23.2867 13.3552 23.7716 13.365L23.7846 13.378H24.1029L24.1076 13.3733C24.4056 13.3328 24.6986 13.2612 24.9819 13.1599C25.247 13.0453 25.4825 12.872 25.6708 12.653C25.8591 12.434 25.9951 12.1751 26.0686 11.8958C26.0829 12.0301 26.2685 12.2519 26.6255 12.5612C27.6809 13.1696 28.8092 13.6417 29.9833 13.9664C30.1448 13.9664 30.3641 13.6666 30.6413 13.0671C31.0899 13.2906 31.5874 13.3979 32.0882 13.3789H32.4595L32.4697 13.3687C32.772 13.3683 33.0723 13.3204 33.3597 13.2267C33.9201 12.9784 34.3896 12.5624 34.7036 12.0359C34.8636 12.4041 35.1287 12.7169 35.4655 12.9353C35.8765 13.2143 36.361 13.3651 36.8577 13.3687L36.8679 13.3789H38.5709C39.0177 13.3027 39.4268 13.0812 39.7348 12.7487L39.9566 13.3789H42.0271V13.3715H43.1409L43.8332 12.707C44.6204 13.2253 45.5598 13.4621 46.4987 13.3789H46.8244C47.2051 12.9359 47.5008 12.4265 47.6968 11.8763M29.6585 12.0619C28.7817 11.8247 27.9613 11.4145 27.2455 10.8554V10.8136C27.8397 10.5518 28.4703 10.3816 29.1156 10.3088C29.1588 10.3101 29.201 10.3221 29.2385 10.3439C29.2759 10.3656 29.3073 10.3962 29.33 10.4331V10.8693C29.3371 11.2773 29.4517 11.6762 29.6622 12.0257L29.6585 12.0619Z" fill="white"/>
<path d="M58.0126 10.3108L58.0608 10.3321C58.3816 10.1911 58.6558 9.96215 58.8519 9.67178C59.048 9.38141 59.158 9.04147 59.169 8.69126C59.169 8.28042 58.5917 8.07501 57.4371 8.07501C57.9861 7.6765 58.6422 7.4521 59.3202 7.43091H59.5421C59.9133 7.43091 60.0989 7.57848 60.0989 7.87361H60.1202C60.3556 7.64193 60.5046 7.33671 60.5425 7.00864C60.5425 6.68566 60.3278 6.52417 59.8984 6.52417H59.6348C58.7981 6.56602 58.0011 6.89361 57.3768 7.45226C56.8416 7.94724 56.574 8.35344 56.574 8.67085V8.76365C56.574 8.91153 56.7012 8.98546 56.9555 8.98546H57.1977C57.6869 8.95113 58.1749 9.06706 58.5964 9.31772C57.9501 9.63763 57.2316 9.7835 56.5118 9.74093C56.023 9.72237 55.4829 9.67627 54.8914 9.60265L54.8496 9.62956V9.65091C55.7296 10.1413 56.7194 10.4009 57.7267 10.4054C57.828 10.4004 57.926 10.3684 58.0107 10.3126" fill="white"/>
<path d="M57.196 13.378H61.8364C62.3602 13.011 62.8168 12.5564 63.1859 12.0341C63.3283 12.8581 63.7521 13.6073 64.385 14.1538C64.6523 14.3999 65.0045 14.533 65.3678 14.5251C65.5691 14.523 65.7694 14.4952 65.9636 14.4425C66.1917 14.2882 66.382 14.0846 66.5205 13.8466C66.7195 13.4209 66.8051 12.9509 66.7692 12.4823V12.2745C66.9786 12.5658 67.2449 12.8118 67.5519 12.9974C67.859 13.1831 68.2005 13.3046 68.5558 13.3548C68.6819 13.3681 68.8086 13.3746 68.9354 13.3742H69.0894L69.1061 13.3603C69.3967 13.346 69.6842 13.2948 69.9618 13.2081C70.3998 12.9794 70.8717 12.8227 71.3595 12.7441H71.4153C72.1388 12.8835 72.8279 13.1632 73.4441 13.5673H73.5619C73.784 13.1401 73.9583 12.6897 74.0817 12.2243C74.1008 12.1643 74.1102 12.1017 74.1095 12.0387C74.1103 11.9968 74.1056 11.955 74.0955 11.9144C73.8978 11.7489 73.6846 11.6028 73.4589 11.4782C72.9812 11.3204 72.5489 11.0494 72.1986 10.6884C71.8374 9.7784 71.6564 8.80694 71.6658 7.82798L72.0538 8.02195H72.1577L72.8361 6.69293V6.54072L71.4784 5.66089C71.2936 5.59638 71.1329 5.4769 71.018 5.31848C70.903 5.16005 70.8392 4.97027 70.8352 4.77457C70.8352 4.71888 70.8352 4.6632 70.8426 4.60844L70.7182 4.51563L70.6255 4.66784C70.2754 5.11486 70.0614 5.65327 70.0092 6.21867V6.3848C70.0092 6.66137 70.27 6.9398 70.7915 7.22008C71.0316 9.71788 71.1656 11.0822 71.1934 11.313C70.5804 11.6486 69.8903 11.8181 69.1915 11.8048C69.1126 11.8048 69.0365 11.8048 68.9632 11.7974L68.953 11.8048H68.8732C68.7851 11.8048 68.6616 11.7974 68.502 11.7844C68.3087 11.7648 68.1229 11.6992 67.9602 11.5931C67.7975 11.487 67.6624 11.3436 67.5665 11.1747C67.3307 10.7638 67.0006 8.54106 66.5762 4.50635H66.3961L65.6481 5.77412C66.0193 9.07874 66.2084 10.9968 66.2152 11.5283C66.1852 11.9035 66.1262 12.2758 66.0388 12.642C66.01 12.7573 65.9405 12.8583 65.8431 12.9265C65.7458 12.9947 65.6271 13.0255 65.5089 13.0132L65.5015 13.0206C65.2368 13.0094 64.9818 12.9175 64.7708 12.7572C64.5598 12.597 64.4028 12.3761 64.3209 12.1241C64.0412 11.5258 63.7319 8.98902 63.3928 4.51377H63.2128L62.4304 5.78154L62.7701 9.58671C62.8045 10.1553 62.8692 10.7216 62.9641 11.2833C62.7784 11.6341 62.2151 11.8095 61.274 11.8095H57.196C56.3747 11.8133 55.5561 11.7155 54.7588 11.5181C54.1832 11.4083 53.6643 11.1002 53.2923 10.6475C52.9203 10.1948 52.7187 9.62601 52.7226 9.04007V8.68275L52.5425 8.61314C52.2961 9.08803 52.1457 9.60681 52.0999 10.1399V10.4025C52.0999 12.3824 53.7985 13.3724 57.196 13.3724" fill="white"/>
<path d="M75.9545 13.378C76.3197 12.6696 76.5703 11.9078 76.697 11.1209C76.5691 8.90827 76.3147 6.70479 75.9351 4.52124H75.6928L74.8826 6.16953C75.3166 8.55163 75.5941 10.9596 75.7132 13.378H75.9545Z" fill="white"/>
<path d="M101.755 12.309C102.382 11.8172 103.112 11.4727 103.89 11.3011C103.928 11.7978 104.062 12.2823 104.285 12.7276C104.48 13.1662 105.094 13.3856 106.128 13.3856H107.528L107.536 13.3772C107.95 13.381 108.362 13.3138 108.753 13.1786C108.974 13.0086 109.173 12.8119 109.345 12.593C109.519 12.374 109.712 12.1051 109.924 11.7865C110.199 11.9841 110.493 12.1536 110.802 12.2923C111.515 12.6175 112.26 12.8664 113.025 13.0348C113.137 13.0348 113.441 12.5593 113.939 11.6083V11.0403C113.769 9.0647 113.245 8.0769 112.368 8.0769H112.312C111.315 8.0769 110.408 9.10182 109.591 11.1517C109.273 11.5897 108.552 11.8091 107.431 11.8097H105.393C105.212 11.791 105.039 11.724 104.892 11.6156C104.745 11.5072 104.63 11.3614 104.558 11.1934H105.881L106.663 9.70848L106.615 9.58319H106.244C105.097 9.52286 103.963 9.31128 102.872 8.95394C102.701 8.91187 102.392 8.83329 101.944 8.71821C101.571 8.6138 101.186 8.55551 100.799 8.54465H100.777C100.404 8.53045 100.032 8.60987 99.6974 8.77569C99.3623 8.94151 99.0741 9.18847 98.8589 9.49409C98.6134 9.84775 98.4254 10.2381 98.302 10.6505L98.4681 10.734C98.6281 10.5298 98.835 10.3672 99.0712 10.2599C99.3074 10.1526 99.5659 10.1039 99.825 10.1178H100.025C100.496 10.1384 100.963 10.2116 101.418 10.3359C102.015 10.4813 102.363 10.5679 102.46 10.5957C101.163 11.3413 99.7032 11.7575 98.2082 11.8078H97.308L97.2932 11.8282H97.2588C97.0219 11.7846 96.79 11.7175 96.5664 11.6278C96.1597 11.4302 95.8179 11.1206 95.5811 10.7354C95.3444 10.3502 95.2226 9.90535 95.23 9.45326V8.93352C95.23 8.87784 95.1251 8.84072 94.9182 8.80916C94.2083 8.82937 93.5133 9.01665 92.8894 9.3558C92.266 9.64682 91.7395 10.1111 91.3728 10.6932C91.1591 11.0773 90.837 11.3898 90.4466 11.5917C90.0562 11.7936 89.6149 11.8758 89.1779 11.8282H89.0471L89.0257 11.8078H87.6299C86.8344 11.9057 86.0284 11.7453 85.331 11.3503L85.2614 11.2742L85.7663 11.0737C86.2931 10.9252 86.8017 10.7185 87.2828 10.4575L87.8851 9.121L87.6995 8.98921C86.3605 9.57515 85.1141 10.1289 83.9602 10.6505C83.3879 10.5329 82.849 10.2894 82.3825 9.93772C81.7167 9.45263 81.3838 9.03871 81.3838 8.69593C81.6694 8.38385 82.0246 8.14347 82.4204 7.99432C82.8163 7.84516 83.2418 7.79141 83.6623 7.83745C84.2773 7.86036 84.889 7.93927 85.4897 8.07319H85.5101L85.6558 7.85137L85.5862 7.74C85.0246 7.16384 84.3439 6.71724 83.5918 6.4314C83.2536 6.44141 82.9208 6.5188 82.6129 6.65904C82.305 6.79928 82.0282 6.99955 81.7987 7.24812C81.1686 7.90001 80.7929 8.75608 80.7397 9.66115C80.7397 10.5385 81.3374 11.2562 82.5328 11.8143C81.948 12.3568 81.4947 13.0256 81.2075 13.7698C81.0281 14.2348 80.9196 14.7241 80.8854 15.2213V15.8998C80.918 16.2635 81.0241 16.6168 81.1973 16.9383C81.7368 17.8385 83.0361 18.2887 85.0953 18.2887C85.9213 18.3413 86.7468 18.1792 87.4916 17.8181L88.8967 16.9383V16.7174H85.7329C84.5705 16.803 83.4117 16.51 82.4298 15.8821C82.1901 15.7158 81.9943 15.4938 81.8591 15.2351C81.724 14.9765 81.6536 14.689 81.6539 14.3972C81.6543 14.2929 81.6614 14.1887 81.6753 14.0854C81.9414 13.5294 82.342 13.0487 82.8409 12.6867C83.4069 12.1941 84.0443 11.7901 84.7314 11.4886C84.7358 11.8347 84.7896 12.1785 84.8911 12.5095C85.2091 13.0911 86.0422 13.3819 87.3905 13.3819H89.0313C89.3459 13.3472 89.6551 13.2739 89.9519 13.1638C90.217 13.0492 90.4526 12.8759 90.6409 12.6569C90.8292 12.4379 90.9652 12.179 91.0387 11.8997C91.0524 12.034 91.238 12.2558 91.5956 12.5651C92.6512 13.1737 93.7798 13.6459 94.9544 13.9703C95.1158 13.9703 95.3352 13.6705 95.6124 13.0709C96.0609 13.2946 96.5584 13.4018 97.0593 13.3828H98.2092C99.4663 13.3556 100.692 12.9856 101.754 12.3127M111.857 9.43562C112.346 9.47212 112.717 10.1255 112.97 11.3957C112.17 11.1702 111.403 10.8374 110.692 10.4064C110.79 10.161 110.948 9.94391 111.151 9.77462C111.354 9.60532 111.596 9.48915 111.855 9.43655M94.6277 12.063C93.751 11.8257 92.9306 11.4155 92.2147 10.8565V10.8148C92.8089 10.5529 93.4394 10.3827 94.0847 10.3099C94.1279 10.3113 94.1702 10.3234 94.2076 10.3451C94.245 10.3668 94.2764 10.3974 94.2991 10.4342V10.8705C94.3048 11.2787 94.4182 11.6783 94.6277 12.0287V12.063Z" fill="white"/>
<path d="M101.748 14.1808C101.464 14.4989 101.275 14.8897 101.201 15.3093C101.212 15.3336 101.218 15.3592 101.222 15.3854C102.075 15.8978 102.521 16.1539 102.559 16.1539H102.614C102.919 15.8218 103.122 15.4076 103.196 14.9622C103.194 14.9453 103.19 14.9289 103.182 14.914C103.02 14.8038 102.579 14.5338 101.859 14.1038C101.836 14.1038 101.799 14.1288 101.748 14.1799" fill="white"/>
<path d="M2.24274 20.594C1.80923 20.2837 1.34226 20.0232 0.850605 19.8171C0.531681 20.1591 0.315535 20.584 0.226929 21.0431C0.655694 21.3946 1.12268 21.6965 1.61906 21.9434C1.69331 21.9292 1.88976 21.673 2.2084 21.1749C2.6114 21.4613 3.04577 21.7008 3.50309 21.8886H3.55877C3.86478 21.5723 4.0635 21.1678 4.12676 20.7322V20.6765C3.73216 20.3178 3.28048 20.0273 2.79031 19.8171C2.63254 19.8171 2.45001 20.0758 2.24274 20.593" fill="white"/>
<path d="M20.7109 29.9278C20.5679 29.9278 20.3786 30.184 20.1429 30.6963C19.302 30.2069 18.877 29.9507 18.8677 29.9278C18.8221 29.9299 18.7775 29.9417 18.7368 29.9622C18.4463 30.3024 18.2504 30.713 18.1688 31.1529V31.1743C18.6007 31.4846 19.0541 31.7637 19.5257 32.0095C19.764 31.811 19.9456 31.5529 20.0519 31.2615V31.2411C20.9058 31.7299 21.3389 31.986 21.3512 32.0095L21.4208 31.9956C21.74 31.6621 21.9501 31.2394 22.0232 30.7835V30.7705C21.6075 30.4549 21.1678 30.1721 20.7081 29.925" fill="white"/>
<path d="M28.3695 26.66C28.3088 25.7274 27.995 24.8289 27.4618 24.0614H27.3513L26.6376 25.4813C26.9581 26.0357 27.2183 26.6228 27.4135 27.2326H25.7105C25.3004 27.2562 24.8923 27.1595 24.5364 26.9542C24.2846 26.7859 24.0939 26.5408 23.9926 26.2554C24.1262 25.9046 24.2395 25.6045 24.3323 25.3551L23.716 25.098C23.0515 26.5211 22.2091 27.2326 21.1888 27.2326H6.66793C6.20709 27.1338 5.78838 26.8941 5.46976 26.5468C4.87557 25.7262 4.5165 24.7591 4.43123 23.7495C4.41922 23.3112 4.35915 22.8754 4.25211 22.4502L4.21035 22.4706C3.90206 22.8311 3.71532 23.2796 3.67669 23.7523V24.001L3.69804 24.0428C3.6108 24.0985 3.56718 24.1356 3.56718 24.1542C2.63264 24.4596 1.76195 24.9336 0.998226 25.5528C0.474936 26.1981 0.136822 26.9735 0.0200195 27.796L0.0200195 27.8888C0.0200195 28.2303 0.345779 28.4011 0.997298 28.4011C1.97359 28.4734 2.94829 28.2413 3.78714 27.7366C4.0039 27.5006 4.15663 27.2131 4.23076 26.9013H4.25211C4.38418 27.4353 4.68828 27.911 5.11749 28.255C5.5467 28.599 6.07718 28.7922 6.62709 28.8048H21.0496C21.383 28.7715 21.7109 28.697 22.026 28.583C22.3385 28.4528 22.6224 28.2623 22.8612 28.0223C23.1001 27.7823 23.2893 27.4976 23.4181 27.1844H23.4394C23.4536 27.3867 23.5079 27.5842 23.5991 27.7654C23.7669 28.077 24.0154 28.3379 24.3186 28.5206C24.6218 28.7033 24.9686 28.8011 25.3225 28.8039H27.691C27.9906 28.1139 28.2182 27.3948 28.3704 26.6582M1.86321 26.8104H1.46042C1.25087 26.8107 1.04197 26.7873 0.837667 26.7408V26.7194C0.96158 26.6018 1.10432 26.5058 1.25995 26.4354C1.96149 26.1948 2.63662 25.8832 3.27483 25.5055C3.48037 25.3127 3.65337 25.088 3.78714 24.84C3.8334 25.3338 3.92126 25.8228 4.04979 26.3018C3.37876 26.663 2.62392 26.8398 1.86228 26.8141" fill="white"/>
<path d="M26.1606 30.918V31.0108C26.5776 31.346 27.0305 31.6339 27.511 31.8693C27.7047 31.8693 27.9308 31.4492 28.1894 30.609C27.7625 30.284 27.3082 29.9968 26.8316 29.7505C26.615 29.7505 26.3911 30.1406 26.1597 30.9208" fill="white"/>
<path d="M43.3052 19.8736L43.3544 19.6175L43.1808 19.5247C42.7749 19.9807 42.5291 20.5569 42.481 21.1655C42.48 21.4083 42.546 21.6466 42.6718 21.8542C42.7976 22.0619 42.9782 22.2308 43.1938 22.3423C43.5798 23.9512 43.8392 25.5877 43.9697 27.2371H41.9966C41.4341 27.267 40.8822 27.0758 40.4587 26.7044C40.701 26.3268 40.8397 25.8921 40.8606 25.444V25.3336C40.8548 25.2232 40.8361 25.1139 40.8049 25.0078C40.6344 24.7178 40.3867 24.4808 40.0895 24.3232C39.7922 24.1655 39.4571 24.0935 39.1213 24.115H38.8095C38.2466 24.1236 37.6929 24.2584 37.1891 24.5094C36.9768 24.976 36.7853 25.4468 36.6146 25.922L36.6767 25.9842C36.8497 25.9461 37.026 25.9253 37.203 25.922C37.5175 25.9457 37.823 26.0379 38.0981 26.1921C38.3732 26.3464 38.6113 26.5589 38.7956 26.8148C37.8215 27.1204 36.8036 27.2631 35.783 27.2371H35.2262C34.7095 27.216 34.2203 26.9987 33.8582 26.6295C33.4961 26.2603 33.2883 25.767 33.2772 25.2501L33.0488 25.2426C32.8003 25.6812 32.6129 26.1518 32.492 26.6413C32.5212 26.9805 32.6313 27.3079 32.8131 27.5958C32.995 27.8838 33.2432 28.1239 33.537 28.296L33.3913 28.6357C33.0562 29.2888 32.544 29.8344 31.9135 30.2102C31.283 30.586 30.5595 30.7769 29.8256 30.761C29.3343 30.74 28.8489 30.6461 28.3852 30.4826L28.3026 30.788C29.1741 31.3862 30.15 31.8159 31.1797 32.0548C31.4226 32.053 31.6644 32.0218 31.8999 31.962C32.0472 31.9385 32.354 31.6662 32.8205 31.1453C33.4409 30.3898 33.9155 29.5256 34.2201 28.5967L34.4057 28.6728C34.627 28.7461 34.857 28.7901 35.0897 28.8037L35.0971 28.8121H35.3756C36.8214 28.8336 38.2449 28.4549 39.4889 27.7178C39.553 27.7692 39.609 27.8299 39.655 27.8979C39.9054 28.2312 40.2403 28.4917 40.625 28.6524C41.0097 28.8131 41.4303 28.8682 41.8434 28.8121H44.2258C44.6544 27.9831 44.8842 27.0658 44.8969 26.1327C44.8725 25.1576 44.7613 24.1867 44.5646 23.2315L44.7381 23.314L44.8142 23.2927L45.4927 21.9284V21.818L44.6129 21.2361C43.7405 20.733 43.3043 20.2807 43.3043 19.8792" fill="white"/>
<path d="M47.578 19.9497L46.7678 21.598C47.2037 23.98 47.4827 26.388 47.6031 28.8065H47.8453C48.2103 28.0976 48.4609 27.3355 48.5878 26.5484C48.4601 24.3362 48.206 22.133 47.8268 19.9497H47.578Z" fill="white"/>
<path d="M54.7866 20.594C54.3529 20.2842 53.886 20.0239 53.3944 19.8181C53.0756 20.1601 52.8595 20.585 52.7708 21.0441C53.1994 21.3957 53.6664 21.6977 54.1629 21.9444C54.2371 21.9301 54.4333 21.674 54.7513 21.1759C55.1558 21.4626 55.5917 21.7021 56.0506 21.8896H56.1063C56.4119 21.573 56.6105 21.1686 56.6743 20.7332V20.6775C56.2796 20.3192 55.8279 20.029 55.3378 19.819C55.1807 19.819 54.9982 20.0777 54.7903 20.5949" fill="white"/>
<path d="M65.3121 20.9781C65.0134 21.2941 64.8094 21.6877 64.7236 22.114V22.2384C65.1527 22.5362 65.6041 22.8003 66.074 23.0282H66.1158C66.4077 22.7058 66.6148 22.3157 66.7181 21.8932V21.7892C66.6674 21.7341 66.2219 21.4557 65.3816 20.9539C65.3567 20.953 65.3322 20.9606 65.3121 20.9753" fill="white"/>
<path d="M75.2825 19.8736L75.3308 19.6175L75.1582 19.5247C74.7524 19.9808 74.5067 20.5569 74.4584 21.1655C74.4572 21.4086 74.5232 21.6472 74.6492 21.855C74.7751 22.0629 74.9561 22.2319 75.1721 22.3433C75.5577 23.9525 75.8172 25.5893 75.948 27.2389H74.0296C73.7864 27.2643 73.541 27.2189 73.3229 27.1083C73.1047 26.9977 72.9232 26.8265 72.7999 26.6153C72.4995 25.8456 72.3389 25.0284 72.3257 24.2022C72.2335 23.0068 72.1066 21.5872 71.9451 19.9432H71.7725L71.0384 21.211C71.1999 22.8197 71.3152 24.0881 71.3845 25.0162C71.4191 25.5847 71.4839 26.151 71.5786 26.7127C71.3521 27.0685 70.7797 27.2461 69.8616 27.2454C69.7873 27.2454 69.714 27.2454 69.6388 27.2389H69.3687C68.8063 27.2689 68.2546 27.0773 67.8318 26.7053C68.0733 26.3278 68.2116 25.8935 68.2327 25.4459V25.3345C68.2267 25.2241 68.208 25.1148 68.1771 25.0087C68.0065 24.7187 67.7589 24.4817 67.4616 24.3241C67.1644 24.1665 66.8293 24.0944 66.4935 24.1159H66.1826C65.6198 24.1245 65.066 24.2593 64.5622 24.5104C64.35 24.9769 64.1585 25.4477 63.9877 25.9229L64.0508 25.9851C64.2237 25.947 64.4 25.9262 64.577 25.9229C64.8914 25.9469 65.1968 26.0393 65.4718 26.1937C65.7467 26.3481 65.9845 26.5607 66.1687 26.8167C65.1946 27.1223 64.1767 27.265 63.1561 27.2389H59.209C58.7482 27.1403 58.3295 26.901 58.0108 26.554C57.416 25.7337 57.0569 24.7664 56.9722 23.7567C56.9597 23.3184 56.8994 22.8827 56.7922 22.4574L56.7504 22.4778C56.4424 22.8383 56.2559 23.2869 56.2177 23.7595V24.0083L56.2382 24.05C56.15 24.1057 56.1073 24.1428 56.1073 24.1614C55.1726 24.4672 54.3017 24.9412 53.5374 25.56C53.0152 26.2058 52.6777 26.981 52.561 27.8032V27.896C52.561 28.2376 52.8865 28.4083 53.5374 28.4083C54.514 28.4809 55.4891 28.2487 56.3282 27.7438C56.545 27.5079 56.6977 27.2203 56.7718 26.9085H56.7931C56.9252 27.4425 57.2293 27.9182 57.6585 28.2622C58.0877 28.6062 58.6182 28.7994 59.1681 28.8121H62.7487C64.1942 28.8338 65.6175 28.4551 66.8611 27.7178C66.9254 27.769 66.9814 27.8297 67.0272 27.8979C67.2778 28.2311 67.6126 28.4914 67.9973 28.6521C68.3819 28.8128 68.8025 28.868 69.2156 28.8121H69.5822L69.5952 28.8009C69.8897 28.7985 70.182 28.751 70.4621 28.6598C71.0223 28.4114 71.4918 27.9954 71.8059 27.4691C71.9655 27.8378 72.2306 28.1511 72.5679 28.3694C72.9789 28.6482 73.4633 28.799 73.96 28.8028L73.9702 28.813H76.1976C76.6268 27.9842 76.8568 27.0668 76.8696 26.1336C76.8452 25.1586 76.734 24.1877 76.5373 23.2324L76.7109 23.315L76.787 23.2936L77.4654 21.9303V21.8189L76.5865 21.237C75.7147 20.7333 75.2785 20.281 75.2779 19.8801M54.4005 26.8185H53.9987C53.7891 26.8188 53.5802 26.7955 53.3759 26.7489V26.7276C53.4996 26.6098 53.6424 26.5138 53.7982 26.4436C54.4999 26.2016 55.1751 25.8884 55.8131 25.509C56.0188 25.3164 56.1918 25.0917 56.3254 24.8435C56.3717 25.3373 56.4596 25.8263 56.588 26.3053C55.917 26.6665 55.1622 26.8442 54.4005 26.8185Z" fill="white"/>
<path d="M87.8988 31.9778C87.6958 32.1883 87.5338 32.4347 87.4209 32.7045C87.4213 32.7074 87.4211 32.7104 87.4202 32.7132C87.4193 32.716 87.4178 32.7186 87.4157 32.7206C87.4136 32.7227 87.411 32.7243 87.4082 32.7252C87.4054 32.7261 87.4024 32.7263 87.3995 32.7258C86.5593 32.2277 86.1209 31.9784 86.0844 31.9778H86.0677L86.013 31.9917C85.7072 32.3226 85.5071 32.7372 85.4385 33.1824V33.2521C85.8835 33.5472 86.3487 33.8108 86.8306 34.0409C87.0464 33.8348 87.2103 33.5803 87.3086 33.2985H87.3225C88.1887 33.7965 88.6342 34.044 88.659 34.0409H88.7007C88.9816 33.7221 89.1813 33.3399 89.2827 32.9272V32.7611C88.8466 32.4731 88.3935 32.2118 87.9258 31.9787L87.8988 31.9778Z" fill="white"/>
<path d="M96.3409 26.9077C95.8636 26.7502 95.4315 26.4796 95.0815 26.1188C94.7196 25.209 94.5383 24.2375 94.5478 23.2584L94.9358 23.4524H95.0398L95.7182 22.1233V21.9702L94.3613 21.0913C94.1764 21.027 94.0155 20.9076 93.9006 20.7491C93.7856 20.5907 93.7219 20.4008 93.7182 20.205C93.7182 20.1493 93.7181 20.0945 93.7237 20.0389L93.5994 19.946L93.5065 20.0983C93.1568 20.5454 92.9432 21.0838 92.8912 21.6491V21.8152C92.8912 22.0918 93.152 22.3702 93.6736 22.6505C93.913 25.1477 94.0467 26.5117 94.0745 26.7424C93.4621 27.078 92.7727 27.2476 92.0745 27.2343C91.9959 27.2343 91.9198 27.2322 91.8462 27.2278L91.836 27.2343H89.6578L88.9153 28.7091L88.9849 28.8019C89.4782 28.7906 89.9702 28.8586 90.442 29.0033C90.6669 29.098 90.8674 29.2426 91.0281 29.4263C91.1889 29.6099 91.3059 29.8277 91.3701 30.0632H86.5653C85.7424 30.0671 84.9227 29.9622 84.1273 29.7513C83.5511 29.6401 83.0321 29.3306 82.6603 28.8766C82.2885 28.4226 82.0874 27.8527 82.0919 27.2659V26.9197L81.9119 26.851C81.6658 27.3248 81.515 27.8422 81.4683 28.374V28.6441C81.4683 30.624 83.1673 31.6211 86.5653 31.6353H90.8587C91.3478 31.2273 91.7569 30.7319 92.0652 30.1745C92.1395 30.0405 92.2016 29.9001 92.2508 29.755C92.294 29.6172 92.315 29.4734 92.313 29.329C92.2987 29.1354 92.2237 28.9513 92.0986 28.8028H92.5979L92.7223 28.6784V28.6682C92.7669 28.6562 92.8105 28.6515 92.8541 28.6367C93.2925 28.4082 93.7647 28.2515 94.2527 28.1726H94.3075C95.0313 28.3126 95.7207 28.5925 96.3372 28.9968H96.4542C96.6762 28.5692 96.8505 28.1186 96.9739 27.6529C96.9927 27.5929 97.0018 27.5302 97.0008 27.4673C97.0013 27.4251 96.9966 27.383 96.9869 27.342C96.7884 27.177 96.575 27.0309 96.3493 26.9058" fill="white"/>
<path d="M108.798 19.8736L108.846 19.6175L108.673 19.5247C108.268 19.9807 108.022 20.557 107.974 21.1655C107.973 21.4083 108.04 21.6466 108.165 21.8542C108.291 22.0619 108.472 22.2308 108.687 22.3423C109.073 23.9512 109.333 25.5877 109.463 27.2371H107.49C106.928 27.2673 106.376 27.0761 105.952 26.7044C106.195 26.3269 106.333 25.8922 106.354 25.444V25.3336C106.348 25.2232 106.33 25.1138 106.298 25.0078C106.128 24.7179 105.881 24.4809 105.583 24.3233C105.286 24.1656 104.951 24.0935 104.616 24.115H104.304C103.741 24.1235 103.187 24.2583 102.684 24.5094C102.471 24.976 102.279 25.4468 102.109 25.922L102.171 25.9842C102.344 25.9462 102.52 25.9254 102.697 25.922C103.012 25.9456 103.317 26.0378 103.593 26.192C103.868 26.3462 104.106 26.5588 104.29 26.8148C103.316 27.1203 102.299 27.263 101.278 27.2371H100.689C100.446 27.2623 100.2 27.2169 99.9815 27.1063C99.7631 26.9957 99.5812 26.8246 99.4574 26.6134C99.1537 25.8446 98.9927 25.0269 98.9823 24.2004C98.8932 23.005 98.7676 21.5853 98.6055 19.9414H98.4245L97.6978 21.2082C97.8592 22.8169 97.9734 24.0853 98.0402 25.0134C98.0737 25.7075 98.1653 26.3977 98.3141 27.0765C98.4475 27.6029 98.7703 28.0615 99.2207 28.3647C99.6224 28.636 100.094 28.7856 100.579 28.7953L100.592 28.8083H100.911C102.341 28.8243 103.749 28.4467 104.98 27.7169C104.994 27.7169 105.049 27.7763 105.146 27.897C105.396 28.2302 105.731 28.4906 106.116 28.6513C106.5 28.812 106.921 28.8672 107.334 28.8111H109.716C110.144 27.9823 110.374 27.0649 110.387 26.1317C110.362 25.1567 110.251 24.1858 110.054 23.2305L110.227 23.3131L110.304 23.2918L110.983 21.9275V21.817L110.103 21.2351C109.231 20.7321 108.795 20.2798 108.795 19.8783" fill="white"/>
<path d="M113.312 19.9497H113.07L112.259 21.598C112.695 23.9799 112.974 26.388 113.095 28.8065H113.337C113.702 28.0976 113.952 27.3355 114.079 26.5484C113.951 24.3361 113.697 22.1329 113.317 19.9497" fill="white"/>
<path d="M139.846 42.2118C139.846 42.2118 142.758 45.384 142.855 45.4991C143.657 44.3941 144.598 43.3961 145.653 42.5292L143.189 39.9649L145.695 37.5992C144.658 36.3103 143.717 34.9476 142.878 33.5221C142.878 33.5091 142.86 33.51 142.859 33.5221C142.753 35.3931 140.022 37.3514 140.022 37.3514L142.298 39.9575L139.846 42.2118Z" fill="white"/>
<path d="M124.673 30.0707C124.673 30.0707 123.383 34.1794 123.332 34.3204C124.689 34.4638 126.022 34.7794 127.299 35.2597L128.288 31.8434L131.588 32.8281C132.186 31.286 132.895 29.7894 133.709 28.35C133.72 28.3389 133.709 28.3278 133.698 28.3343C132.028 29.1779 128.965 27.7922 128.965 27.7922L127.845 31.0703L124.673 30.0707Z" fill="white"/>
<path d="M127.601 10.8628C127.601 10.8628 123.398 11.7992 123.249 11.8252C123.804 13.0723 124.197 14.385 124.419 15.7316L127.872 14.8796L128.669 18.229C130.304 17.9757 131.954 17.8417 133.608 17.8281C133.622 17.8281 133.628 17.8179 133.616 17.8105C132.048 16.7831 131.718 13.4401 131.718 13.4401L128.323 14.1074L127.601 10.8628Z" fill="white"/>
<path d="M145.702 3.789C145.702 3.789 142.79 0.616792 142.693 0.501709C141.891 1.6068 140.95 2.60484 139.895 3.4716L142.359 6.03591L139.853 8.40161C140.89 9.69053 141.831 11.0532 142.67 12.4787C142.67 12.4917 142.689 12.4908 142.69 12.4787C142.795 10.6077 145.526 8.65034 145.526 8.65034L143.25 6.04426L145.702 3.789Z" fill="white"/>
<path d="M160.877 15.9302C160.877 15.9302 162.167 11.8215 162.219 11.6804C160.861 11.5371 159.528 11.2215 158.251 10.7412L157.263 14.1575L153.962 13.1728C153.364 14.7149 152.655 16.2115 151.841 17.6508C151.83 17.662 151.841 17.6731 151.852 17.6666C153.522 16.823 156.585 18.2086 156.585 18.2086L157.704 14.9343L160.877 15.9302Z" fill="white"/>
<path d="M157.948 35.1417C157.948 35.1417 162.152 34.2052 162.299 34.1792C161.745 32.9321 161.352 31.6194 161.13 30.2729L157.677 31.1249L156.88 27.7754C155.246 28.0287 153.595 28.1628 151.941 28.1763C151.927 28.1763 151.921 28.1866 151.932 28.194C153.5 29.2214 153.83 32.5643 153.83 32.5643L157.225 31.897L157.948 35.1417Z" fill="white"/>
<path d="M136.281 2.30122C136.452 2.35381 136.598 2.63224 136.718 3.1365C136.876 3.62158 136.88 3.90341 136.731 3.98199L136.161 3.71377C136.016 3.62764 135.853 3.57708 135.685 3.56627C135.518 3.55546 135.35 3.5847 135.195 3.65159C134.67 3.92692 134.805 5.09724 135.601 7.16255C136.397 9.22786 136.691 10.2915 136.483 10.3533C136.257 10.4715 135.79 10.1727 135.08 9.45679C134.336 8.6086 133.346 8.01175 132.249 7.74818C132.248 7.85393 132.231 7.95891 132.197 8.05909C132.104 8.15499 131.731 8.19644 131.078 8.18345C130.426 8.17046 130.023 8.06249 129.872 7.85955C129.235 6.91661 129.161 6.31737 129.648 6.06184C130.529 5.55262 131.981 5.9978 134.005 7.39736C134.433 7.77826 134.883 8.1346 135.352 8.46466C134.981 7.4747 134.645 6.46865 134.345 5.44651C133.751 3.58167 133.782 2.50107 134.438 2.2047C134.733 2.07982 135.052 2.02378 135.372 2.04083C135.692 2.05788 136.003 2.14756 136.283 2.30307" fill="white"/>
<path d="M121.583 18.8667C121.714 18.743 122.028 18.756 122.525 18.9057C123.023 19.0106 123.267 19.1479 123.262 19.3178L122.745 19.6779C122.598 19.7597 122.473 19.8754 122.379 20.0153C122.286 20.1552 122.228 20.3154 122.209 20.4825C122.184 21.074 123.266 21.5424 125.452 21.8876C127.639 22.2329 128.707 22.5113 128.656 22.7229C128.646 22.9772 128.154 23.2324 127.178 23.4886C126.072 23.7095 125.06 24.2674 124.283 25.0858C124.374 25.1392 124.456 25.2069 124.526 25.2863C124.564 25.4156 124.413 25.7593 124.075 26.3174C123.736 26.8755 123.442 27.1709 123.19 27.2037C122.054 27.2842 121.498 27.0491 121.52 26.4984C121.52 25.4812 122.632 24.4458 124.855 23.3921C125.4 23.2118 125.933 23.0005 126.454 22.7591C125.412 22.589 124.373 22.3767 123.335 22.1225C121.425 21.7042 120.505 21.1362 120.576 20.4185C120.615 20.1009 120.726 19.7965 120.901 19.5282C121.075 19.26 121.309 19.035 121.583 18.8704" fill="white"/>
<path d="M128.747 39.3608C128.707 39.1869 128.876 38.9215 129.252 38.5645C129.592 38.1858 129.834 38.0417 129.977 38.132C129.977 38.132 129.995 38.3408 130.03 38.7603C130.027 38.9285 130.065 39.0949 130.14 39.2456C130.214 39.3964 130.324 39.5272 130.459 39.6272C130.96 39.9446 131.906 39.2423 133.297 37.5204C134.689 35.7985 135.462 35.0118 135.618 35.1603C135.832 35.2964 135.807 35.8508 135.541 36.8234C135.18 37.8924 135.157 39.0471 135.477 40.1293C135.569 40.0773 135.669 40.0403 135.773 40.0198C135.903 40.0519 136.125 40.3539 136.44 40.9256C136.755 41.4973 136.863 41.8995 136.764 42.1321C136.265 43.1555 135.783 43.5199 135.319 43.2254C134.438 42.7162 134.098 41.2358 134.298 38.7845C134.414 38.2226 134.498 37.6547 134.549 37.0833C133.881 37.9 133.177 38.6938 132.438 39.4647C131.121 40.9113 130.169 41.4243 129.583 41.0035C129.328 40.8108 129.12 40.5622 128.975 40.2769C128.83 39.9916 128.753 39.677 128.748 39.3571" fill="white"/>
<path d="M149.844 43.2755C149.673 43.2235 149.528 42.9451 149.407 42.4402C149.249 41.9551 149.245 41.6736 149.395 41.5956L149.966 41.8648C150.11 41.9507 150.273 42.0011 150.441 42.0117C150.609 42.0224 150.777 41.993 150.931 41.9261C151.456 41.6507 151.321 40.4804 150.525 38.4151C149.73 36.3498 149.436 35.2862 149.644 35.2243C149.868 35.1061 150.336 35.4053 151.046 36.1218C151.791 36.9696 152.78 37.5661 153.878 37.8295C153.878 37.724 153.896 37.6194 153.93 37.5195C154.023 37.423 154.396 37.3812 155.048 37.3942C155.7 37.4072 156.102 37.5151 156.255 37.7181C156.891 38.661 156.966 39.2603 156.478 39.5158C155.597 40.0244 154.145 39.5792 152.122 38.1803C151.693 37.7997 151.243 37.4437 150.774 37.1139C151.145 38.1002 151.481 39.1065 151.781 40.133C152.376 41.9972 152.345 43.0775 151.688 43.3739C151.394 43.499 151.074 43.5552 150.754 43.5382C150.435 43.5211 150.124 43.4313 149.844 43.2755Z" fill="white"/>
<path d="M164.209 27.1333C164.078 27.257 163.764 27.244 163.267 27.0943C162.769 26.9894 162.525 26.853 162.53 26.6822L163.047 26.323C163.194 26.241 163.319 26.1253 163.413 25.9854C163.506 25.8455 163.565 25.6854 163.584 25.5184C163.608 24.9263 162.527 24.4579 160.34 24.1133C158.154 23.7686 157.086 23.4902 157.136 23.278C157.147 23.0243 157.639 22.7691 158.614 22.5123C159.721 22.2916 160.732 21.7337 161.51 20.9151C161.419 20.8616 161.337 20.794 161.267 20.7146C161.23 20.5859 161.38 20.2425 161.718 19.6844C162.057 19.1263 162.352 18.8309 162.604 18.7981C163.739 18.7177 164.296 18.9528 164.274 19.5034C164.274 20.5212 163.163 21.5564 160.939 22.6088C160.394 22.7894 159.861 23.001 159.341 23.2427C160.382 23.4116 161.421 23.6235 162.459 23.8785C164.37 24.2967 165.289 24.8647 165.218 25.5824C165.179 25.9 165.068 26.2045 164.893 26.4727C164.719 26.741 164.486 26.9659 164.211 27.1305" fill="white"/>
<path d="M157.339 6.73196C157.378 6.90583 157.21 7.17126 156.834 7.52826C156.493 7.90785 156.251 8.05171 156.109 7.96168C156.109 7.96168 156.091 7.75193 156.055 7.33336C156.058 7.16521 156.02 6.99888 155.946 6.84814C155.871 6.6974 155.762 6.56659 155.626 6.46653C155.126 6.14912 154.18 6.85107 152.788 8.57237C151.397 10.2937 150.623 11.0801 150.468 10.9316C150.253 10.7961 150.279 10.242 150.544 9.26936C150.906 8.20005 150.928 7.04509 150.608 5.96258C150.516 6.01484 150.417 6.05212 150.313 6.07302C150.184 6.04023 149.961 5.73798 149.646 5.16628C149.33 4.59457 149.222 4.1924 149.322 3.95976C149.821 2.937 150.302 2.57257 150.767 2.86647C151.648 3.37568 151.988 4.85598 151.788 7.30738C151.672 7.86923 151.588 8.43721 151.536 9.00857C152.205 8.19185 152.908 7.39802 153.647 6.62709C154.964 5.18112 155.916 4.6682 156.502 5.08832C156.757 5.28119 156.965 5.52972 157.11 5.81502C157.254 6.10032 157.332 6.41487 157.337 6.73475" fill="white"/>
<path d="M151.619 25.8431C151.282 25.6533 150.926 25.4996 150.557 25.3846C149.614 25.0859 148.614 25.0128 147.637 25.1712C147.207 25.2404 146.784 25.3495 146.374 25.4969L146.248 25.5415C146.02 25.6287 145.796 25.7279 145.579 25.8385C145.388 25.9356 145.197 26.0411 145.008 26.1549C144.568 26.4218 144.143 26.7134 143.735 27.0283C143.495 25.0092 143.428 22.9733 143.535 20.9428C143.606 20.7238 143.776 20.6922 143.85 20.4602C143.883 20.3267 143.864 20.1853 143.796 20.0658C144.603 20.3702 145.088 21.1219 145.121 22.5001C145.285 22.2713 145.402 22.0119 145.464 21.7372C145.527 21.4625 145.533 21.1781 145.484 20.9008C145.434 20.6235 145.33 20.3589 145.176 20.1227C145.023 19.8865 144.824 19.6835 144.59 19.5256C145.461 19.7521 146.193 20.1892 146.347 22.0314C146.981 20.3163 146.207 18.8602 144.758 18.5344C145.4 18.5714 146.007 18.8376 146.469 19.2845C146.931 19.7315 147.217 20.3295 147.275 20.9697C147.39 20.5868 147.416 20.1829 147.352 19.7884C147.288 19.3939 147.135 19.0192 146.904 18.6925C146.674 18.3658 146.373 18.0957 146.023 17.9026C145.673 17.7094 145.284 17.5983 144.884 17.5775C145.306 17.463 145.75 17.4652 146.17 17.5839C146.59 17.7026 146.97 17.9333 147.269 18.2513C147.069 17.7427 146.698 17.32 146.219 17.0566C145.74 16.7932 145.184 16.7056 144.648 16.8091C144.787 16.5307 145.271 16.3311 146.121 16.2114C145.783 16.0586 145.41 15.9981 145.041 16.0361C144.672 16.0741 144.32 16.2092 144.02 16.4276C144.147 16.0218 144.426 15.6808 144.798 15.4763C144.511 15.4787 144.23 15.5559 143.982 15.7005C143.734 15.8451 143.529 16.0519 143.386 16.3005C143.408 15.8964 143.311 15.4945 143.107 15.145C143.003 15.2983 142.931 15.4714 142.896 15.6536C142.855 15.8678 142.833 16.0852 142.83 16.3033C142.687 16.0548 142.481 15.8481 142.233 15.7035C141.986 15.559 141.705 15.4816 141.418 15.4791C141.791 15.6838 142.069 16.0247 142.196 16.4304C141.896 16.2121 141.544 16.077 141.175 16.039C140.806 16.0011 140.434 16.0615 140.097 16.2142C140.946 16.3339 141.429 16.5344 141.568 16.8119C141.032 16.7084 140.476 16.796 139.997 17.0594C139.519 17.3228 139.147 17.7455 138.947 18.2541C139.246 17.9362 139.626 17.7055 140.046 17.5868C140.466 17.4681 140.911 17.4659 141.332 17.5803C140.933 17.6012 140.544 17.7125 140.194 17.9057C139.844 18.0989 139.543 18.369 139.312 18.6956C139.082 19.0223 138.929 19.3969 138.865 19.7913C138.8 20.1858 138.827 20.5896 138.941 20.9725C138.999 20.3322 139.286 19.7342 139.748 19.2873C140.21 18.8403 140.817 18.5741 141.459 18.5372C140.009 18.8629 139.232 20.3191 139.87 22.0342C140.023 20.191 140.755 19.7539 141.626 19.5284C141.393 19.6863 141.194 19.8894 141.04 20.1256C140.887 20.3618 140.782 20.6264 140.733 20.9036C140.683 21.1809 140.69 21.4652 140.752 21.7399C140.814 22.0146 140.931 22.274 141.095 22.5029C141.128 21.1247 141.613 20.3729 142.42 20.0685C142.352 20.1879 142.332 20.3295 142.367 20.463C142.44 20.6968 142.611 20.7275 142.682 20.9502C142.786 22.9792 142.719 25.0134 142.481 27.0311C141.718 26.4196 140.872 25.9197 139.968 25.5461C139.863 25.5071 139.761 25.471 139.659 25.4385C138.895 25.1832 138.091 25.069 137.286 25.1016C136.435 25.1361 135.601 25.3472 134.836 25.7215C134.743 25.7689 134.661 25.8143 134.598 25.8487C134.593 25.852 134.59 25.8568 134.589 25.8622C134.587 25.8677 134.588 25.8734 134.59 25.8784C134.593 25.8834 134.597 25.8875 134.602 25.8898C134.607 25.8922 134.613 25.8927 134.618 25.8914C134.691 25.8682 134.764 25.8477 134.836 25.8273C135.631 25.5982 136.462 25.5168 137.286 25.587C138.108 25.6643 138.91 25.8802 139.659 26.2255C140.679 26.709 141.63 27.3278 142.484 28.0649C141.592 28.9249 140.648 29.7307 139.659 30.478L139.567 30.5281C139.492 30.4258 139.391 30.3468 139.273 30.3006C139.155 30.2544 139.027 30.2428 138.903 30.2674C138.779 30.2919 138.665 30.3514 138.574 30.4389C138.482 30.5264 138.418 30.6382 138.389 30.7611C138.363 30.8594 138.361 30.9624 138.384 31.0615C138.406 31.1606 138.452 31.253 138.517 31.3309C138.662 31.4797 138.853 31.5765 139.059 31.6065C139.265 31.6365 139.475 31.5981 139.657 31.497C140.807 30.7674 141.858 29.892 142.784 28.8928C142.889 28.7957 142.996 28.6985 143.105 28.6014C143.214 28.6942 143.321 28.7944 143.425 28.8909C144 29.4153 144.525 29.9286 145.003 30.3638C145.202 30.543 145.391 30.71 145.574 30.8585C145.821 31.0677 146.087 31.2523 146.369 31.4098C146.553 31.5457 146.777 31.6168 147.006 31.6117C147.234 31.6067 147.455 31.5259 147.633 31.3819C147.653 31.3657 147.673 31.3484 147.691 31.33C147.75 31.2487 147.792 31.1562 147.814 31.0583C147.836 30.9603 147.838 30.8589 147.82 30.7601C147.79 30.6408 147.729 30.532 147.641 30.4457C147.554 30.3594 147.444 30.2989 147.324 30.271C147.198 30.2421 147.066 30.2511 146.945 30.2968C146.823 30.3425 146.718 30.423 146.642 30.5281C146.548 30.4787 146.456 30.4233 146.368 30.362C146.092 30.1626 145.826 29.9482 145.573 29.7197C145.394 29.5629 145.202 29.3912 145.002 29.2084C144.612 28.8529 144.183 28.4603 143.726 28.0631C144.135 27.7202 144.561 27.3983 145.002 27.0988C145.188 26.9726 145.379 26.8519 145.573 26.735C145.831 26.5816 146.096 26.4396 146.368 26.309C146.775 26.1129 147.198 25.9511 147.632 25.8255C148.579 25.5484 149.576 25.485 150.551 25.6399C150.904 25.6962 151.251 25.7781 151.592 25.8849C151.597 25.8862 151.603 25.8857 151.608 25.8833C151.613 25.881 151.617 25.8769 151.619 25.8719C151.622 25.8669 151.622 25.8612 151.621 25.8557C151.62 25.8503 151.617 25.8455 151.612 25.8422" fill="white"/>
</g>
</g>
</g>
</g>
<defs>
<clipPath id="clip0_14_18">
<rect width="165.2" height="45" fill="white" transform="translate(0.0200195 0.5)"/>
</clipPath>
<clipPath id="clip1_14_18">
<rect width="165.2" height="45" fill="white" transform="translate(0.0200195 0.5)"/>
</clipPath>
<clipPath id="clip2_14_18">
<rect width="165.2" height="44.9966" fill="white" transform="translate(0.0200195 0.501709)"/>
</clipPath>
</defs>
</svg>
